ISO-10303-21;
HEADER;
/* Generated by software containing ST-Developer
 * from STEP Tools, Inc. (www.steptools.com) 
 */
/* OPTION: using custom renumber hook */

FILE_DESCRIPTION(
/* description */ ('STEP AP242 Edition 2',
'CAx-IF Rec.Pracs.---Representation and Presentation of Product Manufa
cturing Information (PMI)---4.0---2014-10-13',
'CAx-IF Rec.Pracs.---3D Tessellated Geometry---0.4---2014-09-14','2;1',
'CAx-IF Rec.Pracs.---User Defined Attributes---1.5---2016-08-15'),
/* implementation_level */ '2;1');

FILE_NAME(
/* name */ 'Fuselage Design v6 - Back Top',
/* time_stamp */ '2026-08-06T02:45:22Z',
/* author */ (''),
/* organization */ (''),
/* preprocessor_version */ 'ST-DEVELOPER v20',
/* originating_system */ 'ONSHAPE BY PTC INC, 1.218',
/* authorisation */ '  ');

FILE_SCHEMA (('AP242_MANAGED_MODEL_BASED_3D_ENGINEERING_MIM_LF { 1 0 10303 442 3 1 4 }'));
ENDSEC;

DATA;
#10=SHAPE_REPRESENTATION_RELATIONSHIP('','',#1155,#11);
#11=ADVANCED_BREP_SHAPE_REPRESENTATION('',(#1153),#1945);
#12=TOROIDAL_SURFACE('',#1250,0.001,0.001);
#13=TOROIDAL_SURFACE('',#1257,0.001,0.001);
#14=B_SPLINE_CURVE_WITH_KNOTS('',3,(#1901,#1902,#1903,#1904,#1905,#1906,
#1907),.UNSPECIFIED.,.F.,.F.,(4,1,1,1,4),(0.,0.000942234837479585,0.00188446967495917,
0.00282670451243876,0.00376893934991834),.UNSPECIFIED.);
#15=B_SPLINE_CURVE_WITH_KNOTS('',3,(#1910,#1911,#1912,#1913,#1914,#1915,
#1916),.UNSPECIFIED.,.F.,.F.,(4,1,1,1,4),(0.,0.000931968929052124,0.00186393785810425,
0.00279590678715637,0.0037278757162085),.UNSPECIFIED.);
#16=CYLINDRICAL_SURFACE('',#1230,0.0015);
#17=CYLINDRICAL_SURFACE('',#1231,0.0015);
#18=CYLINDRICAL_SURFACE('',#1232,0.0015);
#19=CYLINDRICAL_SURFACE('',#1233,0.0015);
#20=CYLINDRICAL_SURFACE('',#1234,0.0015);
#21=CYLINDRICAL_SURFACE('',#1235,0.0015);
#22=CYLINDRICAL_SURFACE('',#1236,0.002);
#23=CYLINDRICAL_SURFACE('',#1238,0.002);
#24=CYLINDRICAL_SURFACE('',#1239,0.002);
#25=CYLINDRICAL_SURFACE('',#1241,0.002);
#26=CYLINDRICAL_SURFACE('',#1242,0.002);
#27=CYLINDRICAL_SURFACE('',#1244,0.002);
#28=CYLINDRICAL_SURFACE('',#1246,0.002);
#29=CYLINDRICAL_SURFACE('',#1247,0.002);
#30=CYLINDRICAL_SURFACE('',#1248,0.001);
#31=CYLINDRICAL_SURFACE('',#1252,0.001);
#32=CYLINDRICAL_SURFACE('',#1254,0.001);
#33=CYLINDRICAL_SURFACE('',#1255,0.001);
#34=CYLINDRICAL_SURFACE('',#1259,0.001);
#35=CYLINDRICAL_SURFACE('',#1261,0.001);
#36=CYLINDRICAL_SURFACE('',#1262,0.008);
#37=CYLINDRICAL_SURFACE('',#1264,0.008);
#38=CYLINDRICAL_SURFACE('',#1266,0.008);
#39=CYLINDRICAL_SURFACE('',#1268,0.008);
#40=CYLINDRICAL_SURFACE('',#1270,0.008);
#41=ELLIPSE('',#1161,0.0238146521472735,0.008);
#42=ELLIPSE('',#1162,0.0238146521472735,0.008);
#43=ELLIPSE('',#1201,0.00849358070633512,0.008);
#44=ELLIPSE('',#1202,0.00849358070633512,0.008);
#45=ELLIPSE('',#1212,0.00849358070633512,0.008);
#46=ELLIPSE('',#1214,0.0238146521472735,0.008);
#47=ELLIPSE('',#1222,0.0238146521472735,0.008);
#48=ELLIPSE('',#1225,0.00849358070633512,0.008);
#49=ELLIPSE('',#1237,0.00282842712474619,0.002);
#50=ELLIPSE('',#1240,0.00282842712474619,0.002);
#51=ELLIPSE('',#1253,0.00141421356237309,0.001);
#52=ELLIPSE('',#1260,0.00141421356237309,0.001);
#53=ELLIPSE('',#1263,0.00811882011017696,0.008);
#54=ELLIPSE('',#1265,0.0113137084989848,0.008);
#55=ELLIPSE('',#1267,0.0113137084989848,0.008);
#56=ELLIPSE('',#1269,0.00811882011017696,0.008);
#57=CIRCLE('',#1158,0.002);
#58=CIRCLE('',#1164,0.002);
#59=CIRCLE('',#1165,0.002);
#60=CIRCLE('',#1166,0.002);
#61=CIRCLE('',#1167,0.001);
#62=CIRCLE('',#1168,0.001);
#63=CIRCLE('',#1169,0.008);
#64=CIRCLE('',#1170,0.008);
#65=CIRCLE('',#1171,0.001);
#66=CIRCLE('',#1172,0.001);
#67=CIRCLE('',#1173,0.002);
#68=CIRCLE('',#1177,0.0015);
#69=CIRCLE('',#1178,0.0015);
#70=CIRCLE('',#1179,0.0015);
#71=CIRCLE('',#1183,0.0015);
#72=CIRCLE('',#1184,0.0015);
#73=CIRCLE('',#1185,0.0015);
#74=CIRCLE('',#1207,0.002);
#75=CIRCLE('',#1209,0.001);
#76=CIRCLE('',#1211,0.002);
#77=CIRCLE('',#1216,0.0015);
#78=CIRCLE('',#1217,0.0015);
#79=CIRCLE('',#1218,0.0015);
#80=CIRCLE('',#1220,0.001);
#81=CIRCLE('',#1224,0.002);
#82=CIRCLE('',#1227,0.0015);
#83=CIRCLE('',#1228,0.0015);
#84=CIRCLE('',#1229,0.0015);
#85=CIRCLE('',#1243,0.002);
#86=CIRCLE('',#1245,0.002);
#87=CIRCLE('',#1249,0.001);
#88=CIRCLE('',#1251,0.001);
#89=CIRCLE('',#1256,0.001);
#90=CIRCLE('',#1258,0.001);
#91=ORIENTED_EDGE('',*,*,#407,.T.);
#92=ORIENTED_EDGE('',*,*,#408,.T.);
#93=ORIENTED_EDGE('',*,*,#409,.F.);
#94=ORIENTED_EDGE('',*,*,#410,.T.);
#95=ORIENTED_EDGE('',*,*,#411,.T.);
#96=ORIENTED_EDGE('',*,*,#412,.T.);
#97=ORIENTED_EDGE('',*,*,#413,.T.);
#98=ORIENTED_EDGE('',*,*,#414,.T.);
#99=ORIENTED_EDGE('',*,*,#415,.T.);
#100=ORIENTED_EDGE('',*,*,#416,.T.);
#101=ORIENTED_EDGE('',*,*,#417,.T.);
#102=ORIENTED_EDGE('',*,*,#418,.T.);
#103=ORIENTED_EDGE('',*,*,#419,.F.);
#104=ORIENTED_EDGE('',*,*,#420,.T.);
#105=ORIENTED_EDGE('',*,*,#407,.F.);
#106=ORIENTED_EDGE('',*,*,#421,.T.);
#107=ORIENTED_EDGE('',*,*,#422,.T.);
#108=ORIENTED_EDGE('',*,*,#423,.F.);
#109=ORIENTED_EDGE('',*,*,#424,.T.);
#110=ORIENTED_EDGE('',*,*,#425,.T.);
#111=ORIENTED_EDGE('',*,*,#426,.F.);
#112=ORIENTED_EDGE('',*,*,#427,.F.);
#113=ORIENTED_EDGE('',*,*,#428,.T.);
#114=ORIENTED_EDGE('',*,*,#429,.T.);
#115=ORIENTED_EDGE('',*,*,#427,.T.);
#116=ORIENTED_EDGE('',*,*,#430,.T.);
#117=ORIENTED_EDGE('',*,*,#431,.T.);
#118=ORIENTED_EDGE('',*,*,#432,.T.);
#119=ORIENTED_EDGE('',*,*,#433,.T.);
#120=ORIENTED_EDGE('',*,*,#434,.T.);
#121=ORIENTED_EDGE('',*,*,#435,.T.);
#122=ORIENTED_EDGE('',*,*,#436,.F.);
#123=ORIENTED_EDGE('',*,*,#423,.T.);
#124=ORIENTED_EDGE('',*,*,#437,.T.);
#125=ORIENTED_EDGE('',*,*,#438,.F.);
#126=ORIENTED_EDGE('',*,*,#439,.T.);
#127=ORIENTED_EDGE('',*,*,#440,.T.);
#128=ORIENTED_EDGE('',*,*,#441,.F.);
#129=ORIENTED_EDGE('',*,*,#442,.T.);
#130=ORIENTED_EDGE('',*,*,#443,.F.);
#131=ORIENTED_EDGE('',*,*,#444,.T.);
#132=ORIENTED_EDGE('',*,*,#445,.T.);
#133=ORIENTED_EDGE('',*,*,#446,.T.);
#134=ORIENTED_EDGE('',*,*,#447,.T.);
#135=ORIENTED_EDGE('',*,*,#411,.F.);
#136=ORIENTED_EDGE('',*,*,#448,.T.);
#137=ORIENTED_EDGE('',*,*,#449,.T.);
#138=ORIENTED_EDGE('',*,*,#450,.T.);
#139=ORIENTED_EDGE('',*,*,#451,.T.);
#140=ORIENTED_EDGE('',*,*,#452,.T.);
#141=ORIENTED_EDGE('',*,*,#453,.T.);
#142=ORIENTED_EDGE('',*,*,#454,.F.);
#143=ORIENTED_EDGE('',*,*,#425,.F.);
#144=ORIENTED_EDGE('',*,*,#455,.T.);
#145=ORIENTED_EDGE('',*,*,#456,.T.);
#146=ORIENTED_EDGE('',*,*,#457,.F.);
#147=ORIENTED_EDGE('',*,*,#458,.F.);
#148=ORIENTED_EDGE('',*,*,#453,.F.);
#149=ORIENTED_EDGE('',*,*,#459,.T.);
#150=ORIENTED_EDGE('',*,*,#460,.F.);
#151=ORIENTED_EDGE('',*,*,#461,.F.);
#152=ORIENTED_EDGE('',*,*,#462,.F.);
#153=ORIENTED_EDGE('',*,*,#463,.F.);
#154=ORIENTED_EDGE('',*,*,#430,.F.);
#155=ORIENTED_EDGE('',*,*,#426,.T.);
#156=ORIENTED_EDGE('',*,*,#454,.T.);
#157=ORIENTED_EDGE('',*,*,#458,.T.);
#158=ORIENTED_EDGE('',*,*,#464,.T.);
#159=ORIENTED_EDGE('',*,*,#465,.T.);
#160=ORIENTED_EDGE('',*,*,#466,.F.);
#161=ORIENTED_EDGE('',*,*,#467,.T.);
#162=ORIENTED_EDGE('',*,*,#460,.T.);
#163=ORIENTED_EDGE('',*,*,#468,.F.);
#164=ORIENTED_EDGE('',*,*,#464,.F.);
#165=ORIENTED_EDGE('',*,*,#457,.T.);
#166=ORIENTED_EDGE('',*,*,#469,.T.);
#167=ORIENTED_EDGE('',*,*,#470,.T.);
#168=ORIENTED_EDGE('',*,*,#471,.T.);
#169=ORIENTED_EDGE('',*,*,#472,.T.);
#170=ORIENTED_EDGE('',*,*,#424,.F.);
#171=ORIENTED_EDGE('',*,*,#436,.T.);
#172=ORIENTED_EDGE('',*,*,#473,.T.);
#173=ORIENTED_EDGE('',*,*,#474,.T.);
#174=ORIENTED_EDGE('',*,*,#468,.T.);
#175=ORIENTED_EDGE('',*,*,#459,.F.);
#176=ORIENTED_EDGE('',*,*,#455,.F.);
#177=ORIENTED_EDGE('',*,*,#475,.T.);
#178=ORIENTED_EDGE('',*,*,#476,.T.);
#179=ORIENTED_EDGE('',*,*,#477,.T.);
#180=ORIENTED_EDGE('',*,*,#478,.T.);
#181=ORIENTED_EDGE('',*,*,#479,.F.);
#182=ORIENTED_EDGE('',*,*,#480,.F.);
#183=ORIENTED_EDGE('',*,*,#481,.F.);
#184=ORIENTED_EDGE('',*,*,#482,.F.);
#185=ORIENTED_EDGE('',*,*,#483,.F.);
#186=ORIENTED_EDGE('',*,*,#478,.F.);
#187=ORIENTED_EDGE('',*,*,#480,.T.);
#188=ORIENTED_EDGE('',*,*,#484,.F.);
#189=ORIENTED_EDGE('',*,*,#481,.T.);
#190=ORIENTED_EDGE('',*,*,#477,.F.);
#191=ORIENTED_EDGE('',*,*,#485,.F.);
#192=ORIENTED_EDGE('',*,*,#474,.F.);
#193=ORIENTED_EDGE('',*,*,#486,.F.);
#194=ORIENTED_EDGE('',*,*,#487,.F.);
#195=ORIENTED_EDGE('',*,*,#483,.T.);
#196=ORIENTED_EDGE('',*,*,#467,.F.);
#197=ORIENTED_EDGE('',*,*,#485,.T.);
#198=ORIENTED_EDGE('',*,*,#488,.F.);
#199=ORIENTED_EDGE('',*,*,#489,.F.);
#200=ORIENTED_EDGE('',*,*,#465,.F.);
#201=ORIENTED_EDGE('',*,*,#490,.F.);
#202=ORIENTED_EDGE('',*,*,#475,.F.);
#203=ORIENTED_EDGE('',*,*,#487,.T.);
#204=ORIENTED_EDGE('',*,*,#488,.T.);
#205=ORIENTED_EDGE('',*,*,#476,.F.);
#206=ORIENTED_EDGE('',*,*,#491,.F.);
#207=ORIENTED_EDGE('',*,*,#456,.F.);
#208=ORIENTED_EDGE('',*,*,#491,.T.);
#209=ORIENTED_EDGE('',*,*,#490,.T.);
#210=ORIENTED_EDGE('',*,*,#469,.F.);
#211=ORIENTED_EDGE('',*,*,#489,.T.);
#212=ORIENTED_EDGE('',*,*,#492,.F.);
#213=ORIENTED_EDGE('',*,*,#431,.F.);
#214=ORIENTED_EDGE('',*,*,#466,.T.);
#215=ORIENTED_EDGE('',*,*,#486,.T.);
#216=ORIENTED_EDGE('',*,*,#493,.F.);
#217=ORIENTED_EDGE('',*,*,#432,.F.);
#218=ORIENTED_EDGE('',*,*,#492,.T.);
#219=ORIENTED_EDGE('',*,*,#482,.T.);
#220=ORIENTED_EDGE('',*,*,#494,.F.);
#221=ORIENTED_EDGE('',*,*,#433,.F.);
#222=ORIENTED_EDGE('',*,*,#493,.T.);
#223=ORIENTED_EDGE('',*,*,#479,.T.);
#224=ORIENTED_EDGE('',*,*,#495,.F.);
#225=ORIENTED_EDGE('',*,*,#434,.F.);
#226=ORIENTED_EDGE('',*,*,#494,.T.);
#227=ORIENTED_EDGE('',*,*,#484,.T.);
#228=ORIENTED_EDGE('',*,*,#473,.F.);
#229=ORIENTED_EDGE('',*,*,#435,.F.);
#230=ORIENTED_EDGE('',*,*,#495,.T.);
#231=ORIENTED_EDGE('',*,*,#419,.T.);
#232=ORIENTED_EDGE('',*,*,#496,.T.);
#233=ORIENTED_EDGE('',*,*,#497,.T.);
#234=ORIENTED_EDGE('',*,*,#498,.T.);
#235=ORIENTED_EDGE('',*,*,#499,.T.);
#236=ORIENTED_EDGE('',*,*,#500,.T.);
#237=ORIENTED_EDGE('',*,*,#501,.F.);
#238=ORIENTED_EDGE('',*,*,#502,.T.);
#239=ORIENTED_EDGE('',*,*,#501,.T.);
#240=ORIENTED_EDGE('',*,*,#503,.T.);
#241=ORIENTED_EDGE('',*,*,#446,.F.);
#242=ORIENTED_EDGE('',*,*,#504,.T.);
#243=ORIENTED_EDGE('',*,*,#505,.F.);
#244=ORIENTED_EDGE('',*,*,#506,.T.);
#245=ORIENTED_EDGE('',*,*,#507,.T.);
#246=ORIENTED_EDGE('',*,*,#444,.F.);
#247=ORIENTED_EDGE('',*,*,#508,.T.);
#248=ORIENTED_EDGE('',*,*,#509,.T.);
#249=ORIENTED_EDGE('',*,*,#417,.F.);
#250=ORIENTED_EDGE('',*,*,#510,.T.);
#251=ORIENTED_EDGE('',*,*,#450,.F.);
#252=ORIENTED_EDGE('',*,*,#511,.T.);
#253=ORIENTED_EDGE('',*,*,#512,.T.);
#254=ORIENTED_EDGE('',*,*,#513,.T.);
#255=ORIENTED_EDGE('',*,*,#514,.T.);
#256=ORIENTED_EDGE('',*,*,#515,.T.);
#257=ORIENTED_EDGE('',*,*,#516,.T.);
#258=ORIENTED_EDGE('',*,*,#517,.T.);
#259=ORIENTED_EDGE('',*,*,#518,.T.);
#260=ORIENTED_EDGE('',*,*,#508,.F.);
#261=ORIENTED_EDGE('',*,*,#519,.T.);
#262=ORIENTED_EDGE('',*,*,#520,.F.);
#263=ORIENTED_EDGE('',*,*,#521,.T.);
#264=ORIENTED_EDGE('',*,*,#522,.T.);
#265=ORIENTED_EDGE('',*,*,#448,.F.);
#266=ORIENTED_EDGE('',*,*,#414,.F.);
#267=ORIENTED_EDGE('',*,*,#523,.T.);
#268=ORIENTED_EDGE('',*,*,#524,.F.);
#269=ORIENTED_EDGE('',*,*,#525,.F.);
#270=ORIENTED_EDGE('',*,*,#526,.F.);
#271=ORIENTED_EDGE('',*,*,#520,.T.);
#272=ORIENTED_EDGE('',*,*,#527,.T.);
#273=ORIENTED_EDGE('',*,*,#428,.F.);
#274=ORIENTED_EDGE('',*,*,#528,.T.);
#275=ORIENTED_EDGE('',*,*,#529,.T.);
#276=ORIENTED_EDGE('',*,*,#530,.T.);
#277=ORIENTED_EDGE('',*,*,#441,.T.);
#278=ORIENTED_EDGE('',*,*,#531,.T.);
#279=ORIENTED_EDGE('',*,*,#532,.T.);
#280=ORIENTED_EDGE('',*,*,#443,.T.);
#281=ORIENTED_EDGE('',*,*,#533,.T.);
#282=ORIENTED_EDGE('',*,*,#534,.T.);
#283=ORIENTED_EDGE('',*,*,#535,.T.);
#284=ORIENTED_EDGE('',*,*,#505,.T.);
#285=ORIENTED_EDGE('',*,*,#536,.T.);
#286=ORIENTED_EDGE('',*,*,#537,.T.);
#287=ORIENTED_EDGE('',*,*,#538,.T.);
#288=ORIENTED_EDGE('',*,*,#539,.T.);
#289=ORIENTED_EDGE('',*,*,#540,.T.);
#290=ORIENTED_EDGE('',*,*,#409,.T.);
#291=ORIENTED_EDGE('',*,*,#541,.T.);
#292=ORIENTED_EDGE('',*,*,#542,.T.);
#293=ORIENTED_EDGE('',*,*,#543,.T.);
#294=ORIENTED_EDGE('',*,*,#544,.T.);
#295=ORIENTED_EDGE('',*,*,#438,.T.);
#296=ORIENTED_EDGE('',*,*,#545,.T.);
#297=ORIENTED_EDGE('',*,*,#539,.F.);
#298=ORIENTED_EDGE('',*,*,#546,.T.);
#299=ORIENTED_EDGE('',*,*,#544,.F.);
#300=ORIENTED_EDGE('',*,*,#472,.F.);
#301=ORIENTED_EDGE('',*,*,#543,.F.);
#302=ORIENTED_EDGE('',*,*,#471,.F.);
#303=ORIENTED_EDGE('',*,*,#542,.F.);
#304=ORIENTED_EDGE('',*,*,#470,.F.);
#305=ORIENTED_EDGE('',*,*,#526,.T.);
#306=ORIENTED_EDGE('',*,*,#463,.T.);
#307=ORIENTED_EDGE('',*,*,#525,.T.);
#308=ORIENTED_EDGE('',*,*,#462,.T.);
#309=ORIENTED_EDGE('',*,*,#524,.T.);
#310=ORIENTED_EDGE('',*,*,#461,.T.);
#311=ORIENTED_EDGE('',*,*,#437,.F.);
#312=ORIENTED_EDGE('',*,*,#422,.F.);
#313=ORIENTED_EDGE('',*,*,#547,.F.);
#314=ORIENTED_EDGE('',*,*,#545,.F.);
#315=ORIENTED_EDGE('',*,*,#547,.T.);
#316=ORIENTED_EDGE('',*,*,#421,.F.);
#317=ORIENTED_EDGE('',*,*,#410,.F.);
#318=ORIENTED_EDGE('',*,*,#540,.F.);
#319=ORIENTED_EDGE('',*,*,#429,.F.);
#320=ORIENTED_EDGE('',*,*,#527,.F.);
#321=ORIENTED_EDGE('',*,*,#548,.F.);
#322=ORIENTED_EDGE('',*,*,#415,.F.);
#323=ORIENTED_EDGE('',*,*,#510,.F.);
#324=ORIENTED_EDGE('',*,*,#416,.F.);
#325=ORIENTED_EDGE('',*,*,#548,.T.);
#326=ORIENTED_EDGE('',*,*,#519,.F.);
#327=ORIENTED_EDGE('',*,*,#517,.F.);
#328=ORIENTED_EDGE('',*,*,#549,.T.);
#329=ORIENTED_EDGE('',*,*,#521,.F.);
#330=ORIENTED_EDGE('',*,*,#550,.T.);
#331=ORIENTED_EDGE('',*,*,#534,.F.);
#332=ORIENTED_EDGE('',*,*,#551,.T.);
#333=ORIENTED_EDGE('',*,*,#536,.F.);
#334=ORIENTED_EDGE('',*,*,#552,.T.);
#335=ORIENTED_EDGE('',*,*,#515,.F.);
#336=ORIENTED_EDGE('',*,*,#528,.F.);
#337=ORIENTED_EDGE('',*,*,#452,.F.);
#338=ORIENTED_EDGE('',*,*,#553,.F.);
#339=ORIENTED_EDGE('',*,*,#538,.F.);
#340=ORIENTED_EDGE('',*,*,#554,.F.);
#341=ORIENTED_EDGE('',*,*,#439,.F.);
#342=ORIENTED_EDGE('',*,*,#546,.F.);
#343=ORIENTED_EDGE('',*,*,#449,.F.);
#344=ORIENTED_EDGE('',*,*,#522,.F.);
#345=ORIENTED_EDGE('',*,*,#555,.F.);
#346=ORIENTED_EDGE('',*,*,#511,.F.);
#347=ORIENTED_EDGE('',*,*,#555,.T.);
#348=ORIENTED_EDGE('',*,*,#549,.F.);
#349=ORIENTED_EDGE('',*,*,#556,.F.);
#350=ORIENTED_EDGE('',*,*,#512,.F.);
#351=ORIENTED_EDGE('',*,*,#451,.F.);
#352=ORIENTED_EDGE('',*,*,#514,.F.);
#353=ORIENTED_EDGE('',*,*,#557,.F.);
#354=ORIENTED_EDGE('',*,*,#553,.T.);
#355=ORIENTED_EDGE('',*,*,#556,.T.);
#356=ORIENTED_EDGE('',*,*,#516,.F.);
#357=ORIENTED_EDGE('',*,*,#557,.T.);
#358=ORIENTED_EDGE('',*,*,#513,.F.);
#359=ORIENTED_EDGE('',*,*,#442,.F.);
#360=ORIENTED_EDGE('',*,*,#530,.F.);
#361=ORIENTED_EDGE('',*,*,#558,.F.);
#362=ORIENTED_EDGE('',*,*,#533,.F.);
#363=ORIENTED_EDGE('',*,*,#558,.T.);
#364=ORIENTED_EDGE('',*,*,#529,.F.);
#365=ORIENTED_EDGE('',*,*,#559,.F.);
#366=ORIENTED_EDGE('',*,*,#551,.F.);
#367=ORIENTED_EDGE('',*,*,#440,.F.);
#368=ORIENTED_EDGE('',*,*,#554,.T.);
#369=ORIENTED_EDGE('',*,*,#560,.F.);
#370=ORIENTED_EDGE('',*,*,#531,.F.);
#371=ORIENTED_EDGE('',*,*,#559,.T.);
#372=ORIENTED_EDGE('',*,*,#532,.F.);
#373=ORIENTED_EDGE('',*,*,#560,.T.);
#374=ORIENTED_EDGE('',*,*,#537,.F.);
#375=ORIENTED_EDGE('',*,*,#445,.F.);
#376=ORIENTED_EDGE('',*,*,#507,.F.);
#377=ORIENTED_EDGE('',*,*,#561,.F.);
#378=ORIENTED_EDGE('',*,*,#504,.F.);
#379=ORIENTED_EDGE('',*,*,#420,.F.);
#380=ORIENTED_EDGE('',*,*,#498,.F.);
#381=ORIENTED_EDGE('',*,*,#562,.F.);
#382=ORIENTED_EDGE('',*,*,#502,.F.);
#383=ORIENTED_EDGE('',*,*,#561,.T.);
#384=ORIENTED_EDGE('',*,*,#506,.F.);
#385=ORIENTED_EDGE('',*,*,#535,.F.);
#386=ORIENTED_EDGE('',*,*,#552,.F.);
#387=ORIENTED_EDGE('',*,*,#541,.F.);
#388=ORIENTED_EDGE('',*,*,#408,.F.);
#389=ORIENTED_EDGE('',*,*,#562,.T.);
#390=ORIENTED_EDGE('',*,*,#497,.F.);
#391=ORIENTED_EDGE('',*,*,#563,.F.);
#392=ORIENTED_EDGE('',*,*,#499,.F.);
#393=ORIENTED_EDGE('',*,*,#523,.F.);
#394=ORIENTED_EDGE('',*,*,#413,.F.);
#395=ORIENTED_EDGE('',*,*,#564,.F.);
#396=ORIENTED_EDGE('',*,*,#500,.F.);
#397=ORIENTED_EDGE('',*,*,#563,.T.);
#398=ORIENTED_EDGE('',*,*,#496,.F.);
#399=ORIENTED_EDGE('',*,*,#418,.F.);
#400=ORIENTED_EDGE('',*,*,#509,.F.);
#401=ORIENTED_EDGE('',*,*,#518,.F.);
#402=ORIENTED_EDGE('',*,*,#550,.F.);
#403=ORIENTED_EDGE('',*,*,#447,.F.);
#404=ORIENTED_EDGE('',*,*,#503,.F.);
#405=ORIENTED_EDGE('',*,*,#564,.T.);
#406=ORIENTED_EDGE('',*,*,#412,.F.);
#407=EDGE_CURVE('',#565,#566,#667,.T.);
#408=EDGE_CURVE('',#566,#567,#668,.F.);
#409=EDGE_CURVE('',#568,#567,#669,.T.);
#410=EDGE_CURVE('',#568,#565,#57,.T.);
#411=EDGE_CURVE('',#569,#570,#670,.T.);
#412=EDGE_CURVE('',#570,#571,#671,.T.);
#413=EDGE_CURVE('',#571,#572,#672,.T.);
#414=EDGE_CURVE('',#572,#569,#673,.T.);
#415=EDGE_CURVE('',#573,#574,#674,.F.);
#416=EDGE_CURVE('',#574,#575,#675,.F.);
#417=EDGE_CURVE('',#575,#576,#676,.T.);
#418=EDGE_CURVE('',#576,#577,#41,.F.);
#419=EDGE_CURVE('',#578,#577,#677,.T.);
#420=EDGE_CURVE('',#578,#566,#42,.F.);
#421=EDGE_CURVE('',#565,#579,#678,.F.);
#422=EDGE_CURVE('',#579,#580,#679,.T.);
#423=EDGE_CURVE('',#581,#580,#680,.T.);
#424=EDGE_CURVE('',#581,#582,#681,.T.);
#425=EDGE_CURVE('',#582,#583,#682,.T.);
#426=EDGE_CURVE('',#584,#583,#683,.T.);
#427=EDGE_CURVE('',#573,#584,#684,.T.);
#428=EDGE_CURVE('',#585,#586,#685,.T.);
#429=EDGE_CURVE('',#586,#573,#58,.F.);
#430=EDGE_CURVE('',#584,#587,#686,.T.);
#431=EDGE_CURVE('',#587,#588,#687,.T.);
#432=EDGE_CURVE('',#588,#589,#688,.T.);
#433=EDGE_CURVE('',#589,#590,#689,.T.);
#434=EDGE_CURVE('',#590,#591,#690,.T.);
#435=EDGE_CURVE('',#591,#592,#691,.F.);
#436=EDGE_CURVE('',#581,#592,#692,.T.);
#437=EDGE_CURVE('',#580,#593,#59,.F.);
#438=EDGE_CURVE('',#594,#593,#693,.T.);
#439=EDGE_CURVE('',#594,#595,#60,.F.);
#440=EDGE_CURVE('',#595,#596,#61,.T.);
#441=EDGE_CURVE('',#597,#596,#694,.T.);
#442=EDGE_CURVE('',#597,#598,#62,.T.);
#443=EDGE_CURVE('',#599,#598,#695,.T.);
#444=EDGE_CURVE('',#599,#600,#696,.T.);
#445=EDGE_CURVE('',#600,#601,#63,.T.);
#446=EDGE_CURVE('',#601,#602,#697,.T.);
#447=EDGE_CURVE('',#602,#570,#64,.T.);
#448=EDGE_CURVE('',#569,#603,#698,.T.);
#449=EDGE_CURVE('',#603,#604,#65,.T.);
#450=EDGE_CURVE('',#604,#605,#699,.T.);
#451=EDGE_CURVE('',#605,#606,#66,.T.);
#452=EDGE_CURVE('',#606,#585,#67,.F.);
#453=EDGE_CURVE('',#607,#608,#700,.T.);
#454=EDGE_CURVE('',#583,#608,#701,.T.);
#455=EDGE_CURVE('',#582,#607,#702,.T.);
#456=EDGE_CURVE('',#609,#610,#703,.T.);
#457=EDGE_CURVE('',#611,#610,#704,.T.);
#458=EDGE_CURVE('',#608,#611,#705,.T.);
#459=EDGE_CURVE('',#607,#612,#706,.T.);
#460=EDGE_CURVE('',#609,#612,#707,.F.);
#461=EDGE_CURVE('',#613,#613,#68,.T.);
#462=EDGE_CURVE('',#614,#614,#69,.T.);
#463=EDGE_CURVE('',#615,#615,#70,.T.);
#464=EDGE_CURVE('',#611,#616,#708,.T.);
#465=EDGE_CURVE('',#616,#617,#709,.T.);
#466=EDGE_CURVE('',#587,#617,#710,.T.);
#467=EDGE_CURVE('',#618,#609,#711,.T.);
#468=EDGE_CURVE('',#618,#612,#712,.T.);
#469=EDGE_CURVE('',#610,#616,#713,.F.);
#470=EDGE_CURVE('',#619,#619,#71,.T.);
#471=EDGE_CURVE('',#620,#620,#72,.T.);
#472=EDGE_CURVE('',#621,#621,#73,.T.);
#473=EDGE_CURVE('',#592,#622,#714,.T.);
#474=EDGE_CURVE('',#622,#618,#715,.T.);
#475=EDGE_CURVE('',#623,#624,#716,.T.);
#476=EDGE_CURVE('',#624,#625,#717,.T.);
#477=EDGE_CURVE('',#625,#626,#718,.T.);
#478=EDGE_CURVE('',#626,#623,#719,.T.);
#479=EDGE_CURVE('',#627,#628,#720,.T.);
#480=EDGE_CURVE('',#626,#627,#721,.F.);
#481=EDGE_CURVE('',#628,#626,#722,.T.);
#482=EDGE_CURVE('',#629,#627,#723,.T.);
#483=EDGE_CURVE('',#623,#629,#724,.T.);
#484=EDGE_CURVE('',#628,#622,#725,.F.);
#485=EDGE_CURVE('',#618,#625,#726,.F.);
#486=EDGE_CURVE('',#630,#629,#727,.T.);
#487=EDGE_CURVE('',#623,#630,#728,.F.);
#488=EDGE_CURVE('',#609,#625,#729,.T.);
#489=EDGE_CURVE('',#617,#630,#730,.T.);
#490=EDGE_CURVE('',#624,#616,#731,.T.);
#491=EDGE_CURVE('',#610,#624,#732,.F.);
#492=EDGE_CURVE('',#588,#630,#733,.T.);
#493=EDGE_CURVE('',#589,#629,#734,.T.);
#494=EDGE_CURVE('',#590,#627,#735,.T.);
#495=EDGE_CURVE('',#591,#628,#736,.T.);
#496=EDGE_CURVE('',#577,#631,#43,.F.);
#497=EDGE_CURVE('',#631,#632,#737,.T.);
#498=EDGE_CURVE('',#632,#578,#44,.F.);
#499=EDGE_CURVE('',#633,#634,#738,.F.);
#500=EDGE_CURVE('',#634,#635,#739,.F.);
#501=EDGE_CURVE('',#636,#635,#740,.T.);
#502=EDGE_CURVE('',#636,#633,#741,.T.);
#503=EDGE_CURVE('',#635,#602,#742,.F.);
#504=EDGE_CURVE('',#601,#636,#743,.T.);
#505=EDGE_CURVE('',#637,#599,#744,.T.);
#506=EDGE_CURVE('',#637,#638,#745,.F.);
#507=EDGE_CURVE('',#638,#600,#746,.F.);
#508=EDGE_CURVE('',#639,#640,#747,.T.);
#509=EDGE_CURVE('',#640,#576,#748,.T.);
#510=EDGE_CURVE('',#575,#639,#74,.F.);
#511=EDGE_CURVE('',#604,#641,#749,.F.);
#512=EDGE_CURVE('',#641,#642,#75,.T.);
#513=EDGE_CURVE('',#642,#643,#750,.T.);
#514=EDGE_CURVE('',#643,#605,#751,.T.);
#515=EDGE_CURVE('',#644,#645,#76,.F.);
#516=EDGE_CURVE('',#645,#646,#752,.F.);
#517=EDGE_CURVE('',#646,#647,#753,.F.);
#518=EDGE_CURVE('',#647,#640,#45,.F.);
#519=EDGE_CURVE('',#639,#648,#754,.T.);
#520=EDGE_CURVE('',#644,#648,#755,.T.);
#521=EDGE_CURVE('',#649,#650,#756,.T.);
#522=EDGE_CURVE('',#650,#603,#757,.T.);
#523=EDGE_CURVE('',#572,#649,#46,.F.);
#524=EDGE_CURVE('',#651,#651,#77,.T.);
#525=EDGE_CURVE('',#652,#652,#78,.T.);
#526=EDGE_CURVE('',#653,#653,#79,.T.);
#527=EDGE_CURVE('',#648,#586,#758,.T.);
#528=EDGE_CURVE('',#585,#644,#759,.F.);
#529=EDGE_CURVE('',#654,#655,#80,.F.);
#530=EDGE_CURVE('',#655,#597,#760,.T.);
#531=EDGE_CURVE('',#596,#656,#761,.F.);
#532=EDGE_CURVE('',#656,#654,#762,.F.);
#533=EDGE_CURVE('',#598,#657,#763,.F.);
#534=EDGE_CURVE('',#657,#658,#764,.F.);
#535=EDGE_CURVE('',#658,#637,#47,.T.);
#536=EDGE_CURVE('',#659,#660,#765,.T.);
#537=EDGE_CURVE('',#660,#661,#766,.T.);
#538=EDGE_CURVE('',#661,#662,#81,.F.);
#539=EDGE_CURVE('',#662,#663,#767,.T.);
#540=EDGE_CURVE('',#663,#568,#768,.T.);
#541=EDGE_CURVE('',#567,#659,#48,.F.);
#542=EDGE_CURVE('',#664,#664,#82,.T.);
#543=EDGE_CURVE('',#665,#665,#83,.T.);
#544=EDGE_CURVE('',#666,#666,#84,.T.);
#545=EDGE_CURVE('',#593,#663,#769,.F.);
#546=EDGE_CURVE('',#662,#594,#770,.T.);
#547=EDGE_CURVE('',#663,#579,#49,.T.);
#548=EDGE_CURVE('',#574,#648,#50,.F.);
#549=EDGE_CURVE('',#646,#650,#85,.F.);
#550=EDGE_CURVE('',#649,#647,#14,.T.);
#551=EDGE_CURVE('',#657,#660,#86,.T.);
#552=EDGE_CURVE('',#659,#658,#15,.T.);
#553=EDGE_CURVE('',#645,#606,#771,.T.);
#554=EDGE_CURVE('',#595,#661,#772,.F.);
#555=EDGE_CURVE('',#641,#650,#87,.T.);
#556=EDGE_CURVE('',#642,#646,#88,.T.);
#557=EDGE_CURVE('',#645,#643,#51,.F.);
#558=EDGE_CURVE('',#657,#655,#89,.T.);
#559=EDGE_CURVE('',#660,#654,#90,.T.);
#560=EDGE_CURVE('',#656,#661,#52,.T.);
#561=EDGE_CURVE('',#636,#638,#53,.T.);
#562=EDGE_CURVE('',#633,#632,#54,.T.);
#563=EDGE_CURVE('',#634,#631,#55,.T.);
#564=EDGE_CURVE('',#635,#571,#56,.T.);
#565=VERTEX_POINT('',#1610);
#566=VERTEX_POINT('',#1611);
#567=VERTEX_POINT('',#1613);
#568=VERTEX_POINT('',#1615);
#569=VERTEX_POINT('',#1619);
#570=VERTEX_POINT('',#1620);
#571=VERTEX_POINT('',#1622);
#572=VERTEX_POINT('',#1624);
#573=VERTEX_POINT('',#1628);
#574=VERTEX_POINT('',#1629);
#575=VERTEX_POINT('',#1631);
#576=VERTEX_POINT('',#1633);
#577=VERTEX_POINT('',#1635);
#578=VERTEX_POINT('',#1637);
#579=VERTEX_POINT('',#1640);
#580=VERTEX_POINT('',#1642);
#581=VERTEX_POINT('',#1644);
#582=VERTEX_POINT('',#1646);
#583=VERTEX_POINT('',#1648);
#584=VERTEX_POINT('',#1650);
#585=VERTEX_POINT('',#1654);
#586=VERTEX_POINT('',#1655);
#587=VERTEX_POINT('',#1658);
#588=VERTEX_POINT('',#1660);
#589=VERTEX_POINT('',#1662);
#590=VERTEX_POINT('',#1664);
#591=VERTEX_POINT('',#1666);
#592=VERTEX_POINT('',#1668);
#593=VERTEX_POINT('',#1671);
#594=VERTEX_POINT('',#1673);
#595=VERTEX_POINT('',#1675);
#596=VERTEX_POINT('',#1677);
#597=VERTEX_POINT('',#1679);
#598=VERTEX_POINT('',#1681);
#599=VERTEX_POINT('',#1683);
#600=VERTEX_POINT('',#1685);
#601=VERTEX_POINT('',#1687);
#602=VERTEX_POINT('',#1689);
#603=VERTEX_POINT('',#1692);
#604=VERTEX_POINT('',#1694);
#605=VERTEX_POINT('',#1696);
#606=VERTEX_POINT('',#1698);
#607=VERTEX_POINT('',#1702);
#608=VERTEX_POINT('',#1703);
#609=VERTEX_POINT('',#1708);
#610=VERTEX_POINT('',#1709);
#611=VERTEX_POINT('',#1711);
#612=VERTEX_POINT('',#1714);
#613=VERTEX_POINT('',#1718);
#614=VERTEX_POINT('',#1720);
#615=VERTEX_POINT('',#1722);
#616=VERTEX_POINT('',#1724);
#617=VERTEX_POINT('',#1726);
#618=VERTEX_POINT('',#1730);
#619=VERTEX_POINT('',#1736);
#620=VERTEX_POINT('',#1738);
#621=VERTEX_POINT('',#1740);
#622=VERTEX_POINT('',#1742);
#623=VERTEX_POINT('',#1746);
#624=VERTEX_POINT('',#1747);
#625=VERTEX_POINT('',#1749);
#626=VERTEX_POINT('',#1751);
#627=VERTEX_POINT('',#1755);
#628=VERTEX_POINT('',#1756);
#629=VERTEX_POINT('',#1761);
#630=VERTEX_POINT('',#1768);
#631=VERTEX_POINT('',#1789);
#632=VERTEX_POINT('',#1791);
#633=VERTEX_POINT('',#1795);
#634=VERTEX_POINT('',#1796);
#635=VERTEX_POINT('',#1798);
#636=VERTEX_POINT('',#1800);
#637=VERTEX_POINT('',#1807);
#638=VERTEX_POINT('',#1809);
#639=VERTEX_POINT('',#1813);
#640=VERTEX_POINT('',#1814);
#641=VERTEX_POINT('',#1819);
#642=VERTEX_POINT('',#1821);
#643=VERTEX_POINT('',#1823);
#644=VERTEX_POINT('',#1827);
#645=VERTEX_POINT('',#1828);
#646=VERTEX_POINT('',#1830);
#647=VERTEX_POINT('',#1832);
#648=VERTEX_POINT('',#1835);
#649=VERTEX_POINT('',#1839);
#650=VERTEX_POINT('',#1840);
#651=VERTEX_POINT('',#1845);
#652=VERTEX_POINT('',#1847);
#653=VERTEX_POINT('',#1849);
#654=VERTEX_POINT('',#1854);
#655=VERTEX_POINT('',#1855);
#656=VERTEX_POINT('',#1858);
#657=VERTEX_POINT('',#1862);
#658=VERTEX_POINT('',#1864);
#659=VERTEX_POINT('',#1868);
#660=VERTEX_POINT('',#1869);
#661=VERTEX_POINT('',#1871);
#662=VERTEX_POINT('',#1873);
#663=VERTEX_POINT('',#1875);
#664=VERTEX_POINT('',#1880);
#665=VERTEX_POINT('',#1882);
#666=VERTEX_POINT('',#1884);
#667=LINE('',#1609,#773);
#668=LINE('',#1612,#774);
#669=LINE('',#1614,#775);
#670=LINE('',#1618,#776);
#671=LINE('',#1621,#777);
#672=LINE('',#1623,#778);
#673=LINE('',#1625,#779);
#674=LINE('',#1627,#780);
#675=LINE('',#1630,#781);
#676=LINE('',#1632,#782);
#677=LINE('',#1636,#783);
#678=LINE('',#1639,#784);
#679=LINE('',#1641,#785);
#680=LINE('',#1643,#786);
#681=LINE('',#1645,#787);
#682=LINE('',#1647,#788);
#683=LINE('',#1649,#789);
#684=LINE('',#1651,#790);
#685=LINE('',#1653,#791);
#686=LINE('',#1657,#792);
#687=LINE('',#1659,#793);
#688=LINE('',#1661,#794);
#689=LINE('',#1663,#795);
#690=LINE('',#1665,#796);
#691=LINE('',#1667,#797);
#692=LINE('',#1669,#798);
#693=LINE('',#1672,#799);
#694=LINE('',#1678,#800);
#695=LINE('',#1682,#801);
#696=LINE('',#1684,#802);
#697=LINE('',#1688,#803);
#698=LINE('',#1691,#804);
#699=LINE('',#1695,#805);
#700=LINE('',#1701,#806);
#701=LINE('',#1704,#807);
#702=LINE('',#1705,#808);
#703=LINE('',#1707,#809);
#704=LINE('',#1710,#810);
#705=LINE('',#1712,#811);
#706=LINE('',#1713,#812);
#707=LINE('',#1715,#813);
#708=LINE('',#1723,#814);
#709=LINE('',#1725,#815);
#710=LINE('',#1727,#816);
#711=LINE('',#1729,#817);
#712=LINE('',#1731,#818);
#713=LINE('',#1733,#819);
#714=LINE('',#1741,#820);
#715=LINE('',#1743,#821);
#716=LINE('',#1745,#822);
#717=LINE('',#1748,#823);
#718=LINE('',#1750,#824);
#719=LINE('',#1752,#825);
#720=LINE('',#1754,#826);
#721=LINE('',#1757,#827);
#722=LINE('',#1758,#828);
#723=LINE('',#1760,#829);
#724=LINE('',#1762,#830);
#725=LINE('',#1764,#831);
#726=LINE('',#1765,#832);
#727=LINE('',#1767,#833);
#728=LINE('',#1769,#834);
#729=LINE('',#1771,#835);
#730=LINE('',#1773,#836);
#731=LINE('',#1774,#837);
#732=LINE('',#1776,#838);
#733=LINE('',#1779,#839);
#734=LINE('',#1781,#840);
#735=LINE('',#1783,#841);
#736=LINE('',#1785,#842);
#737=LINE('',#1790,#843);
#738=LINE('',#1794,#844);
#739=LINE('',#1797,#845);
#740=LINE('',#1799,#846);
#741=LINE('',#1801,#847);
#742=LINE('',#1803,#848);
#743=LINE('',#1804,#849);
#744=LINE('',#1806,#850);
#745=LINE('',#1808,#851);
#746=LINE('',#1810,#852);
#747=LINE('',#1812,#853);
#748=LINE('',#1815,#854);
#749=LINE('',#1818,#855);
#750=LINE('',#1822,#856);
#751=LINE('',#1824,#857);
#752=LINE('',#1829,#858);
#753=LINE('',#1831,#859);
#754=LINE('',#1834,#860);
#755=LINE('',#1836,#861);
#756=LINE('',#1838,#862);
#757=LINE('',#1841,#863);
#758=LINE('',#1850,#864);
#759=LINE('',#1851,#865);
#760=LINE('',#1856,#866);
#761=LINE('',#1857,#867);
#762=LINE('',#1859,#868);
#763=LINE('',#1861,#869);
#764=LINE('',#1863,#870);
#765=LINE('',#1867,#871);
#766=LINE('',#1870,#872);
#767=LINE('',#1874,#873);
#768=LINE('',#1876,#874);
#769=LINE('',#1885,#875);
#770=LINE('',#1886,#876);
#771=LINE('',#1918,#877);
#772=LINE('',#1920,#878);
#773=VECTOR('',#1275,1.);
#774=VECTOR('',#1276,1.);
#775=VECTOR('',#1277,1.);
#776=VECTOR('',#1282,1.);
#777=VECTOR('',#1283,1.);
#778=VECTOR('',#1284,1.);
#779=VECTOR('',#1285,1.);
#780=VECTOR('',#1288,1.);
#781=VECTOR('',#1289,1.);
#782=VECTOR('',#1290,1.);
#783=VECTOR('',#1293,1.);
#784=VECTOR('',#1296,1.);
#785=VECTOR('',#1297,1.);
#786=VECTOR('',#1298,1.);
#787=VECTOR('',#1299,1.);
#788=VECTOR('',#1300,1.);
#789=VECTOR('',#1301,1.);
#790=VECTOR('',#1302,1.);
#791=VECTOR('',#1305,1.);
#792=VECTOR('',#1308,1.);
#793=VECTOR('',#1309,1.);
#794=VECTOR('',#1310,1.);
#795=VECTOR('',#1311,1.);
#796=VECTOR('',#1312,1.);
#797=VECTOR('',#1313,1.);
#798=VECTOR('',#1314,1.);
#799=VECTOR('',#1317,1.);
#800=VECTOR('',#1322,1.);
#801=VECTOR('',#1325,1.);
#802=VECTOR('',#1326,1.);
#803=VECTOR('',#1329,1.);
#804=VECTOR('',#1332,1.);
#805=VECTOR('',#1335,1.);
#806=VECTOR('',#1342,1.);
#807=VECTOR('',#1343,1.);
#808=VECTOR('',#1344,1.);
#809=VECTOR('',#1347,1.);
#810=VECTOR('',#1348,1.);
#811=VECTOR('',#1349,1.);
#812=VECTOR('',#1350,1.);
#813=VECTOR('',#1351,1.);
#814=VECTOR('',#1360,1.);
#815=VECTOR('',#1361,1.);
#816=VECTOR('',#1362,1.);
#817=VECTOR('',#1365,1.);
#818=VECTOR('',#1366,1.);
#819=VECTOR('',#1369,1.);
#820=VECTOR('',#1378,1.);
#821=VECTOR('',#1379,1.);
#822=VECTOR('',#1382,1.);
#823=VECTOR('',#1383,1.);
#824=VECTOR('',#1384,1.);
#825=VECTOR('',#1385,1.);
#826=VECTOR('',#1388,1.);
#827=VECTOR('',#1389,1.);
#828=VECTOR('',#1390,1.);
#829=VECTOR('',#1393,1.);
#830=VECTOR('',#1394,1.);
#831=VECTOR('',#1397,1.);
#832=VECTOR('',#1398,1.);
#833=VECTOR('',#1401,1.);
#834=VECTOR('',#1402,1.);
#835=VECTOR('',#1405,1.);
#836=VECTOR('',#1408,1.);
#837=VECTOR('',#1409,1.);
#838=VECTOR('',#1412,1.);
#839=VECTOR('',#1417,1.);
#840=VECTOR('',#1420,1.);
#841=VECTOR('',#1423,1.);
#842=VECTOR('',#1426,1.);
#843=VECTOR('',#1433,1.);
#844=VECTOR('',#1438,1.);
#845=VECTOR('',#1439,1.);
#846=VECTOR('',#1440,1.);
#847=VECTOR('',#1441,1.);
#848=VECTOR('',#1444,1.);
#849=VECTOR('',#1445,1.);
#850=VECTOR('',#1448,1.);
#851=VECTOR('',#1449,1.);
#852=VECTOR('',#1450,1.);
#853=VECTOR('',#1453,1.);
#854=VECTOR('',#1454,1.);
#855=VECTOR('',#1459,1.);
#856=VECTOR('',#1462,1.);
#857=VECTOR('',#1463,1.);
#858=VECTOR('',#1468,1.);
#859=VECTOR('',#1469,1.);
#860=VECTOR('',#1472,1.);
#861=VECTOR('',#1473,1.);
#862=VECTOR('',#1476,1.);
#863=VECTOR('',#1477,1.);
#864=VECTOR('',#1488,1.);
#865=VECTOR('',#1489,1.);
#866=VECTOR('',#1494,1.);
#867=VECTOR('',#1495,1.);
#868=VECTOR('',#1496,1.);
#869=VECTOR('',#1499,1.);
#870=VECTOR('',#1500,1.);
#871=VECTOR('',#1505,1.);
#872=VECTOR('',#1506,1.);
#873=VECTOR('',#1509,1.);
#874=VECTOR('',#1510,1.);
#875=VECTOR('',#1521,1.);
#876=VECTOR('',#1522,1.);
#877=VECTOR('',#1557,1.);
#878=VECTOR('',#1560,1.);
#879=EDGE_LOOP('',(#91,#92,#93,#94));
#880=EDGE_LOOP('',(#95,#96,#97,#98));
#881=EDGE_LOOP('',(#99,#100,#101,#102,#103,#104,#105,#106,#107,#108,#109,
#110,#111,#112));
#882=EDGE_LOOP('',(#113,#114,#115,#116,#117,#118,#119,#120,#121,#122,#123,
#124,#125,#126,#127,#128,#129,#130,#131,#132,#133,#134,#135,#136,#137,#138,
#139,#140));
#883=EDGE_LOOP('',(#141,#142,#143,#144));
#884=EDGE_LOOP('',(#145,#146,#147,#148,#149,#150));
#885=EDGE_LOOP('',(#151));
#886=EDGE_LOOP('',(#152));
#887=EDGE_LOOP('',(#153));
#888=EDGE_LOOP('',(#154,#155,#156,#157,#158,#159,#160));
#889=EDGE_LOOP('',(#161,#162,#163));
#890=EDGE_LOOP('',(#164,#165,#166));
#891=EDGE_LOOP('',(#167));
#892=EDGE_LOOP('',(#168));
#893=EDGE_LOOP('',(#169));
#894=EDGE_LOOP('',(#170,#171,#172,#173,#174,#175,#176));
#895=EDGE_LOOP('',(#177,#178,#179,#180));
#896=EDGE_LOOP('',(#181,#182,#183));
#897=EDGE_LOOP('',(#184,#185,#186,#187));
#898=EDGE_LOOP('',(#188,#189,#190,#191,#192));
#899=EDGE_LOOP('',(#193,#194,#195));
#900=EDGE_LOOP('',(#196,#197,#198));
#901=EDGE_LOOP('',(#199,#200,#201,#202,#203));
#902=EDGE_LOOP('',(#204,#205,#206,#207));
#903=EDGE_LOOP('',(#208,#209,#210));
#904=EDGE_LOOP('',(#211,#212,#213,#214));
#905=EDGE_LOOP('',(#215,#216,#217,#218));
#906=EDGE_LOOP('',(#219,#220,#221,#222));
#907=EDGE_LOOP('',(#223,#224,#225,#226));
#908=EDGE_LOOP('',(#227,#228,#229,#230));
#909=EDGE_LOOP('',(#231,#232,#233,#234));
#910=EDGE_LOOP('',(#235,#236,#237,#238));
#911=EDGE_LOOP('',(#239,#240,#241,#242));
#912=EDGE_LOOP('',(#243,#244,#245,#246));
#913=EDGE_LOOP('',(#247,#248,#249,#250));
#914=EDGE_LOOP('',(#251,#252,#253,#254,#255));
#915=EDGE_LOOP('',(#256,#257,#258,#259,#260,#261,#262));
#916=EDGE_LOOP('',(#263,#264,#265,#266,#267));
#917=EDGE_LOOP('',(#268));
#918=EDGE_LOOP('',(#269));
#919=EDGE_LOOP('',(#270));
#920=EDGE_LOOP('',(#271,#272,#273,#274));
#921=EDGE_LOOP('',(#275,#276,#277,#278,#279));
#922=EDGE_LOOP('',(#280,#281,#282,#283,#284));
#923=EDGE_LOOP('',(#285,#286,#287,#288,#289,#290,#291));
#924=EDGE_LOOP('',(#292));
#925=EDGE_LOOP('',(#293));
#926=EDGE_LOOP('',(#294));
#927=EDGE_LOOP('',(#295,#296,#297,#298));
#928=EDGE_LOOP('',(#299));
#929=EDGE_LOOP('',(#300));
#930=EDGE_LOOP('',(#301));
#931=EDGE_LOOP('',(#302));
#932=EDGE_LOOP('',(#303));
#933=EDGE_LOOP('',(#304));
#934=EDGE_LOOP('',(#305));
#935=EDGE_LOOP('',(#306));
#936=EDGE_LOOP('',(#307));
#937=EDGE_LOOP('',(#308));
#938=EDGE_LOOP('',(#309));
#939=EDGE_LOOP('',(#310));
#940=EDGE_LOOP('',(#311,#312,#313,#314));
#941=EDGE_LOOP('',(#315,#316,#317,#318));
#942=EDGE_LOOP('',(#319,#320,#321,#322));
#943=EDGE_LOOP('',(#323,#324,#325,#326));
#944=EDGE_LOOP('',(#327,#328,#329,#330));
#945=EDGE_LOOP('',(#331,#332,#333,#334));
#946=EDGE_LOOP('',(#335,#336,#337,#338));
#947=EDGE_LOOP('',(#339,#340,#341,#342));
#948=EDGE_LOOP('',(#343,#344,#345,#346));
#949=EDGE_LOOP('',(#347,#348,#349,#350));
#950=EDGE_LOOP('',(#351,#352,#353,#354));
#951=EDGE_LOOP('',(#355,#356,#357,#358));
#952=EDGE_LOOP('',(#359,#360,#361,#362));
#953=EDGE_LOOP('',(#363,#364,#365,#366));
#954=EDGE_LOOP('',(#367,#368,#369,#370));
#955=EDGE_LOOP('',(#371,#372,#373,#374));
#956=EDGE_LOOP('',(#375,#376,#377,#378));
#957=EDGE_LOOP('',(#379,#380,#381,#382,#383,#384,#385,#386,#387,#388));
#958=EDGE_LOOP('',(#389,#390,#391,#392));
#959=EDGE_LOOP('',(#393,#394,#395,#396,#397,#398,#399,#400,#401,#402));
#960=EDGE_LOOP('',(#403,#404,#405,#406));
#961=FACE_BOUND('',#879,.T.);
#962=FACE_BOUND('',#880,.T.);
#963=FACE_BOUND('',#881,.T.);
#964=FACE_BOUND('',#882,.T.);
#965=FACE_BOUND('',#883,.T.);
#966=FACE_BOUND('',#884,.T.);
#967=FACE_BOUND('',#885,.T.);
#968=FACE_BOUND('',#886,.T.);
#969=FACE_BOUND('',#887,.T.);
#970=FACE_BOUND('',#888,.T.);
#971=FACE_BOUND('',#889,.T.);
#972=FACE_BOUND('',#890,.T.);
#973=FACE_BOUND('',#891,.T.);
#974=FACE_BOUND('',#892,.T.);
#975=FACE_BOUND('',#893,.T.);
#976=FACE_BOUND('',#894,.T.);
#977=FACE_BOUND('',#895,.T.);
#978=FACE_BOUND('',#896,.T.);
#979=FACE_BOUND('',#897,.T.);
#980=FACE_BOUND('',#898,.T.);
#981=FACE_BOUND('',#899,.T.);
#982=FACE_BOUND('',#900,.T.);
#983=FACE_BOUND('',#901,.T.);
#984=FACE_BOUND('',#902,.T.);
#985=FACE_BOUND('',#903,.T.);
#986=FACE_BOUND('',#904,.T.);
#987=FACE_BOUND('',#905,.T.);
#988=FACE_BOUND('',#906,.T.);
#989=FACE_BOUND('',#907,.T.);
#990=FACE_BOUND('',#908,.T.);
#991=FACE_BOUND('',#909,.T.);
#992=FACE_BOUND('',#910,.T.);
#993=FACE_BOUND('',#911,.T.);
#994=FACE_BOUND('',#912,.T.);
#995=FACE_BOUND('',#913,.T.);
#996=FACE_BOUND('',#914,.T.);
#997=FACE_BOUND('',#915,.T.);
#998=FACE_BOUND('',#916,.T.);
#999=FACE_BOUND('',#917,.T.);
#1000=FACE_BOUND('',#918,.T.);
#1001=FACE_BOUND('',#919,.T.);
#1002=FACE_BOUND('',#920,.T.);
#1003=FACE_BOUND('',#921,.T.);
#1004=FACE_BOUND('',#922,.T.);
#1005=FACE_BOUND('',#923,.T.);
#1006=FACE_BOUND('',#924,.T.);
#1007=FACE_BOUND('',#925,.T.);
#1008=FACE_BOUND('',#926,.T.);
#1009=FACE_BOUND('',#927,.T.);
#1010=FACE_BOUND('',#928,.T.);
#1011=FACE_BOUND('',#929,.T.);
#1012=FACE_BOUND('',#930,.T.);
#1013=FACE_BOUND('',#931,.T.);
#1014=FACE_BOUND('',#932,.T.);
#1015=FACE_BOUND('',#933,.T.);
#1016=FACE_BOUND('',#934,.T.);
#1017=FACE_BOUND('',#935,.T.);
#1018=FACE_BOUND('',#936,.T.);
#1019=FACE_BOUND('',#937,.T.);
#1020=FACE_BOUND('',#938,.T.);
#1021=FACE_BOUND('',#939,.T.);
#1022=FACE_BOUND('',#940,.T.);
#1023=FACE_BOUND('',#941,.T.);
#1024=FACE_BOUND('',#942,.T.);
#1025=FACE_BOUND('',#943,.T.);
#1026=FACE_BOUND('',#944,.T.);
#1027=FACE_BOUND('',#945,.T.);
#1028=FACE_BOUND('',#946,.T.);
#1029=FACE_BOUND('',#947,.T.);
#1030=FACE_BOUND('',#948,.T.);
#1031=FACE_BOUND('',#949,.T.);
#1032=FACE_BOUND('',#950,.T.);
#1033=FACE_BOUND('',#951,.T.);
#1034=FACE_BOUND('',#952,.T.);
#1035=FACE_BOUND('',#953,.T.);
#1036=FACE_BOUND('',#954,.T.);
#1037=FACE_BOUND('',#955,.T.);
#1038=FACE_BOUND('',#956,.T.);
#1039=FACE_BOUND('',#957,.T.);
#1040=FACE_BOUND('',#958,.T.);
#1041=FACE_BOUND('',#959,.T.);
#1042=FACE_BOUND('',#960,.T.);
#1043=PLANE('',#1157);
#1044=PLANE('',#1159);
#1045=PLANE('',#1160);
#1046=PLANE('',#1163);
#1047=PLANE('',#1174);
#1048=PLANE('',#1175);
#1049=PLANE('',#1176);
#1050=PLANE('',#1180);
#1051=PLANE('',#1181);
#1052=PLANE('',#1182);
#1053=PLANE('',#1186);
#1054=PLANE('',#1187);
#1055=PLANE('',#1188);
#1056=PLANE('',#1189);
#1057=PLANE('',#1190);
#1058=PLANE('',#1191);
#1059=PLANE('',#1192);
#1060=PLANE('',#1193);
#1061=PLANE('',#1194);
#1062=PLANE('',#1195);
#1063=PLANE('',#1196);
#1064=PLANE('',#1197);
#1065=PLANE('',#1198);
#1066=PLANE('',#1199);
#1067=PLANE('',#1200);
#1068=PLANE('',#1203);
#1069=PLANE('',#1204);
#1070=PLANE('',#1205);
#1071=PLANE('',#1206);
#1072=PLANE('',#1208);
#1073=PLANE('',#1210);
#1074=PLANE('',#1213);
#1075=PLANE('',#1215);
#1076=PLANE('',#1219);
#1077=PLANE('',#1221);
#1078=PLANE('',#1223);
#1079=PLANE('',#1226);
#1080=ADVANCED_FACE('',(#961),#1043,.T.);
#1081=ADVANCED_FACE('',(#962),#1044,.F.);
#1082=ADVANCED_FACE('',(#963),#1045,.T.);
#1083=ADVANCED_FACE('',(#964),#1046,.F.);
#1084=ADVANCED_FACE('',(#965),#1047,.T.);
#1085=ADVANCED_FACE('',(#966),#1048,.T.);
#1086=ADVANCED_FACE('',(#967,#968,#969,#970),#1049,.T.);
#1087=ADVANCED_FACE('',(#971),#1050,.F.);
#1088=ADVANCED_FACE('',(#972),#1051,.T.);
#1089=ADVANCED_FACE('',(#973,#974,#975,#976),#1052,.F.);
#1090=ADVANCED_FACE('',(#977),#1053,.F.);
#1091=ADVANCED_FACE('',(#978),#1054,.T.);
#1092=ADVANCED_FACE('',(#979),#1055,.T.);
#1093=ADVANCED_FACE('',(#980),#1056,.F.);
#1094=ADVANCED_FACE('',(#981),#1057,.T.);
#1095=ADVANCED_FACE('',(#982),#1058,.T.);
#1096=ADVANCED_FACE('',(#983),#1059,.T.);
#1097=ADVANCED_FACE('',(#984),#1060,.F.);
#1098=ADVANCED_FACE('',(#985),#1061,.T.);
#1099=ADVANCED_FACE('',(#986),#1062,.F.);
#1100=ADVANCED_FACE('',(#987),#1063,.F.);
#1101=ADVANCED_FACE('',(#988),#1064,.F.);
#1102=ADVANCED_FACE('',(#989),#1065,.F.);
#1103=ADVANCED_FACE('',(#990),#1066,.F.);
#1104=ADVANCED_FACE('',(#991),#1067,.F.);
#1105=ADVANCED_FACE('',(#992),#1068,.T.);
#1106=ADVANCED_FACE('',(#993),#1069,.T.);
#1107=ADVANCED_FACE('',(#994),#1070,.T.);
#1108=ADVANCED_FACE('',(#995),#1071,.F.);
#1109=ADVANCED_FACE('',(#996),#1072,.T.);
#1110=ADVANCED_FACE('',(#997),#1073,.T.);
#1111=ADVANCED_FACE('',(#998),#1074,.T.);
#1112=ADVANCED_FACE('',(#999,#1000,#1001,#1002),#1075,.T.);
#1113=ADVANCED_FACE('',(#1003),#1076,.F.);
#1114=ADVANCED_FACE('',(#1004),#1077,.F.);
#1115=ADVANCED_FACE('',(#1005),#1078,.T.);
#1116=ADVANCED_FACE('',(#1006,#1007,#1008,#1009),#1079,.F.);
#1117=ADVANCED_FACE('',(#1010,#1011),#16,.F.);
#1118=ADVANCED_FACE('',(#1012,#1013),#17,.F.);
#1119=ADVANCED_FACE('',(#1014,#1015),#18,.F.);
#1120=ADVANCED_FACE('',(#1016,#1017),#19,.F.);
#1121=ADVANCED_FACE('',(#1018,#1019),#20,.F.);
#1122=ADVANCED_FACE('',(#1020,#1021),#21,.F.);
#1123=ADVANCED_FACE('',(#1022),#22,.T.);
#1124=ADVANCED_FACE('',(#1023),#23,.T.);
#1125=ADVANCED_FACE('',(#1024),#24,.T.);
#1126=ADVANCED_FACE('',(#1025),#25,.T.);
#1127=ADVANCED_FACE('',(#1026),#26,.F.);
#1128=ADVANCED_FACE('',(#1027),#27,.F.);
#1129=ADVANCED_FACE('',(#1028),#28,.T.);
#1130=ADVANCED_FACE('',(#1029),#29,.T.);
#1131=ADVANCED_FACE('',(#1030),#30,.F.);
#1132=ADVANCED_FACE('',(#1031),#12,.F.);
#1133=ADVANCED_FACE('',(#1032),#31,.F.);
#1134=ADVANCED_FACE('',(#1033),#32,.F.);
#1135=ADVANCED_FACE('',(#1034),#33,.F.);
#1136=ADVANCED_FACE('',(#1035),#13,.F.);
#1137=ADVANCED_FACE('',(#1036),#34,.F.);
#1138=ADVANCED_FACE('',(#1037),#35,.F.);
#1139=ADVANCED_FACE('',(#1038),#36,.F.);
#1140=ADVANCED_FACE('',(#1039),#37,.F.);
#1141=ADVANCED_FACE('',(#1040),#38,.F.);
#1142=ADVANCED_FACE('',(#1041),#39,.F.);
#1143=ADVANCED_FACE('',(#1042),#40,.F.);
#1144=CLOSED_SHELL('',(#1080,#1081,#1082,#1083,#1084,#1085,#1086,#1087,
#1088,#1089,#1090,#1091,#1092,#1093,#1094,#1095,#1096,#1097,#1098,#1099,
#1100,#1101,#1102,#1103,#1104,#1105,#1106,#1107,#1108,#1109,#1110,#1111,
#1112,#1113,#1114,#1115,#1116,#1117,#1118,#1119,#1120,#1121,#1122,#1123,
#1124,#1125,#1126,#1127,#1128,#1129,#1130,#1131,#1132,#1133,#1134,#1135,
#1136,#1137,#1138,#1139,#1140,#1141,#1142,#1143));
#1145=STYLED_ITEM('',(#1146),#1153);
#1146=PRESENTATION_STYLE_ASSIGNMENT((#1147));
#1147=SURFACE_STYLE_USAGE(.BOTH.,#1148);
#1148=SURFACE_SIDE_STYLE('',(#1149));
#1149=SURFACE_STYLE_FILL_AREA(#1150);
#1150=FILL_AREA_STYLE('',(#1151));
#1151=FILL_AREA_STYLE_COLOUR('',#1152);
#1152=COLOUR_RGB('',0.4,0.4,0.4);
#1153=MANIFOLD_SOLID_BREP('Back Top',#1144);
#1154=SHAPE_DEFINITION_REPRESENTATION(#1950,#1155);
#1155=SHAPE_REPRESENTATION('Back Top',(#1156),#1945);
#1156=AXIS2_PLACEMENT_3D('',#1607,#1271,#1272);
#1157=AXIS2_PLACEMENT_3D('',#1608,#1273,#1274);
#1158=AXIS2_PLACEMENT_3D('',#1616,#1278,#1279);
#1159=AXIS2_PLACEMENT_3D('',#1617,#1280,#1281);
#1160=AXIS2_PLACEMENT_3D('',#1626,#1286,#1287);
#1161=AXIS2_PLACEMENT_3D('',#1634,#1291,#1292);
#1162=AXIS2_PLACEMENT_3D('',#1638,#1294,#1295);
#1163=AXIS2_PLACEMENT_3D('',#1652,#1303,#1304);
#1164=AXIS2_PLACEMENT_3D('',#1656,#1306,#1307);
#1165=AXIS2_PLACEMENT_3D('',#1670,#1315,#1316);
#1166=AXIS2_PLACEMENT_3D('',#1674,#1318,#1319);
#1167=AXIS2_PLACEMENT_3D('',#1676,#1320,#1321);
#1168=AXIS2_PLACEMENT_3D('',#1680,#1323,#1324);
#1169=AXIS2_PLACEMENT_3D('',#1686,#1327,#1328);
#1170=AXIS2_PLACEMENT_3D('',#1690,#1330,#1331);
#1171=AXIS2_PLACEMENT_3D('',#1693,#1333,#1334);
#1172=AXIS2_PLACEMENT_3D('',#1697,#1336,#1337);
#1173=AXIS2_PLACEMENT_3D('',#1699,#1338,#1339);
#1174=AXIS2_PLACEMENT_3D('',#1700,#1340,#1341);
#1175=AXIS2_PLACEMENT_3D('',#1706,#1345,#1346);
#1176=AXIS2_PLACEMENT_3D('',#1716,#1352,#1353);
#1177=AXIS2_PLACEMENT_3D('',#1717,#1354,#1355);
#1178=AXIS2_PLACEMENT_3D('',#1719,#1356,#1357);
#1179=AXIS2_PLACEMENT_3D('',#1721,#1358,#1359);
#1180=AXIS2_PLACEMENT_3D('',#1728,#1363,#1364);
#1181=AXIS2_PLACEMENT_3D('',#1732,#1367,#1368);
#1182=AXIS2_PLACEMENT_3D('',#1734,#1370,#1371);
#1183=AXIS2_PLACEMENT_3D('',#1735,#1372,#1373);
#1184=AXIS2_PLACEMENT_3D('',#1737,#1374,#1375);
#1185=AXIS2_PLACEMENT_3D('',#1739,#1376,#1377);
#1186=AXIS2_PLACEMENT_3D('',#1744,#1380,#1381);
#1187=AXIS2_PLACEMENT_3D('',#1753,#1386,#1387);
#1188=AXIS2_PLACEMENT_3D('',#1759,#1391,#1392);
#1189=AXIS2_PLACEMENT_3D('',#1763,#1395,#1396);
#1190=AXIS2_PLACEMENT_3D('',#1766,#1399,#1400);
#1191=AXIS2_PLACEMENT_3D('',#1770,#1403,#1404);
#1192=AXIS2_PLACEMENT_3D('',#1772,#1406,#1407);
#1193=AXIS2_PLACEMENT_3D('',#1775,#1410,#1411);
#1194=AXIS2_PLACEMENT_3D('',#1777,#1413,#1414);
#1195=AXIS2_PLACEMENT_3D('',#1778,#1415,#1416);
#1196=AXIS2_PLACEMENT_3D('',#1780,#1418,#1419);
#1197=AXIS2_PLACEMENT_3D('',#1782,#1421,#1422);
#1198=AXIS2_PLACEMENT_3D('',#1784,#1424,#1425);
#1199=AXIS2_PLACEMENT_3D('',#1786,#1427,#1428);
#1200=AXIS2_PLACEMENT_3D('',#1787,#1429,#1430);
#1201=AXIS2_PLACEMENT_3D('',#1788,#1431,#1432);
#1202=AXIS2_PLACEMENT_3D('',#1792,#1434,#1435);
#1203=AXIS2_PLACEMENT_3D('',#1793,#1436,#1437);
#1204=AXIS2_PLACEMENT_3D('',#1802,#1442,#1443);
#1205=AXIS2_PLACEMENT_3D('',#1805,#1446,#1447);
#1206=AXIS2_PLACEMENT_3D('',#1811,#1451,#1452);
#1207=AXIS2_PLACEMENT_3D('',#1816,#1455,#1456);
#1208=AXIS2_PLACEMENT_3D('',#1817,#1457,#1458);
#1209=AXIS2_PLACEMENT_3D('',#1820,#1460,#1461);
#1210=AXIS2_PLACEMENT_3D('',#1825,#1464,#1465);
#1211=AXIS2_PLACEMENT_3D('',#1826,#1466,#1467);
#1212=AXIS2_PLACEMENT_3D('',#1833,#1470,#1471);
#1213=AXIS2_PLACEMENT_3D('',#1837,#1474,#1475);
#1214=AXIS2_PLACEMENT_3D('',#1842,#1478,#1479);
#1215=AXIS2_PLACEMENT_3D('',#1843,#1480,#1481);
#1216=AXIS2_PLACEMENT_3D('',#1844,#1482,#1483);
#1217=AXIS2_PLACEMENT_3D('',#1846,#1484,#1485);
#1218=AXIS2_PLACEMENT_3D('',#1848,#1486,#1487);
#1219=AXIS2_PLACEMENT_3D('',#1852,#1490,#1491);
#1220=AXIS2_PLACEMENT_3D('',#1853,#1492,#1493);
#1221=AXIS2_PLACEMENT_3D('',#1860,#1497,#1498);
#1222=AXIS2_PLACEMENT_3D('',#1865,#1501,#1502);
#1223=AXIS2_PLACEMENT_3D('',#1866,#1503,#1504);
#1224=AXIS2_PLACEMENT_3D('',#1872,#1507,#1508);
#1225=AXIS2_PLACEMENT_3D('',#1877,#1511,#1512);
#1226=AXIS2_PLACEMENT_3D('',#1878,#1513,#1514);
#1227=AXIS2_PLACEMENT_3D('',#1879,#1515,#1516);
#1228=AXIS2_PLACEMENT_3D('',#1881,#1517,#1518);
#1229=AXIS2_PLACEMENT_3D('',#1883,#1519,#1520);
#1230=AXIS2_PLACEMENT_3D('',#1887,#1523,#1524);
#1231=AXIS2_PLACEMENT_3D('',#1888,#1525,#1526);
#1232=AXIS2_PLACEMENT_3D('',#1889,#1527,#1528);
#1233=AXIS2_PLACEMENT_3D('',#1890,#1529,#1530);
#1234=AXIS2_PLACEMENT_3D('',#1891,#1531,#1532);
#1235=AXIS2_PLACEMENT_3D('',#1892,#1533,#1534);
#1236=AXIS2_PLACEMENT_3D('',#1893,#1535,#1536);
#1237=AXIS2_PLACEMENT_3D('',#1894,#1537,#1538);
#1238=AXIS2_PLACEMENT_3D('',#1895,#1539,#1540);
#1239=AXIS2_PLACEMENT_3D('',#1896,#1541,#1542);
#1240=AXIS2_PLACEMENT_3D('',#1897,#1543,#1544);
#1241=AXIS2_PLACEMENT_3D('',#1898,#1545,#1546);
#1242=AXIS2_PLACEMENT_3D('',#1899,#1547,#1548);
#1243=AXIS2_PLACEMENT_3D('',#1900,#1549,#1550);
#1244=AXIS2_PLACEMENT_3D('',#1908,#1551,#1552);
#1245=AXIS2_PLACEMENT_3D('',#1909,#1553,#1554);
#1246=AXIS2_PLACEMENT_3D('',#1917,#1555,#1556);
#1247=AXIS2_PLACEMENT_3D('',#1919,#1558,#1559);
#1248=AXIS2_PLACEMENT_3D('',#1921,#1561,#1562);
#1249=AXIS2_PLACEMENT_3D('',#1922,#1563,#1564);
#1250=AXIS2_PLACEMENT_3D('',#1923,#1565,#1566);
#1251=AXIS2_PLACEMENT_3D('',#1924,#1567,#1568);
#1252=AXIS2_PLACEMENT_3D('',#1925,#1569,#1570);
#1253=AXIS2_PLACEMENT_3D('',#1926,#1571,#1572);
#1254=AXIS2_PLACEMENT_3D('',#1927,#1573,#1574);
#1255=AXIS2_PLACEMENT_3D('',#1928,#1575,#1576);
#1256=AXIS2_PLACEMENT_3D('',#1929,#1577,#1578);
#1257=AXIS2_PLACEMENT_3D('',#1930,#1579,#1580);
#1258=AXIS2_PLACEMENT_3D('',#1931,#1581,#1582);
#1259=AXIS2_PLACEMENT_3D('',#1932,#1583,#1584);
#1260=AXIS2_PLACEMENT_3D('',#1933,#1585,#1586);
#1261=AXIS2_PLACEMENT_3D('',#1934,#1587,#1588);
#1262=AXIS2_PLACEMENT_3D('',#1935,#1589,#1590);
#1263=AXIS2_PLACEMENT_3D('',#1936,#1591,#1592);
#1264=AXIS2_PLACEMENT_3D('',#1937,#1593,#1594);
#1265=AXIS2_PLACEMENT_3D('',#1938,#1595,#1596);
#1266=AXIS2_PLACEMENT_3D('',#1939,#1597,#1598);
#1267=AXIS2_PLACEMENT_3D('',#1940,#1599,#1600);
#1268=AXIS2_PLACEMENT_3D('',#1941,#1601,#1602);
#1269=AXIS2_PLACEMENT_3D('',#1942,#1603,#1604);
#1270=AXIS2_PLACEMENT_3D('',#1943,#1605,#1606);
#1271=DIRECTION('',(0.,0.,1.));
#1272=DIRECTION('',(1.,0.,0.));
#1273=DIRECTION('',(1.,0.,0.));
#1274=DIRECTION('',(0.,1.,0.));
#1275=DIRECTION('',(0.,1.,0.));
#1276=DIRECTION('',(0.,0.941887794629776,-0.335927644482345));
#1277=DIRECTION('',(0.,0.,1.));
#1278=DIRECTION('',(1.,0.,0.));
#1279=DIRECTION('',(0.,0.,-1.));
#1280=DIRECTION('',(1.,0.,0.));
#1281=DIRECTION('',(0.,1.,0.));
#1282=DIRECTION('',(0.,0.,1.));
#1283=DIRECTION('',(0.,1.,0.));
#1284=DIRECTION('',(0.,0.941887794629776,-0.335927644482345));
#1285=DIRECTION('',(0.,-1.,0.));
#1286=DIRECTION('',(0.,0.,-1.));
#1287=DIRECTION('',(-1.,0.,0.));
#1288=DIRECTION('',(0.,-1.,0.));
#1289=DIRECTION('',(1.,0.,0.));
#1290=DIRECTION('',(0.,1.,0.));
#1291=DIRECTION('',(0.,0.,-1.));
#1292=DIRECTION('',(0.,1.,0.));
#1293=DIRECTION('',(1.,0.,0.));
#1294=DIRECTION('',(0.,0.,-1.));
#1295=DIRECTION('',(0.,-1.,0.));
#1296=DIRECTION('',(1.,0.,0.));
#1297=DIRECTION('',(0.,-1.,0.));
#1298=DIRECTION('',(1.,0.,0.));
#1299=DIRECTION('',(0.,1.,0.));
#1300=DIRECTION('',(1.,0.,0.));
#1301=DIRECTION('',(0.,1.,0.));
#1302=DIRECTION('',(1.,0.,0.));
#1303=DIRECTION('',(0.,1.,0.));
#1304=DIRECTION('',(0.,0.,1.));
#1305=DIRECTION('',(0.,0.,-1.));
#1306=DIRECTION('',(0.,1.,0.));
#1307=DIRECTION('',(0.,0.,1.));
#1308=DIRECTION('',(0.,0.,1.));
#1309=DIRECTION('',(-0.685639228017019,0.,0.727941514823977));
#1310=DIRECTION('',(-0.759334442411476,0.,0.650700549075881));
#1311=DIRECTION('',(-1.,0.,0.));
#1312=DIRECTION('',(-0.759334442411477,0.,-0.65070054907588));
#1313=DIRECTION('',(0.685639228017019,0.,0.727941514823977));
#1314=DIRECTION('',(0.,0.,1.));
#1315=DIRECTION('',(0.,1.,0.));
#1316=DIRECTION('',(0.,0.,1.));
#1317=DIRECTION('',(0.,0.,-1.));
#1318=DIRECTION('',(0.,1.,0.));
#1319=DIRECTION('',(0.,0.,1.));
#1320=DIRECTION('',(0.,1.,0.));
#1321=DIRECTION('',(0.,0.,1.));
#1322=DIRECTION('',(0.,0.,-1.));
#1323=DIRECTION('',(0.,1.,0.));
#1324=DIRECTION('',(0.,0.,1.));
#1325=DIRECTION('',(-1.,0.,0.));
#1326=DIRECTION('',(0.,0.,1.));
#1327=DIRECTION('',(0.,1.,0.));
#1328=DIRECTION('',(0.,0.,1.));
#1329=DIRECTION('',(1.,0.,0.));
#1330=DIRECTION('',(0.,1.,0.));
#1331=DIRECTION('',(0.,0.,1.));
#1332=DIRECTION('',(1.,0.,0.));
#1333=DIRECTION('',(0.,1.,0.));
#1334=DIRECTION('',(0.,0.,1.));
#1335=DIRECTION('',(0.,0.,-1.));
#1336=DIRECTION('',(0.,1.,0.));
#1337=DIRECTION('',(0.,0.,1.));
#1338=DIRECTION('',(0.,1.,0.));
#1339=DIRECTION('',(0.,0.,1.));
#1340=DIRECTION('',(0.,-0.335927644482347,-0.941887794629775));
#1341=DIRECTION('',(0.,0.941887794629776,-0.335927644482347));
#1342=DIRECTION('',(1.,0.,0.));
#1343=DIRECTION('',(0.,0.941887794629775,-0.335927644482347));
#1344=DIRECTION('',(0.,0.941887794629775,-0.335927644482347));
#1345=DIRECTION('',(0.,0.200865002118757,-0.97961893148501));
#1346=DIRECTION('',(0.,0.97961893148501,0.200865002118757));
#1347=DIRECTION('',(1.,0.,0.));
#1348=DIRECTION('',(-0.699789711818137,0.699789711818137,0.143487694479274));
#1349=DIRECTION('',(0.,0.97961893148501,0.200865002118757));
#1350=DIRECTION('',(0.,0.97961893148501,0.200865002118757));
#1351=DIRECTION('',(0.699789711818137,0.699789711818137,0.143487694479274));
#1352=DIRECTION('',(1.,0.,0.));
#1353=DIRECTION('',(0.,1.,0.));
#1354=DIRECTION('',(1.,0.,0.));
#1355=DIRECTION('',(0.,0.,-1.));
#1356=DIRECTION('',(1.,0.,0.));
#1357=DIRECTION('',(0.,0.,-1.));
#1358=DIRECTION('',(1.,0.,0.));
#1359=DIRECTION('',(0.,0.,-1.));
#1360=DIRECTION('',(0.,0.,1.));
#1361=DIRECTION('',(0.,-0.941887794629776,0.335927644482345));
#1362=DIRECTION('',(0.,1.,0.));
#1363=DIRECTION('',(0.707106781186548,-0.707106781186548,0.));
#1364=DIRECTION('',(0.,0.,1.));
#1365=DIRECTION('',(0.692211605419878,0.692211605419878,-0.204171953617705));
#1366=DIRECTION('',(0.,0.,-1.));
#1367=DIRECTION('',(0.707106781186548,0.707106781186548,0.));
#1368=DIRECTION('',(0.,0.,-1.));
#1369=DIRECTION('',(-0.692211605419878,0.692211605419878,-0.204171953617705));
#1370=DIRECTION('',(1.,0.,0.));
#1371=DIRECTION('',(0.,1.,0.));
#1372=DIRECTION('',(1.,0.,0.));
#1373=DIRECTION('',(0.,0.,-1.));
#1374=DIRECTION('',(1.,0.,0.));
#1375=DIRECTION('',(0.,0.,-1.));
#1376=DIRECTION('',(1.,0.,0.));
#1377=DIRECTION('',(0.,0.,-1.));
#1378=DIRECTION('',(0.,1.,0.));
#1379=DIRECTION('',(0.,0.941887794629776,-0.335927644482345));
#1380=DIRECTION('',(0.,-0.335927644482345,-0.941887794629776));
#1381=DIRECTION('',(0.,0.941887794629776,-0.335927644482345));
#1382=DIRECTION('',(0.,0.941887794629776,-0.335927644482345));
#1383=DIRECTION('',(-1.,0.,0.));
#1384=DIRECTION('',(0.,-0.941887794629776,0.335927644482345));
#1385=DIRECTION('',(1.,0.,0.));
#1386=DIRECTION('',(-0.645158321880583,0.130238636961256,0.752866945184011));
#1387=DIRECTION('',(0.759334442411477,0.,0.65070054907588));
#1388=DIRECTION('',(-0.759334442411477,0.,-0.65070054907588));
#1389=DIRECTION('',(-5.68991279568863E-17,0.985364854921713,-0.170458507224226));
#1390=DIRECTION('',(0.610398113989497,0.680519452443841,0.405348513360541));
#1391=DIRECTION('',(0.,0.170458507224226,0.985364854921713));
#1392=DIRECTION('',(1.,0.,0.));
#1393=DIRECTION('',(-1.,0.,0.));
#1394=DIRECTION('',(-1.7930184984532E-15,-0.985364854921713,0.170458507224226));
#1395=DIRECTION('',(0.707106781186545,-0.237536715401491,-0.666015246699559));
#1396=DIRECTION('',(0.,-0.941887794629776,0.335927644482345));
#1397=DIRECTION('',(0.685639228017019,0.,0.727941514823977));
#1398=DIRECTION('',(-0.692211605419881,-0.0402259429738112,-0.720572665894217));
#1399=DIRECTION('',(0.645158321880584,0.130238636961254,0.75286694518401));
#1400=DIRECTION('',(0.759334442411476,0.,-0.650700549075881));
#1401=DIRECTION('',(-0.759334442411476,0.,0.650700549075881));
#1402=DIRECTION('',(-0.610398113989501,0.680519452443832,0.405348513360549));
#1403=DIRECTION('',(-0.54341130876834,0.686088097295838,0.483722309028286));
#1404=DIRECTION('',(-0.783902215900266,-0.620884301546313,0.));
#1405=DIRECTION('',(-2.14521515663447E-15,-0.576225804488857,0.817290537227227));
#1406=DIRECTION('',(0.707106781186545,0.237536715401491,0.666015246699559));
#1407=DIRECTION('',(0.,0.941887794629776,-0.335927644482345));
#1408=DIRECTION('',(-0.685639228017019,0.,0.727941514823977));
#1409=DIRECTION('',(0.692211605419882,-0.0402259429738138,-0.720572665894216));
#1410=DIRECTION('',(0.,-0.817290537227227,-0.576225804488857));
#1411=DIRECTION('',(-1.,0.,0.));
#1412=DIRECTION('',(-4.18827721057205E-15,0.576225804488857,-0.817290537227227));
#1413=DIRECTION('',(0.543411308768341,0.686088097295839,0.483722309028285));
#1414=DIRECTION('',(-0.783902215900266,0.620884301546313,0.));
#1415=DIRECTION('',(-0.727941514823977,0.,-0.685639228017019));
#1416=DIRECTION('',(-0.685639228017019,0.,0.727941514823977));
#1417=DIRECTION('',(0.,1.,0.));
#1418=DIRECTION('',(-0.650700549075881,0.,-0.759334442411476));
#1419=DIRECTION('',(-0.759334442411476,0.,0.650700549075881));
#1420=DIRECTION('',(0.,1.,0.));
#1421=DIRECTION('',(0.,0.,-1.));
#1422=DIRECTION('',(-1.,0.,0.));
#1423=DIRECTION('',(0.,1.,0.));
#1424=DIRECTION('',(0.65070054907588,0.,-0.759334442411477));
#1425=DIRECTION('',(-0.759334442411477,0.,-0.65070054907588));
#1426=DIRECTION('',(0.,1.,0.));
#1427=DIRECTION('',(0.727941514823977,0.,-0.685639228017019));
#1428=DIRECTION('',(-0.685639228017019,0.,-0.727941514823977));
#1429=DIRECTION('',(0.,1.,0.));
#1430=DIRECTION('',(0.,0.,1.));
#1431=DIRECTION('',(0.,1.,0.));
#1432=DIRECTION('',(0.,0.,-1.));
#1433=DIRECTION('',(-1.,0.,0.));
#1434=DIRECTION('',(0.,1.,0.));
#1435=DIRECTION('',(0.,0.,1.));
#1436=DIRECTION('',(0.,-0.335927644482345,-0.941887794629776));
#1437=DIRECTION('',(0.,0.941887794629776,-0.335927644482345));
#1438=DIRECTION('',(-1.,0.,0.));
#1439=DIRECTION('',(0.,0.941887794629776,-0.335927644482345));
#1440=DIRECTION('',(1.,0.,0.));
#1441=DIRECTION('',(0.,0.941887794629776,-0.335927644482345));
#1442=DIRECTION('',(0.,0.,-1.));
#1443=DIRECTION('',(-1.,0.,0.));
#1444=DIRECTION('',(0.,1.,0.));
#1445=DIRECTION('',(0.,1.,0.));
#1446=DIRECTION('',(1.,0.,0.));
#1447=DIRECTION('',(0.,1.,0.));
#1448=DIRECTION('',(0.,-1.,0.));
#1449=DIRECTION('',(0.,0.941887794629776,-0.335927644482345));
#1450=DIRECTION('',(0.,1.,0.));
#1451=DIRECTION('',(1.,0.,0.));
#1452=DIRECTION('',(0.,1.,0.));
#1453=DIRECTION('',(0.,0.,1.));
#1454=DIRECTION('',(0.,0.941887794629776,-0.335927644482345));
#1455=DIRECTION('',(1.,0.,0.));
#1456=DIRECTION('',(0.,0.,-1.));
#1457=DIRECTION('',(-1.,0.,0.));
#1458=DIRECTION('',(0.,0.,1.));
#1459=DIRECTION('',(0.,-1.,0.));
#1460=DIRECTION('',(-1.,0.,0.));
#1461=DIRECTION('',(0.,0.,1.));
#1462=DIRECTION('',(0.,0.,-1.));
#1463=DIRECTION('',(0.,-1.,0.));
#1464=DIRECTION('',(0.,-1.,0.));
#1465=DIRECTION('',(1.,0.,0.));
#1466=DIRECTION('',(0.,-1.,0.));
#1467=DIRECTION('',(0.,0.,-1.));
#1468=DIRECTION('',(0.,0.,-1.));
#1469=DIRECTION('',(1.,0.,0.));
#1470=DIRECTION('',(0.,-1.,0.));
#1471=DIRECTION('',(0.,0.,-1.));
#1472=DIRECTION('',(1.,0.,0.));
#1473=DIRECTION('',(0.,0.,-1.));
#1474=DIRECTION('',(0.,0.,-1.));
#1475=DIRECTION('',(-1.,0.,0.));
#1476=DIRECTION('',(1.,0.,0.));
#1477=DIRECTION('',(0.,-1.,0.));
#1478=DIRECTION('',(0.,0.,-1.));
#1479=DIRECTION('',(0.,1.,0.));
#1480=DIRECTION('',(-1.,0.,0.));
#1481=DIRECTION('',(0.,0.,1.));
#1482=DIRECTION('',(-1.,0.,0.));
#1483=DIRECTION('',(0.,0.,1.));
#1484=DIRECTION('',(-1.,0.,0.));
#1485=DIRECTION('',(0.,0.,1.));
#1486=DIRECTION('',(-1.,0.,0.));
#1487=DIRECTION('',(0.,0.,1.));
#1488=DIRECTION('',(0.,-1.,0.));
#1489=DIRECTION('',(0.,-1.,0.));
#1490=DIRECTION('',(-1.,0.,0.));
#1491=DIRECTION('',(0.,0.,1.));
#1492=DIRECTION('',(-1.,0.,0.));
#1493=DIRECTION('',(0.,0.,1.));
#1494=DIRECTION('',(0.,-1.,0.));
#1495=DIRECTION('',(0.,-1.,0.));
#1496=DIRECTION('',(0.,0.,-1.));
#1497=DIRECTION('',(0.,0.,1.));
#1498=DIRECTION('',(1.,0.,0.));
#1499=DIRECTION('',(0.,-1.,0.));
#1500=DIRECTION('',(-1.,0.,0.));
#1501=DIRECTION('',(0.,0.,1.));
#1502=DIRECTION('',(0.,-1.,0.));
#1503=DIRECTION('',(0.,-1.,0.));
#1504=DIRECTION('',(1.,0.,0.));
#1505=DIRECTION('',(-1.,0.,0.));
#1506=DIRECTION('',(0.,0.,-1.));
#1507=DIRECTION('',(0.,-1.,0.));
#1508=DIRECTION('',(0.,0.,-1.));
#1509=DIRECTION('',(0.,0.,-1.));
#1510=DIRECTION('',(1.,0.,0.));
#1511=DIRECTION('',(0.,-1.,0.));
#1512=DIRECTION('',(0.,0.,1.));
#1513=DIRECTION('',(-1.,0.,0.));
#1514=DIRECTION('',(0.,0.,1.));
#1515=DIRECTION('',(-1.,0.,0.));
#1516=DIRECTION('',(0.,0.,1.));
#1517=DIRECTION('',(-1.,0.,0.));
#1518=DIRECTION('',(0.,0.,1.));
#1519=DIRECTION('',(-1.,0.,0.));
#1520=DIRECTION('',(0.,0.,1.));
#1521=DIRECTION('',(0.,-1.,0.));
#1522=DIRECTION('',(0.,-1.,0.));
#1523=DIRECTION('',(1.,0.,0.));
#1524=DIRECTION('',(0.,0.,-1.));
#1525=DIRECTION('',(1.,0.,0.));
#1526=DIRECTION('',(0.,0.,-1.));
#1527=DIRECTION('',(1.,0.,0.));
#1528=DIRECTION('',(0.,0.,-1.));
#1529=DIRECTION('',(1.,0.,0.));
#1530=DIRECTION('',(0.,0.,-1.));
#1531=DIRECTION('',(1.,0.,0.));
#1532=DIRECTION('',(0.,0.,-1.));
#1533=DIRECTION('',(1.,0.,0.));
#1534=DIRECTION('',(0.,0.,-1.));
#1535=DIRECTION('',(0.,1.,0.));
#1536=DIRECTION('',(0.,0.,1.));
#1537=DIRECTION('',(0.707106781186548,0.707106781186548,0.));
#1538=DIRECTION('',(0.707106781186548,-0.707106781186548,0.));
#1539=DIRECTION('',(1.,0.,0.));
#1540=DIRECTION('',(0.,0.,-1.));
#1541=DIRECTION('',(0.,-1.,0.));
#1542=DIRECTION('',(0.,0.,-1.));
#1543=DIRECTION('',(0.707106781186548,-0.707106781186548,0.));
#1544=DIRECTION('',(0.707106781186548,0.707106781186548,0.));
#1545=DIRECTION('',(1.,0.,0.));
#1546=DIRECTION('',(0.,0.,-1.));
#1547=DIRECTION('',(-1.,0.,0.));
#1548=DIRECTION('',(0.,0.,1.));
#1549=DIRECTION('',(-1.,0.,0.));
#1550=DIRECTION('',(0.,0.,1.));
#1551=DIRECTION('',(-1.,0.,0.));
#1552=DIRECTION('',(0.,0.,1.));
#1553=DIRECTION('',(-1.,0.,0.));
#1554=DIRECTION('',(0.,0.,1.));
#1555=DIRECTION('',(0.,-1.,0.));
#1556=DIRECTION('',(0.,0.,-1.));
#1557=DIRECTION('',(0.,-1.,0.));
#1558=DIRECTION('',(0.,-1.,0.));
#1559=DIRECTION('',(0.,0.,-1.));
#1560=DIRECTION('',(0.,-1.,0.));
#1561=DIRECTION('',(0.,1.,0.));
#1562=DIRECTION('',(0.,0.,1.));
#1563=DIRECTION('',(0.,-1.,0.));
#1564=DIRECTION('',(0.,0.,-1.));
#1565=DIRECTION('',(-1.,0.,0.));
#1566=DIRECTION('',(0.,0.,1.));
#1567=DIRECTION('',(0.,0.,1.));
#1568=DIRECTION('',(1.,0.,0.));
#1569=DIRECTION('',(0.,1.,0.));
#1570=DIRECTION('',(0.,0.,1.));
#1571=DIRECTION('',(0.,0.707106781186548,0.707106781186548));
#1572=DIRECTION('',(0.,-0.707106781186548,0.707106781186548));
#1573=DIRECTION('',(0.,0.,1.));
#1574=DIRECTION('',(1.,0.,0.));
#1575=DIRECTION('',(0.,1.,0.));
#1576=DIRECTION('',(0.,0.,1.));
#1577=DIRECTION('',(0.,-1.,0.));
#1578=DIRECTION('',(0.,0.,-1.));
#1579=DIRECTION('',(-1.,0.,0.));
#1580=DIRECTION('',(0.,0.,1.));
#1581=DIRECTION('',(0.,0.,1.));
#1582=DIRECTION('',(1.,0.,0.));
#1583=DIRECTION('',(0.,1.,0.));
#1584=DIRECTION('',(0.,0.,1.));
#1585=DIRECTION('',(0.,-0.707106781186548,-0.707106781186548));
#1586=DIRECTION('',(0.,0.707106781186548,-0.707106781186548));
#1587=DIRECTION('',(0.,0.,-1.));
#1588=DIRECTION('',(-1.,0.,0.));
#1589=DIRECTION('',(0.,-1.,0.));
#1590=DIRECTION('',(0.,0.,-1.));
#1591=DIRECTION('',(0.,-0.985364854921713,0.170458507224227));
#1592=DIRECTION('',(0.,0.170458507224227,0.985364854921713));
#1593=DIRECTION('',(0.,-0.941887794629776,0.335927644482345));
#1594=DIRECTION('',(0.,-0.335927644482345,-0.941887794629776));
#1595=DIRECTION('',(-0.707106781186548,-0.666015246699557,0.23753671540149));
#1596=DIRECTION('',(-0.707106781186548,0.666015246699557,-0.23753671540149));
#1597=DIRECTION('',(-1.,0.,0.));
#1598=DIRECTION('',(0.,0.,1.));
#1599=DIRECTION('',(-0.707106781186548,0.666015246699557,-0.23753671540149));
#1600=DIRECTION('',(0.707106781186548,0.666015246699557,-0.23753671540149));
#1601=DIRECTION('',(0.,0.941887794629776,-0.335927644482345));
#1602=DIRECTION('',(0.,0.335927644482345,0.941887794629776));
#1603=DIRECTION('',(0.,0.985364854921713,-0.170458507224227));
#1604=DIRECTION('',(0.,0.170458507224227,0.985364854921713));
#1605=DIRECTION('',(0.,1.,0.));
#1606=DIRECTION('',(0.,0.,1.));
#1607=CARTESIAN_POINT('',(0.,0.,0.));
#1608=CARTESIAN_POINT('',(-0.092,0.282,0.1329370573908));
#1609=CARTESIAN_POINT('',(-0.092,0.28485017823704,0.116654388347959));
#1610=CARTESIAN_POINT('',(-0.092,0.284,0.116654388347959));
#1611=CARTESIAN_POINT('',(-0.092,0.301885704326808,0.116654388347959));
#1612=CARTESIAN_POINT('',(-0.092,0.24083888001361,0.13842695617566));
#1613=CARTESIAN_POINT('',(-0.092,0.282,0.123746695787831));
#1614=CARTESIAN_POINT('',(-0.092,0.282,0.118654388347959));
#1615=CARTESIAN_POINT('',(-0.092,0.282,0.118654388347959));
#1616=CARTESIAN_POINT('',(-0.092,0.284,0.118654388347959));
#1617=CARTESIAN_POINT('',(0.092,0.282,0.1329370573908));
#1618=CARTESIAN_POINT('',(0.092,0.232,-0.0100000000000003));
#1619=CARTESIAN_POINT('',(0.092,0.232,0.131654388347959));
#1620=CARTESIAN_POINT('',(0.092,0.232,0.137962058532698));
#1621=CARTESIAN_POINT('',(0.092,0.282,0.137962058532698));
#1622=CARTESIAN_POINT('',(0.092,0.242142379213066,0.137962058532698));
#1623=CARTESIAN_POINT('',(0.092,0.279092113084486,0.124783804037368));
#1624=CARTESIAN_POINT('',(0.092,0.259828085218925,0.131654388347959));
#1625=CARTESIAN_POINT('',(0.092,0.282,0.131654388347959));
#1626=CARTESIAN_POINT('',(-0.092,0.28485017823704,0.116654388347959));
#1627=CARTESIAN_POINT('',(0.097,0.28485017823704,0.116654388347959));
#1628=CARTESIAN_POINT('',(0.097,0.232,0.116654388347959));
#1629=CARTESIAN_POINT('',(0.097,0.284,0.116654388347959));
#1630=CARTESIAN_POINT('',(-0.092,0.284,0.116654388347959));
#1631=CARTESIAN_POINT('',(0.092,0.284,0.116654388347959));
#1632=CARTESIAN_POINT('',(0.092,0.28485017823704,0.116654388347959));
#1633=CARTESIAN_POINT('',(0.092,0.301885704326808,0.116654388347959));
#1634=CARTESIAN_POINT('',(0.084,0.301885704326808,0.116654388347959));
#1635=CARTESIAN_POINT('',(0.09192879053638,0.305056107640267,0.116654388347959));
#1636=CARTESIAN_POINT('',(-0.092,0.305056107640267,0.116654388347959));
#1637=CARTESIAN_POINT('',(-0.09192879053638,0.305056107640267,0.116654388347959));
#1638=CARTESIAN_POINT('',(-0.084,0.301885704326808,0.116654388347959));
#1639=CARTESIAN_POINT('',(-0.092,0.284,0.116654388347959));
#1640=CARTESIAN_POINT('',(-0.097,0.284,0.116654388347959));
#1641=CARTESIAN_POINT('',(-0.097,0.232,0.116654388347959));
#1642=CARTESIAN_POINT('',(-0.097,0.232,0.116654388347959));
#1643=CARTESIAN_POINT('',(-0.1,0.232,0.116654388347959));
#1644=CARTESIAN_POINT('',(-0.1,0.232,0.116654388347959));
#1645=CARTESIAN_POINT('',(-0.1,0.28485017823704,0.116654388347959));
#1646=CARTESIAN_POINT('',(-0.1,0.325700356474081,0.116654388347959));
#1647=CARTESIAN_POINT('',(-0.092,0.325700356474081,0.116654388347959));
#1648=CARTESIAN_POINT('',(0.1,0.325700356474081,0.116654388347959));
#1649=CARTESIAN_POINT('',(0.1,0.28485017823704,0.116654388347959));
#1650=CARTESIAN_POINT('',(0.1,0.232,0.116654388347959));
#1651=CARTESIAN_POINT('',(-0.1,0.232,0.116654388347959));
#1652=CARTESIAN_POINT('',(-0.32,0.232,0.163734569007389));
#1653=CARTESIAN_POINT('',(0.095,0.232,0.122154388347959));
#1654=CARTESIAN_POINT('',(0.095,0.232,0.125654388347959));
#1655=CARTESIAN_POINT('',(0.095,0.232,0.118654388347959));
#1656=CARTESIAN_POINT('',(0.097,0.232,0.118654388347959));
#1657=CARTESIAN_POINT('',(0.1,0.232,-0.0100000000000003));
#1658=CARTESIAN_POINT('',(0.1,0.232,0.150039902506857));
#1659=CARTESIAN_POINT('',(0.0713499695230731,0.232,0.1804575707687));
#1660=CARTESIAN_POINT('',(0.0975854211101143,0.232,0.152603455090989));
#1661=CARTESIAN_POINT('',(0.0997699063436577,0.232,0.150731492406931));
#1662=CARTESIAN_POINT('',(0.096,0.232,0.153962058532698));
#1663=CARTESIAN_POINT('',(0.1,0.232,0.153962058532698));
#1664=CARTESIAN_POINT('',(-0.096,0.232,0.153962058532698));
#1665=CARTESIAN_POINT('',(-0.0961510803153281,0.232,0.153832592465247));
#1666=CARTESIAN_POINT('',(-0.0975854211101143,0.232,0.152603455090989));
#1667=CARTESIAN_POINT('',(-0.104010345247195,0.232,0.145782128629692));
#1668=CARTESIAN_POINT('',(-0.1,0.232,0.150039902506857));
#1669=CARTESIAN_POINT('',(-0.1,0.232,-0.0100000000000003));
#1670=CARTESIAN_POINT('',(-0.097,0.232,0.118654388347959));
#1671=CARTESIAN_POINT('',(-0.095,0.232,0.118654388347959));
#1672=CARTESIAN_POINT('',(-0.095,0.232,0.122154388347959));
#1673=CARTESIAN_POINT('',(-0.095,0.232,0.125654388347959));
#1674=CARTESIAN_POINT('',(-0.097,0.232,0.125654388347959));
#1675=CARTESIAN_POINT('',(-0.097,0.232,0.127654388347959));
#1676=CARTESIAN_POINT('',(-0.097,0.232,0.128654388347959));
#1677=CARTESIAN_POINT('',(-0.098,0.232,0.128654388347959));
#1678=CARTESIAN_POINT('',(-0.098,0.232,0.129654388347959));
#1679=CARTESIAN_POINT('',(-0.098,0.232,0.130654388347959));
#1680=CARTESIAN_POINT('',(-0.097,0.232,0.130654388347959));
#1681=CARTESIAN_POINT('',(-0.097,0.232,0.131654388347959));
#1682=CARTESIAN_POINT('',(-0.095,0.232,0.131654388347959));
#1683=CARTESIAN_POINT('',(-0.092,0.232,0.131654388347959));
#1684=CARTESIAN_POINT('',(-0.092,0.232,-0.0100000000000003));
#1685=CARTESIAN_POINT('',(-0.092,0.232,0.137962058532698));
#1686=CARTESIAN_POINT('',(-0.084,0.232,0.137962058532698));
#1687=CARTESIAN_POINT('',(-0.084,0.232,0.145962058532698));
#1688=CARTESIAN_POINT('',(-0.092,0.232,0.145962058532698));
#1689=CARTESIAN_POINT('',(0.084,0.232,0.145962058532698));
#1690=CARTESIAN_POINT('',(0.084,0.232,0.137962058532698));
#1691=CARTESIAN_POINT('',(0.095,0.232,0.131654388347959));
#1692=CARTESIAN_POINT('',(0.097,0.232,0.131654388347959));
#1693=CARTESIAN_POINT('',(0.097,0.232,0.130654388347959));
#1694=CARTESIAN_POINT('',(0.098,0.232,0.130654388347959));
#1695=CARTESIAN_POINT('',(0.098,0.232,0.129654388347959));
#1696=CARTESIAN_POINT('',(0.098,0.232,0.128654388347959));
#1697=CARTESIAN_POINT('',(0.097,0.232,0.128654388347959));
#1698=CARTESIAN_POINT('',(0.097,0.232,0.127654388347959));
#1699=CARTESIAN_POINT('',(0.097,0.232,0.125654388347959));
#1700=CARTESIAN_POINT('',(-0.092,0.32685017823704,0.11624430031135));
#1701=CARTESIAN_POINT('',(-0.092,0.328,0.115834212274742));
#1702=CARTESIAN_POINT('',(-0.1,0.328,0.115834212274742));
#1703=CARTESIAN_POINT('',(0.1,0.328,0.115834212274742));
#1704=CARTESIAN_POINT('',(0.1,0.32685017823704,0.11624430031135));
#1705=CARTESIAN_POINT('',(-0.1,0.32685017823704,0.11624430031135));
#1706=CARTESIAN_POINT('',(-0.1,0.33,0.11624430031135));
#1707=CARTESIAN_POINT('',(0.1,0.336,0.117474564421177));
#1708=CARTESIAN_POINT('',(-0.096,0.336,0.117474564421177));
#1709=CARTESIAN_POINT('',(0.096,0.336,0.117474564421177));
#1710=CARTESIAN_POINT('',(0.112717520685885,0.319282479314115,0.114046736803656));
#1711=CARTESIAN_POINT('',(0.1,0.332,0.116654388347959));
#1712=CARTESIAN_POINT('',(0.1,0.33,0.11624430031135));
#1713=CARTESIAN_POINT('',(-0.1,0.33,0.11624430031135));
#1714=CARTESIAN_POINT('',(-0.1,0.332,0.116654388347959));
#1715=CARTESIAN_POINT('',(-0.113718215833689,0.318281784166312,0.113841550249453));
#1716=CARTESIAN_POINT('',(0.1,0.00550000000000022,-0.0100000000000003));
#1717=CARTESIAN_POINT('',(0.1,0.242,0.122539902506858));
#1718=CARTESIAN_POINT('',(0.1,0.242,0.121039902506858));
#1719=CARTESIAN_POINT('',(0.1,0.252,0.122539902506858));
#1720=CARTESIAN_POINT('',(0.1,0.252,0.121039902506858));
#1721=CARTESIAN_POINT('',(0.1,0.262,0.122539902506858));
#1722=CARTESIAN_POINT('',(0.1,0.262,0.121039902506858));
#1723=CARTESIAN_POINT('',(0.1,0.332,0.121474564421177));
#1724=CARTESIAN_POINT('',(0.1,0.332,0.118654388347959));
#1725=CARTESIAN_POINT('',(0.1,0.24065628942207,0.151232448821481));
#1726=CARTESIAN_POINT('',(0.1,0.244,0.150039902506857));
#1727=CARTESIAN_POINT('',(0.1,0.232,0.150039902506857));
#1728=CARTESIAN_POINT('',(-0.096,0.336,-0.0589819827675819));
#1729=CARTESIAN_POINT('',(-0.096,0.336,0.117474564421177));
#1730=CARTESIAN_POINT('',(-0.1,0.332,0.118654388347959));
#1731=CARTESIAN_POINT('',(-0.1,0.332,-0.0100000000000003));
#1732=CARTESIAN_POINT('',(0.1,0.332,-0.0100000000000003));
#1733=CARTESIAN_POINT('',(0.1,0.332,0.118654388347959));
#1734=CARTESIAN_POINT('',(-0.1,0.00550000000000022,-0.0100000000000003));
#1735=CARTESIAN_POINT('',(-0.1,0.242,0.122539902506858));
#1736=CARTESIAN_POINT('',(-0.1,0.242,0.121039902506858));
#1737=CARTESIAN_POINT('',(-0.1,0.252,0.122539902506858));
#1738=CARTESIAN_POINT('',(-0.1,0.252,0.121039902506858));
#1739=CARTESIAN_POINT('',(-0.1,0.262,0.122539902506858));
#1740=CARTESIAN_POINT('',(-0.1,0.262,0.121039902506858));
#1741=CARTESIAN_POINT('',(-0.1,0.232,0.150039902506857));
#1742=CARTESIAN_POINT('',(-0.1,0.244,0.150039902506857));
#1743=CARTESIAN_POINT('',(-0.1,0.0830517097982618,0.207442684790689));
#1744=CARTESIAN_POINT('',(0.1,0.289,0.138237282210588));
#1745=CARTESIAN_POINT('',(0.096,0.336,0.121474564421177));
#1746=CARTESIAN_POINT('',(0.096,0.245767551178519,0.153656289422071));
#1747=CARTESIAN_POINT('',(0.096,0.332232448821481,0.122818274999106));
#1748=CARTESIAN_POINT('',(0.1,0.332232448821481,0.122818274999106));
#1749=CARTESIAN_POINT('',(-0.096,0.332232448821481,0.122818274999106));
#1750=CARTESIAN_POINT('',(-0.096,0.289,0.138237282210588));
#1751=CARTESIAN_POINT('',(-0.096,0.245767551178519,0.153656289422071));
#1752=CARTESIAN_POINT('',(0.1,0.245767551178519,0.153656289422071));
#1753=CARTESIAN_POINT('',(-0.096,0.245767551178519,0.153656289422071));
#1754=CARTESIAN_POINT('',(-0.0961510803153281,0.244,0.153832592465247));
#1755=CARTESIAN_POINT('',(-0.096,0.244,0.153962058532698));
#1756=CARTESIAN_POINT('',(-0.0975854211101143,0.244,0.152603455090989));
#1757=CARTESIAN_POINT('',(-0.096,0.245767551178519,0.153656289422071));
#1758=CARTESIAN_POINT('',(-0.096,0.245767551178519,0.153656289422071));
#1759=CARTESIAN_POINT('',(0.1,0.238,0.155));
#1760=CARTESIAN_POINT('',(0.1,0.244,0.153962058532698));
#1761=CARTESIAN_POINT('',(0.096,0.244,0.153962058532698));
#1762=CARTESIAN_POINT('',(0.096,0.241883775589259,0.154328144711036));
#1763=CARTESIAN_POINT('',(-0.096,0.289,0.138237282210588));
#1764=CARTESIAN_POINT('',(-0.104010345247195,0.244,0.145782128629692));
#1765=CARTESIAN_POINT('',(-0.098560475830703,0.332083653924162,0.120152892216094));
#1766=CARTESIAN_POINT('',(0.1,0.241308039021799,0.151));
#1767=CARTESIAN_POINT('',(0.0997699063436577,0.244,0.150731492406931));
#1768=CARTESIAN_POINT('',(0.0975854211101143,0.244,0.152603455090989));
#1769=CARTESIAN_POINT('',(0.1,0.241308039021799,0.151));
#1770=CARTESIAN_POINT('',(-0.096,0.336,0.117474564421177));
#1771=CARTESIAN_POINT('',(-0.096,0.336,0.117474564421177));
#1772=CARTESIAN_POINT('',(0.1,0.0830517097982618,0.207442684790689));
#1773=CARTESIAN_POINT('',(0.0713499695230731,0.244,0.1804575707687));
#1774=CARTESIAN_POINT('',(0.1,0.332,0.118654388347959));
#1775=CARTESIAN_POINT('',(0.1,0.332232448821481,0.122818274999106));
#1776=CARTESIAN_POINT('',(0.096,0.334116224410741,0.120146419710142));
#1777=CARTESIAN_POINT('',(0.1,0.332,0.118654388347959));
#1778=CARTESIAN_POINT('',(0.0713499695230731,0.232,0.1804575707687));
#1779=CARTESIAN_POINT('',(0.0975854211101143,0.232,0.152603455090989));
#1780=CARTESIAN_POINT('',(0.0997699063436577,0.232,0.150731492406931));
#1781=CARTESIAN_POINT('',(0.096,0.232,0.153962058532698));
#1782=CARTESIAN_POINT('',(0.1,0.232,0.153962058532698));
#1783=CARTESIAN_POINT('',(-0.096,0.232,0.153962058532698));
#1784=CARTESIAN_POINT('',(-0.0961510803153281,0.232,0.153832592465247));
#1785=CARTESIAN_POINT('',(-0.0975854211101143,0.232,0.152603455090989));
#1786=CARTESIAN_POINT('',(-0.104010345247195,0.232,0.145782128629692));
#1787=CARTESIAN_POINT('',(-0.092,0.305056107640267,0.118654388347959));
#1788=CARTESIAN_POINT('',(0.084,0.305056107640267,0.115523652687914));
#1789=CARTESIAN_POINT('',(0.0915351023570382,0.305056107640267,0.118376881247814));
#1790=CARTESIAN_POINT('',(-0.092,0.305056107640267,0.118376881247814));
#1791=CARTESIAN_POINT('',(-0.0915351023570382,0.305056107640267,0.118376881247814));
#1792=CARTESIAN_POINT('',(-0.084,0.305056107640267,0.115523652687914));
#1793=CARTESIAN_POINT('',(-0.092,0.279005646274057,0.133308223440329));
#1794=CARTESIAN_POINT('',(-0.092,0.299743528796125,0.125911983604852));
#1795=CARTESIAN_POINT('',(-0.084,0.299743528796125,0.125911983604852));
#1796=CARTESIAN_POINT('',(0.084,0.299743528796125,0.125911983604852));
#1797=CARTESIAN_POINT('',(0.084,0.279005646274057,0.133308223440329));
#1798=CARTESIAN_POINT('',(0.084,0.243526301169468,0.145962058532698));
#1799=CARTESIAN_POINT('',(-0.092,0.243526301169468,0.145962058532698));
#1800=CARTESIAN_POINT('',(-0.084,0.243526301169468,0.145962058532698));
#1801=CARTESIAN_POINT('',(-0.084,0.305056107640267,0.124017233394249));
#1802=CARTESIAN_POINT('',(-0.092,0.237763150584734,0.145962058532698));
#1803=CARTESIAN_POINT('',(0.084,0.237763150584734,0.145962058532698));
#1804=CARTESIAN_POINT('',(-0.084,0.243526301169468,0.145962058532698));
#1805=CARTESIAN_POINT('',(-0.092,0.282,0.1329370573908));
#1806=CARTESIAN_POINT('',(-0.092,0.282,0.131654388347959));
#1807=CARTESIAN_POINT('',(-0.092,0.259828085218925,0.131654388347959));
#1808=CARTESIAN_POINT('',(-0.092,0.24083888001361,0.13842695617566));
#1809=CARTESIAN_POINT('',(-0.092,0.242142379213066,0.137962058532698));
#1810=CARTESIAN_POINT('',(-0.092,0.232,0.137962058532698));
#1811=CARTESIAN_POINT('',(0.092,0.282,0.1329370573908));
#1812=CARTESIAN_POINT('',(0.092,0.282,-0.0100000000000003));
#1813=CARTESIAN_POINT('',(0.092,0.282,0.118654388347959));
#1814=CARTESIAN_POINT('',(0.092,0.282,0.123746695787831));
#1815=CARTESIAN_POINT('',(0.092,0.279092113084486,0.124783804037368));
#1816=CARTESIAN_POINT('',(0.092,0.284,0.118654388347959));
#1817=CARTESIAN_POINT('',(0.098,0.282,0.129654388347959));
#1818=CARTESIAN_POINT('',(0.098,0.28,0.130654388347959));
#1819=CARTESIAN_POINT('',(0.098,0.28,0.130654388347959));
#1820=CARTESIAN_POINT('',(0.098,0.28,0.129654388347959));
#1821=CARTESIAN_POINT('',(0.098,0.281,0.129654388347959));
#1822=CARTESIAN_POINT('',(0.098,0.281,0.127654388347959));
#1823=CARTESIAN_POINT('',(0.098,0.281,0.128654388347959));
#1824=CARTESIAN_POINT('',(0.098,0.232,0.128654388347959));
#1825=CARTESIAN_POINT('',(0.,0.282,0.135308223440329));
#1826=CARTESIAN_POINT('',(0.097,0.282,0.125654388347959));
#1827=CARTESIAN_POINT('',(0.095,0.282,0.125654388347959));
#1828=CARTESIAN_POINT('',(0.097,0.282,0.127654388347959));
#1829=CARTESIAN_POINT('',(0.097,0.282,0.129654388347959));
#1830=CARTESIAN_POINT('',(0.097,0.282,0.129654388347959));
#1831=CARTESIAN_POINT('',(0.092,0.282,0.129654388347959));
#1832=CARTESIAN_POINT('',(0.089747837513174,0.282,0.129654388347959));
#1833=CARTESIAN_POINT('',(0.084,0.282,0.123746695787831));
#1834=CARTESIAN_POINT('',(0.,0.282,0.118654388347959));
#1835=CARTESIAN_POINT('',(0.095,0.282,0.118654388347959));
#1836=CARTESIAN_POINT('',(0.095,0.282,0.122154388347959));
#1837=CARTESIAN_POINT('',(0.095,0.282,0.131654388347959));
#1838=CARTESIAN_POINT('',(0.098,0.28,0.131654388347959));
#1839=CARTESIAN_POINT('',(0.0882522589970845,0.28,0.131654388347959));
#1840=CARTESIAN_POINT('',(0.097,0.28,0.131654388347959));
#1841=CARTESIAN_POINT('',(0.097,0.232,0.131654388347959));
#1842=CARTESIAN_POINT('',(0.084,0.259828085218925,0.131654388347959));
#1843=CARTESIAN_POINT('',(0.095,0.282,0.122154388347959));
#1844=CARTESIAN_POINT('',(0.095,0.242,0.122539902506858));
#1845=CARTESIAN_POINT('',(0.095,0.242,0.124039902506858));
#1846=CARTESIAN_POINT('',(0.095,0.252,0.122539902506858));
#1847=CARTESIAN_POINT('',(0.095,0.252,0.124039902506858));
#1848=CARTESIAN_POINT('',(0.095,0.262,0.122539902506858));
#1849=CARTESIAN_POINT('',(0.095,0.262,0.124039902506858));
#1850=CARTESIAN_POINT('',(0.095,0.282,0.118654388347959));
#1851=CARTESIAN_POINT('',(0.095,0.282,0.125654388347959));
#1852=CARTESIAN_POINT('',(-0.098,0.282,0.129654388347959));
#1853=CARTESIAN_POINT('',(-0.098,0.28,0.129654388347959));
#1854=CARTESIAN_POINT('',(-0.098,0.281,0.129654388347959));
#1855=CARTESIAN_POINT('',(-0.098,0.28,0.130654388347959));
#1856=CARTESIAN_POINT('',(-0.098,0.232,0.130654388347959));
#1857=CARTESIAN_POINT('',(-0.098,0.282,0.128654388347959));
#1858=CARTESIAN_POINT('',(-0.098,0.281,0.128654388347959));
#1859=CARTESIAN_POINT('',(-0.098,0.281,0.129654388347959));
#1860=CARTESIAN_POINT('',(-0.095,0.282,0.131654388347959));
#1861=CARTESIAN_POINT('',(-0.097,0.28,0.131654388347959));
#1862=CARTESIAN_POINT('',(-0.097,0.28,0.131654388347959));
#1863=CARTESIAN_POINT('',(-0.095,0.28,0.131654388347959));
#1864=CARTESIAN_POINT('',(-0.0882522589970845,0.28,0.131654388347959));
#1865=CARTESIAN_POINT('',(-0.084,0.259828085218925,0.131654388347959));
#1866=CARTESIAN_POINT('',(0.,0.282,0.135308223440329));
#1867=CARTESIAN_POINT('',(0.,0.282,0.129654388347959));
#1868=CARTESIAN_POINT('',(-0.089747837513174,0.282,0.129654388347959));
#1869=CARTESIAN_POINT('',(-0.097,0.282,0.129654388347959));
#1870=CARTESIAN_POINT('',(-0.097,0.282,0.135308223440329));
#1871=CARTESIAN_POINT('',(-0.097,0.282,0.127654388347959));
#1872=CARTESIAN_POINT('',(-0.097,0.282,0.125654388347959));
#1873=CARTESIAN_POINT('',(-0.095,0.282,0.125654388347959));
#1874=CARTESIAN_POINT('',(-0.095,0.282,0.122154388347959));
#1875=CARTESIAN_POINT('',(-0.095,0.282,0.118654388347959));
#1876=CARTESIAN_POINT('',(0.,0.282,0.118654388347959));
#1877=CARTESIAN_POINT('',(-0.084,0.282,0.123746695787831));
#1878=CARTESIAN_POINT('',(-0.095,0.282,0.122154388347959));
#1879=CARTESIAN_POINT('',(-0.095,0.242,0.122539902506858));
#1880=CARTESIAN_POINT('',(-0.095,0.242,0.124039902506858));
#1881=CARTESIAN_POINT('',(-0.095,0.252,0.122539902506858));
#1882=CARTESIAN_POINT('',(-0.095,0.252,0.124039902506858));
#1883=CARTESIAN_POINT('',(-0.095,0.262,0.122539902506858));
#1884=CARTESIAN_POINT('',(-0.095,0.262,0.124039902506858));
#1885=CARTESIAN_POINT('',(-0.095,0.282,0.118654388347959));
#1886=CARTESIAN_POINT('',(-0.095,0.282,0.125654388347959));
#1887=CARTESIAN_POINT('',(-0.1144,0.262,0.122539902506858));
#1888=CARTESIAN_POINT('',(-0.1144,0.252,0.122539902506858));
#1889=CARTESIAN_POINT('',(-0.1144,0.242,0.122539902506858));
#1890=CARTESIAN_POINT('',(-0.1144,0.262,0.122539902506858));
#1891=CARTESIAN_POINT('',(-0.1144,0.252,0.122539902506858));
#1892=CARTESIAN_POINT('',(-0.1144,0.242,0.122539902506858));
#1893=CARTESIAN_POINT('',(-0.097,0.28485017823704,0.118654388347959));
#1894=CARTESIAN_POINT('',(-0.097,0.284,0.118654388347959));
#1895=CARTESIAN_POINT('',(0.,0.284,0.118654388347959));
#1896=CARTESIAN_POINT('',(0.097,0.282,0.118654388347959));
#1897=CARTESIAN_POINT('',(0.097,0.284,0.118654388347959));
#1898=CARTESIAN_POINT('',(0.,0.284,0.118654388347959));
#1899=CARTESIAN_POINT('',(0.095,0.28,0.129654388347959));
#1900=CARTESIAN_POINT('',(0.097,0.28,0.129654388347959));
#1901=CARTESIAN_POINT('',(0.0882522589970845,0.28,0.131654388347959));
#1902=CARTESIAN_POINT('',(0.0881026736237006,0.280279428194369,0.131654388347959));
#1903=CARTESIAN_POINT('',(0.0879606665234414,0.280932707840555,0.131508171179787));
#1904=CARTESIAN_POINT('',(0.0884782434143464,0.281587633591715,0.130946402996702));
#1905=CARTESIAN_POINT('',(0.0891062477352048,0.281920019777948,0.130333194220492));
#1906=CARTESIAN_POINT('',(0.0895356186142374,0.282,0.129887129036495));
#1907=CARTESIAN_POINT('',(0.0897478375131739,0.282,0.129654388347959));
#1908=CARTESIAN_POINT('',(0.,0.28,0.129654388347959));
#1909=CARTESIAN_POINT('',(-0.097,0.28,0.129654388347959));
#1910=CARTESIAN_POINT('',(-0.089747837513174,0.282,0.129654388347959));
#1911=CARTESIAN_POINT('',(-0.0895354858021325,0.282,0.12988727469167));
#1912=CARTESIAN_POINT('',(-0.0891064538864782,0.281920143693213,0.130333022797444));
#1913=CARTESIAN_POINT('',(-0.0884767211210014,0.281586841441755,0.130947793378838));
#1914=CARTESIAN_POINT('',(-0.0879604280622497,0.280930480516521,0.131509077422575));
#1915=CARTESIAN_POINT('',(-0.0881029422501446,0.280278926395293,0.131654388347959));
#1916=CARTESIAN_POINT('',(-0.0882522589970845,0.28,0.131654388347959));
#1917=CARTESIAN_POINT('',(0.097,0.282,0.125654388347959));
#1918=CARTESIAN_POINT('',(0.097,0.282,0.127654388347959));
#1919=CARTESIAN_POINT('',(-0.097,0.282,0.125654388347959));
#1920=CARTESIAN_POINT('',(-0.097,0.282,0.127654388347959));
#1921=CARTESIAN_POINT('',(0.097,0.282,0.130654388347959));
#1922=CARTESIAN_POINT('',(0.097,0.28,0.130654388347959));
#1923=CARTESIAN_POINT('',(0.097,0.28,0.129654388347959));
#1924=CARTESIAN_POINT('',(0.097,0.281,0.129654388347959));
#1925=CARTESIAN_POINT('',(0.097,0.282,0.128654388347959));
#1926=CARTESIAN_POINT('',(0.097,0.281,0.128654388347959));
#1927=CARTESIAN_POINT('',(0.097,0.281,0.129654388347959));
#1928=CARTESIAN_POINT('',(-0.097,0.282,0.130654388347959));
#1929=CARTESIAN_POINT('',(-0.097,0.28,0.130654388347959));
#1930=CARTESIAN_POINT('',(-0.097,0.28,0.129654388347959));
#1931=CARTESIAN_POINT('',(-0.097,0.281,0.129654388347959));
#1932=CARTESIAN_POINT('',(-0.097,0.282,0.128654388347959));
#1933=CARTESIAN_POINT('',(-0.097,0.281,0.128654388347959));
#1934=CARTESIAN_POINT('',(-0.097,0.281,0.135308223440329));
#1935=CARTESIAN_POINT('',(-0.084,0.237763150584734,0.137962058532698));
#1936=CARTESIAN_POINT('',(-0.084,0.242142379213066,0.137962058532698));
#1937=CARTESIAN_POINT('',(-0.084,0.276318225118198,0.12577312108329));
#1938=CARTESIAN_POINT('',(-0.084,0.297056107640267,0.118376881247814));
#1939=CARTESIAN_POINT('',(-0.092,0.297056107640267,0.118376881247814));
#1940=CARTESIAN_POINT('',(0.084,0.297056107640267,0.118376881247814));
#1941=CARTESIAN_POINT('',(0.084,0.279092113084486,0.124783804037368));
#1942=CARTESIAN_POINT('',(0.084,0.242142379213066,0.137962058532698));
#1943=CARTESIAN_POINT('',(0.084,0.282,0.137962058532698));
#1944=MECHANICAL_DESIGN_GEOMETRIC_PRESENTATION_REPRESENTATION('',(#1145),
#1945);
#1945=(
GEOMETRIC_REPRESENTATION_CONTEXT(3)
GLOBAL_UNCERTAINTY_ASSIGNED_CONTEXT((#1946))
GLOBAL_UNIT_ASSIGNED_CONTEXT((#1949,#1948,#1947))
REPRESENTATION_CONTEXT('Back Top','TOP_LEVEL_ASSEMBLY_PART')
);
#1946=UNCERTAINTY_MEASURE_WITH_UNIT(LENGTH_MEASURE(2.E-5),#1949,
'DISTANCE_ACCURACY_VALUE','Maximum Tolerance applied to model');
#1947=(
NAMED_UNIT(*)
SI_UNIT($,.STERADIAN.)
SOLID_ANGLE_UNIT()
);
#1948=(
NAMED_UNIT(*)
PLANE_ANGLE_UNIT()
SI_UNIT($,.RADIAN.)
);
#1949=(
LENGTH_UNIT()
NAMED_UNIT(*)
SI_UNIT($,.METRE.)
);
#1950=PRODUCT_DEFINITION_SHAPE('','',#1951);
#1951=PRODUCT_DEFINITION('','',#1953,#1952);
#1952=PRODUCT_DEFINITION_CONTEXT('',#1959,'design');
#1953=PRODUCT_DEFINITION_FORMATION_WITH_SPECIFIED_SOURCE('','',#1955,
 .NOT_KNOWN.);
#1954=PRODUCT_RELATED_PRODUCT_CATEGORY('','',(#1955));
#1955=PRODUCT('Back Top','Back Top','Back Top',(#1957));
#1956=PRODUCT_CATEGORY('','');
#1957=PRODUCT_CONTEXT('',#1959,'mechanical');
#1958=APPLICATION_PROTOCOL_DEFINITION('international standard',
'ap242_managed_model_based_3d_engineering',2020,#1959);
#1959=APPLICATION_CONTEXT('managed model based 3d engineering');
ENDSEC;
END-ISO-10303-21;
