ISO-10303-21;
HEADER;
/* Generated by software containing ST-Developer
 * from STEP Tools, Inc. (www.steptools.com) 
 */
/* OPTION: using custom renumber hook */

FILE_DESCRIPTION(
/* description */ ('STEP AP214',
'CAx-IF Rec.Pracs.---User Defined Attributes---1.5---2016-08-15'),
/* implementation_level */ '2;1');

FILE_NAME(
/* name */ '6a7fac3c3a85a0e31bdd03b5',
/* time_stamp */ '2026-08-15T00:01:00Z',
/* author */ (''),
/* organization */ (''),
/* preprocessor_version */ 'ST-DEVELOPER v20',
/* originating_system */ 'ONSHAPE BY PTC INC, 1.219',
/* authorisation */ '  ');

FILE_SCHEMA (('AUTOMOTIVE_DESIGN {1 0 10303 214 3 1 1}'));
ENDSEC;

DATA;
#10=PROPERTY_DEFINITION_REPRESENTATION(#14,#12);
#11=PROPERTY_DEFINITION_REPRESENTATION(#15,#13);
#12=REPRESENTATION('',(#16),#117);
#13=REPRESENTATION('',(#17),#117);
#14=PROPERTY_DEFINITION('pmi validation property','',#122);
#15=PROPERTY_DEFINITION('pmi validation property','',#122);
#16=VALUE_REPRESENTATION_ITEM('number of annotations',COUNT_MEASURE(0.));
#17=VALUE_REPRESENTATION_ITEM('number of views',COUNT_MEASURE(0.));
#18=SHAPE_REPRESENTATION_RELATIONSHIP('','',#75,#19);
#19=ADVANCED_BREP_SHAPE_REPRESENTATION('',(#73),#117);
#20=CYLINDRICAL_SURFACE('',#83,0.02);
#21=CYLINDRICAL_SURFACE('',#84,0.018);
#22=ELLIPSE('',#81,0.0222520388095038,0.02);
#23=ELLIPSE('',#82,0.0200268349285534,0.018);
#24=ORIENTED_EDGE('',*,*,#32,.F.);
#25=ORIENTED_EDGE('',*,*,#33,.T.);
#26=ORIENTED_EDGE('',*,*,#34,.T.);
#27=ORIENTED_EDGE('',*,*,#35,.F.);
#28=ORIENTED_EDGE('',*,*,#33,.F.);
#29=ORIENTED_EDGE('',*,*,#34,.F.);
#30=ORIENTED_EDGE('',*,*,#35,.T.);
#31=ORIENTED_EDGE('',*,*,#32,.T.);
#32=EDGE_CURVE('',#36,#36,#40,.T.);
#33=EDGE_CURVE('',#37,#37,#41,.T.);
#34=EDGE_CURVE('',#38,#38,#22,.F.);
#35=EDGE_CURVE('',#39,#39,#23,.F.);
#36=VERTEX_POINT('',#106);
#37=VERTEX_POINT('',#108);
#38=VERTEX_POINT('',#111);
#39=VERTEX_POINT('',#113);
#40=CIRCLE('',#78,0.018);
#41=CIRCLE('',#79,0.02);
#42=EDGE_LOOP('',(#24));
#43=EDGE_LOOP('',(#25));
#44=EDGE_LOOP('',(#26));
#45=EDGE_LOOP('',(#27));
#46=EDGE_LOOP('',(#28));
#47=EDGE_LOOP('',(#29));
#48=EDGE_LOOP('',(#30));
#49=EDGE_LOOP('',(#31));
#50=FACE_BOUND('',#42,.T.);
#51=FACE_BOUND('',#43,.T.);
#52=FACE_BOUND('',#44,.T.);
#53=FACE_BOUND('',#45,.T.);
#54=FACE_BOUND('',#46,.T.);
#55=FACE_BOUND('',#47,.T.);
#56=FACE_BOUND('',#48,.T.);
#57=FACE_BOUND('',#49,.T.);
#58=PLANE('',#77);
#59=PLANE('',#80);
#60=ADVANCED_FACE('',(#50,#51),#58,.T.);
#61=ADVANCED_FACE('',(#52,#53),#59,.F.);
#62=ADVANCED_FACE('',(#54,#55),#20,.T.);
#63=ADVANCED_FACE('',(#56,#57),#21,.F.);
#64=CLOSED_SHELL('',(#60,#61,#62,#63));
#65=STYLED_ITEM('',(#66),#73);
#66=PRESENTATION_STYLE_ASSIGNMENT((#67));
#67=SURFACE_STYLE_USAGE(.BOTH.,#68);
#68=SURFACE_SIDE_STYLE('',(#69));
#69=SURFACE_STYLE_FILL_AREA(#70);
#70=FILL_AREA_STYLE('',(#71));
#71=FILL_AREA_STYLE_COLOUR('',#72);
#72=COLOUR_RGB('',0.501960784313726,0.501960784313726,0.501960784313726);
#73=MANIFOLD_SOLID_BREP('Arm Back Right',#64);
#74=SHAPE_DEFINITION_REPRESENTATION(#122,#75);
#75=SHAPE_REPRESENTATION('Arm Back Right',(#76),#117);
#76=AXIS2_PLACEMENT_3D('',#103,#85,#86);
#77=AXIS2_PLACEMENT_3D('',#104,#87,#88);
#78=AXIS2_PLACEMENT_3D('',#105,#89,#90);
#79=AXIS2_PLACEMENT_3D('',#107,#91,#92);
#80=AXIS2_PLACEMENT_3D('',#109,#93,#94);
#81=AXIS2_PLACEMENT_3D('',#110,#95,#96);
#82=AXIS2_PLACEMENT_3D('',#112,#97,#98);
#83=AXIS2_PLACEMENT_3D('',#114,#99,#100);
#84=AXIS2_PLACEMENT_3D('',#115,#101,#102);
#85=DIRECTION('',(0.,0.,1.));
#86=DIRECTION('',(1.,0.,0.));
#87=DIRECTION('',(0.898794046299166,0.438371146789079,0.));
#88=DIRECTION('',(-0.438371146789079,0.898794046299166,0.));
#89=DIRECTION('',(0.898794046299166,0.438371146789079,0.));
#90=DIRECTION('',(-0.438371146789079,0.898794046299166,0.));
#91=DIRECTION('',(0.898794046299166,0.438371146789079,0.));
#92=DIRECTION('',(-0.438371146789079,0.898794046299166,0.));
#93=DIRECTION('',(1.,6.12323399573677E-17,0.));
#94=DIRECTION('',(-6.12323399573677E-17,1.,0.));
#95=DIRECTION('',(1.,6.12323399573677E-17,0.));
#96=DIRECTION('',(-6.12323399573677E-17,1.,0.));
#97=DIRECTION('',(1.,6.12323399573677E-17,0.));
#98=DIRECTION('',(-6.12323399573677E-17,1.,0.));
#99=DIRECTION('',(0.898794046299166,0.438371146789079,0.));
#100=DIRECTION('',(-0.438371146789079,0.898794046299166,0.));
#101=DIRECTION('',(0.898794046299166,0.438371146789079,0.));
#102=DIRECTION('',(-0.438371146789079,0.898794046299166,0.));
#103=CARTESIAN_POINT('',(0.,0.,0.));
#104=CARTESIAN_POINT('',(0.557472826232694,0.412649703403102,0.0463));
#105=CARTESIAN_POINT('',(0.557472826232694,0.412649703403102,0.0263));
#106=CARTESIAN_POINT('',(0.549582145590491,0.428827996236487,0.0263));
#107=CARTESIAN_POINT('',(0.557472826232694,0.412649703403102,0.0263));
#108=CARTESIAN_POINT('',(0.548705403296912,0.430625584329086,0.0263));
#109=CARTESIAN_POINT('',(-2.9253875255709E-17,0.140752038809504,0.0463));
#110=CARTESIAN_POINT('',(-2.94902990916057E-17,0.140752038809503,0.0263));
#111=CARTESIAN_POINT('',(-3.08528434967338E-17,0.163004077619007,0.0263));
#112=CARTESIAN_POINT('',(-2.94902990916057E-17,0.140752038809503,0.0263));
#113=CARTESIAN_POINT('',(-3.0716589056221E-17,0.160778873738056,0.0263));
#114=CARTESIAN_POINT('',(-0.00876922052387408,0.136475004183689,0.0263));
#115=CARTESIAN_POINT('',(-0.00789247823029593,0.136902619972041,0.0263));
#116=MECHANICAL_DESIGN_GEOMETRIC_PRESENTATION_REPRESENTATION('',(#65),#117);
#117=(
GEOMETRIC_REPRESENTATION_CONTEXT(3)
GLOBAL_UNCERTAINTY_ASSIGNED_CONTEXT((#118))
GLOBAL_UNIT_ASSIGNED_CONTEXT((#121,#120,#119))
REPRESENTATION_CONTEXT('Arm Back Right','TOP_LEVEL_ASSEMBLY_PART')
);
#118=UNCERTAINTY_MEASURE_WITH_UNIT(LENGTH_MEASURE(1.E-8),#121,
'DISTANCE_ACCURACY_VALUE','Maximum Tolerance applied to model');
#119=(
NAMED_UNIT(*)
SI_UNIT($,.STERADIAN.)
SOLID_ANGLE_UNIT()
);
#120=(
NAMED_UNIT(*)
PLANE_ANGLE_UNIT()
SI_UNIT($,.RADIAN.)
);
#121=(
LENGTH_UNIT()
NAMED_UNIT(*)
SI_UNIT($,.METRE.)
);
#122=PRODUCT_DEFINITION_SHAPE('','',#123);
#123=PRODUCT_DEFINITION('','',#125,#124);
#124=PRODUCT_DEFINITION_CONTEXT('',#131,'design');
#125=PRODUCT_DEFINITION_FORMATION_WITH_SPECIFIED_SOURCE('','',#127,
 .NOT_KNOWN.);
#126=PRODUCT_RELATED_PRODUCT_CATEGORY('','',(#127));
#127=PRODUCT('Arm Back Right','Arm Back Right','Arm Back Right',(#129));
#128=PRODUCT_CATEGORY('','');
#129=PRODUCT_CONTEXT('',#131,'mechanical');
#130=APPLICATION_PROTOCOL_DEFINITION('international standard',
'automotive_design',2010,#131);
#131=APPLICATION_CONTEXT(
'core data for automotive mechanical design processes');
ENDSEC;
END-ISO-10303-21;
