ISO-10303-21;
HEADER;
/* Generated by software containing ST-Developer
 * from STEP Tools, Inc. (www.steptools.com) 
 */
/* OPTION: using custom renumber hook */

FILE_DESCRIPTION(
/* description */ ('STEP AP242 Edition 2',
'CAx-IF Rec.Pracs.---Representation and Presentation of Product Manufa
cturing Information (PMI)---4.0---2014-10-13',
'CAx-IF Rec.Pracs.---3D Tessellated Geometry---0.4---2014-09-14','2;1',
'CAx-IF Rec.Pracs.---User Defined Attributes---1.5---2016-08-15'),
/* implementation_level */ '2;1');

FILE_NAME(
/* name */ 'Fuselage Design v6 - ESC Clamp',
/* time_stamp */ '2026-08-06T02:47:04Z',
/* author */ (''),
/* organization */ (''),
/* preprocessor_version */ 'ST-DEVELOPER v20',
/* originating_system */ 'ONSHAPE BY PTC INC, 1.218',
/* authorisation */ '  ');

FILE_SCHEMA (('AP242_MANAGED_MODEL_BASED_3D_ENGINEERING_MIM_LF { 1 0 10303 442 3 1 4 }'));
ENDSEC;

DATA;
#10=SHAPE_REPRESENTATION_RELATIONSHIP('','',#747,#11);
#11=ADVANCED_BREP_SHAPE_REPRESENTATION('',(#745),#1329);
#12=B_SPLINE_CURVE_WITH_KNOTS('',3,(#1102,#1103,#1104,#1105,#1106,#1107,
#1108,#1109,#1110,#1111,#1112),.UNSPECIFIED.,.T.,.F.,(1,1,1,1,1,1,1,1,1,
1,1,1,1,1,1),(-0.00499276994290089,-0.00332851329526726,-0.00166425664763363,
0.,0.00166425664763363,0.00332851329526726,0.00499276994290089,0.00665702659053452,
0.00832128323816815,0.00998553988580178,0.0116497965334354,0.013314053181069,
0.0149783098287027,0.0166425664763363,0.0183068231239699),.UNSPECIFIED.);
#13=B_SPLINE_CURVE_WITH_KNOTS('',3,(#1114,#1115,#1116,#1117,#1118,#1119,
#1120,#1121,#1122,#1123,#1124),.UNSPECIFIED.,.T.,.F.,(1,1,1,1,1,1,1,1,1,
1,1,1,1,1,1),(-0.00499173800603235,-0.0033278253373549,-0.00166391266867745,
0.,0.00166391266867745,0.0033278253373549,0.00499173800603235,0.00665565067470981,
0.00831956334338726,0.00998347601206471,0.0116473886807422,0.0133113013494196,
0.0149752140180971,0.0166391266867745,0.018303039355452),.UNSPECIFIED.);
#14=B_SPLINE_CURVE_WITH_KNOTS('',3,(#1126,#1127,#1128,#1129,#1130,#1131,
#1132,#1133,#1134,#1135,#1136),.UNSPECIFIED.,.T.,.F.,(1,1,1,1,1,1,1,1,1,
1,1,1,1,1,1),(-0.00499173800603228,-0.00332782533735486,-0.00166391266867743,
0.,0.00166391266867743,0.00332782533735485,0.00499173800603228,0.00665565067470971,
0.00831956334338714,0.00998347601206456,0.011647388680742,0.0133113013494194,
0.0149752140180968,0.0166391266867743,0.0183030393554517),.UNSPECIFIED.);
#15=B_SPLINE_CURVE_WITH_KNOTS('',3,(#1138,#1139,#1140,#1141,#1142,#1143,
#1144,#1145,#1146,#1147,#1148),.UNSPECIFIED.,.T.,.F.,(1,1,1,1,1,1,1,1,1,
1,1,1,1,1,1),(-0.00499276994290079,-0.00332851329526719,-0.0016642566476336,
0.,0.0016642566476336,0.00332851329526719,0.00499276994290079,0.00665702659053439,
0.00832128323816798,0.00998553988580158,0.0116497965334352,0.0133140531810688,
0.0149783098287024,0.016642566476336,0.0183068231239696),.UNSPECIFIED.);
#16=B_SPLINE_CURVE_WITH_KNOTS('',3,(#1150,#1151,#1152,#1153,#1154,#1155,
#1156,#1157,#1158,#1159,#1160),.UNSPECIFIED.,.T.,.F.,(1,1,1,1,1,1,1,1,1,
1,1,1,1,1,1),(-0.00499362247575814,-0.00332908165050543,-0.00166454082525271,
0.,0.00166454082525271,0.00332908165050543,0.00499362247575814,0.00665816330101086,
0.00832270412626357,0.00998724495151629,0.011651785776769,0.0133163266020217,
0.0149808674272744,0.0166454082525271,0.0183099490777799),.UNSPECIFIED.);
#17=B_SPLINE_CURVE_WITH_KNOTS('',3,(#1162,#1163,#1164,#1165,#1166,#1167,
#1168,#1169,#1170,#1171,#1172),.UNSPECIFIED.,.T.,.F.,(1,1,1,1,1,1,1,1,1,
1,1,1,1,1,1),(-0.00499518593417366,-0.00333012395611577,-0.00166506197805789,
0.,0.00166506197805789,0.00333012395611577,0.00499518593417366,0.00666024791223154,
0.00832530989028943,0.00999037186834731,0.0116554338464052,0.0133204958244631,
0.014985557802521,0.0166506197805789,0.0183156817586367),.UNSPECIFIED.);
#18=B_SPLINE_CURVE_WITH_KNOTS('',3,(#1174,#1175,#1176,#1177,#1178,#1179,
#1180,#1181,#1182,#1183,#1184),.UNSPECIFIED.,.T.,.F.,(1,1,1,1,1,1,1,1,1,
1,1,1,1,1,1),(-0.00499518593417375,-0.00333012395611584,-0.00166506197805792,
0.,0.00166506197805792,0.00333012395611584,0.00499518593417375,0.00666024791223167,
0.00832530989028959,0.00999037186834751,0.0116554338464054,0.0133204958244633,
0.0149855578025213,0.0166506197805792,0.0183156817586371),.UNSPECIFIED.);
#19=B_SPLINE_CURVE_WITH_KNOTS('',3,(#1186,#1187,#1188,#1189,#1190,#1191,
#1192,#1193,#1194,#1195,#1196),.UNSPECIFIED.,.T.,.F.,(1,1,1,1,1,1,1,1,1,
1,1,1,1,1,1),(-0.00499362247575817,-0.00332908165050544,-0.00166454082525272,
0.,0.00166454082525272,0.00332908165050544,0.00499362247575817,0.00665816330101089,
0.00832270412626361,0.00998724495151633,0.0116517857767691,0.0133163266020218,
0.0149808674272745,0.0166454082525272,0.0183099490777799),.UNSPECIFIED.);
#20=CYLINDRICAL_SURFACE('',#765,0.02635);
#21=CYLINDRICAL_SURFACE('',#781,0.0021);
#22=CYLINDRICAL_SURFACE('',#783,0.0021);
#23=CYLINDRICAL_SURFACE('',#793,0.0021);
#24=CYLINDRICAL_SURFACE('',#794,0.0021);
#25=CYLINDRICAL_SURFACE('',#795,0.0021);
#26=CYLINDRICAL_SURFACE('',#796,0.0021);
#27=CYLINDRICAL_SURFACE('',#797,0.0021);
#28=CYLINDRICAL_SURFACE('',#798,0.0021);
#29=CYLINDRICAL_SURFACE('',#815,0.004);
#30=CYLINDRICAL_SURFACE('',#816,0.004);
#31=CYLINDRICAL_SURFACE('',#817,0.004);
#32=CYLINDRICAL_SURFACE('',#818,0.004);
#33=CYLINDRICAL_SURFACE('',#819,0.004);
#34=CYLINDRICAL_SURFACE('',#820,0.004);
#35=CYLINDRICAL_SURFACE('',#821,0.004);
#36=CYLINDRICAL_SURFACE('',#822,0.004);
#37=CYLINDRICAL_SURFACE('',#823,0.008);
#38=CYLINDRICAL_SURFACE('',#824,0.008);
#39=CYLINDRICAL_SURFACE('',#825,0.008);
#40=CYLINDRICAL_SURFACE('',#826,0.008);
#41=CYLINDRICAL_SURFACE('',#827,0.0021);
#42=CYLINDRICAL_SURFACE('',#828,0.0021);
#43=CYLINDRICAL_SURFACE('',#829,0.0021);
#44=CYLINDRICAL_SURFACE('',#830,0.0021);
#45=CYLINDRICAL_SURFACE('',#831,0.0021);
#46=CYLINDRICAL_SURFACE('',#832,0.0021);
#47=CIRCLE('',#752,0.008);
#48=CIRCLE('',#753,0.008);
#49=CIRCLE('',#754,0.008);
#50=CIRCLE('',#755,0.004);
#51=CIRCLE('',#756,0.004);
#52=CIRCLE('',#757,0.004);
#53=CIRCLE('',#758,0.004);
#54=CIRCLE('',#759,0.02635);
#55=CIRCLE('',#760,0.004);
#56=CIRCLE('',#761,0.004);
#57=CIRCLE('',#762,0.004);
#58=CIRCLE('',#763,0.004);
#59=CIRCLE('',#764,0.008);
#60=CIRCLE('',#766,0.02635);
#61=CIRCLE('',#768,0.008);
#62=CIRCLE('',#769,0.008);
#63=CIRCLE('',#770,0.004);
#64=CIRCLE('',#771,0.004);
#65=CIRCLE('',#772,0.004);
#66=CIRCLE('',#773,0.004);
#67=CIRCLE('',#774,0.004);
#68=CIRCLE('',#775,0.004);
#69=CIRCLE('',#776,0.004);
#70=CIRCLE('',#777,0.004);
#71=CIRCLE('',#778,0.008);
#72=CIRCLE('',#779,0.008);
#73=CIRCLE('',#782,0.0021);
#74=CIRCLE('',#784,0.0021);
#75=CIRCLE('',#786,0.0021);
#76=CIRCLE('',#787,0.0021);
#77=CIRCLE('',#788,0.0021);
#78=CIRCLE('',#790,0.0021);
#79=CIRCLE('',#791,0.0021);
#80=CIRCLE('',#792,0.0021);
#81=CIRCLE('',#800,0.0021);
#82=CIRCLE('',#801,0.0021);
#83=CIRCLE('',#802,0.0021);
#84=CIRCLE('',#804,0.0021);
#85=CIRCLE('',#805,0.0021);
#86=CIRCLE('',#806,0.0021);
#87=CIRCLE('',#808,0.0021);
#88=CIRCLE('',#809,0.0021);
#89=CIRCLE('',#810,0.0021);
#90=CIRCLE('',#812,0.0021);
#91=CIRCLE('',#813,0.0021);
#92=CIRCLE('',#814,0.0021);
#93=ORIENTED_EDGE('',*,*,#281,.F.);
#94=ORIENTED_EDGE('',*,*,#282,.T.);
#95=ORIENTED_EDGE('',*,*,#283,.T.);
#96=ORIENTED_EDGE('',*,*,#284,.T.);
#97=ORIENTED_EDGE('',*,*,#285,.T.);
#98=ORIENTED_EDGE('',*,*,#286,.T.);
#99=ORIENTED_EDGE('',*,*,#287,.F.);
#100=ORIENTED_EDGE('',*,*,#288,.T.);
#101=ORIENTED_EDGE('',*,*,#289,.T.);
#102=ORIENTED_EDGE('',*,*,#290,.T.);
#103=ORIENTED_EDGE('',*,*,#291,.T.);
#104=ORIENTED_EDGE('',*,*,#292,.T.);
#105=ORIENTED_EDGE('',*,*,#293,.F.);
#106=ORIENTED_EDGE('',*,*,#294,.T.);
#107=ORIENTED_EDGE('',*,*,#285,.F.);
#108=ORIENTED_EDGE('',*,*,#295,.T.);
#109=ORIENTED_EDGE('',*,*,#296,.F.);
#110=ORIENTED_EDGE('',*,*,#297,.T.);
#111=ORIENTED_EDGE('',*,*,#298,.T.);
#112=ORIENTED_EDGE('',*,*,#299,.F.);
#113=ORIENTED_EDGE('',*,*,#300,.T.);
#114=ORIENTED_EDGE('',*,*,#301,.F.);
#115=ORIENTED_EDGE('',*,*,#302,.T.);
#116=ORIENTED_EDGE('',*,*,#303,.T.);
#117=ORIENTED_EDGE('',*,*,#304,.T.);
#118=ORIENTED_EDGE('',*,*,#305,.T.);
#119=ORIENTED_EDGE('',*,*,#306,.T.);
#120=ORIENTED_EDGE('',*,*,#307,.T.);
#121=ORIENTED_EDGE('',*,*,#283,.F.);
#122=ORIENTED_EDGE('',*,*,#308,.T.);
#123=ORIENTED_EDGE('',*,*,#309,.F.);
#124=ORIENTED_EDGE('',*,*,#310,.F.);
#125=ORIENTED_EDGE('',*,*,#311,.F.);
#126=ORIENTED_EDGE('',*,*,#312,.F.);
#127=ORIENTED_EDGE('',*,*,#313,.F.);
#128=ORIENTED_EDGE('',*,*,#314,.F.);
#129=ORIENTED_EDGE('',*,*,#315,.F.);
#130=ORIENTED_EDGE('',*,*,#316,.F.);
#131=ORIENTED_EDGE('',*,*,#317,.T.);
#132=ORIENTED_EDGE('',*,*,#318,.T.);
#133=ORIENTED_EDGE('',*,*,#301,.T.);
#134=ORIENTED_EDGE('',*,*,#319,.T.);
#135=ORIENTED_EDGE('',*,*,#320,.F.);
#136=ORIENTED_EDGE('',*,*,#321,.T.);
#137=ORIENTED_EDGE('',*,*,#322,.T.);
#138=ORIENTED_EDGE('',*,*,#323,.T.);
#139=ORIENTED_EDGE('',*,*,#281,.T.);
#140=ORIENTED_EDGE('',*,*,#324,.T.);
#141=ORIENTED_EDGE('',*,*,#325,.F.);
#142=ORIENTED_EDGE('',*,*,#326,.T.);
#143=ORIENTED_EDGE('',*,*,#327,.T.);
#144=ORIENTED_EDGE('',*,*,#328,.F.);
#145=ORIENTED_EDGE('',*,*,#329,.T.);
#146=ORIENTED_EDGE('',*,*,#317,.F.);
#147=ORIENTED_EDGE('',*,*,#330,.T.);
#148=ORIENTED_EDGE('',*,*,#331,.T.);
#149=ORIENTED_EDGE('',*,*,#332,.T.);
#150=ORIENTED_EDGE('',*,*,#333,.T.);
#151=ORIENTED_EDGE('',*,*,#334,.T.);
#152=ORIENTED_EDGE('',*,*,#335,.T.);
#153=ORIENTED_EDGE('',*,*,#287,.T.);
#154=ORIENTED_EDGE('',*,*,#336,.T.);
#155=ORIENTED_EDGE('',*,*,#337,.F.);
#156=ORIENTED_EDGE('',*,*,#338,.T.);
#157=ORIENTED_EDGE('',*,*,#291,.F.);
#158=ORIENTED_EDGE('',*,*,#339,.T.);
#159=ORIENTED_EDGE('',*,*,#320,.T.);
#160=ORIENTED_EDGE('',*,*,#340,.T.);
#161=ORIENTED_EDGE('',*,*,#341,.T.);
#162=ORIENTED_EDGE('',*,*,#313,.T.);
#163=ORIENTED_EDGE('',*,*,#312,.T.);
#164=ORIENTED_EDGE('',*,*,#342,.F.);
#165=ORIENTED_EDGE('',*,*,#293,.T.);
#166=ORIENTED_EDGE('',*,*,#343,.T.);
#167=ORIENTED_EDGE('',*,*,#337,.T.);
#168=ORIENTED_EDGE('',*,*,#344,.T.);
#169=ORIENTED_EDGE('',*,*,#345,.F.);
#170=ORIENTED_EDGE('',*,*,#341,.F.);
#171=ORIENTED_EDGE('',*,*,#346,.F.);
#172=ORIENTED_EDGE('',*,*,#347,.F.);
#173=ORIENTED_EDGE('',*,*,#322,.F.);
#174=ORIENTED_EDGE('',*,*,#348,.T.);
#175=ORIENTED_EDGE('',*,*,#289,.F.);
#176=ORIENTED_EDGE('',*,*,#349,.T.);
#177=ORIENTED_EDGE('',*,*,#342,.T.);
#178=ORIENTED_EDGE('',*,*,#350,.T.);
#179=ORIENTED_EDGE('',*,*,#351,.T.);
#180=ORIENTED_EDGE('',*,*,#352,.T.);
#181=ORIENTED_EDGE('',*,*,#346,.T.);
#182=ORIENTED_EDGE('',*,*,#314,.T.);
#183=ORIENTED_EDGE('',*,*,#311,.T.);
#184=ORIENTED_EDGE('',*,*,#350,.F.);
#185=ORIENTED_EDGE('',*,*,#345,.T.);
#186=ORIENTED_EDGE('',*,*,#315,.T.);
#187=ORIENTED_EDGE('',*,*,#310,.T.);
#188=ORIENTED_EDGE('',*,*,#351,.F.);
#189=ORIENTED_EDGE('',*,*,#347,.T.);
#190=ORIENTED_EDGE('',*,*,#316,.T.);
#191=ORIENTED_EDGE('',*,*,#309,.T.);
#192=ORIENTED_EDGE('',*,*,#352,.F.);
#193=ORIENTED_EDGE('',*,*,#353,.F.);
#194=ORIENTED_EDGE('',*,*,#354,.F.);
#195=ORIENTED_EDGE('',*,*,#355,.F.);
#196=ORIENTED_EDGE('',*,*,#303,.F.);
#197=ORIENTED_EDGE('',*,*,#356,.T.);
#198=ORIENTED_EDGE('',*,*,#328,.T.);
#199=ORIENTED_EDGE('',*,*,#357,.T.);
#200=ORIENTED_EDGE('',*,*,#358,.F.);
#201=ORIENTED_EDGE('',*,*,#359,.F.);
#202=ORIENTED_EDGE('',*,*,#360,.F.);
#203=ORIENTED_EDGE('',*,*,#331,.F.);
#204=ORIENTED_EDGE('',*,*,#361,.T.);
#205=ORIENTED_EDGE('',*,*,#299,.T.);
#206=ORIENTED_EDGE('',*,*,#362,.T.);
#207=ORIENTED_EDGE('',*,*,#363,.T.);
#208=ORIENTED_EDGE('',*,*,#364,.T.);
#209=ORIENTED_EDGE('',*,*,#365,.T.);
#210=ORIENTED_EDGE('',*,*,#306,.F.);
#211=ORIENTED_EDGE('',*,*,#366,.T.);
#212=ORIENTED_EDGE('',*,*,#325,.T.);
#213=ORIENTED_EDGE('',*,*,#367,.T.);
#214=ORIENTED_EDGE('',*,*,#368,.F.);
#215=ORIENTED_EDGE('',*,*,#369,.F.);
#216=ORIENTED_EDGE('',*,*,#370,.F.);
#217=ORIENTED_EDGE('',*,*,#334,.F.);
#218=ORIENTED_EDGE('',*,*,#371,.T.);
#219=ORIENTED_EDGE('',*,*,#296,.T.);
#220=ORIENTED_EDGE('',*,*,#372,.T.);
#221=ORIENTED_EDGE('',*,*,#302,.F.);
#222=ORIENTED_EDGE('',*,*,#318,.F.);
#223=ORIENTED_EDGE('',*,*,#329,.F.);
#224=ORIENTED_EDGE('',*,*,#356,.F.);
#225=ORIENTED_EDGE('',*,*,#330,.F.);
#226=ORIENTED_EDGE('',*,*,#319,.F.);
#227=ORIENTED_EDGE('',*,*,#300,.F.);
#228=ORIENTED_EDGE('',*,*,#361,.F.);
#229=ORIENTED_EDGE('',*,*,#373,.F.);
#230=ORIENTED_EDGE('',*,*,#332,.F.);
#231=ORIENTED_EDGE('',*,*,#362,.F.);
#232=ORIENTED_EDGE('',*,*,#298,.F.);
#233=ORIENTED_EDGE('',*,*,#333,.F.);
#234=ORIENTED_EDGE('',*,*,#373,.T.);
#235=ORIENTED_EDGE('',*,*,#297,.F.);
#236=ORIENTED_EDGE('',*,*,#371,.F.);
#237=ORIENTED_EDGE('',*,*,#366,.F.);
#238=ORIENTED_EDGE('',*,*,#305,.F.);
#239=ORIENTED_EDGE('',*,*,#374,.F.);
#240=ORIENTED_EDGE('',*,*,#326,.F.);
#241=ORIENTED_EDGE('',*,*,#304,.F.);
#242=ORIENTED_EDGE('',*,*,#357,.F.);
#243=ORIENTED_EDGE('',*,*,#327,.F.);
#244=ORIENTED_EDGE('',*,*,#374,.T.);
#245=ORIENTED_EDGE('',*,*,#324,.F.);
#246=ORIENTED_EDGE('',*,*,#284,.F.);
#247=ORIENTED_EDGE('',*,*,#307,.F.);
#248=ORIENTED_EDGE('',*,*,#367,.F.);
#249=ORIENTED_EDGE('',*,*,#335,.F.);
#250=ORIENTED_EDGE('',*,*,#372,.F.);
#251=ORIENTED_EDGE('',*,*,#295,.F.);
#252=ORIENTED_EDGE('',*,*,#288,.F.);
#253=ORIENTED_EDGE('',*,*,#290,.F.);
#254=ORIENTED_EDGE('',*,*,#348,.F.);
#255=ORIENTED_EDGE('',*,*,#321,.F.);
#256=ORIENTED_EDGE('',*,*,#339,.F.);
#257=ORIENTED_EDGE('',*,*,#308,.F.);
#258=ORIENTED_EDGE('',*,*,#282,.F.);
#259=ORIENTED_EDGE('',*,*,#323,.F.);
#260=ORIENTED_EDGE('',*,*,#349,.F.);
#261=ORIENTED_EDGE('',*,*,#292,.F.);
#262=ORIENTED_EDGE('',*,*,#340,.F.);
#263=ORIENTED_EDGE('',*,*,#338,.F.);
#264=ORIENTED_EDGE('',*,*,#343,.F.);
#265=ORIENTED_EDGE('',*,*,#294,.F.);
#266=ORIENTED_EDGE('',*,*,#344,.F.);
#267=ORIENTED_EDGE('',*,*,#336,.F.);
#268=ORIENTED_EDGE('',*,*,#286,.F.);
#269=ORIENTED_EDGE('',*,*,#360,.T.);
#270=ORIENTED_EDGE('',*,*,#370,.T.);
#271=ORIENTED_EDGE('',*,*,#359,.T.);
#272=ORIENTED_EDGE('',*,*,#369,.T.);
#273=ORIENTED_EDGE('',*,*,#358,.T.);
#274=ORIENTED_EDGE('',*,*,#368,.T.);
#275=ORIENTED_EDGE('',*,*,#355,.T.);
#276=ORIENTED_EDGE('',*,*,#365,.F.);
#277=ORIENTED_EDGE('',*,*,#354,.T.);
#278=ORIENTED_EDGE('',*,*,#364,.F.);
#279=ORIENTED_EDGE('',*,*,#353,.T.);
#280=ORIENTED_EDGE('',*,*,#363,.F.);
#281=EDGE_CURVE('',#375,#376,#447,.T.);
#282=EDGE_CURVE('',#375,#377,#448,.F.);
#283=EDGE_CURVE('',#377,#378,#449,.T.);
#284=EDGE_CURVE('',#378,#376,#450,.F.);
#285=EDGE_CURVE('',#379,#380,#451,.T.);
#286=EDGE_CURVE('',#380,#381,#452,.T.);
#287=EDGE_CURVE('',#382,#381,#453,.T.);
#288=EDGE_CURVE('',#382,#379,#454,.T.);
#289=EDGE_CURVE('',#383,#384,#455,.T.);
#290=EDGE_CURVE('',#384,#385,#47,.T.);
#291=EDGE_CURVE('',#385,#386,#456,.T.);
#292=EDGE_CURVE('',#386,#387,#48,.T.);
#293=EDGE_CURVE('',#388,#387,#457,.T.);
#294=EDGE_CURVE('',#388,#380,#49,.T.);
#295=EDGE_CURVE('',#379,#389,#50,.F.);
#296=EDGE_CURVE('',#390,#389,#458,.T.);
#297=EDGE_CURVE('',#390,#391,#51,.T.);
#298=EDGE_CURVE('',#391,#392,#52,.T.);
#299=EDGE_CURVE('',#393,#392,#459,.T.);
#300=EDGE_CURVE('',#393,#394,#53,.T.);
#301=EDGE_CURVE('',#395,#394,#54,.T.);
#302=EDGE_CURVE('',#395,#396,#55,.T.);
#303=EDGE_CURVE('',#396,#397,#460,.T.);
#304=EDGE_CURVE('',#397,#398,#56,.T.);
#305=EDGE_CURVE('',#398,#399,#57,.T.);
#306=EDGE_CURVE('',#399,#400,#461,.T.);
#307=EDGE_CURVE('',#400,#378,#58,.F.);
#308=EDGE_CURVE('',#377,#383,#59,.T.);
#309=EDGE_CURVE('',#401,#401,#12,.T.);
#310=EDGE_CURVE('',#402,#402,#13,.T.);
#311=EDGE_CURVE('',#403,#403,#14,.T.);
#312=EDGE_CURVE('',#404,#404,#15,.T.);
#313=EDGE_CURVE('',#405,#405,#16,.T.);
#314=EDGE_CURVE('',#406,#406,#17,.T.);
#315=EDGE_CURVE('',#407,#407,#18,.T.);
#316=EDGE_CURVE('',#408,#408,#19,.T.);
#317=EDGE_CURVE('',#409,#410,#60,.T.);
#318=EDGE_CURVE('',#410,#395,#462,.F.);
#319=EDGE_CURVE('',#394,#409,#463,.T.);
#320=EDGE_CURVE('',#411,#412,#464,.T.);
#321=EDGE_CURVE('',#411,#413,#61,.F.);
#322=EDGE_CURVE('',#413,#414,#465,.T.);
#323=EDGE_CURVE('',#414,#375,#62,.F.);
#324=EDGE_CURVE('',#376,#415,#63,.T.);
#325=EDGE_CURVE('',#416,#415,#466,.T.);
#326=EDGE_CURVE('',#416,#417,#64,.F.);
#327=EDGE_CURVE('',#417,#418,#65,.F.);
#328=EDGE_CURVE('',#419,#418,#467,.T.);
#329=EDGE_CURVE('',#419,#410,#66,.F.);
#330=EDGE_CURVE('',#409,#420,#67,.F.);
#331=EDGE_CURVE('',#420,#421,#468,.T.);
#332=EDGE_CURVE('',#421,#422,#68,.F.);
#333=EDGE_CURVE('',#422,#423,#69,.F.);
#334=EDGE_CURVE('',#423,#424,#469,.T.);
#335=EDGE_CURVE('',#424,#382,#70,.T.);
#336=EDGE_CURVE('',#381,#425,#71,.F.);
#337=EDGE_CURVE('',#426,#425,#470,.T.);
#338=EDGE_CURVE('',#426,#412,#72,.F.);
#339=EDGE_CURVE('',#385,#411,#471,.T.);
#340=EDGE_CURVE('',#412,#386,#472,.F.);
#341=EDGE_CURVE('',#427,#427,#73,.F.);
#342=EDGE_CURVE('',#428,#428,#74,.F.);
#343=EDGE_CURVE('',#387,#426,#473,.T.);
#344=EDGE_CURVE('',#425,#388,#474,.F.);
#345=EDGE_CURVE('',#429,#429,#75,.F.);
#346=EDGE_CURVE('',#430,#430,#76,.F.);
#347=EDGE_CURVE('',#431,#431,#77,.F.);
#348=EDGE_CURVE('',#413,#384,#475,.F.);
#349=EDGE_CURVE('',#383,#414,#476,.T.);
#350=EDGE_CURVE('',#432,#432,#78,.F.);
#351=EDGE_CURVE('',#433,#433,#79,.F.);
#352=EDGE_CURVE('',#434,#434,#80,.F.);
#353=EDGE_CURVE('',#435,#435,#81,.T.);
#354=EDGE_CURVE('',#436,#436,#82,.T.);
#355=EDGE_CURVE('',#437,#437,#83,.T.);
#356=EDGE_CURVE('',#396,#419,#477,.F.);
#357=EDGE_CURVE('',#418,#397,#478,.F.);
#358=EDGE_CURVE('',#438,#438,#84,.T.);
#359=EDGE_CURVE('',#439,#439,#85,.T.);
#360=EDGE_CURVE('',#440,#440,#86,.T.);
#361=EDGE_CURVE('',#420,#393,#479,.T.);
#362=EDGE_CURVE('',#392,#421,#480,.F.);
#363=EDGE_CURVE('',#441,#441,#87,.T.);
#364=EDGE_CURVE('',#442,#442,#88,.T.);
#365=EDGE_CURVE('',#443,#443,#89,.T.);
#366=EDGE_CURVE('',#399,#416,#481,.F.);
#367=EDGE_CURVE('',#415,#400,#482,.T.);
#368=EDGE_CURVE('',#444,#444,#90,.T.);
#369=EDGE_CURVE('',#445,#445,#91,.T.);
#370=EDGE_CURVE('',#446,#446,#92,.T.);
#371=EDGE_CURVE('',#423,#390,#483,.T.);
#372=EDGE_CURVE('',#389,#424,#484,.F.);
#373=EDGE_CURVE('',#422,#391,#485,.T.);
#374=EDGE_CURVE('',#417,#398,#486,.F.);
#375=VERTEX_POINT('',#1046);
#376=VERTEX_POINT('',#1047);
#377=VERTEX_POINT('',#1049);
#378=VERTEX_POINT('',#1051);
#379=VERTEX_POINT('',#1055);
#380=VERTEX_POINT('',#1056);
#381=VERTEX_POINT('',#1058);
#382=VERTEX_POINT('',#1060);
#383=VERTEX_POINT('',#1064);
#384=VERTEX_POINT('',#1065);
#385=VERTEX_POINT('',#1067);
#386=VERTEX_POINT('',#1069);
#387=VERTEX_POINT('',#1071);
#388=VERTEX_POINT('',#1073);
#389=VERTEX_POINT('',#1076);
#390=VERTEX_POINT('',#1078);
#391=VERTEX_POINT('',#1080);
#392=VERTEX_POINT('',#1082);
#393=VERTEX_POINT('',#1084);
#394=VERTEX_POINT('',#1086);
#395=VERTEX_POINT('',#1088);
#396=VERTEX_POINT('',#1090);
#397=VERTEX_POINT('',#1092);
#398=VERTEX_POINT('',#1094);
#399=VERTEX_POINT('',#1096);
#400=VERTEX_POINT('',#1098);
#401=VERTEX_POINT('',#1113);
#402=VERTEX_POINT('',#1125);
#403=VERTEX_POINT('',#1137);
#404=VERTEX_POINT('',#1149);
#405=VERTEX_POINT('',#1161);
#406=VERTEX_POINT('',#1173);
#407=VERTEX_POINT('',#1185);
#408=VERTEX_POINT('',#1197);
#409=VERTEX_POINT('',#1199);
#410=VERTEX_POINT('',#1200);
#411=VERTEX_POINT('',#1205);
#412=VERTEX_POINT('',#1206);
#413=VERTEX_POINT('',#1208);
#414=VERTEX_POINT('',#1210);
#415=VERTEX_POINT('',#1213);
#416=VERTEX_POINT('',#1215);
#417=VERTEX_POINT('',#1217);
#418=VERTEX_POINT('',#1219);
#419=VERTEX_POINT('',#1221);
#420=VERTEX_POINT('',#1224);
#421=VERTEX_POINT('',#1226);
#422=VERTEX_POINT('',#1228);
#423=VERTEX_POINT('',#1230);
#424=VERTEX_POINT('',#1232);
#425=VERTEX_POINT('',#1235);
#426=VERTEX_POINT('',#1237);
#427=VERTEX_POINT('',#1244);
#428=VERTEX_POINT('',#1247);
#429=VERTEX_POINT('',#1252);
#430=VERTEX_POINT('',#1254);
#431=VERTEX_POINT('',#1256);
#432=VERTEX_POINT('',#1261);
#433=VERTEX_POINT('',#1263);
#434=VERTEX_POINT('',#1265);
#435=VERTEX_POINT('',#1274);
#436=VERTEX_POINT('',#1276);
#437=VERTEX_POINT('',#1278);
#438=VERTEX_POINT('',#1283);
#439=VERTEX_POINT('',#1285);
#440=VERTEX_POINT('',#1287);
#441=VERTEX_POINT('',#1292);
#442=VERTEX_POINT('',#1294);
#443=VERTEX_POINT('',#1296);
#444=VERTEX_POINT('',#1301);
#445=VERTEX_POINT('',#1303);
#446=VERTEX_POINT('',#1305);
#447=LINE('',#1045,#487);
#448=LINE('',#1048,#488);
#449=LINE('',#1050,#489);
#450=LINE('',#1052,#490);
#451=LINE('',#1054,#491);
#452=LINE('',#1057,#492);
#453=LINE('',#1059,#493);
#454=LINE('',#1061,#494);
#455=LINE('',#1063,#495);
#456=LINE('',#1068,#496);
#457=LINE('',#1072,#497);
#458=LINE('',#1077,#498);
#459=LINE('',#1083,#499);
#460=LINE('',#1091,#500);
#461=LINE('',#1097,#501);
#462=LINE('',#1201,#502);
#463=LINE('',#1202,#503);
#464=LINE('',#1204,#504);
#465=LINE('',#1209,#505);
#466=LINE('',#1214,#506);
#467=LINE('',#1220,#507);
#468=LINE('',#1225,#508);
#469=LINE('',#1231,#509);
#470=LINE('',#1236,#510);
#471=LINE('',#1240,#511);
#472=LINE('',#1241,#512);
#473=LINE('',#1249,#513);
#474=LINE('',#1250,#514);
#475=LINE('',#1258,#515);
#476=LINE('',#1259,#516);
#477=LINE('',#1279,#517);
#478=LINE('',#1280,#518);
#479=LINE('',#1288,#519);
#480=LINE('',#1289,#520);
#481=LINE('',#1297,#521);
#482=LINE('',#1298,#522);
#483=LINE('',#1306,#523);
#484=LINE('',#1307,#524);
#485=LINE('',#1311,#525);
#486=LINE('',#1314,#526);
#487=VECTOR('',#837,1.);
#488=VECTOR('',#838,1.);
#489=VECTOR('',#839,1.);
#490=VECTOR('',#840,1.);
#491=VECTOR('',#843,1.);
#492=VECTOR('',#844,1.);
#493=VECTOR('',#845,1.);
#494=VECTOR('',#846,1.);
#495=VECTOR('',#849,1.);
#496=VECTOR('',#852,1.);
#497=VECTOR('',#855,1.);
#498=VECTOR('',#860,1.);
#499=VECTOR('',#865,1.);
#500=VECTOR('',#872,1.);
#501=VECTOR('',#877,1.);
#502=VECTOR('',#886,1.);
#503=VECTOR('',#887,1.);
#504=VECTOR('',#890,1.);
#505=VECTOR('',#893,1.);
#506=VECTOR('',#898,1.);
#507=VECTOR('',#903,1.);
#508=VECTOR('',#908,1.);
#509=VECTOR('',#913,1.);
#510=VECTOR('',#918,1.);
#511=VECTOR('',#923,1.);
#512=VECTOR('',#924,1.);
#513=VECTOR('',#935,1.);
#514=VECTOR('',#936,1.);
#515=VECTOR('',#945,1.);
#516=VECTOR('',#946,1.);
#517=VECTOR('',#973,1.);
#518=VECTOR('',#974,1.);
#519=VECTOR('',#983,1.);
#520=VECTOR('',#984,1.);
#521=VECTOR('',#993,1.);
#522=VECTOR('',#994,1.);
#523=VECTOR('',#1003,1.);
#524=VECTOR('',#1004,1.);
#525=VECTOR('',#1011,1.);
#526=VECTOR('',#1016,1.);
#527=EDGE_LOOP('',(#93,#94,#95,#96));
#528=EDGE_LOOP('',(#97,#98,#99,#100));
#529=EDGE_LOOP('',(#101,#102,#103,#104,#105,#106,#107,#108,#109,#110,#111,
#112,#113,#114,#115,#116,#117,#118,#119,#120,#121,#122));
#530=EDGE_LOOP('',(#123));
#531=EDGE_LOOP('',(#124));
#532=EDGE_LOOP('',(#125));
#533=EDGE_LOOP('',(#126));
#534=EDGE_LOOP('',(#127));
#535=EDGE_LOOP('',(#128));
#536=EDGE_LOOP('',(#129));
#537=EDGE_LOOP('',(#130));
#538=EDGE_LOOP('',(#131,#132,#133,#134));
#539=EDGE_LOOP('',(#135,#136,#137,#138,#139,#140,#141,#142,#143,#144,#145,
#146,#147,#148,#149,#150,#151,#152,#153,#154,#155,#156));
#540=EDGE_LOOP('',(#157,#158,#159,#160));
#541=EDGE_LOOP('',(#161));
#542=EDGE_LOOP('',(#162));
#543=EDGE_LOOP('',(#163));
#544=EDGE_LOOP('',(#164));
#545=EDGE_LOOP('',(#165,#166,#167,#168));
#546=EDGE_LOOP('',(#169));
#547=EDGE_LOOP('',(#170));
#548=EDGE_LOOP('',(#171));
#549=EDGE_LOOP('',(#172));
#550=EDGE_LOOP('',(#173,#174,#175,#176));
#551=EDGE_LOOP('',(#177));
#552=EDGE_LOOP('',(#178));
#553=EDGE_LOOP('',(#179));
#554=EDGE_LOOP('',(#180));
#555=EDGE_LOOP('',(#181));
#556=EDGE_LOOP('',(#182));
#557=EDGE_LOOP('',(#183));
#558=EDGE_LOOP('',(#184));
#559=EDGE_LOOP('',(#185));
#560=EDGE_LOOP('',(#186));
#561=EDGE_LOOP('',(#187));
#562=EDGE_LOOP('',(#188));
#563=EDGE_LOOP('',(#189));
#564=EDGE_LOOP('',(#190));
#565=EDGE_LOOP('',(#191));
#566=EDGE_LOOP('',(#192));
#567=EDGE_LOOP('',(#193));
#568=EDGE_LOOP('',(#194));
#569=EDGE_LOOP('',(#195));
#570=EDGE_LOOP('',(#196,#197,#198,#199));
#571=EDGE_LOOP('',(#200));
#572=EDGE_LOOP('',(#201));
#573=EDGE_LOOP('',(#202));
#574=EDGE_LOOP('',(#203,#204,#205,#206));
#575=EDGE_LOOP('',(#207));
#576=EDGE_LOOP('',(#208));
#577=EDGE_LOOP('',(#209));
#578=EDGE_LOOP('',(#210,#211,#212,#213));
#579=EDGE_LOOP('',(#214));
#580=EDGE_LOOP('',(#215));
#581=EDGE_LOOP('',(#216));
#582=EDGE_LOOP('',(#217,#218,#219,#220));
#583=EDGE_LOOP('',(#221,#222,#223,#224));
#584=EDGE_LOOP('',(#225,#226,#227,#228));
#585=EDGE_LOOP('',(#229,#230,#231,#232));
#586=EDGE_LOOP('',(#233,#234,#235,#236));
#587=EDGE_LOOP('',(#237,#238,#239,#240));
#588=EDGE_LOOP('',(#241,#242,#243,#244));
#589=EDGE_LOOP('',(#245,#246,#247,#248));
#590=EDGE_LOOP('',(#249,#250,#251,#252));
#591=EDGE_LOOP('',(#253,#254,#255,#256));
#592=EDGE_LOOP('',(#257,#258,#259,#260));
#593=EDGE_LOOP('',(#261,#262,#263,#264));
#594=EDGE_LOOP('',(#265,#266,#267,#268));
#595=EDGE_LOOP('',(#269));
#596=EDGE_LOOP('',(#270));
#597=EDGE_LOOP('',(#271));
#598=EDGE_LOOP('',(#272));
#599=EDGE_LOOP('',(#273));
#600=EDGE_LOOP('',(#274));
#601=EDGE_LOOP('',(#275));
#602=EDGE_LOOP('',(#276));
#603=EDGE_LOOP('',(#277));
#604=EDGE_LOOP('',(#278));
#605=EDGE_LOOP('',(#279));
#606=EDGE_LOOP('',(#280));
#607=FACE_BOUND('',#527,.T.);
#608=FACE_BOUND('',#528,.T.);
#609=FACE_BOUND('',#529,.T.);
#610=FACE_BOUND('',#530,.T.);
#611=FACE_BOUND('',#531,.T.);
#612=FACE_BOUND('',#532,.T.);
#613=FACE_BOUND('',#533,.T.);
#614=FACE_BOUND('',#534,.T.);
#615=FACE_BOUND('',#535,.T.);
#616=FACE_BOUND('',#536,.T.);
#617=FACE_BOUND('',#537,.T.);
#618=FACE_BOUND('',#538,.T.);
#619=FACE_BOUND('',#539,.T.);
#620=FACE_BOUND('',#540,.T.);
#621=FACE_BOUND('',#541,.T.);
#622=FACE_BOUND('',#542,.T.);
#623=FACE_BOUND('',#543,.T.);
#624=FACE_BOUND('',#544,.T.);
#625=FACE_BOUND('',#545,.T.);
#626=FACE_BOUND('',#546,.T.);
#627=FACE_BOUND('',#547,.T.);
#628=FACE_BOUND('',#548,.T.);
#629=FACE_BOUND('',#549,.T.);
#630=FACE_BOUND('',#550,.T.);
#631=FACE_BOUND('',#551,.T.);
#632=FACE_BOUND('',#552,.T.);
#633=FACE_BOUND('',#553,.T.);
#634=FACE_BOUND('',#554,.T.);
#635=FACE_BOUND('',#555,.T.);
#636=FACE_BOUND('',#556,.T.);
#637=FACE_BOUND('',#557,.T.);
#638=FACE_BOUND('',#558,.T.);
#639=FACE_BOUND('',#559,.T.);
#640=FACE_BOUND('',#560,.T.);
#641=FACE_BOUND('',#561,.T.);
#642=FACE_BOUND('',#562,.T.);
#643=FACE_BOUND('',#563,.T.);
#644=FACE_BOUND('',#564,.T.);
#645=FACE_BOUND('',#565,.T.);
#646=FACE_BOUND('',#566,.T.);
#647=FACE_BOUND('',#567,.T.);
#648=FACE_BOUND('',#568,.T.);
#649=FACE_BOUND('',#569,.T.);
#650=FACE_BOUND('',#570,.T.);
#651=FACE_BOUND('',#571,.T.);
#652=FACE_BOUND('',#572,.T.);
#653=FACE_BOUND('',#573,.T.);
#654=FACE_BOUND('',#574,.T.);
#655=FACE_BOUND('',#575,.T.);
#656=FACE_BOUND('',#576,.T.);
#657=FACE_BOUND('',#577,.T.);
#658=FACE_BOUND('',#578,.T.);
#659=FACE_BOUND('',#579,.T.);
#660=FACE_BOUND('',#580,.T.);
#661=FACE_BOUND('',#581,.T.);
#662=FACE_BOUND('',#582,.T.);
#663=FACE_BOUND('',#583,.T.);
#664=FACE_BOUND('',#584,.T.);
#665=FACE_BOUND('',#585,.T.);
#666=FACE_BOUND('',#586,.T.);
#667=FACE_BOUND('',#587,.T.);
#668=FACE_BOUND('',#588,.T.);
#669=FACE_BOUND('',#589,.T.);
#670=FACE_BOUND('',#590,.T.);
#671=FACE_BOUND('',#591,.T.);
#672=FACE_BOUND('',#592,.T.);
#673=FACE_BOUND('',#593,.T.);
#674=FACE_BOUND('',#594,.T.);
#675=FACE_BOUND('',#595,.T.);
#676=FACE_BOUND('',#596,.T.);
#677=FACE_BOUND('',#597,.T.);
#678=FACE_BOUND('',#598,.T.);
#679=FACE_BOUND('',#599,.T.);
#680=FACE_BOUND('',#600,.T.);
#681=FACE_BOUND('',#601,.T.);
#682=FACE_BOUND('',#602,.T.);
#683=FACE_BOUND('',#603,.T.);
#684=FACE_BOUND('',#604,.T.);
#685=FACE_BOUND('',#605,.T.);
#686=FACE_BOUND('',#606,.T.);
#687=PLANE('',#749);
#688=PLANE('',#750);
#689=PLANE('',#751);
#690=PLANE('',#767);
#691=PLANE('',#780);
#692=PLANE('',#785);
#693=PLANE('',#789);
#694=PLANE('',#799);
#695=PLANE('',#803);
#696=PLANE('',#807);
#697=PLANE('',#811);
#698=ADVANCED_FACE('',(#607),#687,.F.);
#699=ADVANCED_FACE('',(#608),#688,.F.);
#700=ADVANCED_FACE('',(#609),#689,.T.);
#701=ADVANCED_FACE('',(#610,#611,#612,#613,#614,#615,#616,#617,#618),#20,
 .F.);
#702=ADVANCED_FACE('',(#619),#690,.F.);
#703=ADVANCED_FACE('',(#620),#691,.T.);
#704=ADVANCED_FACE('',(#621,#622),#21,.F.);
#705=ADVANCED_FACE('',(#623,#624),#22,.F.);
#706=ADVANCED_FACE('',(#625,#626,#627,#628,#629),#692,.F.);
#707=ADVANCED_FACE('',(#630,#631,#632,#633,#634),#693,.T.);
#708=ADVANCED_FACE('',(#635,#636),#23,.F.);
#709=ADVANCED_FACE('',(#637,#638),#24,.F.);
#710=ADVANCED_FACE('',(#639,#640),#25,.F.);
#711=ADVANCED_FACE('',(#641,#642),#26,.F.);
#712=ADVANCED_FACE('',(#643,#644),#27,.F.);
#713=ADVANCED_FACE('',(#645,#646),#28,.F.);
#714=ADVANCED_FACE('',(#647,#648,#649,#650),#694,.T.);
#715=ADVANCED_FACE('',(#651,#652,#653,#654),#695,.T.);
#716=ADVANCED_FACE('',(#655,#656,#657,#658),#696,.F.);
#717=ADVANCED_FACE('',(#659,#660,#661,#662),#697,.T.);
#718=ADVANCED_FACE('',(#663),#29,.T.);
#719=ADVANCED_FACE('',(#664),#30,.T.);
#720=ADVANCED_FACE('',(#665),#31,.T.);
#721=ADVANCED_FACE('',(#666),#32,.T.);
#722=ADVANCED_FACE('',(#667),#33,.T.);
#723=ADVANCED_FACE('',(#668),#34,.T.);
#724=ADVANCED_FACE('',(#669),#35,.F.);
#725=ADVANCED_FACE('',(#670),#36,.F.);
#726=ADVANCED_FACE('',(#671),#37,.T.);
#727=ADVANCED_FACE('',(#672),#38,.T.);
#728=ADVANCED_FACE('',(#673),#39,.T.);
#729=ADVANCED_FACE('',(#674),#40,.T.);
#730=ADVANCED_FACE('',(#675,#676),#41,.F.);
#731=ADVANCED_FACE('',(#677,#678),#42,.F.);
#732=ADVANCED_FACE('',(#679,#680),#43,.F.);
#733=ADVANCED_FACE('',(#681,#682),#44,.F.);
#734=ADVANCED_FACE('',(#683,#684),#45,.F.);
#735=ADVANCED_FACE('',(#685,#686),#46,.F.);
#736=CLOSED_SHELL('',(#698,#699,#700,#701,#702,#703,#704,#705,#706,#707,
#708,#709,#710,#711,#712,#713,#714,#715,#716,#717,#718,#719,#720,#721,#722,
#723,#724,#725,#726,#727,#728,#729,#730,#731,#732,#733,#734,#735));
#737=STYLED_ITEM('',(#738),#745);
#738=PRESENTATION_STYLE_ASSIGNMENT((#739));
#739=SURFACE_STYLE_USAGE(.BOTH.,#740);
#740=SURFACE_SIDE_STYLE('',(#741));
#741=SURFACE_STYLE_FILL_AREA(#742);
#742=FILL_AREA_STYLE('',(#743));
#743=FILL_AREA_STYLE_COLOUR('',#744);
#744=COLOUR_RGB('',0.647058823529412,0.647058823529412,0.647058823529412);
#745=MANIFOLD_SOLID_BREP('ESC Clamp',#736);
#746=SHAPE_DEFINITION_REPRESENTATION(#1334,#747);
#747=SHAPE_REPRESENTATION('ESC Clamp',(#748),#1329);
#748=AXIS2_PLACEMENT_3D('',#1043,#833,#834);
#749=AXIS2_PLACEMENT_3D('',#1044,#835,#836);
#750=AXIS2_PLACEMENT_3D('',#1053,#841,#842);
#751=AXIS2_PLACEMENT_3D('',#1062,#847,#848);
#752=AXIS2_PLACEMENT_3D('',#1066,#850,#851);
#753=AXIS2_PLACEMENT_3D('',#1070,#853,#854);
#754=AXIS2_PLACEMENT_3D('',#1074,#856,#857);
#755=AXIS2_PLACEMENT_3D('',#1075,#858,#859);
#756=AXIS2_PLACEMENT_3D('',#1079,#861,#862);
#757=AXIS2_PLACEMENT_3D('',#1081,#863,#864);
#758=AXIS2_PLACEMENT_3D('',#1085,#866,#867);
#759=AXIS2_PLACEMENT_3D('',#1087,#868,#869);
#760=AXIS2_PLACEMENT_3D('',#1089,#870,#871);
#761=AXIS2_PLACEMENT_3D('',#1093,#873,#874);
#762=AXIS2_PLACEMENT_3D('',#1095,#875,#876);
#763=AXIS2_PLACEMENT_3D('',#1099,#878,#879);
#764=AXIS2_PLACEMENT_3D('',#1100,#880,#881);
#765=AXIS2_PLACEMENT_3D('',#1101,#882,#883);
#766=AXIS2_PLACEMENT_3D('',#1198,#884,#885);
#767=AXIS2_PLACEMENT_3D('',#1203,#888,#889);
#768=AXIS2_PLACEMENT_3D('',#1207,#891,#892);
#769=AXIS2_PLACEMENT_3D('',#1211,#894,#895);
#770=AXIS2_PLACEMENT_3D('',#1212,#896,#897);
#771=AXIS2_PLACEMENT_3D('',#1216,#899,#900);
#772=AXIS2_PLACEMENT_3D('',#1218,#901,#902);
#773=AXIS2_PLACEMENT_3D('',#1222,#904,#905);
#774=AXIS2_PLACEMENT_3D('',#1223,#906,#907);
#775=AXIS2_PLACEMENT_3D('',#1227,#909,#910);
#776=AXIS2_PLACEMENT_3D('',#1229,#911,#912);
#777=AXIS2_PLACEMENT_3D('',#1233,#914,#915);
#778=AXIS2_PLACEMENT_3D('',#1234,#916,#917);
#779=AXIS2_PLACEMENT_3D('',#1238,#919,#920);
#780=AXIS2_PLACEMENT_3D('',#1239,#921,#922);
#781=AXIS2_PLACEMENT_3D('',#1242,#925,#926);
#782=AXIS2_PLACEMENT_3D('',#1243,#927,#928);
#783=AXIS2_PLACEMENT_3D('',#1245,#929,#930);
#784=AXIS2_PLACEMENT_3D('',#1246,#931,#932);
#785=AXIS2_PLACEMENT_3D('',#1248,#933,#934);
#786=AXIS2_PLACEMENT_3D('',#1251,#937,#938);
#787=AXIS2_PLACEMENT_3D('',#1253,#939,#940);
#788=AXIS2_PLACEMENT_3D('',#1255,#941,#942);
#789=AXIS2_PLACEMENT_3D('',#1257,#943,#944);
#790=AXIS2_PLACEMENT_3D('',#1260,#947,#948);
#791=AXIS2_PLACEMENT_3D('',#1262,#949,#950);
#792=AXIS2_PLACEMENT_3D('',#1264,#951,#952);
#793=AXIS2_PLACEMENT_3D('',#1266,#953,#954);
#794=AXIS2_PLACEMENT_3D('',#1267,#955,#956);
#795=AXIS2_PLACEMENT_3D('',#1268,#957,#958);
#796=AXIS2_PLACEMENT_3D('',#1269,#959,#960);
#797=AXIS2_PLACEMENT_3D('',#1270,#961,#962);
#798=AXIS2_PLACEMENT_3D('',#1271,#963,#964);
#799=AXIS2_PLACEMENT_3D('',#1272,#965,#966);
#800=AXIS2_PLACEMENT_3D('',#1273,#967,#968);
#801=AXIS2_PLACEMENT_3D('',#1275,#969,#970);
#802=AXIS2_PLACEMENT_3D('',#1277,#971,#972);
#803=AXIS2_PLACEMENT_3D('',#1281,#975,#976);
#804=AXIS2_PLACEMENT_3D('',#1282,#977,#978);
#805=AXIS2_PLACEMENT_3D('',#1284,#979,#980);
#806=AXIS2_PLACEMENT_3D('',#1286,#981,#982);
#807=AXIS2_PLACEMENT_3D('',#1290,#985,#986);
#808=AXIS2_PLACEMENT_3D('',#1291,#987,#988);
#809=AXIS2_PLACEMENT_3D('',#1293,#989,#990);
#810=AXIS2_PLACEMENT_3D('',#1295,#991,#992);
#811=AXIS2_PLACEMENT_3D('',#1299,#995,#996);
#812=AXIS2_PLACEMENT_3D('',#1300,#997,#998);
#813=AXIS2_PLACEMENT_3D('',#1302,#999,#1000);
#814=AXIS2_PLACEMENT_3D('',#1304,#1001,#1002);
#815=AXIS2_PLACEMENT_3D('',#1308,#1005,#1006);
#816=AXIS2_PLACEMENT_3D('',#1309,#1007,#1008);
#817=AXIS2_PLACEMENT_3D('',#1310,#1009,#1010);
#818=AXIS2_PLACEMENT_3D('',#1312,#1012,#1013);
#819=AXIS2_PLACEMENT_3D('',#1313,#1014,#1015);
#820=AXIS2_PLACEMENT_3D('',#1315,#1017,#1018);
#821=AXIS2_PLACEMENT_3D('',#1316,#1019,#1020);
#822=AXIS2_PLACEMENT_3D('',#1317,#1021,#1022);
#823=AXIS2_PLACEMENT_3D('',#1318,#1023,#1024);
#824=AXIS2_PLACEMENT_3D('',#1319,#1025,#1026);
#825=AXIS2_PLACEMENT_3D('',#1320,#1027,#1028);
#826=AXIS2_PLACEMENT_3D('',#1321,#1029,#1030);
#827=AXIS2_PLACEMENT_3D('',#1322,#1031,#1032);
#828=AXIS2_PLACEMENT_3D('',#1323,#1033,#1034);
#829=AXIS2_PLACEMENT_3D('',#1324,#1035,#1036);
#830=AXIS2_PLACEMENT_3D('',#1325,#1037,#1038);
#831=AXIS2_PLACEMENT_3D('',#1326,#1039,#1040);
#832=AXIS2_PLACEMENT_3D('',#1327,#1041,#1042);
#833=DIRECTION('',(0.,0.,1.));
#834=DIRECTION('',(1.,0.,0.));
#835=DIRECTION('',(-0.438371146789078,-0.898794046299167,-8.56043237417579E-16));
#836=DIRECTION('',(0.898794046299167,-0.438371146789078,-5.2332230160923E-16));
#837=DIRECTION('',(3.18602536046471E-31,-9.52435367081461E-16,1.));
#838=DIRECTION('',(0.898794046299167,-0.438371146789078,-4.17520184109977E-16));
#839=DIRECTION('',(3.18330727208764E-31,-9.52435367081461E-16,1.));
#840=DIRECTION('',(-0.898794046299167,0.438371146789078,4.38494747771734E-16));
#841=DIRECTION('',(-0.438371146789078,-0.898794046299167,-8.56043237417579E-16));
#842=DIRECTION('',(0.898794046299167,-0.438371146789078,-5.2332230160923E-16));
#843=DIRECTION('',(3.18330727208764E-31,-9.52435367081461E-16,1.));
#844=DIRECTION('',(0.898794046299167,-0.438371146789078,-4.17520184109977E-16));
#845=DIRECTION('',(3.18602536046471E-31,-9.52435367081461E-16,1.));
#846=DIRECTION('',(-0.898794046299167,0.438371146789078,3.53667193934237E-16));
#847=DIRECTION('',(-0.898794046299167,0.438371146789078,4.17520184109977E-16));
#848=DIRECTION('',(-0.438371146789078,-0.898794046299167,-1.07296972537352E-15));
#849=DIRECTION('',(-0.438371146789078,-0.898794046299167,-1.13079384123942E-15));
#850=DIRECTION('',(-0.898794046299167,0.438371146789078,4.17520184109977E-16));
#851=DIRECTION('',(-0.438371146789078,-0.898794046299167,-1.07296972537352E-15));
#852=DIRECTION('',(3.18330727208764E-31,-9.52435367081461E-16,1.));
#853=DIRECTION('',(-0.898794046299167,0.438371146789078,4.17520184109977E-16));
#854=DIRECTION('',(-0.438371146789078,-0.898794046299167,-1.07296972537352E-15));
#855=DIRECTION('',(-0.438371146789078,-0.898794046299167,-1.07296972537352E-15));
#856=DIRECTION('',(-0.898794046299167,0.438371146789078,4.17520184109977E-16));
#857=DIRECTION('',(-0.438371146789078,-0.898794046299167,-1.07296972537352E-15));
#858=DIRECTION('',(-0.898794046299167,0.438371146789078,4.17520184109977E-16));
#859=DIRECTION('',(-0.438371146789078,-0.898794046299167,-1.07296972537352E-15));
#860=DIRECTION('',(-0.438371146789078,-0.898794046299167,-8.56043237417579E-16));
#861=DIRECTION('',(-0.898794046299167,0.438371146789078,4.17520184109977E-16));
#862=DIRECTION('',(-0.438371146789078,-0.898794046299167,-1.07296972537352E-15));
#863=DIRECTION('',(-0.898794046299167,0.438371146789078,4.17520184109977E-16));
#864=DIRECTION('',(-0.438371146789078,-0.898794046299167,-1.07296972537352E-15));
#865=DIRECTION('',(0.438371146789078,0.898794046299167,8.56043237417579E-16));
#866=DIRECTION('',(-0.898794046299167,0.438371146789078,4.17520184109977E-16));
#867=DIRECTION('',(-0.438371146789078,-0.898794046299167,-1.07296972537352E-15));
#868=DIRECTION('',(-0.898794046299167,0.438371146789078,4.17520184109977E-16));
#869=DIRECTION('',(-0.438371146789078,-0.898794046299167,-1.07296972537352E-15));
#870=DIRECTION('',(-0.898794046299167,0.438371146789078,4.17520184109977E-16));
#871=DIRECTION('',(-0.438371146789078,-0.898794046299167,-1.07296972537352E-15));
#872=DIRECTION('',(0.438371146789078,0.898794046299167,8.56043237417579E-16));
#873=DIRECTION('',(-0.898794046299167,0.438371146789078,4.17520184109977E-16));
#874=DIRECTION('',(-0.438371146789078,-0.898794046299167,-1.07296972537352E-15));
#875=DIRECTION('',(-0.898794046299167,0.438371146789078,4.17520184109977E-16));
#876=DIRECTION('',(-0.438371146789078,-0.898794046299167,-1.07296972537352E-15));
#877=DIRECTION('',(-0.438371146789078,-0.898794046299167,-8.56043237417579E-16));
#878=DIRECTION('',(-0.898794046299167,0.438371146789078,4.17520184109977E-16));
#879=DIRECTION('',(-0.438371146789078,-0.898794046299167,-1.07296972537352E-15));
#880=DIRECTION('',(-0.898794046299167,0.438371146789078,4.17520184109977E-16));
#881=DIRECTION('',(-0.438371146789078,-0.898794046299167,-1.07296972537352E-15));
#882=DIRECTION('',(0.898794046299168,-0.438371146789077,-4.17520184109975E-16));
#883=DIRECTION('',(0.438371146789077,0.898794046299168,1.07296972537352E-15));
#884=DIRECTION('',(0.898794046299168,-0.438371146789077,-4.17520184109975E-16));
#885=DIRECTION('',(0.438371146789077,0.898794046299168,1.07296972537352E-15));
#886=DIRECTION('',(0.898794046299168,-0.438371146789077,-4.17520184109975E-16));
#887=DIRECTION('',(0.898794046299168,-0.438371146789077,-4.17520184109975E-16));
#888=DIRECTION('',(-0.898794046299168,0.438371146789077,4.17520184109975E-16));
#889=DIRECTION('',(-0.438371146789077,-0.898794046299168,-1.07296972537352E-15));
#890=DIRECTION('',(3.18602536046471E-31,-9.52435367081461E-16,1.));
#891=DIRECTION('',(-0.898794046299168,0.438371146789077,4.17520184109975E-16));
#892=DIRECTION('',(-0.438371146789077,-0.898794046299168,-1.07296972537352E-15));
#893=DIRECTION('',(0.438371146789077,0.898794046299168,1.13079384123942E-15));
#894=DIRECTION('',(-0.898794046299168,0.438371146789077,4.17520184109975E-16));
#895=DIRECTION('',(-0.438371146789077,-0.898794046299168,-1.07296972537352E-15));
#896=DIRECTION('',(-0.898794046299168,0.438371146789077,4.17520184109975E-16));
#897=DIRECTION('',(-0.438371146789077,-0.898794046299168,-1.07296972537352E-15));
#898=DIRECTION('',(-0.438371146789078,-0.898794046299167,-8.56043237417579E-16));
#899=DIRECTION('',(-0.898794046299168,0.438371146789077,4.17520184109975E-16));
#900=DIRECTION('',(-0.438371146789077,-0.898794046299168,-1.07296972537352E-15));
#901=DIRECTION('',(-0.898794046299168,0.438371146789077,4.17520184109975E-16));
#902=DIRECTION('',(-0.438371146789077,-0.898794046299168,-1.07296972537352E-15));
#903=DIRECTION('',(0.438371146789078,0.898794046299167,8.56043237417579E-16));
#904=DIRECTION('',(-0.898794046299168,0.438371146789077,4.17520184109975E-16));
#905=DIRECTION('',(-0.438371146789077,-0.898794046299168,-1.07296972537352E-15));
#906=DIRECTION('',(-0.898794046299168,0.438371146789077,4.17520184109975E-16));
#907=DIRECTION('',(-0.438371146789077,-0.898794046299168,-1.07296972537352E-15));
#908=DIRECTION('',(0.438371146789078,0.898794046299167,8.56043237417579E-16));
#909=DIRECTION('',(-0.898794046299168,0.438371146789077,4.17520184109975E-16));
#910=DIRECTION('',(-0.438371146789077,-0.898794046299168,-1.07296972537352E-15));
#911=DIRECTION('',(-0.898794046299168,0.438371146789077,4.17520184109975E-16));
#912=DIRECTION('',(-0.438371146789077,-0.898794046299168,-1.07296972537352E-15));
#913=DIRECTION('',(-0.438371146789078,-0.898794046299167,-8.56043237417579E-16));
#914=DIRECTION('',(-0.898794046299168,0.438371146789077,4.17520184109975E-16));
#915=DIRECTION('',(-0.438371146789077,-0.898794046299168,-1.07296972537352E-15));
#916=DIRECTION('',(-0.898794046299168,0.438371146789077,4.17520184109975E-16));
#917=DIRECTION('',(-0.438371146789077,-0.898794046299168,-1.07296972537352E-15));
#918=DIRECTION('',(0.438371146789077,0.898794046299168,1.07296972537352E-15));
#919=DIRECTION('',(-0.898794046299168,0.438371146789077,4.17520184109975E-16));
#920=DIRECTION('',(-0.438371146789077,-0.898794046299168,-1.07296972537352E-15));
#921=DIRECTION('',(-0.438371146789078,-0.898794046299167,-8.56043237417579E-16));
#922=DIRECTION('',(0.898794046299167,-0.438371146789078,-5.2332230160923E-16));
#923=DIRECTION('',(0.898794046299167,-0.438371146789078,-4.17520184109977E-16));
#924=DIRECTION('',(0.898794046299167,-0.438371146789078,-4.17520184109977E-16));
#925=DIRECTION('',(3.18330727208764E-31,-9.52435367081461E-16,1.));
#926=DIRECTION('',(-8.95341148891284E-16,1.,9.52435367081461E-16));
#927=DIRECTION('',(9.50943132941738E-17,1.14740760294085E-15,-1.));
#928=DIRECTION('',(1.,8.95341148891284E-16,9.50943132941748E-17));
#929=DIRECTION('',(3.18330727208764E-31,-9.52435367081461E-16,1.));
#930=DIRECTION('',(-8.95341148891284E-16,1.,9.52435367081461E-16));
#931=DIRECTION('',(1.2044273727837E-16,1.19937957401363E-15,-1.));
#932=DIRECTION('',(1.,8.95341148891284E-16,1.20442737278371E-16));
#933=DIRECTION('',(9.50943132941738E-17,1.14740760294085E-15,-1.));
#934=DIRECTION('',(1.,8.95341148891284E-16,9.50943132941748E-17));
#935=DIRECTION('',(0.898794046299167,-0.438371146789078,-4.17520184109977E-16));
#936=DIRECTION('',(0.898794046299167,-0.438371146789078,-4.17520184109977E-16));
#937=DIRECTION('',(9.50943132941738E-17,1.14740760294085E-15,-1.));
#938=DIRECTION('',(1.,8.95341148891284E-16,9.50943132941748E-17));
#939=DIRECTION('',(9.50943132941738E-17,1.14740760294085E-15,-1.));
#940=DIRECTION('',(1.,8.95341148891284E-16,9.50943132941748E-17));
#941=DIRECTION('',(9.50943132941738E-17,1.14740760294085E-15,-1.));
#942=DIRECTION('',(1.,8.95341148891284E-16,9.50943132941748E-17));
#943=DIRECTION('',(1.2044273727837E-16,1.19937957401363E-15,-1.));
#944=DIRECTION('',(1.,8.95341148891284E-16,1.20442737278371E-16));
#945=DIRECTION('',(0.898794046299167,-0.438371146789078,-4.17520184109977E-16));
#946=DIRECTION('',(0.898794046299167,-0.438371146789078,-4.17520184109977E-16));
#947=DIRECTION('',(1.2044273727837E-16,1.19937957401363E-15,-1.));
#948=DIRECTION('',(1.,8.95341148891284E-16,1.20442737278371E-16));
#949=DIRECTION('',(1.2044273727837E-16,1.19937957401363E-15,-1.));
#950=DIRECTION('',(1.,8.95341148891284E-16,1.20442737278371E-16));
#951=DIRECTION('',(1.2044273727837E-16,1.19937957401363E-15,-1.));
#952=DIRECTION('',(1.,8.95341148891284E-16,1.20442737278371E-16));
#953=DIRECTION('',(3.18330727208764E-31,-9.52435367081461E-16,1.));
#954=DIRECTION('',(-8.95341148891284E-16,1.,9.52435367081461E-16));
#955=DIRECTION('',(3.18330727208764E-31,-9.52435367081461E-16,1.));
#956=DIRECTION('',(-8.95341148891284E-16,1.,9.52435367081461E-16));
#957=DIRECTION('',(3.18330727208764E-31,-9.52435367081461E-16,1.));
#958=DIRECTION('',(-8.95341148891284E-16,1.,9.52435367081461E-16));
#959=DIRECTION('',(3.18330727208764E-31,-9.52435367081461E-16,1.));
#960=DIRECTION('',(-8.95341148891284E-16,1.,9.52435367081461E-16));
#961=DIRECTION('',(3.18330727208764E-31,-9.52435367081461E-16,1.));
#962=DIRECTION('',(-8.95341148891284E-16,1.,9.52435367081461E-16));
#963=DIRECTION('',(3.18330727208764E-31,-9.52435367081461E-16,1.));
#964=DIRECTION('',(-8.95341148891284E-16,1.,9.52435367081461E-16));
#965=DIRECTION('',(2.47579313996703E-16,-1.07318786677243E-15,1.));
#966=DIRECTION('',(-1.,-8.95341148891284E-16,2.47579313996702E-16));
#967=DIRECTION('',(2.47579313996703E-16,-1.07318786677243E-15,1.));
#968=DIRECTION('',(-1.,-8.95341148891284E-16,2.47579313996702E-16));
#969=DIRECTION('',(2.47579313996703E-16,-1.07318786677243E-15,1.));
#970=DIRECTION('',(-1.,-8.95341148891284E-16,2.47579313996702E-16));
#971=DIRECTION('',(2.47579313996703E-16,-1.07318786677243E-15,1.));
#972=DIRECTION('',(-1.,-8.95341148891284E-16,2.47579313996702E-16));
#973=DIRECTION('',(-0.898794046299168,0.438371146789077,6.92977409284223E-16));
#974=DIRECTION('',(0.898794046299167,-0.438371146789078,-6.92977409284223E-16));
#975=DIRECTION('',(-9.50943132941749E-17,9.98815962662322E-16,-1.));
#976=DIRECTION('',(8.95341148891284E-16,-1.,-9.98815962662322E-16));
#977=DIRECTION('',(-9.50943132941749E-17,9.98815962662322E-16,-1.));
#978=DIRECTION('',(8.95341148891284E-16,-1.,-9.98815962662322E-16));
#979=DIRECTION('',(-9.50943132941749E-17,9.98815962662322E-16,-1.));
#980=DIRECTION('',(8.95341148891284E-16,-1.,-9.98815962662322E-16));
#981=DIRECTION('',(-9.50943132941749E-17,9.98815962662322E-16,-1.));
#982=DIRECTION('',(8.95341148891284E-16,-1.,-9.98815962662322E-16));
#983=DIRECTION('',(-0.898794046299168,0.438371146789077,5.23322301609229E-16));
#984=DIRECTION('',(-0.898794046299167,0.438371146789078,5.2332230160923E-16));
#985=DIRECTION('',(1.88518129429108E-17,-9.61630010607266E-16,1.));
#986=DIRECTION('',(-8.95341148891284E-16,1.,9.61630010607266E-16));
#987=DIRECTION('',(1.88518129429108E-17,-9.61630010607266E-16,1.));
#988=DIRECTION('',(-8.95341148891284E-16,1.,9.61630010607266E-16));
#989=DIRECTION('',(1.88518129429108E-17,-9.61630010607266E-16,1.));
#990=DIRECTION('',(-8.95341148891284E-16,1.,9.61630010607266E-16));
#991=DIRECTION('',(1.88518129429108E-17,-9.61630010607266E-16,1.));
#992=DIRECTION('',(-8.95341148891284E-16,1.,9.61630010607266E-16));
#993=DIRECTION('',(-0.898794046299167,0.438371146789078,4.38494747771734E-16));
#994=DIRECTION('',(-0.898794046299167,0.438371146789078,4.38494747771734E-16));
#995=DIRECTION('',(-5.73906874083532E-17,-9.2444405855221E-16,1.));
#996=DIRECTION('',(-8.95341148891284E-16,1.,9.2444405855221E-16));
#997=DIRECTION('',(-5.73906874083532E-17,-9.2444405855221E-16,1.));
#998=DIRECTION('',(-8.95341148891284E-16,1.,9.2444405855221E-16));
#999=DIRECTION('',(-5.73906874083532E-17,-9.2444405855221E-16,1.));
#1000=DIRECTION('',(-8.95341148891284E-16,1.,9.2444405855221E-16));
#1001=DIRECTION('',(-5.73906874083532E-17,-9.2444405855221E-16,1.));
#1002=DIRECTION('',(-8.95341148891284E-16,1.,9.2444405855221E-16));
#1003=DIRECTION('',(-0.898794046299167,0.438371146789078,3.53667193934237E-16));
#1004=DIRECTION('',(-0.898794046299167,0.438371146789078,3.53667193934237E-16));
#1005=DIRECTION('',(0.898794046299168,-0.438371146789077,-4.17520184109975E-16));
#1006=DIRECTION('',(0.438371146789077,0.898794046299168,1.07296972537352E-15));
#1007=DIRECTION('',(0.898794046299168,-0.438371146789077,-4.17520184109975E-16));
#1008=DIRECTION('',(0.438371146789077,0.898794046299168,1.07296972537352E-15));
#1009=DIRECTION('',(-0.898794046299167,0.438371146789078,5.2332230160923E-16));
#1010=DIRECTION('',(-0.438371146789078,-0.898794046299167,-1.07296972537352E-15));
#1011=DIRECTION('',(-0.898794046299167,0.438371146789078,5.2332230160923E-16));
#1012=DIRECTION('',(-0.898794046299167,0.438371146789078,3.53667193934237E-16));
#1013=DIRECTION('',(-0.438371146789078,-0.898794046299167,-1.07296972537352E-15));
#1014=DIRECTION('',(0.898794046299167,-0.438371146789078,-4.38494747771734E-16));
#1015=DIRECTION('',(0.438371146789078,0.898794046299167,1.07296972537352E-15));
#1016=DIRECTION('',(0.898794046299167,-0.438371146789078,-4.38494747771734E-16));
#1017=DIRECTION('',(0.898794046299167,-0.438371146789078,-6.92977409284223E-16));
#1018=DIRECTION('',(0.438371146789078,0.898794046299167,1.07296972537352E-15));
#1019=DIRECTION('',(0.898794046299167,-0.438371146789078,-4.38494747771734E-16));
#1020=DIRECTION('',(0.438371146789078,0.898794046299167,1.07296972537352E-15));
#1021=DIRECTION('',(-0.898794046299167,0.438371146789078,3.53667193934237E-16));
#1022=DIRECTION('',(-0.438371146789078,-0.898794046299167,-1.07296972537352E-15));
#1023=DIRECTION('',(0.898794046299167,-0.438371146789078,-4.17520184109977E-16));
#1024=DIRECTION('',(0.438371146789078,0.898794046299167,1.07296972537352E-15));
#1025=DIRECTION('',(-0.898794046299167,0.438371146789078,4.17520184109977E-16));
#1026=DIRECTION('',(-0.438371146789078,-0.898794046299167,-1.07296972537352E-15));
#1027=DIRECTION('',(-0.898794046299167,0.438371146789078,4.17520184109977E-16));
#1028=DIRECTION('',(-0.438371146789078,-0.898794046299167,-1.07296972537352E-15));
#1029=DIRECTION('',(0.898794046299167,-0.438371146789078,-4.17520184109977E-16));
#1030=DIRECTION('',(0.438371146789078,0.898794046299167,1.07296972537352E-15));
#1031=DIRECTION('',(-5.73906874083532E-17,-9.2444405855221E-16,1.));
#1032=DIRECTION('',(-8.95341148891284E-16,1.,9.2444405855221E-16));
#1033=DIRECTION('',(-5.73906874083532E-17,-9.2444405855221E-16,1.));
#1034=DIRECTION('',(-8.95341148891284E-16,1.,9.2444405855221E-16));
#1035=DIRECTION('',(-5.73906874083532E-17,-9.2444405855221E-16,1.));
#1036=DIRECTION('',(-8.95341148891284E-16,1.,9.2444405855221E-16));
#1037=DIRECTION('',(-5.73906874083532E-17,-9.2444405855221E-16,1.));
#1038=DIRECTION('',(-8.95341148891284E-16,1.,9.2444405855221E-16));
#1039=DIRECTION('',(-5.73906874083532E-17,-9.2444405855221E-16,1.));
#1040=DIRECTION('',(-8.95341148891284E-16,1.,9.2444405855221E-16));
#1041=DIRECTION('',(-5.73906874083532E-17,-9.2444405855221E-16,1.));
#1042=DIRECTION('',(-8.95341148891284E-16,1.,9.2444405855221E-16));
#1043=CARTESIAN_POINT('',(0.,0.,0.));
#1044=CARTESIAN_POINT('',(0.290245698302988,-0.26193626634867,0.055));
#1045=CARTESIAN_POINT('',(0.327006374796624,-0.279865646252344,0.055));
#1046=CARTESIAN_POINT('',(0.327006374796624,-0.279865646252344,0.00224999999999971));
#1047=CARTESIAN_POINT('',(0.327006374796624,-0.279865646252344,0.0152499999999997));
#1048=CARTESIAN_POINT('',(0.253485021809352,-0.244006886444997,0.00224999999999975));
#1049=CARTESIAN_POINT('',(0.253485021809352,-0.244006886444997,0.00224999999999975));
#1050=CARTESIAN_POINT('',(0.253485021809352,-0.244006886444997,0.055));
#1051=CARTESIAN_POINT('',(0.253485021809352,-0.244006886444997,0.0152499999999997));
#1052=CARTESIAN_POINT('',(0.327006374796624,-0.279865646252344,0.0152499999999997));
#1053=CARTESIAN_POINT('',(0.290245698302988,-0.26193626634867,0.055));
#1054=CARTESIAN_POINT('',(0.253485021809352,-0.244006886444997,0.055));
#1055=CARTESIAN_POINT('',(0.253485021809352,-0.244006886444997,0.03735));
#1056=CARTESIAN_POINT('',(0.253485021809352,-0.244006886444997,0.05035));
#1057=CARTESIAN_POINT('',(0.290245698302988,-0.26193626634867,0.05035));
#1058=CARTESIAN_POINT('',(0.327006374796624,-0.279865646252344,0.05035));
#1059=CARTESIAN_POINT('',(0.327006374796624,-0.279865646252344,0.055));
#1060=CARTESIAN_POINT('',(0.327006374796624,-0.279865646252344,0.03735));
#1061=CARTESIAN_POINT('',(0.290245698302988,-0.26193626634867,0.03735));
#1062=CARTESIAN_POINT('',(0.240333887405679,-0.270970707833972,0.055));
#1063=CARTESIAN_POINT('',(0.240333887405679,-0.270970707833972,-0.00575000000000028));
#1064=CARTESIAN_POINT('',(0.249978052635039,-0.25119723881539,-0.00575000000000026));
#1065=CARTESIAN_POINT('',(0.23068972217632,-0.290744176852553,-0.0057500000000003));
#1066=CARTESIAN_POINT('',(0.23068972217632,-0.290744176852553,0.0022499999999997));
#1067=CARTESIAN_POINT('',(0.227182753002007,-0.297934529222947,0.00224999999999969));
#1068=CARTESIAN_POINT('',(0.227182753002007,-0.297934529222947,0.055));
#1069=CARTESIAN_POINT('',(0.227182753002007,-0.297934529222947,0.05035));
#1070=CARTESIAN_POINT('',(0.23068972217632,-0.290744176852553,0.05035));
#1071=CARTESIAN_POINT('',(0.23068972217632,-0.290744176852553,0.05835));
#1072=CARTESIAN_POINT('',(0.240333887405679,-0.270970707833972,0.05835));
#1073=CARTESIAN_POINT('',(0.249978052635039,-0.25119723881539,0.05835));
#1074=CARTESIAN_POINT('',(0.249978052635039,-0.25119723881539,0.05035));
#1075=CARTESIAN_POINT('',(0.255238506396508,-0.2404117102598,0.03735));
#1076=CARTESIAN_POINT('',(0.255238506396508,-0.2404117102598,0.03335));
#1077=CARTESIAN_POINT('',(0.260060589011188,-0.230524975750509,0.03335));
#1078=CARTESIAN_POINT('',(0.258307104424032,-0.234120151935706,0.03335));
#1079=CARTESIAN_POINT('',(0.258307104424032,-0.234120151935706,0.02935));
#1080=CARTESIAN_POINT('',(0.260004908575004,-0.230639137562719,0.03035));
#1081=CARTESIAN_POINT('',(0.258307104424032,-0.234120151935706,0.03135));
#1082=CARTESIAN_POINT('',(0.258307104424032,-0.234120151935706,0.02735));
#1083=CARTESIAN_POINT('',(0.251468514534122,-0.248141339057973,0.02735));
#1084=CARTESIAN_POINT('',(0.253452981685942,-0.244072578433109,0.02735));
#1085=CARTESIAN_POINT('',(0.253452981685942,-0.244072578433109,0.03135));
#1086=CARTESIAN_POINT('',(0.251723941253618,-0.24761763667375,0.0306844316309717));
#1087=CARTESIAN_POINT('',(0.240333887405679,-0.270970707833972,0.0263));
#1088=CARTESIAN_POINT('',(0.251723941253618,-0.24761763667375,0.0219155683690277));
#1089=CARTESIAN_POINT('',(0.253452981685942,-0.244072578433109,0.0212499999999998));
#1090=CARTESIAN_POINT('',(0.253452981685942,-0.244072578433109,0.02525));
#1091=CARTESIAN_POINT('',(0.251468514534122,-0.248141339057973,0.02525));
#1092=CARTESIAN_POINT('',(0.258307104424032,-0.234120151935706,0.02525));
#1093=CARTESIAN_POINT('',(0.258307104424032,-0.234120151935706,0.0212499999999998));
#1094=CARTESIAN_POINT('',(0.260004908575004,-0.230639137562719,0.0222499999999998));
#1095=CARTESIAN_POINT('',(0.258307104424032,-0.234120151935706,0.0232499999999998));
#1096=CARTESIAN_POINT('',(0.258307104424032,-0.234120151935706,0.0192499999999997));
#1097=CARTESIAN_POINT('',(0.260060589011188,-0.230524975750509,0.0192499999999997));
#1098=CARTESIAN_POINT('',(0.255238506396508,-0.2404117102598,0.0192499999999997));
#1099=CARTESIAN_POINT('',(0.255238506396508,-0.2404117102598,0.0152499999999997));
#1100=CARTESIAN_POINT('',(0.249978052635039,-0.25119723881539,0.00224999999999975));
#1101=CARTESIAN_POINT('',(0.22936860004083,-0.265622579843146,0.0263));
#1102=CARTESIAN_POINT('',(0.310201418824096,-0.30927713608781,0.000224785453127662));
#1103=CARTESIAN_POINT('',(0.308524215531871,-0.308572261851551,0.000237910721293072));
#1104=CARTESIAN_POINT('',(0.306873507288338,-0.309276527378464,0.000461012925964927));
#1105=CARTESIAN_POINT('',(0.306211107477965,-0.31088780656827,0.000878368743065333));
#1106=CARTESIAN_POINT('',(0.306854128365825,-0.312531359727322,0.00125534716473275));
#1107=CARTESIAN_POINT('',(0.30853509617226,-0.313238360753568,0.00122048591262743));
#1108=CARTESIAN_POINT('',(0.310154744306392,-0.312557887986402,0.000814972687723183));
#1109=CARTESIAN_POINT('',(0.310853449777211,-0.310955547649728,0.000415911686628616));
#1110=CARTESIAN_POINT('',(0.310201418824096,-0.30927713608781,0.000224785453127662));
#1111=CARTESIAN_POINT('',(0.308524215531871,-0.308572261851551,0.000237910721293072));
#1112=CARTESIAN_POINT('',(0.306873507288338,-0.309276527378464,0.000461012925964927));
#1113=CARTESIAN_POINT('',(0.308528631373319,-0.308807118478746,0.000272906877377479));
#1114=CARTESIAN_POINT('',(0.315461460807374,-0.298494668653589,0.00125585439703765));
#1115=CARTESIAN_POINT('',(0.313778458060822,-0.297790099614163,0.00121991991288443));
#1116=CARTESIAN_POINT('',(0.312159217758071,-0.298474472428696,0.000813636211291897));
#1117=CARTESIAN_POINT('',(0.311464708034971,-0.300077271329979,0.000415301362069682));
#1118=CARTESIAN_POINT('',(0.312117941309134,-0.301752839751862,0.000224737786405117));
#1119=CARTESIAN_POINT('',(0.313795144455383,-0.302456118566971,0.000238069130163768));
#1120=CARTESIAN_POINT('',(0.3154440312327,-0.301752222954332,0.000460984237161251));
#1121=CARTESIAN_POINT('',(0.316107198184256,-0.300139529855747,0.000878746717757288));
#1122=CARTESIAN_POINT('',(0.315461460807374,-0.298494668653589,0.00125585439703765));
#1123=CARTESIAN_POINT('',(0.313778458060822,-0.297790099614163,0.00121991991288443));
#1124=CARTESIAN_POINT('',(0.312159217758071,-0.298474472428696,0.000813636211291897));
#1125=CARTESIAN_POINT('',(0.313789085134789,-0.298021589923156,0.00115819504331121));
#1126=CARTESIAN_POINT('',(0.247332872097896,-0.265266135726976,0.00125585439703763));
#1127=CARTESIAN_POINT('',(0.245649869351345,-0.264561566687551,0.00121991991288452));
#1128=CARTESIAN_POINT('',(0.244030629048594,-0.265245939502084,0.000813636211291897));
#1129=CARTESIAN_POINT('',(0.243336119325494,-0.266848738403367,0.000415301362069716));
#1130=CARTESIAN_POINT('',(0.243989352599657,-0.26852430682525,0.00022473778640514));
#1131=CARTESIAN_POINT('',(0.245666555745906,-0.269227585640359,0.000238069130163789));
#1132=CARTESIAN_POINT('',(0.247315442523223,-0.26852369002772,0.000460984237161271));
#1133=CARTESIAN_POINT('',(0.247978609474779,-0.266910996929136,0.000878746717757314));
#1134=CARTESIAN_POINT('',(0.247332872097896,-0.265266135726976,0.00125585439703763));
#1135=CARTESIAN_POINT('',(0.245649869351345,-0.264561566687551,0.00121991991288452));
#1136=CARTESIAN_POINT('',(0.244030629048594,-0.265245939502084,0.000813636211291897));
#1137=CARTESIAN_POINT('',(0.245660496425312,-0.264793056996544,0.00115819504331127));
#1138=CARTESIAN_POINT('',(0.242072830114619,-0.276048603161198,0.000224785453127707));
#1139=CARTESIAN_POINT('',(0.240395626822394,-0.275343728924938,0.000237910721293074));
#1140=CARTESIAN_POINT('',(0.238744918578861,-0.276047994451852,0.000461012925964987));
#1141=CARTESIAN_POINT('',(0.238082518768488,-0.277659273641658,0.000878368743065368));
#1142=CARTESIAN_POINT('',(0.238725539656348,-0.27930282680071,0.00125534716473279));
#1143=CARTESIAN_POINT('',(0.240406507462783,-0.280009827826956,0.00122048591262747));
#1144=CARTESIAN_POINT('',(0.242026155596916,-0.27932935505979,0.000814972687723218));
#1145=CARTESIAN_POINT('',(0.242724861067733,-0.277727014723115,0.000415911686628651));
#1146=CARTESIAN_POINT('',(0.242072830114619,-0.276048603161198,0.000224785453127707));
#1147=CARTESIAN_POINT('',(0.240395626822394,-0.275343728924938,0.000237910721293074));
#1148=CARTESIAN_POINT('',(0.238744918578861,-0.276047994451852,0.000461012925964987));
#1149=CARTESIAN_POINT('',(0.240400042663843,-0.275578585552134,0.000272906877377497));
#1150=CARTESIAN_POINT('',(0.238743772828292,-0.276049013330267,0.0521387091691754));
#1151=CARTESIAN_POINT('',(0.240396450271391,-0.275343660877369,0.0523621814263384));
#1152=CARTESIAN_POINT('',(0.242070682069201,-0.276047856473059,0.0523751238612022));
#1153=CARTESIAN_POINT('',(0.242725182700854,-0.277722455340675,0.0521849116902158));
#1154=CARTESIAN_POINT('',(0.242027330534625,-0.27932906514332,0.0517852763308096));
#1155=CARTESIAN_POINT('',(0.240408604737357,-0.28000853916882,0.0513801707260154));
#1156=CARTESIAN_POINT('',(0.238730478225441,-0.279308288936537,0.0513437670894318));
#1157=CARTESIAN_POINT('',(0.238081555713251,-0.277660026379389,0.0517213409178184));
#1158=CARTESIAN_POINT('',(0.238743772828292,-0.276049013330267,0.0521387091691754));
#1159=CARTESIAN_POINT('',(0.240396450271391,-0.275343660877369,0.0523621814263384));
#1160=CARTESIAN_POINT('',(0.242070682069201,-0.276047856473059,0.0523751238612022));
#1161=CARTESIAN_POINT('',(0.240400042663843,-0.275578585552134,0.0523270931226219));
#1162=CARTESIAN_POINT('',(0.244029700109914,-0.265246435389691,0.0517866167351284));
#1163=CARTESIAN_POINT('',(0.245650579609023,-0.26456175793429,0.0513800455171273));
#1164=CARTESIAN_POINT('',(0.247330960005862,-0.265264874852413,0.0513440309364914));
#1165=CARTESIAN_POINT('',(0.247978841037042,-0.266909014209392,0.0517207287553234));
#1166=CARTESIAN_POINT('',(0.247316483941365,-0.268522950155688,0.0521387961469319));
#1167=CARTESIAN_POINT('',(0.245667970386448,-0.269226666978168,0.0523617212903344));
#1168=CARTESIAN_POINT('',(0.243993734687525,-0.268528709401511,0.0523755506403659));
#1169=CARTESIAN_POINT('',(0.243335212688547,-0.266850429506949,0.0521850848428447));
#1170=CARTESIAN_POINT('',(0.244029700109914,-0.265246435389691,0.0517866167351284));
#1171=CARTESIAN_POINT('',(0.245650579609023,-0.26456175793429,0.0513800455171273));
#1172=CARTESIAN_POINT('',(0.247330960005862,-0.265264874852413,0.0513440309364914));
#1173=CARTESIAN_POINT('',(0.245660496425312,-0.264793056996544,0.0514418049566882));
#1174=CARTESIAN_POINT('',(0.312158288819391,-0.298474968316303,0.0517866167351284));
#1175=CARTESIAN_POINT('',(0.3137791683185,-0.297790290860902,0.0513800455171274));
#1176=CARTESIAN_POINT('',(0.315459548715339,-0.298493407779025,0.0513440309364913));
#1177=CARTESIAN_POINT('',(0.316107429746519,-0.300137547136004,0.0517207287553233));
#1178=CARTESIAN_POINT('',(0.315445072650842,-0.3017514830823,0.0521387961469318));
#1179=CARTESIAN_POINT('',(0.313796559095926,-0.30245519990478,0.0523617212903344));
#1180=CARTESIAN_POINT('',(0.312122323397002,-0.301757242328123,0.0523755506403658));
#1181=CARTESIAN_POINT('',(0.311463801398024,-0.300078962433561,0.0521850848428446));
#1182=CARTESIAN_POINT('',(0.312158288819391,-0.298474968316303,0.0517866167351284));
#1183=CARTESIAN_POINT('',(0.3137791683185,-0.297790290860902,0.0513800455171274));
#1184=CARTESIAN_POINT('',(0.315459548715339,-0.298493407779025,0.0513440309364913));
#1185=CARTESIAN_POINT('',(0.313789085134789,-0.298021589923156,0.0514418049566882));
#1186=CARTESIAN_POINT('',(0.306872361537769,-0.30927754625688,0.0521387091691753));
#1187=CARTESIAN_POINT('',(0.308525038980867,-0.308572193803981,0.0523621814263385));
#1188=CARTESIAN_POINT('',(0.310199270778678,-0.309276389399671,0.0523751238612022));
#1189=CARTESIAN_POINT('',(0.310853771410331,-0.310950988267287,0.0521849116902158));
#1190=CARTESIAN_POINT('',(0.310155919244102,-0.312557598069932,0.0517852763308096));
#1191=CARTESIAN_POINT('',(0.308537193446834,-0.313237072095432,0.0513801707260154));
#1192=CARTESIAN_POINT('',(0.306859066934918,-0.312536821863149,0.0513437670894317));
#1193=CARTESIAN_POINT('',(0.306210144422728,-0.310888559306,0.0517213409178183));
#1194=CARTESIAN_POINT('',(0.306872361537769,-0.30927754625688,0.0521387091691753));
#1195=CARTESIAN_POINT('',(0.308525038980867,-0.308572193803981,0.0523621814263385));
#1196=CARTESIAN_POINT('',(0.310199270778678,-0.309276389399671,0.0523751238612022));
#1197=CARTESIAN_POINT('',(0.308528631373319,-0.308807118478746,0.0523270931226219));
#1198=CARTESIAN_POINT('',(0.313855240392951,-0.306829467641319,0.0263));
#1199=CARTESIAN_POINT('',(0.325245294240889,-0.283476396481097,0.0306844316309717));
#1200=CARTESIAN_POINT('',(0.325245294240889,-0.283476396481097,0.0219155683690277));
#1201=CARTESIAN_POINT('',(0.240758653888767,-0.242269508682923,0.0219155683690277));
#1202=CARTESIAN_POINT('',(0.240758653888767,-0.242269508682923,0.0306844316309717));
#1203=CARTESIAN_POINT('',(0.313855240392951,-0.306829467641319,0.055));
#1204=CARTESIAN_POINT('',(0.300704105989279,-0.333793289030293,0.055));
#1205=CARTESIAN_POINT('',(0.300704105989279,-0.333793289030293,0.00224999999999966));
#1206=CARTESIAN_POINT('',(0.300704105989279,-0.333793289030293,0.05035));
#1207=CARTESIAN_POINT('',(0.304211075163592,-0.3266029366599,0.00224999999999967));
#1208=CARTESIAN_POINT('',(0.304211075163592,-0.3266029366599,-0.00575000000000034));
#1209=CARTESIAN_POINT('',(0.313855240392951,-0.306829467641319,-0.00575000000000031));
#1210=CARTESIAN_POINT('',(0.323499405622311,-0.287055998622737,-0.00575000000000029));
#1211=CARTESIAN_POINT('',(0.323499405622311,-0.287055998622736,0.00224999999999971));
#1212=CARTESIAN_POINT('',(0.32875985938378,-0.276270470067147,0.0152499999999997));
#1213=CARTESIAN_POINT('',(0.32875985938378,-0.276270470067147,0.0192499999999997));
#1214=CARTESIAN_POINT('',(0.33358194199846,-0.266383735557856,0.0192499999999997));
#1215=CARTESIAN_POINT('',(0.331828457411304,-0.269978911743052,0.0192499999999997));
#1216=CARTESIAN_POINT('',(0.331828457411304,-0.269978911743052,0.0232499999999998));
#1217=CARTESIAN_POINT('',(0.333526261562275,-0.266497897370065,0.0222499999999997));
#1218=CARTESIAN_POINT('',(0.331828457411304,-0.269978911743052,0.0212499999999997));
#1219=CARTESIAN_POINT('',(0.331828457411304,-0.269978911743052,0.02525));
#1220=CARTESIAN_POINT('',(0.324989867521394,-0.284000098865319,0.02525));
#1221=CARTESIAN_POINT('',(0.326974334673214,-0.279931338240455,0.02525));
#1222=CARTESIAN_POINT('',(0.326974334673214,-0.279931338240455,0.0212499999999998));
#1223=CARTESIAN_POINT('',(0.326974334673214,-0.279931338240455,0.03135));
#1224=CARTESIAN_POINT('',(0.326974334673214,-0.279931338240455,0.02735));
#1225=CARTESIAN_POINT('',(0.324989867521394,-0.284000098865319,0.02735));
#1226=CARTESIAN_POINT('',(0.331828457411304,-0.269978911743052,0.02735));
#1227=CARTESIAN_POINT('',(0.331828457411304,-0.269978911743052,0.03135));
#1228=CARTESIAN_POINT('',(0.333526261562275,-0.266497897370065,0.0303499999999997));
#1229=CARTESIAN_POINT('',(0.331828457411304,-0.269978911743052,0.02935));
#1230=CARTESIAN_POINT('',(0.331828457411304,-0.269978911743052,0.03335));
#1231=CARTESIAN_POINT('',(0.33358194199846,-0.266383735557856,0.03335));
#1232=CARTESIAN_POINT('',(0.32875985938378,-0.276270470067147,0.03335));
#1233=CARTESIAN_POINT('',(0.32875985938378,-0.276270470067147,0.03735));
#1234=CARTESIAN_POINT('',(0.323499405622311,-0.287055998622736,0.05035));
#1235=CARTESIAN_POINT('',(0.323499405622311,-0.287055998622737,0.05835));
#1236=CARTESIAN_POINT('',(0.313855240392951,-0.306829467641319,0.05835));
#1237=CARTESIAN_POINT('',(0.304211075163592,-0.3266029366599,0.05835));
#1238=CARTESIAN_POINT('',(0.304211075163592,-0.3266029366599,0.05035));
#1239=CARTESIAN_POINT('',(0.263943429495643,-0.31586390912662,0.055));
#1240=CARTESIAN_POINT('',(0.263943429495643,-0.31586390912662,0.00224999999999968));
#1241=CARTESIAN_POINT('',(0.227182753002007,-0.297934529222947,0.05035));
#1242=CARTESIAN_POINT('',(0.240400042663843,-0.277678585552134,0.055));
#1243=CARTESIAN_POINT('',(0.240400042663843,-0.277678585552134,0.05835));
#1244=CARTESIAN_POINT('',(0.242500042663843,-0.277678585552134,0.05835));
#1245=CARTESIAN_POINT('',(0.240400042663843,-0.277678585552134,0.055));
#1246=CARTESIAN_POINT('',(0.240400042663843,-0.277678585552134,-0.00575000000000029));
#1247=CARTESIAN_POINT('',(0.242500042663843,-0.277678585552134,-0.00575000000000029));
#1248=CARTESIAN_POINT('',(0.22936860004083,-0.265622579843146,0.05835));
#1249=CARTESIAN_POINT('',(0.304211075163592,-0.3266029366599,0.05835));
#1250=CARTESIAN_POINT('',(0.239012765270189,-0.245849110824564,0.05835));
#1251=CARTESIAN_POINT('',(0.313789085134789,-0.300121589923156,0.05835));
#1252=CARTESIAN_POINT('',(0.315889085134789,-0.300121589923156,0.05835));
#1253=CARTESIAN_POINT('',(0.245660496425312,-0.266893056996544,0.05835));
#1254=CARTESIAN_POINT('',(0.247760496425312,-0.266893056996544,0.05835));
#1255=CARTESIAN_POINT('',(0.308528631373319,-0.310907118478746,0.05835));
#1256=CARTESIAN_POINT('',(0.310628631373319,-0.310907118478746,0.05835));
#1257=CARTESIAN_POINT('',(0.22936860004083,-0.265622579843145,-0.00575000000000027));
#1258=CARTESIAN_POINT('',(0.21972443481147,-0.285396048861727,-0.0057500000000003));
#1259=CARTESIAN_POINT('',(0.323499405622311,-0.287055998622737,-0.00575000000000029));
#1260=CARTESIAN_POINT('',(0.245660496425312,-0.266893056996544,-0.00575000000000027));
#1261=CARTESIAN_POINT('',(0.247760496425312,-0.266893056996544,-0.00575000000000027));
#1262=CARTESIAN_POINT('',(0.313789085134789,-0.300121589923156,-0.00575000000000031));
#1263=CARTESIAN_POINT('',(0.315889085134789,-0.300121589923156,-0.00575000000000031));
#1264=CARTESIAN_POINT('',(0.308528631373319,-0.310907118478746,-0.00575000000000032));
#1265=CARTESIAN_POINT('',(0.310628631373319,-0.310907118478746,-0.00575000000000032));
#1266=CARTESIAN_POINT('',(0.245660496425312,-0.266893056996544,0.055));
#1267=CARTESIAN_POINT('',(0.245660496425312,-0.266893056996544,0.055));
#1268=CARTESIAN_POINT('',(0.313789085134789,-0.300121589923156,0.055));
#1269=CARTESIAN_POINT('',(0.313789085134789,-0.300121589923156,0.055));
#1270=CARTESIAN_POINT('',(0.308528631373319,-0.310907118478746,0.055));
#1271=CARTESIAN_POINT('',(0.308528631373319,-0.310907118478746,0.055));
#1272=CARTESIAN_POINT('',(0.288229191027758,-0.266070718961646,0.02525));
#1273=CARTESIAN_POINT('',(0.316812247703054,-0.266549123703264,0.02525));
#1274=CARTESIAN_POINT('',(0.314712247703055,-0.266549123703264,0.02525));
#1275=CARTESIAN_POINT('',(0.293106552366231,-0.254987083552881,0.02525));
#1276=CARTESIAN_POINT('',(0.291006552366231,-0.254987083552881,0.02525));
#1277=CARTESIAN_POINT('',(0.269400857029407,-0.243425043402499,0.02525));
#1278=CARTESIAN_POINT('',(0.267300857029407,-0.243425043402499,0.02525));
#1279=CARTESIAN_POINT('',(0.326974334673214,-0.279931338240455,0.02525));
#1280=CARTESIAN_POINT('',(0.295067780917667,-0.25204953183938,0.02525));
#1281=CARTESIAN_POINT('',(0.288229191027758,-0.266070718961646,0.02735));
#1282=CARTESIAN_POINT('',(0.316812247703054,-0.266549123703264,0.02735));
#1283=CARTESIAN_POINT('',(0.316812247703054,-0.268649123703263,0.02735));
#1284=CARTESIAN_POINT('',(0.293106552366231,-0.254987083552881,0.02735));
#1285=CARTESIAN_POINT('',(0.293106552366231,-0.257087083552881,0.02735));
#1286=CARTESIAN_POINT('',(0.269400857029407,-0.243425043402499,0.02735));
#1287=CARTESIAN_POINT('',(0.269400857029407,-0.245525043402499,0.02735));
#1288=CARTESIAN_POINT('',(0.253452981685942,-0.244072578433109,0.02735));
#1289=CARTESIAN_POINT('',(0.295067780917667,-0.25204953183938,0.02735));
#1290=CARTESIAN_POINT('',(0.296821265504824,-0.248454355654183,0.0192499999999997));
#1291=CARTESIAN_POINT('',(0.316812247703054,-0.266549123703264,0.0192499999999997));
#1292=CARTESIAN_POINT('',(0.316812247703054,-0.264449123703264,0.0192499999999998));
#1293=CARTESIAN_POINT('',(0.293106552366231,-0.254987083552881,0.0192499999999997));
#1294=CARTESIAN_POINT('',(0.293106552366231,-0.252887083552881,0.0192499999999998));
#1295=CARTESIAN_POINT('',(0.269400857029407,-0.243425043402499,0.0192499999999997));
#1296=CARTESIAN_POINT('',(0.269400857029407,-0.241325043402499,0.0192499999999998));
#1297=CARTESIAN_POINT('',(0.331828457411304,-0.269978911743052,0.0192499999999997));
#1298=CARTESIAN_POINT('',(0.255238506396508,-0.2404117102598,0.0192499999999997));
#1299=CARTESIAN_POINT('',(0.296821265504824,-0.248454355654183,0.03335));
#1300=CARTESIAN_POINT('',(0.316812247703054,-0.266549123703264,0.03335));
#1301=CARTESIAN_POINT('',(0.316812247703054,-0.264449123703264,0.03335));
#1302=CARTESIAN_POINT('',(0.293106552366231,-0.254987083552881,0.03335));
#1303=CARTESIAN_POINT('',(0.293106552366231,-0.252887083552881,0.03335));
#1304=CARTESIAN_POINT('',(0.269400857029407,-0.243425043402499,0.03335));
#1305=CARTESIAN_POINT('',(0.269400857029407,-0.241325043402499,0.03335));
#1306=CARTESIAN_POINT('',(0.295067780917667,-0.25204953183938,0.03335));
#1307=CARTESIAN_POINT('',(0.291999182890144,-0.258341090163474,0.03335));
#1308=CARTESIAN_POINT('',(0.242487694321092,-0.238724450442282,0.0212499999999998));
#1309=CARTESIAN_POINT('',(0.242487694321092,-0.238724450442282,0.03135));
#1310=CARTESIAN_POINT('',(0.295067780917668,-0.25204953183938,0.03135));
#1311=CARTESIAN_POINT('',(0.296765585068639,-0.248568517466392,0.03035));
#1312=CARTESIAN_POINT('',(0.295067780917667,-0.25204953183938,0.02935));
#1313=CARTESIAN_POINT('',(0.295067780917668,-0.25204953183938,0.0232499999999998));
#1314=CARTESIAN_POINT('',(0.296765585068639,-0.248568517466392,0.0222499999999998));
#1315=CARTESIAN_POINT('',(0.295067780917668,-0.25204953183938,0.0212499999999998));
#1316=CARTESIAN_POINT('',(0.291999182890144,-0.258341090163474,0.0152499999999997));
#1317=CARTESIAN_POINT('',(0.291999182890144,-0.258341090163474,0.03735));
#1318=CARTESIAN_POINT('',(0.267450398669956,-0.308673556756227,0.00224999999999968));
#1319=CARTESIAN_POINT('',(0.239012765270189,-0.245849110824564,0.00224999999999975));
#1320=CARTESIAN_POINT('',(0.21972443481147,-0.285396048861727,0.05035));
#1321=CARTESIAN_POINT('',(0.286738729128675,-0.269126618719063,0.05035));
#1322=CARTESIAN_POINT('',(0.269400857029407,-0.243425043402499,-0.00145000000000025));
#1323=CARTESIAN_POINT('',(0.293106552366231,-0.254987083552881,-0.00145000000000025));
#1324=CARTESIAN_POINT('',(0.316812247703054,-0.266549123703264,-0.00145000000000026));
#1325=CARTESIAN_POINT('',(0.269400857029407,-0.243425043402499,-0.00145000000000025));
#1326=CARTESIAN_POINT('',(0.293106552366231,-0.254987083552881,-0.00145000000000025));
#1327=CARTESIAN_POINT('',(0.316812247703054,-0.266549123703264,-0.00145000000000026));
#1328=MECHANICAL_DESIGN_GEOMETRIC_PRESENTATION_REPRESENTATION('',(#737),
#1329);
#1329=(
GEOMETRIC_REPRESENTATION_CONTEXT(3)
GLOBAL_UNCERTAINTY_ASSIGNED_CONTEXT((#1330))
GLOBAL_UNIT_ASSIGNED_CONTEXT((#1333,#1332,#1331))
REPRESENTATION_CONTEXT('ESC Clamp','TOP_LEVEL_ASSEMBLY_PART')
);
#1330=UNCERTAINTY_MEASURE_WITH_UNIT(LENGTH_MEASURE(2.E-5),#1333,
'DISTANCE_ACCURACY_VALUE','Maximum Tolerance applied to model');
#1331=(
NAMED_UNIT(*)
SI_UNIT($,.STERADIAN.)
SOLID_ANGLE_UNIT()
);
#1332=(
NAMED_UNIT(*)
PLANE_ANGLE_UNIT()
SI_UNIT($,.RADIAN.)
);
#1333=(
LENGTH_UNIT()
NAMED_UNIT(*)
SI_UNIT($,.METRE.)
);
#1334=PRODUCT_DEFINITION_SHAPE('','',#1335);
#1335=PRODUCT_DEFINITION('','',#1337,#1336);
#1336=PRODUCT_DEFINITION_CONTEXT('',#1343,'design');
#1337=PRODUCT_DEFINITION_FORMATION_WITH_SPECIFIED_SOURCE('','',#1339,
 .NOT_KNOWN.);
#1338=PRODUCT_RELATED_PRODUCT_CATEGORY('','',(#1339));
#1339=PRODUCT('ESC Clamp','ESC Clamp','ESC Clamp',(#1341));
#1340=PRODUCT_CATEGORY('','');
#1341=PRODUCT_CONTEXT('',#1343,'mechanical');
#1342=APPLICATION_PROTOCOL_DEFINITION('international standard',
'ap242_managed_model_based_3d_engineering',2020,#1343);
#1343=APPLICATION_CONTEXT('managed model based 3d engineering');
ENDSEC;
END-ISO-10303-21;
