ISO-10303-21;
HEADER;
/* Generated by software containing ST-Developer
 * from STEP Tools, Inc. (www.steptools.com) 
 */
/* OPTION: using custom renumber hook */

FILE_DESCRIPTION(
/* description */ ('STEP AP242 Edition 2',
'CAx-IF Rec.Pracs.---Representation and Presentation of Product Manufa
cturing Information (PMI)---4.0---2014-10-13',
'CAx-IF Rec.Pracs.---3D Tessellated Geometry---0.4---2014-09-14','2;1',
'CAx-IF Rec.Pracs.---User Defined Attributes---1.5---2016-08-15'),
/* implementation_level */ '2;1');

FILE_NAME(
/* name */ 'Fuselage Design v6 - ESC Clamp',
/* time_stamp */ '2026-08-06T02:47:31Z',
/* author */ (''),
/* organization */ (''),
/* preprocessor_version */ 'ST-DEVELOPER v20',
/* originating_system */ 'ONSHAPE BY PTC INC, 1.218',
/* authorisation */ '  ');

FILE_SCHEMA (('AP242_MANAGED_MODEL_BASED_3D_ENGINEERING_MIM_LF { 1 0 10303 442 3 1 4 }'));
ENDSEC;

DATA;
#10=SHAPE_REPRESENTATION_RELATIONSHIP('','',#747,#11);
#11=ADVANCED_BREP_SHAPE_REPRESENTATION('',(#745),#1329);
#12=B_SPLINE_CURVE_WITH_KNOTS('',3,(#1102,#1103,#1104,#1105,#1106,#1107,
#1108,#1109,#1110,#1111,#1112),.UNSPECIFIED.,.T.,.F.,(1,1,1,1,1,1,1,1,1,
1,1,1,1,1,1),(-0.00499276994290124,-0.00332851329526749,-0.00166425664763375,
0.,0.00166425664763375,0.00332851329526749,0.00499276994290124,0.00665702659053499,
0.00832128323816874,0.00998553988580248,0.0116497965334362,0.01331405318107,
0.0149783098287037,0.0166425664763375,0.0183068231239712),.UNSPECIFIED.);
#13=B_SPLINE_CURVE_WITH_KNOTS('',3,(#1114,#1115,#1116,#1117,#1118,#1119,
#1120,#1121,#1122,#1123,#1124),.UNSPECIFIED.,.T.,.F.,(1,1,1,1,1,1,1,1,1,
1,1,1,1,1,1),(-0.00499173800603291,-0.00332782533735528,-0.00166391266867764,
2.16840434497101E-19,0.00166391266867764,0.00332782533735527,0.00499173800603291,
0.00665565067471055,0.00831956334338818,0.00998347601206582,0.0116473886807435,
0.0133113013494211,0.0149752140180987,0.0166391266867764,0.018303039355454),
 .UNSPECIFIED.);
#14=B_SPLINE_CURVE_WITH_KNOTS('',3,(#1126,#1127,#1128,#1129,#1130,#1131,
#1132,#1133,#1134,#1135,#1136),.UNSPECIFIED.,.T.,.F.,(1,1,1,1,1,1,1,1,1,
1,1,1,1,1,1),(-0.00499173800603246,-0.00332782533735497,-0.00166391266867749,
2.16840434497101E-19,0.00166391266867749,0.00332782533735497,0.00499173800603246,
0.00665565067470994,0.00831956334338743,0.00998347601206492,0.0116473886807424,
0.0133113013494199,0.0149752140180974,0.0166391266867749,0.0183030393554523),
 .UNSPECIFIED.);
#15=B_SPLINE_CURVE_WITH_KNOTS('',3,(#1138,#1139,#1140,#1141,#1142,#1143,
#1144,#1145,#1146,#1147,#1148),.UNSPECIFIED.,.T.,.F.,(1,1,1,1,1,1,1,1,1,
1,1,1,1,1,1),(-0.00499276994290119,-0.00332851329526746,-0.00166425664763373,
0.,0.00166425664763373,0.00332851329526746,0.00499276994290119,0.00665702659053492,
0.00832128323816865,0.00998553988580238,0.0116497965334361,0.0133140531810698,
0.0149783098287036,0.0166425664763373,0.018306823123971),.UNSPECIFIED.);
#16=B_SPLINE_CURVE_WITH_KNOTS('',3,(#1150,#1151,#1152,#1153,#1154,#1155,
#1156,#1157,#1158,#1159,#1160),.UNSPECIFIED.,.T.,.F.,(1,1,1,1,1,1,1,1,1,
1,1,1,1,1,1),(-0.0049936224757583,-0.00332908165050553,-0.00166454082525277,
0.,0.00166454082525277,0.00332908165050553,0.0049936224757583,0.00665816330101106,
0.00832270412626383,0.00998724495151659,0.0116517857767694,0.0133163266020221,
0.0149808674272749,0.0166454082525277,0.0183099490777804),.UNSPECIFIED.);
#17=B_SPLINE_CURVE_WITH_KNOTS('',3,(#1162,#1163,#1164,#1165,#1166,#1167,
#1168,#1169,#1170,#1171,#1172),.UNSPECIFIED.,.T.,.F.,(1,1,1,1,1,1,1,1,1,
1,1,1,1,1,1),(-0.00499518593417371,-0.00333012395611581,-0.0016650619780579,
0.,0.0016650619780579,0.00333012395611581,0.00499518593417371,0.00666024791223161,
0.00832530989028951,0.00999037186834742,0.0116554338464053,0.0133204958244632,
0.0149855578025211,0.016650619780579,0.0183156817586369),.UNSPECIFIED.);
#18=B_SPLINE_CURVE_WITH_KNOTS('',3,(#1174,#1175,#1176,#1177,#1178,#1179,
#1180,#1181,#1182,#1183,#1184),.UNSPECIFIED.,.T.,.F.,(1,1,1,1,1,1,1,1,1,
1,1,1,1,1,1),(-0.00499518593417435,-0.00333012395611623,-0.00166506197805812,
0.,0.00166506197805812,0.00333012395611623,0.00499518593417435,0.00666024791223247,
0.00832530989029059,0.0099903718683487,0.0116554338464068,0.0133204958244649,
0.0149855578025231,0.0166506197805812,0.0183156817586393),.UNSPECIFIED.);
#19=B_SPLINE_CURVE_WITH_KNOTS('',3,(#1186,#1187,#1188,#1189,#1190,#1191,
#1192,#1193,#1194,#1195,#1196),.UNSPECIFIED.,.T.,.F.,(1,1,1,1,1,1,1,1,1,
1,1,1,1,1,1),(-0.00499362247575882,-0.00332908165050588,-0.00166454082525294,
0.,0.00166454082525294,0.00332908165050588,0.00499362247575882,0.00665816330101176,
0.0083227041262647,0.00998724495151764,0.0116517857767706,0.0133163266020235,
0.0149808674272765,0.0166454082525294,0.0183099490777823),.UNSPECIFIED.);
#20=CYLINDRICAL_SURFACE('',#765,0.02635);
#21=CYLINDRICAL_SURFACE('',#781,0.0021);
#22=CYLINDRICAL_SURFACE('',#783,0.0021);
#23=CYLINDRICAL_SURFACE('',#793,0.0021);
#24=CYLINDRICAL_SURFACE('',#794,0.0021);
#25=CYLINDRICAL_SURFACE('',#795,0.0021);
#26=CYLINDRICAL_SURFACE('',#796,0.0021);
#27=CYLINDRICAL_SURFACE('',#797,0.0021);
#28=CYLINDRICAL_SURFACE('',#798,0.0021);
#29=CYLINDRICAL_SURFACE('',#815,0.004);
#30=CYLINDRICAL_SURFACE('',#816,0.004);
#31=CYLINDRICAL_SURFACE('',#817,0.004);
#32=CYLINDRICAL_SURFACE('',#818,0.004);
#33=CYLINDRICAL_SURFACE('',#819,0.004);
#34=CYLINDRICAL_SURFACE('',#820,0.004);
#35=CYLINDRICAL_SURFACE('',#821,0.004);
#36=CYLINDRICAL_SURFACE('',#822,0.004);
#37=CYLINDRICAL_SURFACE('',#823,0.008);
#38=CYLINDRICAL_SURFACE('',#824,0.008);
#39=CYLINDRICAL_SURFACE('',#825,0.008);
#40=CYLINDRICAL_SURFACE('',#826,0.008);
#41=CYLINDRICAL_SURFACE('',#827,0.0021);
#42=CYLINDRICAL_SURFACE('',#828,0.0021);
#43=CYLINDRICAL_SURFACE('',#829,0.0021);
#44=CYLINDRICAL_SURFACE('',#830,0.0021);
#45=CYLINDRICAL_SURFACE('',#831,0.0021);
#46=CYLINDRICAL_SURFACE('',#832,0.0021);
#47=CIRCLE('',#752,0.008);
#48=CIRCLE('',#753,0.004);
#49=CIRCLE('',#754,0.004);
#50=CIRCLE('',#755,0.004);
#51=CIRCLE('',#756,0.004);
#52=CIRCLE('',#757,0.02635);
#53=CIRCLE('',#758,0.004);
#54=CIRCLE('',#759,0.004);
#55=CIRCLE('',#760,0.004);
#56=CIRCLE('',#761,0.004);
#57=CIRCLE('',#762,0.008);
#58=CIRCLE('',#763,0.008);
#59=CIRCLE('',#764,0.008);
#60=CIRCLE('',#766,0.02635);
#61=CIRCLE('',#768,0.008);
#62=CIRCLE('',#769,0.008);
#63=CIRCLE('',#770,0.004);
#64=CIRCLE('',#771,0.004);
#65=CIRCLE('',#772,0.004);
#66=CIRCLE('',#773,0.004);
#67=CIRCLE('',#774,0.004);
#68=CIRCLE('',#775,0.004);
#69=CIRCLE('',#776,0.004);
#70=CIRCLE('',#777,0.004);
#71=CIRCLE('',#778,0.008);
#72=CIRCLE('',#779,0.008);
#73=CIRCLE('',#782,0.0021);
#74=CIRCLE('',#784,0.0021);
#75=CIRCLE('',#786,0.0021);
#76=CIRCLE('',#787,0.0021);
#77=CIRCLE('',#788,0.0021);
#78=CIRCLE('',#790,0.0021);
#79=CIRCLE('',#791,0.0021);
#80=CIRCLE('',#792,0.0021);
#81=CIRCLE('',#800,0.0021);
#82=CIRCLE('',#801,0.0021);
#83=CIRCLE('',#802,0.0021);
#84=CIRCLE('',#804,0.0021);
#85=CIRCLE('',#805,0.0021);
#86=CIRCLE('',#806,0.0021);
#87=CIRCLE('',#808,0.0021);
#88=CIRCLE('',#809,0.0021);
#89=CIRCLE('',#810,0.0021);
#90=CIRCLE('',#812,0.0021);
#91=CIRCLE('',#813,0.0021);
#92=CIRCLE('',#814,0.0021);
#93=ORIENTED_EDGE('',*,*,#281,.T.);
#94=ORIENTED_EDGE('',*,*,#282,.F.);
#95=ORIENTED_EDGE('',*,*,#283,.F.);
#96=ORIENTED_EDGE('',*,*,#284,.F.);
#97=ORIENTED_EDGE('',*,*,#285,.F.);
#98=ORIENTED_EDGE('',*,*,#286,.F.);
#99=ORIENTED_EDGE('',*,*,#287,.T.);
#100=ORIENTED_EDGE('',*,*,#288,.F.);
#101=ORIENTED_EDGE('',*,*,#289,.F.);
#102=ORIENTED_EDGE('',*,*,#290,.F.);
#103=ORIENTED_EDGE('',*,*,#283,.T.);
#104=ORIENTED_EDGE('',*,*,#291,.F.);
#105=ORIENTED_EDGE('',*,*,#292,.F.);
#106=ORIENTED_EDGE('',*,*,#293,.F.);
#107=ORIENTED_EDGE('',*,*,#294,.F.);
#108=ORIENTED_EDGE('',*,*,#295,.F.);
#109=ORIENTED_EDGE('',*,*,#296,.F.);
#110=ORIENTED_EDGE('',*,*,#297,.T.);
#111=ORIENTED_EDGE('',*,*,#298,.F.);
#112=ORIENTED_EDGE('',*,*,#299,.T.);
#113=ORIENTED_EDGE('',*,*,#300,.F.);
#114=ORIENTED_EDGE('',*,*,#301,.F.);
#115=ORIENTED_EDGE('',*,*,#302,.T.);
#116=ORIENTED_EDGE('',*,*,#303,.F.);
#117=ORIENTED_EDGE('',*,*,#285,.T.);
#118=ORIENTED_EDGE('',*,*,#304,.F.);
#119=ORIENTED_EDGE('',*,*,#305,.T.);
#120=ORIENTED_EDGE('',*,*,#306,.F.);
#121=ORIENTED_EDGE('',*,*,#307,.F.);
#122=ORIENTED_EDGE('',*,*,#308,.F.);
#123=ORIENTED_EDGE('',*,*,#309,.T.);
#124=ORIENTED_EDGE('',*,*,#310,.T.);
#125=ORIENTED_EDGE('',*,*,#311,.T.);
#126=ORIENTED_EDGE('',*,*,#312,.T.);
#127=ORIENTED_EDGE('',*,*,#313,.T.);
#128=ORIENTED_EDGE('',*,*,#314,.T.);
#129=ORIENTED_EDGE('',*,*,#315,.T.);
#130=ORIENTED_EDGE('',*,*,#316,.T.);
#131=ORIENTED_EDGE('',*,*,#317,.F.);
#132=ORIENTED_EDGE('',*,*,#318,.F.);
#133=ORIENTED_EDGE('',*,*,#297,.F.);
#134=ORIENTED_EDGE('',*,*,#319,.F.);
#135=ORIENTED_EDGE('',*,*,#320,.T.);
#136=ORIENTED_EDGE('',*,*,#321,.F.);
#137=ORIENTED_EDGE('',*,*,#322,.T.);
#138=ORIENTED_EDGE('',*,*,#323,.F.);
#139=ORIENTED_EDGE('',*,*,#287,.F.);
#140=ORIENTED_EDGE('',*,*,#324,.F.);
#141=ORIENTED_EDGE('',*,*,#325,.F.);
#142=ORIENTED_EDGE('',*,*,#326,.F.);
#143=ORIENTED_EDGE('',*,*,#327,.F.);
#144=ORIENTED_EDGE('',*,*,#328,.F.);
#145=ORIENTED_EDGE('',*,*,#329,.F.);
#146=ORIENTED_EDGE('',*,*,#317,.T.);
#147=ORIENTED_EDGE('',*,*,#330,.F.);
#148=ORIENTED_EDGE('',*,*,#331,.T.);
#149=ORIENTED_EDGE('',*,*,#332,.F.);
#150=ORIENTED_EDGE('',*,*,#333,.F.);
#151=ORIENTED_EDGE('',*,*,#334,.T.);
#152=ORIENTED_EDGE('',*,*,#335,.F.);
#153=ORIENTED_EDGE('',*,*,#281,.F.);
#154=ORIENTED_EDGE('',*,*,#336,.F.);
#155=ORIENTED_EDGE('',*,*,#337,.F.);
#156=ORIENTED_EDGE('',*,*,#338,.F.);
#157=ORIENTED_EDGE('',*,*,#307,.T.);
#158=ORIENTED_EDGE('',*,*,#339,.F.);
#159=ORIENTED_EDGE('',*,*,#320,.F.);
#160=ORIENTED_EDGE('',*,*,#340,.F.);
#161=ORIENTED_EDGE('',*,*,#341,.F.);
#162=ORIENTED_EDGE('',*,*,#313,.F.);
#163=ORIENTED_EDGE('',*,*,#312,.F.);
#164=ORIENTED_EDGE('',*,*,#342,.T.);
#165=ORIENTED_EDGE('',*,*,#305,.F.);
#166=ORIENTED_EDGE('',*,*,#343,.F.);
#167=ORIENTED_EDGE('',*,*,#322,.F.);
#168=ORIENTED_EDGE('',*,*,#344,.F.);
#169=ORIENTED_EDGE('',*,*,#345,.T.);
#170=ORIENTED_EDGE('',*,*,#341,.T.);
#171=ORIENTED_EDGE('',*,*,#346,.T.);
#172=ORIENTED_EDGE('',*,*,#347,.T.);
#173=ORIENTED_EDGE('',*,*,#337,.T.);
#174=ORIENTED_EDGE('',*,*,#348,.F.);
#175=ORIENTED_EDGE('',*,*,#289,.T.);
#176=ORIENTED_EDGE('',*,*,#349,.F.);
#177=ORIENTED_EDGE('',*,*,#342,.F.);
#178=ORIENTED_EDGE('',*,*,#350,.F.);
#179=ORIENTED_EDGE('',*,*,#351,.F.);
#180=ORIENTED_EDGE('',*,*,#352,.F.);
#181=ORIENTED_EDGE('',*,*,#346,.F.);
#182=ORIENTED_EDGE('',*,*,#314,.F.);
#183=ORIENTED_EDGE('',*,*,#311,.F.);
#184=ORIENTED_EDGE('',*,*,#350,.T.);
#185=ORIENTED_EDGE('',*,*,#345,.F.);
#186=ORIENTED_EDGE('',*,*,#315,.F.);
#187=ORIENTED_EDGE('',*,*,#310,.F.);
#188=ORIENTED_EDGE('',*,*,#351,.T.);
#189=ORIENTED_EDGE('',*,*,#347,.F.);
#190=ORIENTED_EDGE('',*,*,#316,.F.);
#191=ORIENTED_EDGE('',*,*,#309,.F.);
#192=ORIENTED_EDGE('',*,*,#352,.T.);
#193=ORIENTED_EDGE('',*,*,#353,.T.);
#194=ORIENTED_EDGE('',*,*,#354,.T.);
#195=ORIENTED_EDGE('',*,*,#355,.T.);
#196=ORIENTED_EDGE('',*,*,#295,.T.);
#197=ORIENTED_EDGE('',*,*,#356,.F.);
#198=ORIENTED_EDGE('',*,*,#331,.F.);
#199=ORIENTED_EDGE('',*,*,#357,.F.);
#200=ORIENTED_EDGE('',*,*,#358,.T.);
#201=ORIENTED_EDGE('',*,*,#359,.T.);
#202=ORIENTED_EDGE('',*,*,#360,.T.);
#203=ORIENTED_EDGE('',*,*,#328,.T.);
#204=ORIENTED_EDGE('',*,*,#361,.F.);
#205=ORIENTED_EDGE('',*,*,#299,.F.);
#206=ORIENTED_EDGE('',*,*,#362,.F.);
#207=ORIENTED_EDGE('',*,*,#363,.F.);
#208=ORIENTED_EDGE('',*,*,#364,.F.);
#209=ORIENTED_EDGE('',*,*,#365,.F.);
#210=ORIENTED_EDGE('',*,*,#292,.T.);
#211=ORIENTED_EDGE('',*,*,#366,.F.);
#212=ORIENTED_EDGE('',*,*,#334,.F.);
#213=ORIENTED_EDGE('',*,*,#367,.F.);
#214=ORIENTED_EDGE('',*,*,#368,.T.);
#215=ORIENTED_EDGE('',*,*,#369,.T.);
#216=ORIENTED_EDGE('',*,*,#370,.T.);
#217=ORIENTED_EDGE('',*,*,#325,.T.);
#218=ORIENTED_EDGE('',*,*,#371,.F.);
#219=ORIENTED_EDGE('',*,*,#302,.F.);
#220=ORIENTED_EDGE('',*,*,#372,.F.);
#221=ORIENTED_EDGE('',*,*,#296,.T.);
#222=ORIENTED_EDGE('',*,*,#357,.T.);
#223=ORIENTED_EDGE('',*,*,#330,.T.);
#224=ORIENTED_EDGE('',*,*,#319,.T.);
#225=ORIENTED_EDGE('',*,*,#329,.T.);
#226=ORIENTED_EDGE('',*,*,#362,.T.);
#227=ORIENTED_EDGE('',*,*,#298,.T.);
#228=ORIENTED_EDGE('',*,*,#318,.T.);
#229=ORIENTED_EDGE('',*,*,#373,.T.);
#230=ORIENTED_EDGE('',*,*,#300,.T.);
#231=ORIENTED_EDGE('',*,*,#361,.T.);
#232=ORIENTED_EDGE('',*,*,#327,.T.);
#233=ORIENTED_EDGE('',*,*,#326,.T.);
#234=ORIENTED_EDGE('',*,*,#372,.T.);
#235=ORIENTED_EDGE('',*,*,#301,.T.);
#236=ORIENTED_EDGE('',*,*,#373,.F.);
#237=ORIENTED_EDGE('',*,*,#367,.T.);
#238=ORIENTED_EDGE('',*,*,#333,.T.);
#239=ORIENTED_EDGE('',*,*,#374,.T.);
#240=ORIENTED_EDGE('',*,*,#293,.T.);
#241=ORIENTED_EDGE('',*,*,#294,.T.);
#242=ORIENTED_EDGE('',*,*,#374,.F.);
#243=ORIENTED_EDGE('',*,*,#332,.T.);
#244=ORIENTED_EDGE('',*,*,#356,.T.);
#245=ORIENTED_EDGE('',*,*,#335,.T.);
#246=ORIENTED_EDGE('',*,*,#366,.T.);
#247=ORIENTED_EDGE('',*,*,#291,.T.);
#248=ORIENTED_EDGE('',*,*,#282,.T.);
#249=ORIENTED_EDGE('',*,*,#324,.T.);
#250=ORIENTED_EDGE('',*,*,#286,.T.);
#251=ORIENTED_EDGE('',*,*,#303,.T.);
#252=ORIENTED_EDGE('',*,*,#371,.T.);
#253=ORIENTED_EDGE('',*,*,#308,.T.);
#254=ORIENTED_EDGE('',*,*,#340,.T.);
#255=ORIENTED_EDGE('',*,*,#338,.T.);
#256=ORIENTED_EDGE('',*,*,#349,.T.);
#257=ORIENTED_EDGE('',*,*,#290,.T.);
#258=ORIENTED_EDGE('',*,*,#348,.T.);
#259=ORIENTED_EDGE('',*,*,#336,.T.);
#260=ORIENTED_EDGE('',*,*,#284,.T.);
#261=ORIENTED_EDGE('',*,*,#306,.T.);
#262=ORIENTED_EDGE('',*,*,#344,.T.);
#263=ORIENTED_EDGE('',*,*,#321,.T.);
#264=ORIENTED_EDGE('',*,*,#339,.T.);
#265=ORIENTED_EDGE('',*,*,#304,.T.);
#266=ORIENTED_EDGE('',*,*,#288,.T.);
#267=ORIENTED_EDGE('',*,*,#323,.T.);
#268=ORIENTED_EDGE('',*,*,#343,.T.);
#269=ORIENTED_EDGE('',*,*,#360,.F.);
#270=ORIENTED_EDGE('',*,*,#370,.F.);
#271=ORIENTED_EDGE('',*,*,#359,.F.);
#272=ORIENTED_EDGE('',*,*,#369,.F.);
#273=ORIENTED_EDGE('',*,*,#358,.F.);
#274=ORIENTED_EDGE('',*,*,#368,.F.);
#275=ORIENTED_EDGE('',*,*,#355,.F.);
#276=ORIENTED_EDGE('',*,*,#365,.T.);
#277=ORIENTED_EDGE('',*,*,#354,.F.);
#278=ORIENTED_EDGE('',*,*,#364,.T.);
#279=ORIENTED_EDGE('',*,*,#353,.F.);
#280=ORIENTED_EDGE('',*,*,#363,.T.);
#281=EDGE_CURVE('',#375,#376,#447,.T.);
#282=EDGE_CURVE('',#377,#376,#448,.F.);
#283=EDGE_CURVE('',#378,#377,#449,.T.);
#284=EDGE_CURVE('',#375,#378,#450,.F.);
#285=EDGE_CURVE('',#379,#380,#451,.T.);
#286=EDGE_CURVE('',#381,#379,#452,.T.);
#287=EDGE_CURVE('',#381,#382,#453,.T.);
#288=EDGE_CURVE('',#380,#382,#454,.T.);
#289=EDGE_CURVE('',#383,#384,#455,.T.);
#290=EDGE_CURVE('',#378,#383,#47,.T.);
#291=EDGE_CURVE('',#385,#377,#48,.F.);
#292=EDGE_CURVE('',#386,#385,#456,.T.);
#293=EDGE_CURVE('',#387,#386,#49,.T.);
#294=EDGE_CURVE('',#388,#387,#50,.T.);
#295=EDGE_CURVE('',#389,#388,#457,.T.);
#296=EDGE_CURVE('',#390,#389,#51,.T.);
#297=EDGE_CURVE('',#390,#391,#52,.T.);
#298=EDGE_CURVE('',#392,#391,#53,.T.);
#299=EDGE_CURVE('',#392,#393,#458,.T.);
#300=EDGE_CURVE('',#394,#393,#54,.T.);
#301=EDGE_CURVE('',#395,#394,#55,.T.);
#302=EDGE_CURVE('',#395,#396,#459,.T.);
#303=EDGE_CURVE('',#379,#396,#56,.F.);
#304=EDGE_CURVE('',#397,#380,#57,.T.);
#305=EDGE_CURVE('',#397,#398,#460,.T.);
#306=EDGE_CURVE('',#399,#398,#58,.T.);
#307=EDGE_CURVE('',#400,#399,#461,.T.);
#308=EDGE_CURVE('',#384,#400,#59,.T.);
#309=EDGE_CURVE('',#401,#401,#12,.T.);
#310=EDGE_CURVE('',#402,#402,#13,.T.);
#311=EDGE_CURVE('',#403,#403,#14,.T.);
#312=EDGE_CURVE('',#404,#404,#15,.T.);
#313=EDGE_CURVE('',#405,#405,#16,.T.);
#314=EDGE_CURVE('',#406,#406,#17,.T.);
#315=EDGE_CURVE('',#407,#407,#18,.T.);
#316=EDGE_CURVE('',#408,#408,#19,.T.);
#317=EDGE_CURVE('',#409,#410,#60,.T.);
#318=EDGE_CURVE('',#391,#409,#462,.T.);
#319=EDGE_CURVE('',#410,#390,#463,.F.);
#320=EDGE_CURVE('',#411,#412,#464,.T.);
#321=EDGE_CURVE('',#413,#412,#61,.F.);
#322=EDGE_CURVE('',#413,#414,#465,.T.);
#323=EDGE_CURVE('',#382,#414,#62,.F.);
#324=EDGE_CURVE('',#415,#381,#63,.T.);
#325=EDGE_CURVE('',#416,#415,#466,.T.);
#326=EDGE_CURVE('',#417,#416,#64,.F.);
#327=EDGE_CURVE('',#418,#417,#65,.F.);
#328=EDGE_CURVE('',#419,#418,#467,.T.);
#329=EDGE_CURVE('',#409,#419,#66,.F.);
#330=EDGE_CURVE('',#420,#410,#67,.F.);
#331=EDGE_CURVE('',#420,#421,#468,.T.);
#332=EDGE_CURVE('',#422,#421,#68,.F.);
#333=EDGE_CURVE('',#423,#422,#69,.F.);
#334=EDGE_CURVE('',#423,#424,#469,.T.);
#335=EDGE_CURVE('',#376,#424,#70,.T.);
#336=EDGE_CURVE('',#425,#375,#71,.F.);
#337=EDGE_CURVE('',#426,#425,#470,.T.);
#338=EDGE_CURVE('',#411,#426,#72,.F.);
#339=EDGE_CURVE('',#412,#399,#471,.F.);
#340=EDGE_CURVE('',#400,#411,#472,.T.);
#341=EDGE_CURVE('',#427,#427,#73,.F.);
#342=EDGE_CURVE('',#428,#428,#74,.F.);
#343=EDGE_CURVE('',#414,#397,#473,.F.);
#344=EDGE_CURVE('',#398,#413,#474,.T.);
#345=EDGE_CURVE('',#429,#429,#75,.F.);
#346=EDGE_CURVE('',#430,#430,#76,.F.);
#347=EDGE_CURVE('',#431,#431,#77,.F.);
#348=EDGE_CURVE('',#383,#425,#475,.T.);
#349=EDGE_CURVE('',#426,#384,#476,.F.);
#350=EDGE_CURVE('',#432,#432,#78,.F.);
#351=EDGE_CURVE('',#433,#433,#79,.F.);
#352=EDGE_CURVE('',#434,#434,#80,.F.);
#353=EDGE_CURVE('',#435,#435,#81,.T.);
#354=EDGE_CURVE('',#436,#436,#82,.T.);
#355=EDGE_CURVE('',#437,#437,#83,.T.);
#356=EDGE_CURVE('',#421,#388,#477,.F.);
#357=EDGE_CURVE('',#389,#420,#478,.F.);
#358=EDGE_CURVE('',#438,#438,#84,.T.);
#359=EDGE_CURVE('',#439,#439,#85,.T.);
#360=EDGE_CURVE('',#440,#440,#86,.T.);
#361=EDGE_CURVE('',#393,#418,#479,.F.);
#362=EDGE_CURVE('',#419,#392,#480,.T.);
#363=EDGE_CURVE('',#441,#441,#87,.T.);
#364=EDGE_CURVE('',#442,#442,#88,.T.);
#365=EDGE_CURVE('',#443,#443,#89,.T.);
#366=EDGE_CURVE('',#424,#385,#481,.T.);
#367=EDGE_CURVE('',#386,#423,#482,.F.);
#368=EDGE_CURVE('',#444,#444,#90,.T.);
#369=EDGE_CURVE('',#445,#445,#91,.T.);
#370=EDGE_CURVE('',#446,#446,#92,.T.);
#371=EDGE_CURVE('',#396,#415,#483,.F.);
#372=EDGE_CURVE('',#416,#395,#484,.T.);
#373=EDGE_CURVE('',#417,#394,#485,.T.);
#374=EDGE_CURVE('',#422,#387,#486,.F.);
#375=VERTEX_POINT('',#1046);
#376=VERTEX_POINT('',#1047);
#377=VERTEX_POINT('',#1049);
#378=VERTEX_POINT('',#1051);
#379=VERTEX_POINT('',#1055);
#380=VERTEX_POINT('',#1056);
#381=VERTEX_POINT('',#1058);
#382=VERTEX_POINT('',#1060);
#383=VERTEX_POINT('',#1064);
#384=VERTEX_POINT('',#1065);
#385=VERTEX_POINT('',#1068);
#386=VERTEX_POINT('',#1070);
#387=VERTEX_POINT('',#1072);
#388=VERTEX_POINT('',#1074);
#389=VERTEX_POINT('',#1076);
#390=VERTEX_POINT('',#1078);
#391=VERTEX_POINT('',#1080);
#392=VERTEX_POINT('',#1082);
#393=VERTEX_POINT('',#1084);
#394=VERTEX_POINT('',#1086);
#395=VERTEX_POINT('',#1088);
#396=VERTEX_POINT('',#1090);
#397=VERTEX_POINT('',#1093);
#398=VERTEX_POINT('',#1095);
#399=VERTEX_POINT('',#1097);
#400=VERTEX_POINT('',#1099);
#401=VERTEX_POINT('',#1113);
#402=VERTEX_POINT('',#1125);
#403=VERTEX_POINT('',#1137);
#404=VERTEX_POINT('',#1149);
#405=VERTEX_POINT('',#1161);
#406=VERTEX_POINT('',#1173);
#407=VERTEX_POINT('',#1185);
#408=VERTEX_POINT('',#1197);
#409=VERTEX_POINT('',#1199);
#410=VERTEX_POINT('',#1200);
#411=VERTEX_POINT('',#1205);
#412=VERTEX_POINT('',#1206);
#413=VERTEX_POINT('',#1208);
#414=VERTEX_POINT('',#1210);
#415=VERTEX_POINT('',#1213);
#416=VERTEX_POINT('',#1215);
#417=VERTEX_POINT('',#1217);
#418=VERTEX_POINT('',#1219);
#419=VERTEX_POINT('',#1221);
#420=VERTEX_POINT('',#1224);
#421=VERTEX_POINT('',#1226);
#422=VERTEX_POINT('',#1228);
#423=VERTEX_POINT('',#1230);
#424=VERTEX_POINT('',#1232);
#425=VERTEX_POINT('',#1235);
#426=VERTEX_POINT('',#1237);
#427=VERTEX_POINT('',#1244);
#428=VERTEX_POINT('',#1247);
#429=VERTEX_POINT('',#1252);
#430=VERTEX_POINT('',#1254);
#431=VERTEX_POINT('',#1256);
#432=VERTEX_POINT('',#1261);
#433=VERTEX_POINT('',#1263);
#434=VERTEX_POINT('',#1265);
#435=VERTEX_POINT('',#1274);
#436=VERTEX_POINT('',#1276);
#437=VERTEX_POINT('',#1278);
#438=VERTEX_POINT('',#1283);
#439=VERTEX_POINT('',#1285);
#440=VERTEX_POINT('',#1287);
#441=VERTEX_POINT('',#1292);
#442=VERTEX_POINT('',#1294);
#443=VERTEX_POINT('',#1296);
#444=VERTEX_POINT('',#1301);
#445=VERTEX_POINT('',#1303);
#446=VERTEX_POINT('',#1305);
#447=LINE('',#1045,#487);
#448=LINE('',#1048,#488);
#449=LINE('',#1050,#489);
#450=LINE('',#1052,#490);
#451=LINE('',#1054,#491);
#452=LINE('',#1057,#492);
#453=LINE('',#1059,#493);
#454=LINE('',#1061,#494);
#455=LINE('',#1063,#495);
#456=LINE('',#1069,#496);
#457=LINE('',#1075,#497);
#458=LINE('',#1083,#498);
#459=LINE('',#1089,#499);
#460=LINE('',#1094,#500);
#461=LINE('',#1098,#501);
#462=LINE('',#1201,#502);
#463=LINE('',#1202,#503);
#464=LINE('',#1204,#504);
#465=LINE('',#1209,#505);
#466=LINE('',#1214,#506);
#467=LINE('',#1220,#507);
#468=LINE('',#1225,#508);
#469=LINE('',#1231,#509);
#470=LINE('',#1236,#510);
#471=LINE('',#1240,#511);
#472=LINE('',#1241,#512);
#473=LINE('',#1249,#513);
#474=LINE('',#1250,#514);
#475=LINE('',#1258,#515);
#476=LINE('',#1259,#516);
#477=LINE('',#1279,#517);
#478=LINE('',#1280,#518);
#479=LINE('',#1288,#519);
#480=LINE('',#1289,#520);
#481=LINE('',#1297,#521);
#482=LINE('',#1298,#522);
#483=LINE('',#1306,#523);
#484=LINE('',#1307,#524);
#485=LINE('',#1311,#525);
#486=LINE('',#1314,#526);
#487=VECTOR('',#837,1.);
#488=VECTOR('',#838,1.);
#489=VECTOR('',#839,1.);
#490=VECTOR('',#840,1.);
#491=VECTOR('',#843,1.);
#492=VECTOR('',#844,1.);
#493=VECTOR('',#845,1.);
#494=VECTOR('',#846,1.);
#495=VECTOR('',#849,1.);
#496=VECTOR('',#854,1.);
#497=VECTOR('',#859,1.);
#498=VECTOR('',#866,1.);
#499=VECTOR('',#871,1.);
#500=VECTOR('',#876,1.);
#501=VECTOR('',#879,1.);
#502=VECTOR('',#886,1.);
#503=VECTOR('',#887,1.);
#504=VECTOR('',#890,1.);
#505=VECTOR('',#893,1.);
#506=VECTOR('',#898,1.);
#507=VECTOR('',#903,1.);
#508=VECTOR('',#908,1.);
#509=VECTOR('',#913,1.);
#510=VECTOR('',#918,1.);
#511=VECTOR('',#923,1.);
#512=VECTOR('',#924,1.);
#513=VECTOR('',#935,1.);
#514=VECTOR('',#936,1.);
#515=VECTOR('',#945,1.);
#516=VECTOR('',#946,1.);
#517=VECTOR('',#973,1.);
#518=VECTOR('',#974,1.);
#519=VECTOR('',#983,1.);
#520=VECTOR('',#984,1.);
#521=VECTOR('',#993,1.);
#522=VECTOR('',#994,1.);
#523=VECTOR('',#1003,1.);
#524=VECTOR('',#1004,1.);
#525=VECTOR('',#1011,1.);
#526=VECTOR('',#1016,1.);
#527=EDGE_LOOP('',(#93,#94,#95,#96));
#528=EDGE_LOOP('',(#97,#98,#99,#100));
#529=EDGE_LOOP('',(#101,#102,#103,#104,#105,#106,#107,#108,#109,#110,#111,
#112,#113,#114,#115,#116,#117,#118,#119,#120,#121,#122));
#530=EDGE_LOOP('',(#123));
#531=EDGE_LOOP('',(#124));
#532=EDGE_LOOP('',(#125));
#533=EDGE_LOOP('',(#126));
#534=EDGE_LOOP('',(#127));
#535=EDGE_LOOP('',(#128));
#536=EDGE_LOOP('',(#129));
#537=EDGE_LOOP('',(#130));
#538=EDGE_LOOP('',(#131,#132,#133,#134));
#539=EDGE_LOOP('',(#135,#136,#137,#138,#139,#140,#141,#142,#143,#144,#145,
#146,#147,#148,#149,#150,#151,#152,#153,#154,#155,#156));
#540=EDGE_LOOP('',(#157,#158,#159,#160));
#541=EDGE_LOOP('',(#161));
#542=EDGE_LOOP('',(#162));
#543=EDGE_LOOP('',(#163));
#544=EDGE_LOOP('',(#164));
#545=EDGE_LOOP('',(#165,#166,#167,#168));
#546=EDGE_LOOP('',(#169));
#547=EDGE_LOOP('',(#170));
#548=EDGE_LOOP('',(#171));
#549=EDGE_LOOP('',(#172));
#550=EDGE_LOOP('',(#173,#174,#175,#176));
#551=EDGE_LOOP('',(#177));
#552=EDGE_LOOP('',(#178));
#553=EDGE_LOOP('',(#179));
#554=EDGE_LOOP('',(#180));
#555=EDGE_LOOP('',(#181));
#556=EDGE_LOOP('',(#182));
#557=EDGE_LOOP('',(#183));
#558=EDGE_LOOP('',(#184));
#559=EDGE_LOOP('',(#185));
#560=EDGE_LOOP('',(#186));
#561=EDGE_LOOP('',(#187));
#562=EDGE_LOOP('',(#188));
#563=EDGE_LOOP('',(#189));
#564=EDGE_LOOP('',(#190));
#565=EDGE_LOOP('',(#191));
#566=EDGE_LOOP('',(#192));
#567=EDGE_LOOP('',(#193));
#568=EDGE_LOOP('',(#194));
#569=EDGE_LOOP('',(#195));
#570=EDGE_LOOP('',(#196,#197,#198,#199));
#571=EDGE_LOOP('',(#200));
#572=EDGE_LOOP('',(#201));
#573=EDGE_LOOP('',(#202));
#574=EDGE_LOOP('',(#203,#204,#205,#206));
#575=EDGE_LOOP('',(#207));
#576=EDGE_LOOP('',(#208));
#577=EDGE_LOOP('',(#209));
#578=EDGE_LOOP('',(#210,#211,#212,#213));
#579=EDGE_LOOP('',(#214));
#580=EDGE_LOOP('',(#215));
#581=EDGE_LOOP('',(#216));
#582=EDGE_LOOP('',(#217,#218,#219,#220));
#583=EDGE_LOOP('',(#221,#222,#223,#224));
#584=EDGE_LOOP('',(#225,#226,#227,#228));
#585=EDGE_LOOP('',(#229,#230,#231,#232));
#586=EDGE_LOOP('',(#233,#234,#235,#236));
#587=EDGE_LOOP('',(#237,#238,#239,#240));
#588=EDGE_LOOP('',(#241,#242,#243,#244));
#589=EDGE_LOOP('',(#245,#246,#247,#248));
#590=EDGE_LOOP('',(#249,#250,#251,#252));
#591=EDGE_LOOP('',(#253,#254,#255,#256));
#592=EDGE_LOOP('',(#257,#258,#259,#260));
#593=EDGE_LOOP('',(#261,#262,#263,#264));
#594=EDGE_LOOP('',(#265,#266,#267,#268));
#595=EDGE_LOOP('',(#269));
#596=EDGE_LOOP('',(#270));
#597=EDGE_LOOP('',(#271));
#598=EDGE_LOOP('',(#272));
#599=EDGE_LOOP('',(#273));
#600=EDGE_LOOP('',(#274));
#601=EDGE_LOOP('',(#275));
#602=EDGE_LOOP('',(#276));
#603=EDGE_LOOP('',(#277));
#604=EDGE_LOOP('',(#278));
#605=EDGE_LOOP('',(#279));
#606=EDGE_LOOP('',(#280));
#607=FACE_BOUND('',#527,.T.);
#608=FACE_BOUND('',#528,.T.);
#609=FACE_BOUND('',#529,.T.);
#610=FACE_BOUND('',#530,.T.);
#611=FACE_BOUND('',#531,.T.);
#612=FACE_BOUND('',#532,.T.);
#613=FACE_BOUND('',#533,.T.);
#614=FACE_BOUND('',#534,.T.);
#615=FACE_BOUND('',#535,.T.);
#616=FACE_BOUND('',#536,.T.);
#617=FACE_BOUND('',#537,.T.);
#618=FACE_BOUND('',#538,.T.);
#619=FACE_BOUND('',#539,.T.);
#620=FACE_BOUND('',#540,.T.);
#621=FACE_BOUND('',#541,.T.);
#622=FACE_BOUND('',#542,.T.);
#623=FACE_BOUND('',#543,.T.);
#624=FACE_BOUND('',#544,.T.);
#625=FACE_BOUND('',#545,.T.);
#626=FACE_BOUND('',#546,.T.);
#627=FACE_BOUND('',#547,.T.);
#628=FACE_BOUND('',#548,.T.);
#629=FACE_BOUND('',#549,.T.);
#630=FACE_BOUND('',#550,.T.);
#631=FACE_BOUND('',#551,.T.);
#632=FACE_BOUND('',#552,.T.);
#633=FACE_BOUND('',#553,.T.);
#634=FACE_BOUND('',#554,.T.);
#635=FACE_BOUND('',#555,.T.);
#636=FACE_BOUND('',#556,.T.);
#637=FACE_BOUND('',#557,.T.);
#638=FACE_BOUND('',#558,.T.);
#639=FACE_BOUND('',#559,.T.);
#640=FACE_BOUND('',#560,.T.);
#641=FACE_BOUND('',#561,.T.);
#642=FACE_BOUND('',#562,.T.);
#643=FACE_BOUND('',#563,.T.);
#644=FACE_BOUND('',#564,.T.);
#645=FACE_BOUND('',#565,.T.);
#646=FACE_BOUND('',#566,.T.);
#647=FACE_BOUND('',#567,.T.);
#648=FACE_BOUND('',#568,.T.);
#649=FACE_BOUND('',#569,.T.);
#650=FACE_BOUND('',#570,.T.);
#651=FACE_BOUND('',#571,.T.);
#652=FACE_BOUND('',#572,.T.);
#653=FACE_BOUND('',#573,.T.);
#654=FACE_BOUND('',#574,.T.);
#655=FACE_BOUND('',#575,.T.);
#656=FACE_BOUND('',#576,.T.);
#657=FACE_BOUND('',#577,.T.);
#658=FACE_BOUND('',#578,.T.);
#659=FACE_BOUND('',#579,.T.);
#660=FACE_BOUND('',#580,.T.);
#661=FACE_BOUND('',#581,.T.);
#662=FACE_BOUND('',#582,.T.);
#663=FACE_BOUND('',#583,.T.);
#664=FACE_BOUND('',#584,.T.);
#665=FACE_BOUND('',#585,.T.);
#666=FACE_BOUND('',#586,.T.);
#667=FACE_BOUND('',#587,.T.);
#668=FACE_BOUND('',#588,.T.);
#669=FACE_BOUND('',#589,.T.);
#670=FACE_BOUND('',#590,.T.);
#671=FACE_BOUND('',#591,.T.);
#672=FACE_BOUND('',#592,.T.);
#673=FACE_BOUND('',#593,.T.);
#674=FACE_BOUND('',#594,.T.);
#675=FACE_BOUND('',#595,.T.);
#676=FACE_BOUND('',#596,.T.);
#677=FACE_BOUND('',#597,.T.);
#678=FACE_BOUND('',#598,.T.);
#679=FACE_BOUND('',#599,.T.);
#680=FACE_BOUND('',#600,.T.);
#681=FACE_BOUND('',#601,.T.);
#682=FACE_BOUND('',#602,.T.);
#683=FACE_BOUND('',#603,.T.);
#684=FACE_BOUND('',#604,.T.);
#685=FACE_BOUND('',#605,.T.);
#686=FACE_BOUND('',#606,.T.);
#687=PLANE('',#749);
#688=PLANE('',#750);
#689=PLANE('',#751);
#690=PLANE('',#767);
#691=PLANE('',#780);
#692=PLANE('',#785);
#693=PLANE('',#789);
#694=PLANE('',#799);
#695=PLANE('',#803);
#696=PLANE('',#807);
#697=PLANE('',#811);
#698=ADVANCED_FACE('',(#607),#687,.F.);
#699=ADVANCED_FACE('',(#608),#688,.F.);
#700=ADVANCED_FACE('',(#609),#689,.T.);
#701=ADVANCED_FACE('',(#610,#611,#612,#613,#614,#615,#616,#617,#618),#20,
 .F.);
#702=ADVANCED_FACE('',(#619),#690,.F.);
#703=ADVANCED_FACE('',(#620),#691,.T.);
#704=ADVANCED_FACE('',(#621,#622),#21,.F.);
#705=ADVANCED_FACE('',(#623,#624),#22,.F.);
#706=ADVANCED_FACE('',(#625,#626,#627,#628,#629),#692,.F.);
#707=ADVANCED_FACE('',(#630,#631,#632,#633,#634),#693,.T.);
#708=ADVANCED_FACE('',(#635,#636),#23,.F.);
#709=ADVANCED_FACE('',(#637,#638),#24,.F.);
#710=ADVANCED_FACE('',(#639,#640),#25,.F.);
#711=ADVANCED_FACE('',(#641,#642),#26,.F.);
#712=ADVANCED_FACE('',(#643,#644),#27,.F.);
#713=ADVANCED_FACE('',(#645,#646),#28,.F.);
#714=ADVANCED_FACE('',(#647,#648,#649,#650),#694,.T.);
#715=ADVANCED_FACE('',(#651,#652,#653,#654),#695,.T.);
#716=ADVANCED_FACE('',(#655,#656,#657,#658),#696,.F.);
#717=ADVANCED_FACE('',(#659,#660,#661,#662),#697,.T.);
#718=ADVANCED_FACE('',(#663),#29,.T.);
#719=ADVANCED_FACE('',(#664),#30,.T.);
#720=ADVANCED_FACE('',(#665),#31,.T.);
#721=ADVANCED_FACE('',(#666),#32,.T.);
#722=ADVANCED_FACE('',(#667),#33,.T.);
#723=ADVANCED_FACE('',(#668),#34,.T.);
#724=ADVANCED_FACE('',(#669),#35,.F.);
#725=ADVANCED_FACE('',(#670),#36,.F.);
#726=ADVANCED_FACE('',(#671),#37,.T.);
#727=ADVANCED_FACE('',(#672),#38,.T.);
#728=ADVANCED_FACE('',(#673),#39,.T.);
#729=ADVANCED_FACE('',(#674),#40,.T.);
#730=ADVANCED_FACE('',(#675,#676),#41,.F.);
#731=ADVANCED_FACE('',(#677,#678),#42,.F.);
#732=ADVANCED_FACE('',(#679,#680),#43,.F.);
#733=ADVANCED_FACE('',(#681,#682),#44,.F.);
#734=ADVANCED_FACE('',(#683,#684),#45,.F.);
#735=ADVANCED_FACE('',(#685,#686),#46,.F.);
#736=CLOSED_SHELL('',(#698,#699,#700,#701,#702,#703,#704,#705,#706,#707,
#708,#709,#710,#711,#712,#713,#714,#715,#716,#717,#718,#719,#720,#721,#722,
#723,#724,#725,#726,#727,#728,#729,#730,#731,#732,#733,#734,#735));
#737=STYLED_ITEM('',(#738),#745);
#738=PRESENTATION_STYLE_ASSIGNMENT((#739));
#739=SURFACE_STYLE_USAGE(.BOTH.,#740);
#740=SURFACE_SIDE_STYLE('',(#741));
#741=SURFACE_STYLE_FILL_AREA(#742);
#742=FILL_AREA_STYLE('',(#743));
#743=FILL_AREA_STYLE_COLOUR('',#744);
#744=COLOUR_RGB('',0.647058823529412,0.647058823529412,0.647058823529412);
#745=MANIFOLD_SOLID_BREP('ESC Clamp',#736);
#746=SHAPE_DEFINITION_REPRESENTATION(#1334,#747);
#747=SHAPE_REPRESENTATION('ESC Clamp',(#748),#1329);
#748=AXIS2_PLACEMENT_3D('',#1043,#833,#834);
#749=AXIS2_PLACEMENT_3D('',#1044,#835,#836);
#750=AXIS2_PLACEMENT_3D('',#1053,#841,#842);
#751=AXIS2_PLACEMENT_3D('',#1062,#847,#848);
#752=AXIS2_PLACEMENT_3D('',#1066,#850,#851);
#753=AXIS2_PLACEMENT_3D('',#1067,#852,#853);
#754=AXIS2_PLACEMENT_3D('',#1071,#855,#856);
#755=AXIS2_PLACEMENT_3D('',#1073,#857,#858);
#756=AXIS2_PLACEMENT_3D('',#1077,#860,#861);
#757=AXIS2_PLACEMENT_3D('',#1079,#862,#863);
#758=AXIS2_PLACEMENT_3D('',#1081,#864,#865);
#759=AXIS2_PLACEMENT_3D('',#1085,#867,#868);
#760=AXIS2_PLACEMENT_3D('',#1087,#869,#870);
#761=AXIS2_PLACEMENT_3D('',#1091,#872,#873);
#762=AXIS2_PLACEMENT_3D('',#1092,#874,#875);
#763=AXIS2_PLACEMENT_3D('',#1096,#877,#878);
#764=AXIS2_PLACEMENT_3D('',#1100,#880,#881);
#765=AXIS2_PLACEMENT_3D('',#1101,#882,#883);
#766=AXIS2_PLACEMENT_3D('',#1198,#884,#885);
#767=AXIS2_PLACEMENT_3D('',#1203,#888,#889);
#768=AXIS2_PLACEMENT_3D('',#1207,#891,#892);
#769=AXIS2_PLACEMENT_3D('',#1211,#894,#895);
#770=AXIS2_PLACEMENT_3D('',#1212,#896,#897);
#771=AXIS2_PLACEMENT_3D('',#1216,#899,#900);
#772=AXIS2_PLACEMENT_3D('',#1218,#901,#902);
#773=AXIS2_PLACEMENT_3D('',#1222,#904,#905);
#774=AXIS2_PLACEMENT_3D('',#1223,#906,#907);
#775=AXIS2_PLACEMENT_3D('',#1227,#909,#910);
#776=AXIS2_PLACEMENT_3D('',#1229,#911,#912);
#777=AXIS2_PLACEMENT_3D('',#1233,#914,#915);
#778=AXIS2_PLACEMENT_3D('',#1234,#916,#917);
#779=AXIS2_PLACEMENT_3D('',#1238,#919,#920);
#780=AXIS2_PLACEMENT_3D('',#1239,#921,#922);
#781=AXIS2_PLACEMENT_3D('',#1242,#925,#926);
#782=AXIS2_PLACEMENT_3D('',#1243,#927,#928);
#783=AXIS2_PLACEMENT_3D('',#1245,#929,#930);
#784=AXIS2_PLACEMENT_3D('',#1246,#931,#932);
#785=AXIS2_PLACEMENT_3D('',#1248,#933,#934);
#786=AXIS2_PLACEMENT_3D('',#1251,#937,#938);
#787=AXIS2_PLACEMENT_3D('',#1253,#939,#940);
#788=AXIS2_PLACEMENT_3D('',#1255,#941,#942);
#789=AXIS2_PLACEMENT_3D('',#1257,#943,#944);
#790=AXIS2_PLACEMENT_3D('',#1260,#947,#948);
#791=AXIS2_PLACEMENT_3D('',#1262,#949,#950);
#792=AXIS2_PLACEMENT_3D('',#1264,#951,#952);
#793=AXIS2_PLACEMENT_3D('',#1266,#953,#954);
#794=AXIS2_PLACEMENT_3D('',#1267,#955,#956);
#795=AXIS2_PLACEMENT_3D('',#1268,#957,#958);
#796=AXIS2_PLACEMENT_3D('',#1269,#959,#960);
#797=AXIS2_PLACEMENT_3D('',#1270,#961,#962);
#798=AXIS2_PLACEMENT_3D('',#1271,#963,#964);
#799=AXIS2_PLACEMENT_3D('',#1272,#965,#966);
#800=AXIS2_PLACEMENT_3D('',#1273,#967,#968);
#801=AXIS2_PLACEMENT_3D('',#1275,#969,#970);
#802=AXIS2_PLACEMENT_3D('',#1277,#971,#972);
#803=AXIS2_PLACEMENT_3D('',#1281,#975,#976);
#804=AXIS2_PLACEMENT_3D('',#1282,#977,#978);
#805=AXIS2_PLACEMENT_3D('',#1284,#979,#980);
#806=AXIS2_PLACEMENT_3D('',#1286,#981,#982);
#807=AXIS2_PLACEMENT_3D('',#1290,#985,#986);
#808=AXIS2_PLACEMENT_3D('',#1291,#987,#988);
#809=AXIS2_PLACEMENT_3D('',#1293,#989,#990);
#810=AXIS2_PLACEMENT_3D('',#1295,#991,#992);
#811=AXIS2_PLACEMENT_3D('',#1299,#995,#996);
#812=AXIS2_PLACEMENT_3D('',#1300,#997,#998);
#813=AXIS2_PLACEMENT_3D('',#1302,#999,#1000);
#814=AXIS2_PLACEMENT_3D('',#1304,#1001,#1002);
#815=AXIS2_PLACEMENT_3D('',#1308,#1005,#1006);
#816=AXIS2_PLACEMENT_3D('',#1309,#1007,#1008);
#817=AXIS2_PLACEMENT_3D('',#1310,#1009,#1010);
#818=AXIS2_PLACEMENT_3D('',#1312,#1012,#1013);
#819=AXIS2_PLACEMENT_3D('',#1313,#1014,#1015);
#820=AXIS2_PLACEMENT_3D('',#1315,#1017,#1018);
#821=AXIS2_PLACEMENT_3D('',#1316,#1019,#1020);
#822=AXIS2_PLACEMENT_3D('',#1317,#1021,#1022);
#823=AXIS2_PLACEMENT_3D('',#1318,#1023,#1024);
#824=AXIS2_PLACEMENT_3D('',#1319,#1025,#1026);
#825=AXIS2_PLACEMENT_3D('',#1320,#1027,#1028);
#826=AXIS2_PLACEMENT_3D('',#1321,#1029,#1030);
#827=AXIS2_PLACEMENT_3D('',#1322,#1031,#1032);
#828=AXIS2_PLACEMENT_3D('',#1323,#1033,#1034);
#829=AXIS2_PLACEMENT_3D('',#1324,#1035,#1036);
#830=AXIS2_PLACEMENT_3D('',#1325,#1037,#1038);
#831=AXIS2_PLACEMENT_3D('',#1326,#1039,#1040);
#832=AXIS2_PLACEMENT_3D('',#1327,#1041,#1042);
#833=DIRECTION('',(0.,0.,1.));
#834=DIRECTION('',(1.,0.,0.));
#835=DIRECTION('',(-0.438371146789078,0.898794046299167,2.16926487955945E-16));
#836=DIRECTION('',(0.898794046299167,0.438371146789078,0.));
#837=DIRECTION('',(2.71808837706351E-34,-2.41352831440252E-16,1.));
#838=DIRECTION('',(-0.898794046299167,-0.438371146789078,-8.48275538374966E-17));
#839=DIRECTION('',(0.,-2.41352831440252E-16,1.));
#840=DIRECTION('',(0.898794046299167,0.438371146789078,1.05802117499254E-16));
#841=DIRECTION('',(-0.438371146789078,0.898794046299167,2.16926487955945E-16));
#842=DIRECTION('',(0.898794046299167,0.438371146789078,0.));
#843=DIRECTION('',(0.,-2.41352831440252E-16,1.));
#844=DIRECTION('',(-0.898794046299167,-0.438371146789078,-1.69655107674993E-16));
#845=DIRECTION('',(2.71808837706351E-34,-2.41352831440252E-16,1.));
#846=DIRECTION('',(0.898794046299167,0.438371146789078,1.05802117499254E-16));
#847=DIRECTION('',(-0.898794046299166,-0.438371146789079,-1.05802117499254E-16));
#848=DIRECTION('',(-0.438371146789079,0.898794046299166,0.));
#849=DIRECTION('',(-0.438371146789079,0.898794046299166,-5.78241158658937E-17));
#850=DIRECTION('',(0.898794046299166,0.438371146789079,1.05802117499254E-16));
#851=DIRECTION('',(-0.438371146789079,0.898794046299166,0.));
#852=DIRECTION('',(0.898794046299166,0.438371146789079,1.05802117499254E-16));
#853=DIRECTION('',(-0.438371146789079,0.898794046299166,0.));
#854=DIRECTION('',(-0.438371146789078,0.898794046299167,2.16926487955945E-16));
#855=DIRECTION('',(0.898794046299166,0.438371146789079,1.05802117499254E-16));
#856=DIRECTION('',(-0.438371146789079,0.898794046299166,0.));
#857=DIRECTION('',(0.898794046299166,0.438371146789079,1.05802117499254E-16));
#858=DIRECTION('',(-0.438371146789079,0.898794046299166,0.));
#859=DIRECTION('',(0.438371146789078,-0.898794046299167,-2.16926487955945E-16));
#860=DIRECTION('',(0.898794046299166,0.438371146789079,1.05802117499254E-16));
#861=DIRECTION('',(-0.438371146789079,0.898794046299166,0.));
#862=DIRECTION('',(0.898794046299166,0.438371146789079,1.05802117499254E-16));
#863=DIRECTION('',(-0.438371146789079,0.898794046299166,0.));
#864=DIRECTION('',(0.898794046299166,0.438371146789079,1.05802117499254E-16));
#865=DIRECTION('',(-0.438371146789079,0.898794046299166,0.));
#866=DIRECTION('',(0.438371146789078,-0.898794046299167,-2.16926487955945E-16));
#867=DIRECTION('',(0.898794046299166,0.438371146789079,1.05802117499254E-16));
#868=DIRECTION('',(-0.438371146789079,0.898794046299166,0.));
#869=DIRECTION('',(0.898794046299166,0.438371146789079,1.05802117499254E-16));
#870=DIRECTION('',(-0.438371146789079,0.898794046299166,0.));
#871=DIRECTION('',(-0.438371146789078,0.898794046299167,2.16926487955945E-16));
#872=DIRECTION('',(0.898794046299166,0.438371146789079,1.05802117499254E-16));
#873=DIRECTION('',(-0.438371146789079,0.898794046299166,0.));
#874=DIRECTION('',(0.898794046299166,0.438371146789079,1.05802117499254E-16));
#875=DIRECTION('',(-0.438371146789079,0.898794046299166,0.));
#876=DIRECTION('',(-0.438371146789079,0.898794046299166,-1.60237371373018E-31));
#877=DIRECTION('',(0.898794046299166,0.438371146789079,1.05802117499254E-16));
#878=DIRECTION('',(-0.438371146789079,0.898794046299166,0.));
#879=DIRECTION('',(0.,-2.41352831440252E-16,1.));
#880=DIRECTION('',(0.898794046299166,0.438371146789079,1.05802117499254E-16));
#881=DIRECTION('',(-0.438371146789079,0.898794046299166,0.));
#882=DIRECTION('',(0.898794046299167,0.438371146789077,1.05802117499254E-16));
#883=DIRECTION('',(0.438371146789077,-0.898794046299167,0.));
#884=DIRECTION('',(-0.898794046299167,-0.438371146789077,-1.05802117499254E-16));
#885=DIRECTION('',(0.438371146789077,-0.898794046299167,0.));
#886=DIRECTION('',(0.898794046299167,0.438371146789077,1.05802117499254E-16));
#887=DIRECTION('',(0.898794046299167,0.438371146789077,1.05802117499254E-16));
#888=DIRECTION('',(-0.898794046299167,-0.438371146789077,-1.05802117499254E-16));
#889=DIRECTION('',(-0.438371146789077,0.898794046299167,0.));
#890=DIRECTION('',(2.71808837706351E-34,-2.41352831440252E-16,1.));
#891=DIRECTION('',(0.898794046299167,0.438371146789077,1.05802117499254E-16));
#892=DIRECTION('',(-0.438371146789077,0.898794046299167,0.));
#893=DIRECTION('',(0.438371146789077,-0.898794046299167,-3.52391840705303E-32));
#894=DIRECTION('',(0.898794046299167,0.438371146789077,1.05802117499254E-16));
#895=DIRECTION('',(-0.438371146789077,0.898794046299167,0.));
#896=DIRECTION('',(0.898794046299167,0.438371146789077,1.05802117499254E-16));
#897=DIRECTION('',(-0.438371146789077,0.898794046299167,0.));
#898=DIRECTION('',(-0.438371146789078,0.898794046299167,2.16926487955945E-16));
#899=DIRECTION('',(0.898794046299167,0.438371146789077,1.05802117499254E-16));
#900=DIRECTION('',(-0.438371146789077,0.898794046299167,0.));
#901=DIRECTION('',(0.898794046299167,0.438371146789077,1.05802117499254E-16));
#902=DIRECTION('',(-0.438371146789077,0.898794046299167,0.));
#903=DIRECTION('',(0.438371146789078,-0.898794046299167,-2.16926487955945E-16));
#904=DIRECTION('',(0.898794046299167,0.438371146789077,1.05802117499254E-16));
#905=DIRECTION('',(-0.438371146789077,0.898794046299167,0.));
#906=DIRECTION('',(0.898794046299167,0.438371146789077,1.05802117499254E-16));
#907=DIRECTION('',(-0.438371146789077,0.898794046299167,0.));
#908=DIRECTION('',(0.438371146789078,-0.898794046299167,-2.16926487955945E-16));
#909=DIRECTION('',(0.898794046299167,0.438371146789077,1.05802117499254E-16));
#910=DIRECTION('',(-0.438371146789077,0.898794046299167,0.));
#911=DIRECTION('',(0.898794046299167,0.438371146789077,1.05802117499254E-16));
#912=DIRECTION('',(-0.438371146789077,0.898794046299167,0.));
#913=DIRECTION('',(-0.438371146789078,0.898794046299167,2.16926487955945E-16));
#914=DIRECTION('',(0.898794046299167,0.438371146789077,1.05802117499254E-16));
#915=DIRECTION('',(-0.438371146789077,0.898794046299167,0.));
#916=DIRECTION('',(0.898794046299167,0.438371146789077,1.05802117499254E-16));
#917=DIRECTION('',(-0.438371146789077,0.898794046299167,0.));
#918=DIRECTION('',(0.438371146789077,-0.898794046299167,5.78241158658935E-17));
#919=DIRECTION('',(0.898794046299167,0.438371146789077,1.05802117499254E-16));
#920=DIRECTION('',(-0.438371146789077,0.898794046299167,0.));
#921=DIRECTION('',(-0.438371146789078,0.898794046299167,2.16926487955945E-16));
#922=DIRECTION('',(0.898794046299167,0.438371146789078,0.));
#923=DIRECTION('',(0.898794046299167,0.438371146789078,1.05802117499254E-16));
#924=DIRECTION('',(0.898794046299167,0.438371146789078,1.05802117499254E-16));
#925=DIRECTION('',(0.,-2.41352831440252E-16,1.));
#926=DIRECTION('',(0.,-1.,-2.41352831440252E-16));
#927=DIRECTION('',(-9.50943132941743E-17,-4.63805955808606E-17,1.));
#928=DIRECTION('',(1.,0.,9.50943132941743E-17));
#929=DIRECTION('',(0.,-2.41352831440252E-16,1.));
#930=DIRECTION('',(0.,-1.,-2.41352831440252E-16));
#931=DIRECTION('',(-1.2044273727837E-16,5.59137549191771E-18,1.));
#932=DIRECTION('',(1.,0.,1.2044273727837E-16));
#933=DIRECTION('',(9.50943132941743E-17,4.63805955808606E-17,-1.));
#934=DIRECTION('',(1.,0.,9.50943132941743E-17));
#935=DIRECTION('',(0.898794046299167,0.438371146789078,1.05802117499254E-16));
#936=DIRECTION('',(0.898794046299167,0.438371146789078,1.05802117499254E-16));
#937=DIRECTION('',(-9.50943132941743E-17,-4.63805955808606E-17,1.));
#938=DIRECTION('',(1.,0.,9.50943132941743E-17));
#939=DIRECTION('',(-9.50943132941743E-17,-4.63805955808606E-17,1.));
#940=DIRECTION('',(1.,0.,9.50943132941743E-17));
#941=DIRECTION('',(-9.50943132941743E-17,-4.63805955808606E-17,1.));
#942=DIRECTION('',(1.,0.,9.50943132941743E-17));
#943=DIRECTION('',(1.2044273727837E-16,-5.59137549191771E-18,-1.));
#944=DIRECTION('',(1.,0.,1.2044273727837E-16));
#945=DIRECTION('',(0.898794046299167,0.438371146789078,1.05802117499254E-16));
#946=DIRECTION('',(0.898794046299167,0.438371146789078,1.05802117499254E-16));
#947=DIRECTION('',(-1.2044273727837E-16,5.59137549191771E-18,1.));
#948=DIRECTION('',(1.,0.,1.2044273727837E-16));
#949=DIRECTION('',(-1.2044273727837E-16,5.59137549191771E-18,1.));
#950=DIRECTION('',(1.,0.,1.2044273727837E-16));
#951=DIRECTION('',(-1.2044273727837E-16,5.59137549191771E-18,1.));
#952=DIRECTION('',(1.,0.,1.2044273727837E-16));
#953=DIRECTION('',(0.,-2.41352831440252E-16,1.));
#954=DIRECTION('',(0.,-1.,-2.41352831440252E-16));
#955=DIRECTION('',(0.,-2.41352831440252E-16,1.));
#956=DIRECTION('',(0.,-1.,-2.41352831440252E-16));
#957=DIRECTION('',(0.,-2.41352831440252E-16,1.));
#958=DIRECTION('',(0.,-1.,-2.41352831440252E-16));
#959=DIRECTION('',(0.,-2.41352831440252E-16,1.));
#960=DIRECTION('',(0.,-1.,-2.41352831440252E-16));
#961=DIRECTION('',(0.,-2.41352831440252E-16,1.));
#962=DIRECTION('',(0.,-1.,-2.41352831440252E-16));
#963=DIRECTION('',(0.,-2.41352831440252E-16,1.));
#964=DIRECTION('',(0.,-1.,-2.41352831440252E-16));
#965=DIRECTION('',(2.47579313996702E-16,-1.20600331749279E-16,1.));
#966=DIRECTION('',(-1.,0.,2.47579313996702E-16));
#967=DIRECTION('',(-2.47579313996702E-16,1.20600331749279E-16,-1.));
#968=DIRECTION('',(-1.,0.,2.47579313996702E-16));
#969=DIRECTION('',(-2.47579313996702E-16,1.20600331749279E-16,-1.));
#970=DIRECTION('',(-1.,0.,2.47579313996702E-16));
#971=DIRECTION('',(-2.47579313996702E-16,1.20600331749279E-16,-1.));
#972=DIRECTION('',(-1.,0.,2.47579313996702E-16));
#973=DIRECTION('',(0.898794046299167,0.438371146789078,-1.69655107674993E-16));
#974=DIRECTION('',(-0.898794046299167,-0.438371146789077,1.69655107674993E-16));
#975=DIRECTION('',(-9.50943132941745E-17,1.9497223585939E-16,-1.));
#976=DIRECTION('',(0.,1.,1.9497223585939E-16));
#977=DIRECTION('',(9.50943132941745E-17,-1.9497223585939E-16,1.));
#978=DIRECTION('',(0.,1.,1.9497223585939E-16));
#979=DIRECTION('',(9.50943132941745E-17,-1.9497223585939E-16,1.));
#980=DIRECTION('',(0.,1.,1.9497223585939E-16));
#981=DIRECTION('',(9.50943132941745E-17,-1.9497223585939E-16,1.));
#982=DIRECTION('',(0.,1.,1.9497223585939E-16));
#983=DIRECTION('',(-0.898794046299167,-0.438371146789078,6.16297582203916E-32));
#984=DIRECTION('',(-0.898794046299167,-0.438371146789077,2.83496887813801E-31));
#985=DIRECTION('',(1.88518129429105E-17,-2.32158187914446E-16,1.));
#986=DIRECTION('',(0.,-1.,-2.32158187914446E-16));
#987=DIRECTION('',(-1.88518129429105E-17,2.32158187914446E-16,-1.));
#988=DIRECTION('',(0.,-1.,-2.32158187914446E-16));
#989=DIRECTION('',(-1.88518129429105E-17,2.32158187914446E-16,-1.));
#990=DIRECTION('',(0.,-1.,-2.32158187914446E-16));
#991=DIRECTION('',(-1.88518129429105E-17,2.32158187914446E-16,-1.));
#992=DIRECTION('',(0.,-1.,-2.32158187914446E-16));
#993=DIRECTION('',(-0.898794046299167,-0.438371146789078,-8.48275538374966E-17));
#994=DIRECTION('',(-0.898794046299167,-0.438371146789078,-8.48275538374966E-17));
#995=DIRECTION('',(-5.73906874083535E-17,-2.69344139969502E-16,1.));
#996=DIRECTION('',(0.,-1.,-2.69344139969502E-16));
#997=DIRECTION('',(5.73906874083535E-17,2.69344139969502E-16,-1.));
#998=DIRECTION('',(0.,-1.,-2.69344139969502E-16));
#999=DIRECTION('',(5.73906874083535E-17,2.69344139969502E-16,-1.));
#1000=DIRECTION('',(0.,-1.,-2.69344139969502E-16));
#1001=DIRECTION('',(5.73906874083535E-17,2.69344139969502E-16,-1.));
#1002=DIRECTION('',(0.,-1.,-2.69344139969502E-16));
#1003=DIRECTION('',(-0.898794046299167,-0.438371146789078,-1.69655107674993E-16));
#1004=DIRECTION('',(-0.898794046299167,-0.438371146789078,-1.69655107674993E-16));
#1005=DIRECTION('',(0.898794046299167,0.438371146789077,1.05802117499254E-16));
#1006=DIRECTION('',(0.438371146789077,-0.898794046299167,0.));
#1007=DIRECTION('',(0.898794046299167,0.438371146789077,1.05802117499254E-16));
#1008=DIRECTION('',(0.438371146789077,-0.898794046299167,0.));
#1009=DIRECTION('',(-0.898794046299167,-0.438371146789078,6.16297582203916E-32));
#1010=DIRECTION('',(-0.438371146789078,0.898794046299167,0.));
#1011=DIRECTION('',(-0.898794046299167,-0.438371146789078,6.16297582203916E-32));
#1012=DIRECTION('',(-0.898794046299167,-0.438371146789078,-1.69655107674993E-16));
#1013=DIRECTION('',(-0.438371146789078,0.898794046299167,0.));
#1014=DIRECTION('',(0.898794046299167,0.438371146789078,8.48275538374966E-17));
#1015=DIRECTION('',(0.438371146789078,-0.898794046299167,0.));
#1016=DIRECTION('',(0.898794046299167,0.438371146789078,8.48275538374966E-17));
#1017=DIRECTION('',(0.898794046299167,0.438371146789078,-1.69655107674993E-16));
#1018=DIRECTION('',(0.438371146789078,-0.898794046299167,0.));
#1019=DIRECTION('',(0.898794046299167,0.438371146789078,8.48275538374966E-17));
#1020=DIRECTION('',(0.438371146789078,-0.898794046299167,0.));
#1021=DIRECTION('',(-0.898794046299167,-0.438371146789078,-1.69655107674993E-16));
#1022=DIRECTION('',(-0.438371146789078,0.898794046299167,0.));
#1023=DIRECTION('',(0.898794046299167,0.438371146789078,1.05802117499254E-16));
#1024=DIRECTION('',(0.438371146789078,-0.898794046299167,0.));
#1025=DIRECTION('',(-0.898794046299167,-0.438371146789078,-1.05802117499254E-16));
#1026=DIRECTION('',(-0.438371146789078,0.898794046299167,0.));
#1027=DIRECTION('',(-0.898794046299167,-0.438371146789078,-1.05802117499254E-16));
#1028=DIRECTION('',(-0.438371146789078,0.898794046299167,0.));
#1029=DIRECTION('',(0.898794046299167,0.438371146789078,1.05802117499254E-16));
#1030=DIRECTION('',(0.438371146789078,-0.898794046299167,0.));
#1031=DIRECTION('',(-5.73906874083535E-17,-2.69344139969502E-16,1.));
#1032=DIRECTION('',(0.,-1.,-2.69344139969502E-16));
#1033=DIRECTION('',(-5.73906874083535E-17,-2.69344139969502E-16,1.));
#1034=DIRECTION('',(0.,-1.,-2.69344139969502E-16));
#1035=DIRECTION('',(-5.73906874083535E-17,-2.69344139969502E-16,1.));
#1036=DIRECTION('',(0.,-1.,-2.69344139969502E-16));
#1037=DIRECTION('',(-5.73906874083535E-17,-2.69344139969502E-16,1.));
#1038=DIRECTION('',(0.,-1.,-2.69344139969502E-16));
#1039=DIRECTION('',(-5.73906874083535E-17,-2.69344139969502E-16,1.));
#1040=DIRECTION('',(0.,-1.,-2.69344139969502E-16));
#1041=DIRECTION('',(-5.73906874083535E-17,-2.69344139969502E-16,1.));
#1042=DIRECTION('',(0.,-1.,-2.69344139969502E-16));
#1043=CARTESIAN_POINT('',(0.,0.,0.));
#1044=CARTESIAN_POINT('',(0.290245698302988,0.24893626634867,0.055));
#1045=CARTESIAN_POINT('',(0.327006374796623,0.266865646252343,0.055));
#1046=CARTESIAN_POINT('',(0.327006374796623,0.266865646252343,0.00225000000000004));
#1047=CARTESIAN_POINT('',(0.327006374796623,0.266865646252343,0.01525));
#1048=CARTESIAN_POINT('',(0.327006374796623,0.266865646252343,0.01525));
#1049=CARTESIAN_POINT('',(0.253485021809352,0.231006886444997,0.01525));
#1050=CARTESIAN_POINT('',(0.253485021809352,0.231006886444997,0.055));
#1051=CARTESIAN_POINT('',(0.253485021809352,0.231006886444997,0.00225000000000003));
#1052=CARTESIAN_POINT('',(0.253485021809352,0.231006886444997,0.00225000000000004));
#1053=CARTESIAN_POINT('',(0.290245698302988,0.24893626634867,0.055));
#1054=CARTESIAN_POINT('',(0.253485021809352,0.231006886444997,0.055));
#1055=CARTESIAN_POINT('',(0.253485021809352,0.231006886444997,0.03735));
#1056=CARTESIAN_POINT('',(0.253485021809352,0.231006886444997,0.05035));
#1057=CARTESIAN_POINT('',(0.290245698302988,0.24893626634867,0.03735));
#1058=CARTESIAN_POINT('',(0.327006374796623,0.266865646252343,0.03735));
#1059=CARTESIAN_POINT('',(0.327006374796623,0.266865646252343,0.055));
#1060=CARTESIAN_POINT('',(0.327006374796623,0.266865646252343,0.05035));
#1061=CARTESIAN_POINT('',(0.290245698302988,0.24893626634867,0.05035));
#1062=CARTESIAN_POINT('',(0.240333887405679,0.257970707833972,0.055));
#1063=CARTESIAN_POINT('',(0.240333887405679,0.257970707833972,-0.00575));
#1064=CARTESIAN_POINT('',(0.249978052635039,0.238197238815391,-0.00575));
#1065=CARTESIAN_POINT('',(0.23068972217632,0.277744176852553,-0.00575));
#1066=CARTESIAN_POINT('',(0.249978052635039,0.238197238815391,0.00225000000000004));
#1067=CARTESIAN_POINT('',(0.255238506396508,0.2274117102598,0.01525));
#1068=CARTESIAN_POINT('',(0.255238506396508,0.2274117102598,0.01925));
#1069=CARTESIAN_POINT('',(0.260060589011188,0.217524975750509,0.01925));
#1070=CARTESIAN_POINT('',(0.258307104424031,0.221120151935706,0.01925));
#1071=CARTESIAN_POINT('',(0.258307104424031,0.221120151935706,0.02325));
#1072=CARTESIAN_POINT('',(0.260004908575003,0.217639137562719,0.02225));
#1073=CARTESIAN_POINT('',(0.258307104424031,0.221120151935706,0.02125));
#1074=CARTESIAN_POINT('',(0.258307104424031,0.221120151935706,0.02525));
#1075=CARTESIAN_POINT('',(0.251468514534122,0.235141339057973,0.02525));
#1076=CARTESIAN_POINT('',(0.253452981685942,0.231072578433109,0.02525));
#1077=CARTESIAN_POINT('',(0.253452981685942,0.231072578433109,0.02125));
#1078=CARTESIAN_POINT('',(0.251723941253618,0.23461763667375,0.0219155683690281));
#1079=CARTESIAN_POINT('',(0.240333887405679,0.257970707833973,0.0263));
#1080=CARTESIAN_POINT('',(0.251723941253618,0.23461763667375,0.0306844316309721));
#1081=CARTESIAN_POINT('',(0.253452981685942,0.231072578433109,0.03135));
#1082=CARTESIAN_POINT('',(0.253452981685942,0.231072578433109,0.02735));
#1083=CARTESIAN_POINT('',(0.251468514534122,0.235141339057973,0.02735));
#1084=CARTESIAN_POINT('',(0.258307104424031,0.221120151935706,0.02735));
#1085=CARTESIAN_POINT('',(0.258307104424031,0.221120151935706,0.03135));
#1086=CARTESIAN_POINT('',(0.260004908575003,0.217639137562719,0.03035));
#1087=CARTESIAN_POINT('',(0.258307104424031,0.221120151935706,0.02935));
#1088=CARTESIAN_POINT('',(0.258307104424031,0.221120151935706,0.03335));
#1089=CARTESIAN_POINT('',(0.260060589011188,0.217524975750509,0.03335));
#1090=CARTESIAN_POINT('',(0.255238506396508,0.2274117102598,0.03335));
#1091=CARTESIAN_POINT('',(0.255238506396508,0.2274117102598,0.03735));
#1092=CARTESIAN_POINT('',(0.249978052635039,0.238197238815391,0.05035));
#1093=CARTESIAN_POINT('',(0.249978052635039,0.238197238815391,0.05835));
#1094=CARTESIAN_POINT('',(0.240333887405679,0.257970707833972,0.05835));
#1095=CARTESIAN_POINT('',(0.23068972217632,0.277744176852553,0.05835));
#1096=CARTESIAN_POINT('',(0.23068972217632,0.277744176852553,0.05035));
#1097=CARTESIAN_POINT('',(0.227182753002007,0.284934529222947,0.05035));
#1098=CARTESIAN_POINT('',(0.227182753002007,0.284934529222947,0.055));
#1099=CARTESIAN_POINT('',(0.227182753002007,0.284934529222947,0.00225000000000004));
#1100=CARTESIAN_POINT('',(0.23068972217632,0.277744176852553,0.00225000000000004));
#1101=CARTESIAN_POINT('',(0.22936860004083,0.252622579843146,0.0263));
#1102=CARTESIAN_POINT('',(0.310201418824096,0.29627713608781,0.000224785453127669));
#1103=CARTESIAN_POINT('',(0.308524215531871,0.295572261851551,0.000237910721293598));
#1104=CARTESIAN_POINT('',(0.306873507288338,0.296276527378464,0.000461012925964983));
#1105=CARTESIAN_POINT('',(0.306211107477964,0.29788780656827,0.000878368743065576));
#1106=CARTESIAN_POINT('',(0.306854128365826,0.299531359727323,0.00125534716473296));
#1107=CARTESIAN_POINT('',(0.30853509617226,0.300238360753568,0.00122048591262762));
#1108=CARTESIAN_POINT('',(0.310154744306393,0.299557887986403,0.000814972687723344));
#1109=CARTESIAN_POINT('',(0.31085344977721,0.297955547649728,0.000415911686628814));
#1110=CARTESIAN_POINT('',(0.310201418824096,0.29627713608781,0.000224785453127669));
#1111=CARTESIAN_POINT('',(0.308524215531871,0.295572261851551,0.000237910721293598));
#1112=CARTESIAN_POINT('',(0.306873507288338,0.296276527378464,0.000461012925964983));
#1113=CARTESIAN_POINT('',(0.308528631373319,0.295807118478746,0.00027290687737784));
#1114=CARTESIAN_POINT('',(0.315461460807373,0.285494668653589,0.00125585439703723));
#1115=CARTESIAN_POINT('',(0.313778458060821,0.284790099614163,0.00121991991288514));
#1116=CARTESIAN_POINT('',(0.31215921775807,0.285474472428697,0.000813636211291563));
#1117=CARTESIAN_POINT('',(0.31146470803497,0.28707727132998,0.00041530136206969));
#1118=CARTESIAN_POINT('',(0.312117941309133,0.288752839751862,0.000224737786405053));
#1119=CARTESIAN_POINT('',(0.313795144455382,0.289456118566971,0.000238069130163733));
#1120=CARTESIAN_POINT('',(0.315444031232699,0.288752222954333,0.000460984237161158));
#1121=CARTESIAN_POINT('',(0.316107198184255,0.287139529855748,0.000878746717757291));
#1122=CARTESIAN_POINT('',(0.315461460807373,0.285494668653589,0.00125585439703723));
#1123=CARTESIAN_POINT('',(0.313778458060821,0.284790099614163,0.00121991991288514));
#1124=CARTESIAN_POINT('',(0.31215921775807,0.285474472428697,0.000813636211291563));
#1125=CARTESIAN_POINT('',(0.313789085134788,0.285021589923157,0.00115819504331156));
#1126=CARTESIAN_POINT('',(0.247332872097896,0.252266135726977,0.00125585439703749));
#1127=CARTESIAN_POINT('',(0.245649869351345,0.251561566687551,0.00121991991288505));
#1128=CARTESIAN_POINT('',(0.244030629048594,0.252245939502084,0.000813636211291752));
#1129=CARTESIAN_POINT('',(0.243336119325494,0.253848738403367,0.000415301362069757));
#1130=CARTESIAN_POINT('',(0.243989352599657,0.25552430682525,0.000224737786405127));
#1131=CARTESIAN_POINT('',(0.245666555745906,0.256227585640359,0.000238069130163805));
#1132=CARTESIAN_POINT('',(0.247315442523223,0.25552369002772,0.00046098423716128));
#1133=CARTESIAN_POINT('',(0.247978609474779,0.253910996929135,0.000878746717757372));
#1134=CARTESIAN_POINT('',(0.247332872097896,0.252266135726977,0.00125585439703749));
#1135=CARTESIAN_POINT('',(0.245649869351345,0.251561566687551,0.00121991991288505));
#1136=CARTESIAN_POINT('',(0.244030629048594,0.252245939502084,0.000813636211291752));
#1137=CARTESIAN_POINT('',(0.245660496425312,0.251793056996544,0.00115819504331158));
#1138=CARTESIAN_POINT('',(0.242072830114619,0.263048603161198,0.000224785453127575));
#1139=CARTESIAN_POINT('',(0.240395626822394,0.262343728924939,0.000237910721293617));
#1140=CARTESIAN_POINT('',(0.238744918578861,0.263047994451852,0.000461012925964873));
#1141=CARTESIAN_POINT('',(0.238082518768487,0.264659273641658,0.000878368743065476));
#1142=CARTESIAN_POINT('',(0.238725539656349,0.26630282680071,0.00125534716473283));
#1143=CARTESIAN_POINT('',(0.240406507462783,0.267009827826956,0.0012204859126275));
#1144=CARTESIAN_POINT('',(0.242026155596915,0.26632935505979,0.000814972687723274));
#1145=CARTESIAN_POINT('',(0.242724861067734,0.264727014723116,0.00041591168662875));
#1146=CARTESIAN_POINT('',(0.242072830114619,0.263048603161198,0.000224785453127575));
#1147=CARTESIAN_POINT('',(0.240395626822394,0.262343728924939,0.000237910721293617));
#1148=CARTESIAN_POINT('',(0.238744918578861,0.263047994451852,0.000461012925964873));
#1149=CARTESIAN_POINT('',(0.240400042663843,0.262578585552134,0.000272906877377818));
#1150=CARTESIAN_POINT('',(0.238743772828292,0.263049013330268,0.0521387091691752));
#1151=CARTESIAN_POINT('',(0.240396450271391,0.262343660877369,0.0523621814263392));
#1152=CARTESIAN_POINT('',(0.242070682069201,0.263047856473059,0.0523751238612021));
#1153=CARTESIAN_POINT('',(0.242725182700854,0.264722455340674,0.0521849116902159));
#1154=CARTESIAN_POINT('',(0.242027330534625,0.26632906514332,0.0517852763308096));
#1155=CARTESIAN_POINT('',(0.240408604737357,0.26700853916882,0.0513801707260154));
#1156=CARTESIAN_POINT('',(0.238730478225441,0.266308288936537,0.0513437670894318));
#1157=CARTESIAN_POINT('',(0.238081555713251,0.264660026379388,0.0517213409178184));
#1158=CARTESIAN_POINT('',(0.238743772828292,0.263049013330268,0.0521387091691752));
#1159=CARTESIAN_POINT('',(0.240396450271391,0.262343660877369,0.0523621814263392));
#1160=CARTESIAN_POINT('',(0.242070682069201,0.263047856473059,0.0523751238612021));
#1161=CARTESIAN_POINT('',(0.240400042663843,0.262578585552134,0.0523270931226223));
#1162=CARTESIAN_POINT('',(0.244029700109914,0.252246435389691,0.0517866167351283));
#1163=CARTESIAN_POINT('',(0.245650579609023,0.25156175793429,0.0513800455171279));
#1164=CARTESIAN_POINT('',(0.247330960005862,0.252264874852414,0.0513440309364913));
#1165=CARTESIAN_POINT('',(0.247978841037042,0.253909014209392,0.0517207287553235));
#1166=CARTESIAN_POINT('',(0.247316483941365,0.255522950155688,0.0521387961469319));
#1167=CARTESIAN_POINT('',(0.245667970386449,0.256226666978168,0.0523617212903345));
#1168=CARTESIAN_POINT('',(0.243993734687525,0.255528709401511,0.0523755506403659));
#1169=CARTESIAN_POINT('',(0.243335212688547,0.253850429506949,0.0521850848428447));
#1170=CARTESIAN_POINT('',(0.244029700109914,0.252246435389691,0.0517866167351283));
#1171=CARTESIAN_POINT('',(0.245650579609023,0.25156175793429,0.0513800455171279));
#1172=CARTESIAN_POINT('',(0.247330960005862,0.252264874852414,0.0513440309364913));
#1173=CARTESIAN_POINT('',(0.245660496425312,0.251793056996544,0.0514418049566885));
#1174=CARTESIAN_POINT('',(0.312158288819391,0.285474968316304,0.0517866167351286));
#1175=CARTESIAN_POINT('',(0.3137791683185,0.284790290860902,0.0513800455171277));
#1176=CARTESIAN_POINT('',(0.315459548715339,0.285493407779026,0.0513440309364915));
#1177=CARTESIAN_POINT('',(0.316107429746518,0.287137547136005,0.0517207287553236));
#1178=CARTESIAN_POINT('',(0.315445072650842,0.288751483082301,0.052138796146932));
#1179=CARTESIAN_POINT('',(0.313796559095925,0.289455199904781,0.0523617212903345));
#1180=CARTESIAN_POINT('',(0.312122323397002,0.288757242328124,0.052375550640366));
#1181=CARTESIAN_POINT('',(0.311463801398023,0.287078962433561,0.0521850848428448));
#1182=CARTESIAN_POINT('',(0.312158288819391,0.285474968316304,0.0517866167351286));
#1183=CARTESIAN_POINT('',(0.3137791683185,0.284790290860902,0.0513800455171277));
#1184=CARTESIAN_POINT('',(0.315459548715339,0.285493407779026,0.0513440309364915));
#1185=CARTESIAN_POINT('',(0.313789085134788,0.285021589923157,0.0514418049566885));
#1186=CARTESIAN_POINT('',(0.306872361537769,0.29627754625688,0.0521387091691751));
#1187=CARTESIAN_POINT('',(0.308525038980868,0.295572193803982,0.0523621814263392));
#1188=CARTESIAN_POINT('',(0.310199270778678,0.296276389399671,0.052375123861202));
#1189=CARTESIAN_POINT('',(0.310853771410331,0.297950988267287,0.0521849116902158));
#1190=CARTESIAN_POINT('',(0.310155919244102,0.299557598069932,0.0517852763308095));
#1191=CARTESIAN_POINT('',(0.308537193446834,0.300237072095433,0.0513801707260153));
#1192=CARTESIAN_POINT('',(0.306859066934918,0.29953682186315,0.0513437670894316));
#1193=CARTESIAN_POINT('',(0.306210144422728,0.297888559306001,0.0517213409178183));
#1194=CARTESIAN_POINT('',(0.306872361537769,0.29627754625688,0.0521387091691751));
#1195=CARTESIAN_POINT('',(0.308525038980868,0.295572193803982,0.0523621814263392));
#1196=CARTESIAN_POINT('',(0.310199270778678,0.296276389399671,0.052375123861202));
#1197=CARTESIAN_POINT('',(0.308528631373319,0.295807118478746,0.0523270931226223));
#1198=CARTESIAN_POINT('',(0.313855240392951,0.293829467641319,0.0263));
#1199=CARTESIAN_POINT('',(0.325245294240889,0.270476396481097,0.0306844316309721));
#1200=CARTESIAN_POINT('',(0.325245294240889,0.270476396481097,0.0219155683690281));
#1201=CARTESIAN_POINT('',(0.240758653888767,0.229269508682924,0.0306844316309721));
#1202=CARTESIAN_POINT('',(0.240758653888767,0.229269508682924,0.0219155683690281));
#1203=CARTESIAN_POINT('',(0.313855240392951,0.293829467641319,0.055));
#1204=CARTESIAN_POINT('',(0.300704105989279,0.320793289030293,0.055));
#1205=CARTESIAN_POINT('',(0.300704105989279,0.320793289030293,0.00225000000000005));
#1206=CARTESIAN_POINT('',(0.300704105989279,0.320793289030293,0.05035));
#1207=CARTESIAN_POINT('',(0.304211075163591,0.313602936659901,0.05035));
#1208=CARTESIAN_POINT('',(0.304211075163591,0.313602936659901,0.05835));
#1209=CARTESIAN_POINT('',(0.313855240392951,0.293829467641319,0.05835));
#1210=CARTESIAN_POINT('',(0.323499405622311,0.274055998622737,0.05835));
#1211=CARTESIAN_POINT('',(0.323499405622311,0.274055998622737,0.05035));
#1212=CARTESIAN_POINT('',(0.32875985938378,0.263270470067147,0.03735));
#1213=CARTESIAN_POINT('',(0.32875985938378,0.263270470067147,0.03335));
#1214=CARTESIAN_POINT('',(0.333581941998459,0.253383735557856,0.03335));
#1215=CARTESIAN_POINT('',(0.331828457411304,0.256978911743053,0.03335));
#1216=CARTESIAN_POINT('',(0.331828457411304,0.256978911743053,0.02935));
#1217=CARTESIAN_POINT('',(0.333526261562275,0.253497897370066,0.03035));
#1218=CARTESIAN_POINT('',(0.331828457411304,0.256978911743052,0.03135));
#1219=CARTESIAN_POINT('',(0.331828457411304,0.256978911743053,0.02735));
#1220=CARTESIAN_POINT('',(0.324989867521394,0.27100009886532,0.02735));
#1221=CARTESIAN_POINT('',(0.326974334673213,0.266931338240456,0.02735));
#1222=CARTESIAN_POINT('',(0.326974334673213,0.266931338240456,0.03135));
#1223=CARTESIAN_POINT('',(0.326974334673213,0.266931338240456,0.02125));
#1224=CARTESIAN_POINT('',(0.326974334673213,0.266931338240456,0.02525));
#1225=CARTESIAN_POINT('',(0.324989867521394,0.27100009886532,0.02525));
#1226=CARTESIAN_POINT('',(0.331828457411304,0.256978911743052,0.02525));
#1227=CARTESIAN_POINT('',(0.331828457411304,0.256978911743053,0.02125));
#1228=CARTESIAN_POINT('',(0.333526261562275,0.253497897370066,0.02225));
#1229=CARTESIAN_POINT('',(0.331828457411304,0.256978911743052,0.02325));
#1230=CARTESIAN_POINT('',(0.331828457411304,0.256978911743053,0.01925));
#1231=CARTESIAN_POINT('',(0.333581941998459,0.253383735557856,0.01925));
#1232=CARTESIAN_POINT('',(0.32875985938378,0.263270470067147,0.01925));
#1233=CARTESIAN_POINT('',(0.32875985938378,0.263270470067147,0.01525));
#1234=CARTESIAN_POINT('',(0.323499405622311,0.274055998622737,0.00225000000000005));
#1235=CARTESIAN_POINT('',(0.323499405622311,0.274055998622737,-0.00575));
#1236=CARTESIAN_POINT('',(0.313855240392951,0.293829467641319,-0.00575));
#1237=CARTESIAN_POINT('',(0.304211075163591,0.313602936659901,-0.00575));
#1238=CARTESIAN_POINT('',(0.304211075163591,0.313602936659901,0.00225000000000005));
#1239=CARTESIAN_POINT('',(0.263943429495643,0.30286390912662,0.055));
#1240=CARTESIAN_POINT('',(0.227182753002007,0.284934529222947,0.05035));
#1241=CARTESIAN_POINT('',(0.263943429495643,0.30286390912662,0.00225000000000004));
#1242=CARTESIAN_POINT('',(0.240400042663843,0.264678585552134,0.055));
#1243=CARTESIAN_POINT('',(0.240400042663843,0.264678585552134,0.05835));
#1244=CARTESIAN_POINT('',(0.242500042663843,0.264678585552134,0.05835));
#1245=CARTESIAN_POINT('',(0.240400042663843,0.264678585552134,0.055));
#1246=CARTESIAN_POINT('',(0.240400042663843,0.264678585552134,-0.00575));
#1247=CARTESIAN_POINT('',(0.242500042663843,0.264678585552134,-0.00575));
#1248=CARTESIAN_POINT('',(0.22936860004083,0.252622579843146,0.05835));
#1249=CARTESIAN_POINT('',(0.239012765270189,0.232849110824563,0.05835));
#1250=CARTESIAN_POINT('',(0.304211075163591,0.313602936659901,0.05835));
#1251=CARTESIAN_POINT('',(0.313789085134788,0.287121589923157,0.05835));
#1252=CARTESIAN_POINT('',(0.315889085134788,0.287121589923157,0.05835));
#1253=CARTESIAN_POINT('',(0.245660496425312,0.253893056996544,0.05835));
#1254=CARTESIAN_POINT('',(0.247760496425312,0.253893056996544,0.05835));
#1255=CARTESIAN_POINT('',(0.308528631373319,0.297907118478747,0.05835));
#1256=CARTESIAN_POINT('',(0.310628631373319,0.297907118478747,0.05835));
#1257=CARTESIAN_POINT('',(0.22936860004083,0.252622579843146,-0.00575));
#1258=CARTESIAN_POINT('',(0.323499405622311,0.274055998622737,-0.00575));
#1259=CARTESIAN_POINT('',(0.21972443481147,0.272396048861727,-0.00575));
#1260=CARTESIAN_POINT('',(0.245660496425312,0.253893056996544,-0.00575));
#1261=CARTESIAN_POINT('',(0.247760496425312,0.253893056996544,-0.00575));
#1262=CARTESIAN_POINT('',(0.313789085134788,0.287121589923157,-0.00575));
#1263=CARTESIAN_POINT('',(0.315889085134788,0.287121589923157,-0.00575));
#1264=CARTESIAN_POINT('',(0.308528631373319,0.297907118478747,-0.00575));
#1265=CARTESIAN_POINT('',(0.310628631373319,0.297907118478747,-0.00575));
#1266=CARTESIAN_POINT('',(0.245660496425312,0.253893056996544,0.055));
#1267=CARTESIAN_POINT('',(0.245660496425312,0.253893056996544,0.055));
#1268=CARTESIAN_POINT('',(0.313789085134788,0.287121589923157,0.055));
#1269=CARTESIAN_POINT('',(0.313789085134788,0.287121589923157,0.055));
#1270=CARTESIAN_POINT('',(0.308528631373319,0.297907118478747,0.055));
#1271=CARTESIAN_POINT('',(0.308528631373319,0.297907118478747,0.055));
#1272=CARTESIAN_POINT('',(0.288229191027758,0.253070718961646,0.02525));
#1273=CARTESIAN_POINT('',(0.316812247703054,0.253549123703263,0.02525));
#1274=CARTESIAN_POINT('',(0.314712247703054,0.253549123703263,0.02525));
#1275=CARTESIAN_POINT('',(0.293106552366231,0.241987083552881,0.02525));
#1276=CARTESIAN_POINT('',(0.291006552366231,0.241987083552881,0.02525));
#1277=CARTESIAN_POINT('',(0.269400857029407,0.230425043402499,0.02525));
#1278=CARTESIAN_POINT('',(0.267300857029407,0.230425043402499,0.02525));
#1279=CARTESIAN_POINT('',(0.295067780917667,0.23904953183938,0.02525));
#1280=CARTESIAN_POINT('',(0.326974334673213,0.266931338240456,0.02525));
#1281=CARTESIAN_POINT('',(0.288229191027758,0.253070718961646,0.02735));
#1282=CARTESIAN_POINT('',(0.316812247703054,0.253549123703263,0.02735));
#1283=CARTESIAN_POINT('',(0.316812247703054,0.255649123703263,0.02735));
#1284=CARTESIAN_POINT('',(0.293106552366231,0.241987083552881,0.02735));
#1285=CARTESIAN_POINT('',(0.293106552366231,0.244087083552881,0.02735));
#1286=CARTESIAN_POINT('',(0.269400857029407,0.230425043402499,0.02735));
#1287=CARTESIAN_POINT('',(0.269400857029407,0.232525043402498,0.02735));
#1288=CARTESIAN_POINT('',(0.295067780917667,0.23904953183938,0.02735));
#1289=CARTESIAN_POINT('',(0.253452981685942,0.231072578433109,0.02735));
#1290=CARTESIAN_POINT('',(0.296821265504824,0.235454355654183,0.01925));
#1291=CARTESIAN_POINT('',(0.316812247703054,0.253549123703263,0.01925));
#1292=CARTESIAN_POINT('',(0.316812247703054,0.251449123703263,0.01925));
#1293=CARTESIAN_POINT('',(0.293106552366231,0.241987083552881,0.01925));
#1294=CARTESIAN_POINT('',(0.293106552366231,0.239887083552881,0.01925));
#1295=CARTESIAN_POINT('',(0.269400857029407,0.230425043402499,0.01925));
#1296=CARTESIAN_POINT('',(0.269400857029407,0.228325043402499,0.01925));
#1297=CARTESIAN_POINT('',(0.255238506396508,0.2274117102598,0.01925));
#1298=CARTESIAN_POINT('',(0.331828457411304,0.256978911743053,0.01925));
#1299=CARTESIAN_POINT('',(0.296821265504824,0.235454355654183,0.03335));
#1300=CARTESIAN_POINT('',(0.316812247703054,0.253549123703263,0.03335));
#1301=CARTESIAN_POINT('',(0.316812247703054,0.251449123703263,0.03335));
#1302=CARTESIAN_POINT('',(0.293106552366231,0.241987083552881,0.03335));
#1303=CARTESIAN_POINT('',(0.293106552366231,0.239887083552881,0.03335));
#1304=CARTESIAN_POINT('',(0.269400857029407,0.230425043402499,0.03335));
#1305=CARTESIAN_POINT('',(0.269400857029407,0.228325043402499,0.03335));
#1306=CARTESIAN_POINT('',(0.291999182890144,0.245341090163474,0.03335));
#1307=CARTESIAN_POINT('',(0.295067780917667,0.23904953183938,0.03335));
#1308=CARTESIAN_POINT('',(0.242487694321092,0.225724450442282,0.02125));
#1309=CARTESIAN_POINT('',(0.242487694321092,0.225724450442282,0.03135));
#1310=CARTESIAN_POINT('',(0.295067780917667,0.23904953183938,0.03135));
#1311=CARTESIAN_POINT('',(0.296765585068639,0.235568517466393,0.03035));
#1312=CARTESIAN_POINT('',(0.295067780917667,0.23904953183938,0.02935));
#1313=CARTESIAN_POINT('',(0.295067780917667,0.23904953183938,0.02325));
#1314=CARTESIAN_POINT('',(0.296765585068639,0.235568517466393,0.02225));
#1315=CARTESIAN_POINT('',(0.295067780917667,0.23904953183938,0.02125));
#1316=CARTESIAN_POINT('',(0.291999182890144,0.245341090163474,0.01525));
#1317=CARTESIAN_POINT('',(0.291999182890144,0.245341090163474,0.03735));
#1318=CARTESIAN_POINT('',(0.267450398669955,0.295673556756227,0.00225000000000004));
#1319=CARTESIAN_POINT('',(0.239012765270189,0.232849110824563,0.00225000000000004));
#1320=CARTESIAN_POINT('',(0.21972443481147,0.272396048861727,0.05035));
#1321=CARTESIAN_POINT('',(0.286738729128675,0.256126618719063,0.05035));
#1322=CARTESIAN_POINT('',(0.269400857029407,0.230425043402499,-0.00144999999999996));
#1323=CARTESIAN_POINT('',(0.293106552366231,0.241987083552881,-0.00144999999999996));
#1324=CARTESIAN_POINT('',(0.316812247703054,0.253549123703263,-0.00144999999999995));
#1325=CARTESIAN_POINT('',(0.269400857029407,0.230425043402499,-0.00144999999999996));
#1326=CARTESIAN_POINT('',(0.293106552366231,0.241987083552881,-0.00144999999999996));
#1327=CARTESIAN_POINT('',(0.316812247703054,0.253549123703263,-0.00144999999999995));
#1328=MECHANICAL_DESIGN_GEOMETRIC_PRESENTATION_REPRESENTATION('',(#737),
#1329);
#1329=(
GEOMETRIC_REPRESENTATION_CONTEXT(3)
GLOBAL_UNCERTAINTY_ASSIGNED_CONTEXT((#1330))
GLOBAL_UNIT_ASSIGNED_CONTEXT((#1333,#1332,#1331))
REPRESENTATION_CONTEXT('ESC Clamp','TOP_LEVEL_ASSEMBLY_PART')
);
#1330=UNCERTAINTY_MEASURE_WITH_UNIT(LENGTH_MEASURE(2.E-5),#1333,
'DISTANCE_ACCURACY_VALUE','Maximum Tolerance applied to model');
#1331=(
NAMED_UNIT(*)
SI_UNIT($,.STERADIAN.)
SOLID_ANGLE_UNIT()
);
#1332=(
NAMED_UNIT(*)
PLANE_ANGLE_UNIT()
SI_UNIT($,.RADIAN.)
);
#1333=(
LENGTH_UNIT()
NAMED_UNIT(*)
SI_UNIT($,.METRE.)
);
#1334=PRODUCT_DEFINITION_SHAPE('','',#1335);
#1335=PRODUCT_DEFINITION('','',#1337,#1336);
#1336=PRODUCT_DEFINITION_CONTEXT('',#1343,'design');
#1337=PRODUCT_DEFINITION_FORMATION_WITH_SPECIFIED_SOURCE('','',#1339,
 .NOT_KNOWN.);
#1338=PRODUCT_RELATED_PRODUCT_CATEGORY('','',(#1339));
#1339=PRODUCT('ESC Clamp','ESC Clamp','ESC Clamp',(#1341));
#1340=PRODUCT_CATEGORY('','');
#1341=PRODUCT_CONTEXT('',#1343,'mechanical');
#1342=APPLICATION_PROTOCOL_DEFINITION('international standard',
'ap242_managed_model_based_3d_engineering',2020,#1343);
#1343=APPLICATION_CONTEXT('managed model based 3d engineering');
ENDSEC;
END-ISO-10303-21;
