ISO-10303-21;
HEADER;
/* Generated by software containing ST-Developer
 * from STEP Tools, Inc. (www.steptools.com) 
 */
/* OPTION: using custom renumber hook */

FILE_DESCRIPTION(
/* description */ ('STEP AP242 Edition 2',
'CAx-IF Rec.Pracs.---Representation and Presentation of Product Manufa
cturing Information (PMI)---4.0---2014-10-13',
'CAx-IF Rec.Pracs.---3D Tessellated Geometry---0.4---2014-09-14','2;1',
'CAx-IF Rec.Pracs.---User Defined Attributes---1.5---2016-08-15'),
/* implementation_level */ '2;1');

FILE_NAME(
/* name */ 'Main motor mount V4 Top Bottom - Clamp V4 Top',
/* time_stamp */ '2026-07-31T18:16:30Z',
/* author */ (''),
/* organization */ (''),
/* preprocessor_version */ 'ST-DEVELOPER v20',
/* originating_system */ 'ONSHAPE BY PTC INC, 1.218',
/* authorisation */ '  ');

FILE_SCHEMA (('AP242_MANAGED_MODEL_BASED_3D_ENGINEERING_MIM_LF { 1 0 10303 442 3 1 4 }'));
ENDSEC;

DATA;
#10=SHAPE_REPRESENTATION_RELATIONSHIP('','',#680,#11);
#11=ADVANCED_BREP_SHAPE_REPRESENTATION('',(#678),#1216);
#12=(
BOUNDED_SURFACE()
B_SPLINE_SURFACE(3,2,((#1177,#1178,#1179),(#1180,#1181,#1182),(#1183,#1184,
#1185),(#1186,#1187,#1188),(#1189,#1190,#1191),(#1192,#1193,#1194)),
 .UNSPECIFIED.,.F.,.F.,.F.)
B_SPLINE_SURFACE_WITH_KNOTS((4,1,1,4),(3,3),(-5.63785129692462E-18,0.00372970119725948,
0.00745940239451898,0.014918804789038),(0.,1.),.UNSPECIFIED.)
GEOMETRIC_REPRESENTATION_ITEM()
RATIONAL_B_SPLINE_SURFACE(((1.,0.707106781186546,1.),(1.,0.760577802385697,
1.),(1.,0.847721853469262,1.),(1.,0.966453864814907,1.),(1.,0.999999999999862,
1.),(1.,1.,1.)))
REPRESENTATION_ITEM('')
SURFACE()
);
#13=(
BOUNDED_SURFACE()
B_SPLINE_SURFACE(3,2,((#1197,#1198,#1199),(#1200,#1201,#1202),(#1203,#1204,
#1205),(#1206,#1207,#1208),(#1209,#1210,#1211),(#1212,#1213,#1214)),
 .UNSPECIFIED.,.F.,.F.,.F.)
B_SPLINE_SURFACE_WITH_KNOTS((4,1,1,4),(3,3),(-8.23993651088983E-18,0.00372970119725945,
0.00745940239451891,0.0149188047890378),(0.,1.),.UNSPECIFIED.)
GEOMETRIC_REPRESENTATION_ITEM()
RATIONAL_B_SPLINE_SURFACE(((1.,0.707106781186546,1.),(1.,0.760577802384863,
1.),(1.,0.847721853469639,1.),(1.,0.966453864814679,1.),(1.,0.999999999999862,
1.),(1.,1.,1.)))
REPRESENTATION_ITEM('')
SURFACE()
);
#14=TOROIDAL_SURFACE('',#718,0.0355,0.0005);
#15=TOROIDAL_SURFACE('',#760,0.037,0.001);
#16=TOROIDAL_SURFACE('',#761,0.037,0.001);
#17=B_SPLINE_CURVE_WITH_KNOTS('',3,(#1069,#1070,#1071,#1072,#1073),
 .UNSPECIFIED.,.F.,.F.,(4,1,4),(0.,0.00430798449835884,0.00861596899671768),
 .UNSPECIFIED.);
#18=B_SPLINE_CURVE_WITH_KNOTS('',3,(#1074,#1075,#1076,#1077,#1078),
 .UNSPECIFIED.,.F.,.F.,(4,1,4),(0.,0.00430798449835883,0.00861596899671767),
 .UNSPECIFIED.);
#19=B_SPLINE_CURVE_WITH_KNOTS('',3,(#1092,#1093,#1094,#1095,#1096),
 .UNSPECIFIED.,.F.,.F.,(4,1,4),(0.,0.007459402394519,0.014918804789038),
 .UNSPECIFIED.);
#20=B_SPLINE_CURVE_WITH_KNOTS('',3,(#1098,#1099,#1100,#1101,#1102),
 .UNSPECIFIED.,.F.,.F.,(4,1,4),(0.,0.00745940239451892,0.0149188047890378),
 .UNSPECIFIED.);
#21=B_SPLINE_CURVE_WITH_KNOTS('',3,(#1164,#1165,#1166,#1167,#1168),
 .UNSPECIFIED.,.F.,.F.,(4,1,4),(0.,0.00740040378304734,0.0148008075660947),
 .UNSPECIFIED.);
#22=B_SPLINE_CURVE_WITH_KNOTS('',3,(#1170,#1171,#1172,#1173,#1174),
 .UNSPECIFIED.,.F.,.F.,(4,1,4),(0.,0.00740040378304732,0.0148008075660946),
 .UNSPECIFIED.);
#23=LINE('',#981,#56);
#24=LINE('',#984,#57);
#25=LINE('',#986,#58);
#26=LINE('',#990,#59);
#27=LINE('',#992,#60);
#28=LINE('',#994,#61);
#29=LINE('',#996,#62);
#30=LINE('',#1000,#63);
#31=LINE('',#1002,#64);
#32=LINE('',#1005,#65);
#33=LINE('',#1007,#66);
#34=LINE('',#1009,#67);
#35=LINE('',#1011,#68);
#36=LINE('',#1014,#69);
#37=LINE('',#1016,#70);
#38=LINE('',#1018,#71);
#39=LINE('',#1043,#72);
#40=LINE('',#1044,#73);
#41=LINE('',#1050,#74);
#42=LINE('',#1055,#75);
#43=LINE('',#1059,#76);
#44=LINE('',#1063,#77);
#45=LINE('',#1067,#78);
#46=LINE('',#1088,#79);
#47=LINE('',#1090,#80);
#48=LINE('',#1104,#81);
#49=LINE('',#1108,#82);
#50=LINE('',#1112,#83);
#51=LINE('',#1115,#84);
#52=LINE('',#1116,#85);
#53=LINE('',#1118,#86);
#54=LINE('',#1131,#87);
#55=LINE('',#1132,#88);
#56=VECTOR('',#782,1.);
#57=VECTOR('',#783,1.);
#58=VECTOR('',#784,1.);
#59=VECTOR('',#787,1.);
#60=VECTOR('',#788,1.);
#61=VECTOR('',#789,1.);
#62=VECTOR('',#790,1.);
#63=VECTOR('',#793,1.);
#64=VECTOR('',#796,1.);
#65=VECTOR('',#797,1.);
#66=VECTOR('',#798,1.);
#67=VECTOR('',#799,1.);
#68=VECTOR('',#802,1.);
#69=VECTOR('',#803,1.);
#70=VECTOR('',#804,1.);
#71=VECTOR('',#805,1.);
#72=VECTOR('',#834,1.);
#73=VECTOR('',#835,1.);
#74=VECTOR('',#842,1.);
#75=VECTOR('',#845,1.);
#76=VECTOR('',#850,1.);
#77=VECTOR('',#855,1.);
#78=VECTOR('',#858,1.);
#79=VECTOR('',#871,1.);
#80=VECTOR('',#874,1.);
#81=VECTOR('',#877,1.);
#82=VECTOR('',#882,1.);
#83=VECTOR('',#887,1.);
#84=VECTOR('',#888,1.);
#85=VECTOR('',#889,1.);
#86=VECTOR('',#890,1.);
#87=VECTOR('',#905,1.);
#88=VECTOR('',#906,1.);
#89=PLANE('',#688);
#90=PLANE('',#691);
#91=PLANE('',#692);
#92=PLANE('',#709);
#93=PLANE('',#716);
#94=PLANE('',#719);
#95=PLANE('',#722);
#96=PLANE('',#723);
#97=PLANE('',#724);
#98=PLANE('',#727);
#99=PLANE('',#732);
#100=PLANE('',#735);
#101=PLANE('',#738);
#102=PLANE('',#741);
#103=PLANE('',#744);
#104=PLANE('',#747);
#105=PLANE('',#752);
#106=PLANE('',#755);
#107=ORIENTED_EDGE('',*,*,#273,.F.);
#108=ORIENTED_EDGE('',*,*,#274,.F.);
#109=ORIENTED_EDGE('',*,*,#275,.T.);
#110=ORIENTED_EDGE('',*,*,#276,.T.);
#111=ORIENTED_EDGE('',*,*,#273,.T.);
#112=ORIENTED_EDGE('',*,*,#277,.F.);
#113=ORIENTED_EDGE('',*,*,#278,.T.);
#114=ORIENTED_EDGE('',*,*,#279,.T.);
#115=ORIENTED_EDGE('',*,*,#280,.F.);
#116=ORIENTED_EDGE('',*,*,#281,.T.);
#117=ORIENTED_EDGE('',*,*,#282,.T.);
#118=ORIENTED_EDGE('',*,*,#283,.F.);
#119=ORIENTED_EDGE('',*,*,#284,.F.);
#120=ORIENTED_EDGE('',*,*,#285,.F.);
#121=ORIENTED_EDGE('',*,*,#286,.T.);
#122=ORIENTED_EDGE('',*,*,#275,.F.);
#123=ORIENTED_EDGE('',*,*,#287,.T.);
#124=ORIENTED_EDGE('',*,*,#288,.T.);
#125=ORIENTED_EDGE('',*,*,#289,.F.);
#126=ORIENTED_EDGE('',*,*,#290,.T.);
#127=ORIENTED_EDGE('',*,*,#291,.F.);
#128=ORIENTED_EDGE('',*,*,#292,.T.);
#129=ORIENTED_EDGE('',*,*,#293,.T.);
#130=ORIENTED_EDGE('',*,*,#294,.T.);
#131=ORIENTED_EDGE('',*,*,#295,.F.);
#132=ORIENTED_EDGE('',*,*,#296,.T.);
#133=ORIENTED_EDGE('',*,*,#297,.F.);
#134=ORIENTED_EDGE('',*,*,#298,.T.);
#135=ORIENTED_EDGE('',*,*,#299,.F.);
#136=ORIENTED_EDGE('',*,*,#300,.T.);
#137=ORIENTED_EDGE('',*,*,#301,.F.);
#138=ORIENTED_EDGE('',*,*,#302,.T.);
#139=ORIENTED_EDGE('',*,*,#303,.T.);
#140=ORIENTED_EDGE('',*,*,#304,.F.);
#141=ORIENTED_EDGE('',*,*,#285,.T.);
#142=ORIENTED_EDGE('',*,*,#305,.T.);
#143=ORIENTED_EDGE('',*,*,#306,.T.);
#144=ORIENTED_EDGE('',*,*,#307,.T.);
#145=ORIENTED_EDGE('',*,*,#308,.F.);
#146=ORIENTED_EDGE('',*,*,#309,.T.);
#147=ORIENTED_EDGE('',*,*,#310,.F.);
#148=ORIENTED_EDGE('',*,*,#283,.T.);
#149=ORIENTED_EDGE('',*,*,#311,.T.);
#150=ORIENTED_EDGE('',*,*,#289,.T.);
#151=ORIENTED_EDGE('',*,*,#312,.T.);
#152=ORIENTED_EDGE('',*,*,#313,.T.);
#153=ORIENTED_EDGE('',*,*,#314,.T.);
#154=ORIENTED_EDGE('',*,*,#293,.F.);
#155=ORIENTED_EDGE('',*,*,#315,.T.);
#156=ORIENTED_EDGE('',*,*,#277,.T.);
#157=ORIENTED_EDGE('',*,*,#316,.T.);
#158=ORIENTED_EDGE('',*,*,#317,.T.);
#159=ORIENTED_EDGE('',*,*,#318,.F.);
#160=ORIENTED_EDGE('',*,*,#319,.T.);
#161=ORIENTED_EDGE('',*,*,#320,.T.);
#162=ORIENTED_EDGE('',*,*,#321,.T.);
#163=ORIENTED_EDGE('',*,*,#302,.F.);
#164=ORIENTED_EDGE('',*,*,#300,.F.);
#165=ORIENTED_EDGE('',*,*,#298,.F.);
#166=ORIENTED_EDGE('',*,*,#296,.F.);
#167=ORIENTED_EDGE('',*,*,#307,.F.);
#168=ORIENTED_EDGE('',*,*,#321,.F.);
#169=ORIENTED_EDGE('',*,*,#322,.F.);
#170=ORIENTED_EDGE('',*,*,#323,.T.);
#171=ORIENTED_EDGE('',*,*,#324,.T.);
#172=ORIENTED_EDGE('',*,*,#308,.T.);
#173=ORIENTED_EDGE('',*,*,#325,.T.);
#174=ORIENTED_EDGE('',*,*,#326,.T.);
#175=ORIENTED_EDGE('',*,*,#305,.F.);
#176=ORIENTED_EDGE('',*,*,#284,.T.);
#177=ORIENTED_EDGE('',*,*,#310,.T.);
#178=ORIENTED_EDGE('',*,*,#304,.T.);
#179=ORIENTED_EDGE('',*,*,#327,.T.);
#180=ORIENTED_EDGE('',*,*,#328,.T.);
#181=ORIENTED_EDGE('',*,*,#316,.F.);
#182=ORIENTED_EDGE('',*,*,#286,.F.);
#183=ORIENTED_EDGE('',*,*,#329,.T.);
#184=ORIENTED_EDGE('',*,*,#318,.T.);
#185=ORIENTED_EDGE('',*,*,#330,.T.);
#186=ORIENTED_EDGE('',*,*,#331,.T.);
#187=ORIENTED_EDGE('',*,*,#332,.F.);
#188=ORIENTED_EDGE('',*,*,#333,.T.);
#189=ORIENTED_EDGE('',*,*,#313,.F.);
#190=ORIENTED_EDGE('',*,*,#334,.T.);
#191=ORIENTED_EDGE('',*,*,#335,.F.);
#192=ORIENTED_EDGE('',*,*,#336,.F.);
#193=ORIENTED_EDGE('',*,*,#337,.F.);
#194=ORIENTED_EDGE('',*,*,#338,.F.);
#195=ORIENTED_EDGE('',*,*,#339,.F.);
#196=ORIENTED_EDGE('',*,*,#301,.T.);
#197=ORIENTED_EDGE('',*,*,#340,.F.);
#198=ORIENTED_EDGE('',*,*,#336,.T.);
#199=ORIENTED_EDGE('',*,*,#341,.F.);
#200=ORIENTED_EDGE('',*,*,#280,.T.);
#201=ORIENTED_EDGE('',*,*,#342,.T.);
#202=ORIENTED_EDGE('',*,*,#340,.T.);
#203=ORIENTED_EDGE('',*,*,#295,.T.);
#204=ORIENTED_EDGE('',*,*,#343,.F.);
#205=ORIENTED_EDGE('',*,*,#339,.T.);
#206=ORIENTED_EDGE('',*,*,#343,.T.);
#207=ORIENTED_EDGE('',*,*,#297,.T.);
#208=ORIENTED_EDGE('',*,*,#344,.F.);
#209=ORIENTED_EDGE('',*,*,#338,.T.);
#210=ORIENTED_EDGE('',*,*,#344,.T.);
#211=ORIENTED_EDGE('',*,*,#299,.T.);
#212=ORIENTED_EDGE('',*,*,#345,.F.);
#213=ORIENTED_EDGE('',*,*,#337,.T.);
#214=ORIENTED_EDGE('',*,*,#345,.T.);
#215=ORIENTED_EDGE('',*,*,#291,.T.);
#216=ORIENTED_EDGE('',*,*,#346,.T.);
#217=ORIENTED_EDGE('',*,*,#332,.T.);
#218=ORIENTED_EDGE('',*,*,#342,.F.);
#219=ORIENTED_EDGE('',*,*,#279,.F.);
#220=ORIENTED_EDGE('',*,*,#347,.T.);
#221=ORIENTED_EDGE('',*,*,#335,.T.);
#222=ORIENTED_EDGE('',*,*,#348,.T.);
#223=ORIENTED_EDGE('',*,*,#287,.F.);
#224=ORIENTED_EDGE('',*,*,#349,.T.);
#225=ORIENTED_EDGE('',*,*,#281,.F.);
#226=ORIENTED_EDGE('',*,*,#341,.T.);
#227=ORIENTED_EDGE('',*,*,#350,.F.);
#228=ORIENTED_EDGE('',*,*,#322,.T.);
#229=ORIENTED_EDGE('',*,*,#276,.F.);
#230=ORIENTED_EDGE('',*,*,#350,.T.);
#231=ORIENTED_EDGE('',*,*,#351,.T.);
#232=ORIENTED_EDGE('',*,*,#329,.F.);
#233=ORIENTED_EDGE('',*,*,#351,.F.);
#234=ORIENTED_EDGE('',*,*,#274,.T.);
#235=ORIENTED_EDGE('',*,*,#347,.F.);
#236=ORIENTED_EDGE('',*,*,#278,.F.);
#237=ORIENTED_EDGE('',*,*,#315,.F.);
#238=ORIENTED_EDGE('',*,*,#292,.F.);
#239=ORIENTED_EDGE('',*,*,#346,.F.);
#240=ORIENTED_EDGE('',*,*,#294,.F.);
#241=ORIENTED_EDGE('',*,*,#314,.F.);
#242=ORIENTED_EDGE('',*,*,#333,.F.);
#243=ORIENTED_EDGE('',*,*,#348,.F.);
#244=ORIENTED_EDGE('',*,*,#334,.F.);
#245=ORIENTED_EDGE('',*,*,#312,.F.);
#246=ORIENTED_EDGE('',*,*,#288,.F.);
#247=ORIENTED_EDGE('',*,*,#349,.F.);
#248=ORIENTED_EDGE('',*,*,#290,.F.);
#249=ORIENTED_EDGE('',*,*,#311,.F.);
#250=ORIENTED_EDGE('',*,*,#282,.F.);
#251=ORIENTED_EDGE('',*,*,#306,.F.);
#252=ORIENTED_EDGE('',*,*,#352,.T.);
#253=ORIENTED_EDGE('',*,*,#323,.F.);
#254=ORIENTED_EDGE('',*,*,#320,.F.);
#255=ORIENTED_EDGE('',*,*,#331,.F.);
#256=ORIENTED_EDGE('',*,*,#353,.T.);
#257=ORIENTED_EDGE('',*,*,#303,.F.);
#258=ORIENTED_EDGE('',*,*,#319,.F.);
#259=ORIENTED_EDGE('',*,*,#309,.F.);
#260=ORIENTED_EDGE('',*,*,#324,.F.);
#261=ORIENTED_EDGE('',*,*,#354,.F.);
#262=ORIENTED_EDGE('',*,*,#325,.F.);
#263=ORIENTED_EDGE('',*,*,#354,.T.);
#264=ORIENTED_EDGE('',*,*,#352,.F.);
#265=ORIENTED_EDGE('',*,*,#326,.F.);
#266=ORIENTED_EDGE('',*,*,#317,.F.);
#267=ORIENTED_EDGE('',*,*,#328,.F.);
#268=ORIENTED_EDGE('',*,*,#355,.F.);
#269=ORIENTED_EDGE('',*,*,#330,.F.);
#270=ORIENTED_EDGE('',*,*,#327,.F.);
#271=ORIENTED_EDGE('',*,*,#353,.F.);
#272=ORIENTED_EDGE('',*,*,#355,.T.);
#273=EDGE_CURVE('',#356,#356,#418,.F.);
#274=EDGE_CURVE('',#357,#357,#419,.T.);
#275=EDGE_CURVE('',#358,#358,#420,.T.);
#276=EDGE_CURVE('',#359,#359,#421,.T.);
#277=EDGE_CURVE('',#360,#361,#23,.T.);
#278=EDGE_CURVE('',#360,#362,#24,.F.);
#279=EDGE_CURVE('',#362,#363,#25,.T.);
#280=EDGE_CURVE('',#364,#363,#422,.T.);
#281=EDGE_CURVE('',#364,#365,#26,.T.);
#282=EDGE_CURVE('',#365,#366,#27,.T.);
#283=EDGE_CURVE('',#367,#366,#28,.T.);
#284=EDGE_CURVE('',#368,#367,#29,.T.);
#285=EDGE_CURVE('',#369,#368,#423,.T.);
#286=EDGE_CURVE('',#369,#361,#30,.T.);
#287=EDGE_CURVE('',#370,#371,#31,.T.);
#288=EDGE_CURVE('',#371,#372,#32,.T.);
#289=EDGE_CURVE('',#373,#372,#33,.T.);
#290=EDGE_CURVE('',#373,#370,#34,.F.);
#291=EDGE_CURVE('',#374,#375,#35,.T.);
#292=EDGE_CURVE('',#374,#376,#36,.T.);
#293=EDGE_CURVE('',#376,#377,#37,.T.);
#294=EDGE_CURVE('',#377,#375,#38,.F.);
#295=EDGE_CURVE('',#378,#378,#424,.T.);
#296=EDGE_CURVE('',#379,#379,#425,.T.);
#297=EDGE_CURVE('',#380,#380,#426,.T.);
#298=EDGE_CURVE('',#381,#381,#427,.T.);
#299=EDGE_CURVE('',#382,#382,#428,.T.);
#300=EDGE_CURVE('',#383,#383,#429,.T.);
#301=EDGE_CURVE('',#384,#384,#430,.T.);
#302=EDGE_CURVE('',#385,#385,#431,.T.);
#303=EDGE_CURVE('',#386,#387,#432,.F.);
#304=EDGE_CURVE('',#369,#387,#39,.T.);
#305=EDGE_CURVE('',#368,#388,#40,.T.);
#306=EDGE_CURVE('',#388,#386,#433,.F.);
#307=EDGE_CURVE('',#389,#389,#434,.F.);
#308=EDGE_CURVE('',#390,#391,#41,.T.);
#309=EDGE_CURVE('',#390,#392,#435,.T.);
#310=EDGE_CURVE('',#367,#392,#42,.T.);
#311=EDGE_CURVE('',#366,#373,#436,.T.);
#312=EDGE_CURVE('',#372,#393,#437,.F.);
#313=EDGE_CURVE('',#393,#394,#43,.T.);
#314=EDGE_CURVE('',#394,#377,#438,.F.);
#315=EDGE_CURVE('',#376,#360,#439,.T.);
#316=EDGE_CURVE('',#361,#395,#44,.T.);
#317=EDGE_CURVE('',#395,#396,#440,.T.);
#318=EDGE_CURVE('',#397,#396,#45,.T.);
#319=EDGE_CURVE('',#397,#386,#17,.T.);
#320=EDGE_CURVE('',#386,#391,#18,.F.);
#321=EDGE_CURVE('',#398,#398,#441,.T.);
#322=EDGE_CURVE('',#399,#399,#442,.T.);
#323=EDGE_CURVE('',#391,#400,#443,.T.);
#324=EDGE_CURVE('',#400,#390,#46,.T.);
#325=EDGE_CURVE('',#392,#401,#47,.F.);
#326=EDGE_CURVE('',#401,#388,#19,.T.);
#327=EDGE_CURVE('',#387,#402,#20,.F.);
#328=EDGE_CURVE('',#402,#395,#48,.T.);
#329=EDGE_CURVE('',#403,#403,#444,.T.);
#330=EDGE_CURVE('',#396,#404,#49,.F.);
#331=EDGE_CURVE('',#404,#397,#445,.T.);
#332=EDGE_CURVE('',#405,#406,#50,.T.);
#333=EDGE_CURVE('',#405,#394,#51,.T.);
#334=EDGE_CURVE('',#393,#407,#52,.F.);
#335=EDGE_CURVE('',#408,#407,#53,.T.);
#336=EDGE_CURVE('',#406,#408,#446,.T.);
#337=EDGE_CURVE('',#409,#409,#447,.T.);
#338=EDGE_CURVE('',#410,#410,#448,.T.);
#339=EDGE_CURVE('',#411,#411,#449,.T.);
#340=EDGE_CURVE('',#412,#412,#450,.T.);
#341=EDGE_CURVE('',#364,#408,#54,.T.);
#342=EDGE_CURVE('',#363,#406,#55,.T.);
#343=EDGE_CURVE('',#413,#413,#451,.T.);
#344=EDGE_CURVE('',#414,#414,#452,.T.);
#345=EDGE_CURVE('',#415,#415,#453,.T.);
#346=EDGE_CURVE('',#375,#405,#454,.F.);
#347=EDGE_CURVE('',#362,#374,#455,.T.);
#348=EDGE_CURVE('',#407,#371,#456,.F.);
#349=EDGE_CURVE('',#370,#365,#457,.T.);
#350=EDGE_CURVE('',#416,#416,#458,.T.);
#351=EDGE_CURVE('',#417,#417,#459,.T.);
#352=EDGE_CURVE('',#388,#400,#21,.F.);
#353=EDGE_CURVE('',#404,#387,#22,.T.);
#354=EDGE_CURVE('',#401,#400,#460,.T.);
#355=EDGE_CURVE('',#404,#402,#461,.T.);
#356=VERTEX_POINT('',#972);
#357=VERTEX_POINT('',#974);
#358=VERTEX_POINT('',#977);
#359=VERTEX_POINT('',#979);
#360=VERTEX_POINT('',#982);
#361=VERTEX_POINT('',#983);
#362=VERTEX_POINT('',#985);
#363=VERTEX_POINT('',#987);
#364=VERTEX_POINT('',#989);
#365=VERTEX_POINT('',#991);
#366=VERTEX_POINT('',#993);
#367=VERTEX_POINT('',#995);
#368=VERTEX_POINT('',#997);
#369=VERTEX_POINT('',#999);
#370=VERTEX_POINT('',#1003);
#371=VERTEX_POINT('',#1004);
#372=VERTEX_POINT('',#1006);
#373=VERTEX_POINT('',#1008);
#374=VERTEX_POINT('',#1012);
#375=VERTEX_POINT('',#1013);
#376=VERTEX_POINT('',#1015);
#377=VERTEX_POINT('',#1017);
#378=VERTEX_POINT('',#1021);
#379=VERTEX_POINT('',#1023);
#380=VERTEX_POINT('',#1026);
#381=VERTEX_POINT('',#1028);
#382=VERTEX_POINT('',#1031);
#383=VERTEX_POINT('',#1033);
#384=VERTEX_POINT('',#1036);
#385=VERTEX_POINT('',#1038);
#386=VERTEX_POINT('',#1041);
#387=VERTEX_POINT('',#1042);
#388=VERTEX_POINT('',#1045);
#389=VERTEX_POINT('',#1048);
#390=VERTEX_POINT('',#1051);
#391=VERTEX_POINT('',#1052);
#392=VERTEX_POINT('',#1054);
#393=VERTEX_POINT('',#1058);
#394=VERTEX_POINT('',#1060);
#395=VERTEX_POINT('',#1064);
#396=VERTEX_POINT('',#1066);
#397=VERTEX_POINT('',#1068);
#398=VERTEX_POINT('',#1081);
#399=VERTEX_POINT('',#1085);
#400=VERTEX_POINT('',#1087);
#401=VERTEX_POINT('',#1091);
#402=VERTEX_POINT('',#1103);
#403=VERTEX_POINT('',#1107);
#404=VERTEX_POINT('',#1109);
#405=VERTEX_POINT('',#1113);
#406=VERTEX_POINT('',#1114);
#407=VERTEX_POINT('',#1117);
#408=VERTEX_POINT('',#1119);
#409=VERTEX_POINT('',#1122);
#410=VERTEX_POINT('',#1124);
#411=VERTEX_POINT('',#1126);
#412=VERTEX_POINT('',#1129);
#413=VERTEX_POINT('',#1135);
#414=VERTEX_POINT('',#1139);
#415=VERTEX_POINT('',#1143);
#416=VERTEX_POINT('',#1153);
#417=VERTEX_POINT('',#1157);
#418=CIRCLE('',#683,0.0015);
#419=CIRCLE('',#684,0.0015);
#420=CIRCLE('',#686,0.0015);
#421=CIRCLE('',#687,0.0015);
#422=CIRCLE('',#689,0.006);
#423=CIRCLE('',#690,0.036);
#424=CIRCLE('',#694,0.0028);
#425=CIRCLE('',#695,0.0028);
#426=CIRCLE('',#697,0.0028);
#427=CIRCLE('',#698,0.0028);
#428=CIRCLE('',#700,0.0028);
#429=CIRCLE('',#701,0.0028);
#430=CIRCLE('',#703,0.0028);
#431=CIRCLE('',#704,0.0028);
#432=CIRCLE('',#706,0.036);
#433=CIRCLE('',#707,0.036);
#434=CIRCLE('',#708,0.036);
#435=CIRCLE('',#710,0.002);
#436=CIRCLE('',#711,0.0005);
#437=CIRCLE('',#712,0.0005);
#438=CIRCLE('',#713,0.0005);
#439=CIRCLE('',#714,0.0005);
#440=CIRCLE('',#715,0.002);
#441=CIRCLE('',#717,0.0355);
#442=CIRCLE('',#720,0.0022);
#443=CIRCLE('',#721,0.037);
#444=CIRCLE('',#725,0.0022);
#445=CIRCLE('',#726,0.037);
#446=CIRCLE('',#728,0.006);
#447=CIRCLE('',#729,0.006);
#448=CIRCLE('',#730,0.006);
#449=CIRCLE('',#731,0.006);
#450=CIRCLE('',#733,0.006);
#451=CIRCLE('',#736,0.006);
#452=CIRCLE('',#739,0.006);
#453=CIRCLE('',#742,0.006);
#454=CIRCLE('',#745,0.0005);
#455=CIRCLE('',#746,0.0005);
#456=CIRCLE('',#748,0.0005);
#457=CIRCLE('',#749,0.0005);
#458=CIRCLE('',#751,0.0022);
#459=CIRCLE('',#754,0.0022);
#460=CIRCLE('',#763,0.002);
#461=CIRCLE('',#765,0.002);
#462=EDGE_LOOP('',(#107));
#463=EDGE_LOOP('',(#108));
#464=EDGE_LOOP('',(#109));
#465=EDGE_LOOP('',(#110));
#466=EDGE_LOOP('',(#111));
#467=EDGE_LOOP('',(#112,#113,#114,#115,#116,#117,#118,#119,#120,#121));
#468=EDGE_LOOP('',(#122));
#469=EDGE_LOOP('',(#123,#124,#125,#126));
#470=EDGE_LOOP('',(#127,#128,#129,#130));
#471=EDGE_LOOP('',(#131));
#472=EDGE_LOOP('',(#132));
#473=EDGE_LOOP('',(#133));
#474=EDGE_LOOP('',(#134));
#475=EDGE_LOOP('',(#135));
#476=EDGE_LOOP('',(#136));
#477=EDGE_LOOP('',(#137));
#478=EDGE_LOOP('',(#138));
#479=EDGE_LOOP('',(#139,#140,#141,#142,#143));
#480=EDGE_LOOP('',(#144));
#481=EDGE_LOOP('',(#145,#146,#147,#148,#149,#150,#151,#152,#153,#154,#155,
#156,#157,#158,#159,#160,#161));
#482=EDGE_LOOP('',(#162));
#483=EDGE_LOOP('',(#163));
#484=EDGE_LOOP('',(#164));
#485=EDGE_LOOP('',(#165));
#486=EDGE_LOOP('',(#166));
#487=EDGE_LOOP('',(#167));
#488=EDGE_LOOP('',(#168));
#489=EDGE_LOOP('',(#169));
#490=EDGE_LOOP('',(#170,#171,#172));
#491=EDGE_LOOP('',(#173,#174,#175,#176,#177));
#492=EDGE_LOOP('',(#178,#179,#180,#181,#182));
#493=EDGE_LOOP('',(#183));
#494=EDGE_LOOP('',(#184,#185,#186));
#495=EDGE_LOOP('',(#187,#188,#189,#190,#191,#192));
#496=EDGE_LOOP('',(#193));
#497=EDGE_LOOP('',(#194));
#498=EDGE_LOOP('',(#195));
#499=EDGE_LOOP('',(#196));
#500=EDGE_LOOP('',(#197));
#501=EDGE_LOOP('',(#198,#199,#200,#201));
#502=EDGE_LOOP('',(#202));
#503=EDGE_LOOP('',(#203));
#504=EDGE_LOOP('',(#204));
#505=EDGE_LOOP('',(#205));
#506=EDGE_LOOP('',(#206));
#507=EDGE_LOOP('',(#207));
#508=EDGE_LOOP('',(#208));
#509=EDGE_LOOP('',(#209));
#510=EDGE_LOOP('',(#210));
#511=EDGE_LOOP('',(#211));
#512=EDGE_LOOP('',(#212));
#513=EDGE_LOOP('',(#213));
#514=EDGE_LOOP('',(#214));
#515=EDGE_LOOP('',(#215,#216,#217,#218,#219,#220));
#516=EDGE_LOOP('',(#221,#222,#223,#224,#225,#226));
#517=EDGE_LOOP('',(#227));
#518=EDGE_LOOP('',(#228));
#519=EDGE_LOOP('',(#229));
#520=EDGE_LOOP('',(#230));
#521=EDGE_LOOP('',(#231));
#522=EDGE_LOOP('',(#232));
#523=EDGE_LOOP('',(#233));
#524=EDGE_LOOP('',(#234));
#525=EDGE_LOOP('',(#235,#236,#237,#238));
#526=EDGE_LOOP('',(#239,#240,#241,#242));
#527=EDGE_LOOP('',(#243,#244,#245,#246));
#528=EDGE_LOOP('',(#247,#248,#249,#250));
#529=EDGE_LOOP('',(#251,#252,#253,#254));
#530=EDGE_LOOP('',(#255,#256,#257,#258));
#531=EDGE_LOOP('',(#259,#260,#261,#262));
#532=EDGE_LOOP('',(#263,#264,#265));
#533=EDGE_LOOP('',(#266,#267,#268,#269));
#534=EDGE_LOOP('',(#270,#271,#272));
#535=FACE_BOUND('',#462,.T.);
#536=FACE_BOUND('',#463,.T.);
#537=FACE_BOUND('',#464,.T.);
#538=FACE_BOUND('',#465,.T.);
#539=FACE_BOUND('',#466,.T.);
#540=FACE_BOUND('',#467,.T.);
#541=FACE_BOUND('',#468,.T.);
#542=FACE_BOUND('',#469,.T.);
#543=FACE_BOUND('',#470,.T.);
#544=FACE_BOUND('',#471,.T.);
#545=FACE_BOUND('',#472,.T.);
#546=FACE_BOUND('',#473,.T.);
#547=FACE_BOUND('',#474,.T.);
#548=FACE_BOUND('',#475,.T.);
#549=FACE_BOUND('',#476,.T.);
#550=FACE_BOUND('',#477,.T.);
#551=FACE_BOUND('',#478,.T.);
#552=FACE_BOUND('',#479,.T.);
#553=FACE_BOUND('',#480,.T.);
#554=FACE_BOUND('',#481,.T.);
#555=FACE_BOUND('',#482,.T.);
#556=FACE_BOUND('',#483,.T.);
#557=FACE_BOUND('',#484,.T.);
#558=FACE_BOUND('',#485,.T.);
#559=FACE_BOUND('',#486,.T.);
#560=FACE_BOUND('',#487,.T.);
#561=FACE_BOUND('',#488,.T.);
#562=FACE_BOUND('',#489,.T.);
#563=FACE_BOUND('',#490,.T.);
#564=FACE_BOUND('',#491,.T.);
#565=FACE_BOUND('',#492,.T.);
#566=FACE_BOUND('',#493,.T.);
#567=FACE_BOUND('',#494,.T.);
#568=FACE_BOUND('',#495,.T.);
#569=FACE_BOUND('',#496,.T.);
#570=FACE_BOUND('',#497,.T.);
#571=FACE_BOUND('',#498,.T.);
#572=FACE_BOUND('',#499,.T.);
#573=FACE_BOUND('',#500,.T.);
#574=FACE_BOUND('',#501,.T.);
#575=FACE_BOUND('',#502,.T.);
#576=FACE_BOUND('',#503,.T.);
#577=FACE_BOUND('',#504,.T.);
#578=FACE_BOUND('',#505,.T.);
#579=FACE_BOUND('',#506,.T.);
#580=FACE_BOUND('',#507,.T.);
#581=FACE_BOUND('',#508,.T.);
#582=FACE_BOUND('',#509,.T.);
#583=FACE_BOUND('',#510,.T.);
#584=FACE_BOUND('',#511,.T.);
#585=FACE_BOUND('',#512,.T.);
#586=FACE_BOUND('',#513,.T.);
#587=FACE_BOUND('',#514,.T.);
#588=FACE_BOUND('',#515,.T.);
#589=FACE_BOUND('',#516,.T.);
#590=FACE_BOUND('',#517,.T.);
#591=FACE_BOUND('',#518,.T.);
#592=FACE_BOUND('',#519,.T.);
#593=FACE_BOUND('',#520,.T.);
#594=FACE_BOUND('',#521,.T.);
#595=FACE_BOUND('',#522,.T.);
#596=FACE_BOUND('',#523,.T.);
#597=FACE_BOUND('',#524,.T.);
#598=FACE_BOUND('',#525,.T.);
#599=FACE_BOUND('',#526,.T.);
#600=FACE_BOUND('',#527,.T.);
#601=FACE_BOUND('',#528,.T.);
#602=FACE_BOUND('',#529,.T.);
#603=FACE_BOUND('',#530,.T.);
#604=FACE_BOUND('',#531,.T.);
#605=FACE_BOUND('',#532,.T.);
#606=FACE_BOUND('',#533,.T.);
#607=FACE_BOUND('',#534,.T.);
#608=CYLINDRICAL_SURFACE('',#682,0.0015);
#609=CYLINDRICAL_SURFACE('',#685,0.0015);
#610=CYLINDRICAL_SURFACE('',#693,0.0028);
#611=CYLINDRICAL_SURFACE('',#696,0.0028);
#612=CYLINDRICAL_SURFACE('',#699,0.0028);
#613=CYLINDRICAL_SURFACE('',#702,0.0028);
#614=CYLINDRICAL_SURFACE('',#705,0.036);
#615=CYLINDRICAL_SURFACE('',#734,0.006);
#616=CYLINDRICAL_SURFACE('',#737,0.006);
#617=CYLINDRICAL_SURFACE('',#740,0.006);
#618=CYLINDRICAL_SURFACE('',#743,0.006);
#619=CYLINDRICAL_SURFACE('',#750,0.0022);
#620=CYLINDRICAL_SURFACE('',#753,0.0022);
#621=CYLINDRICAL_SURFACE('',#756,0.0005);
#622=CYLINDRICAL_SURFACE('',#757,0.0005);
#623=CYLINDRICAL_SURFACE('',#758,0.0005);
#624=CYLINDRICAL_SURFACE('',#759,0.0005);
#625=CYLINDRICAL_SURFACE('',#762,0.002);
#626=CYLINDRICAL_SURFACE('',#764,0.002);
#627=ADVANCED_FACE('',(#535,#536),#608,.F.);
#628=ADVANCED_FACE('',(#537,#538),#609,.F.);
#629=ADVANCED_FACE('',(#539,#540,#541),#89,.T.);
#630=ADVANCED_FACE('',(#542),#90,.T.);
#631=ADVANCED_FACE('',(#543),#91,.F.);
#632=ADVANCED_FACE('',(#544,#545),#610,.F.);
#633=ADVANCED_FACE('',(#546,#547),#611,.F.);
#634=ADVANCED_FACE('',(#548,#549),#612,.F.);
#635=ADVANCED_FACE('',(#550,#551),#613,.F.);
#636=ADVANCED_FACE('',(#552,#553),#614,.T.);
#637=ADVANCED_FACE('',(#554),#92,.T.);
#638=ADVANCED_FACE('',(#555,#556,#557,#558,#559),#93,.T.);
#639=ADVANCED_FACE('',(#560,#561),#14,.T.);
#640=ADVANCED_FACE('',(#562,#563),#94,.F.);
#641=ADVANCED_FACE('',(#564),#95,.T.);
#642=ADVANCED_FACE('',(#565),#96,.F.);
#643=ADVANCED_FACE('',(#566,#567),#97,.F.);
#644=ADVANCED_FACE('',(#568,#569,#570,#571),#98,.T.);
#645=ADVANCED_FACE('',(#572,#573),#99,.F.);
#646=ADVANCED_FACE('',(#574,#575),#615,.F.);
#647=ADVANCED_FACE('',(#576,#577),#100,.F.);
#648=ADVANCED_FACE('',(#578,#579),#616,.F.);
#649=ADVANCED_FACE('',(#580,#581),#101,.F.);
#650=ADVANCED_FACE('',(#582,#583),#617,.F.);
#651=ADVANCED_FACE('',(#584,#585),#102,.F.);
#652=ADVANCED_FACE('',(#586,#587),#618,.F.);
#653=ADVANCED_FACE('',(#588),#103,.F.);
#654=ADVANCED_FACE('',(#589),#104,.F.);
#655=ADVANCED_FACE('',(#590,#591),#619,.F.);
#656=ADVANCED_FACE('',(#592,#593),#105,.T.);
#657=ADVANCED_FACE('',(#594,#595),#620,.F.);
#658=ADVANCED_FACE('',(#596,#597),#106,.T.);
#659=ADVANCED_FACE('',(#598),#621,.T.);
#660=ADVANCED_FACE('',(#599),#622,.F.);
#661=ADVANCED_FACE('',(#600),#623,.F.);
#662=ADVANCED_FACE('',(#601),#624,.T.);
#663=ADVANCED_FACE('',(#602),#15,.F.);
#664=ADVANCED_FACE('',(#603),#16,.F.);
#665=ADVANCED_FACE('',(#604),#625,.T.);
#666=ADVANCED_FACE('',(#605),#12,.T.);
#667=ADVANCED_FACE('',(#606),#626,.T.);
#668=ADVANCED_FACE('',(#607),#13,.T.);
#669=CLOSED_SHELL('',(#627,#628,#629,#630,#631,#632,#633,#634,#635,#636,
#637,#638,#639,#640,#641,#642,#643,#644,#645,#646,#647,#648,#649,#650,#651,
#652,#653,#654,#655,#656,#657,#658,#659,#660,#661,#662,#663,#664,#665,#666,
#667,#668));
#670=STYLED_ITEM('',(#671),#678);
#671=PRESENTATION_STYLE_ASSIGNMENT((#672));
#672=SURFACE_STYLE_USAGE(.BOTH.,#673);
#673=SURFACE_SIDE_STYLE('',(#674));
#674=SURFACE_STYLE_FILL_AREA(#675);
#675=FILL_AREA_STYLE('',(#676));
#676=FILL_AREA_STYLE_COLOUR('',#677);
#677=COLOUR_RGB('',0.4,0.4,0.4);
#678=MANIFOLD_SOLID_BREP('Clamp V4 Top',#669);
#679=SHAPE_DEFINITION_REPRESENTATION(#1221,#680);
#680=SHAPE_REPRESENTATION('Clamp V4 Top',(#681),#1216);
#681=AXIS2_PLACEMENT_3D('',#969,#766,#767);
#682=AXIS2_PLACEMENT_3D('',#970,#768,#769);
#683=AXIS2_PLACEMENT_3D('',#971,#770,#771);
#684=AXIS2_PLACEMENT_3D('',#973,#772,#773);
#685=AXIS2_PLACEMENT_3D('',#975,#774,#775);
#686=AXIS2_PLACEMENT_3D('',#976,#776,#777);
#687=AXIS2_PLACEMENT_3D('',#978,#778,#779);
#688=AXIS2_PLACEMENT_3D('',#980,#780,#781);
#689=AXIS2_PLACEMENT_3D('',#988,#785,#786);
#690=AXIS2_PLACEMENT_3D('',#998,#791,#792);
#691=AXIS2_PLACEMENT_3D('',#1001,#794,#795);
#692=AXIS2_PLACEMENT_3D('',#1010,#800,#801);
#693=AXIS2_PLACEMENT_3D('',#1019,#806,#807);
#694=AXIS2_PLACEMENT_3D('',#1020,#808,#809);
#695=AXIS2_PLACEMENT_3D('',#1022,#810,#811);
#696=AXIS2_PLACEMENT_3D('',#1024,#812,#813);
#697=AXIS2_PLACEMENT_3D('',#1025,#814,#815);
#698=AXIS2_PLACEMENT_3D('',#1027,#816,#817);
#699=AXIS2_PLACEMENT_3D('',#1029,#818,#819);
#700=AXIS2_PLACEMENT_3D('',#1030,#820,#821);
#701=AXIS2_PLACEMENT_3D('',#1032,#822,#823);
#702=AXIS2_PLACEMENT_3D('',#1034,#824,#825);
#703=AXIS2_PLACEMENT_3D('',#1035,#826,#827);
#704=AXIS2_PLACEMENT_3D('',#1037,#828,#829);
#705=AXIS2_PLACEMENT_3D('',#1039,#830,#831);
#706=AXIS2_PLACEMENT_3D('',#1040,#832,#833);
#707=AXIS2_PLACEMENT_3D('',#1046,#836,#837);
#708=AXIS2_PLACEMENT_3D('',#1047,#838,#839);
#709=AXIS2_PLACEMENT_3D('',#1049,#840,#841);
#710=AXIS2_PLACEMENT_3D('',#1053,#843,#844);
#711=AXIS2_PLACEMENT_3D('',#1056,#846,#847);
#712=AXIS2_PLACEMENT_3D('',#1057,#848,#849);
#713=AXIS2_PLACEMENT_3D('',#1061,#851,#852);
#714=AXIS2_PLACEMENT_3D('',#1062,#853,#854);
#715=AXIS2_PLACEMENT_3D('',#1065,#856,#857);
#716=AXIS2_PLACEMENT_3D('',#1079,#859,#860);
#717=AXIS2_PLACEMENT_3D('',#1080,#861,#862);
#718=AXIS2_PLACEMENT_3D('',#1082,#863,#864);
#719=AXIS2_PLACEMENT_3D('',#1083,#865,#866);
#720=AXIS2_PLACEMENT_3D('',#1084,#867,#868);
#721=AXIS2_PLACEMENT_3D('',#1086,#869,#870);
#722=AXIS2_PLACEMENT_3D('',#1089,#872,#873);
#723=AXIS2_PLACEMENT_3D('',#1097,#875,#876);
#724=AXIS2_PLACEMENT_3D('',#1105,#878,#879);
#725=AXIS2_PLACEMENT_3D('',#1106,#880,#881);
#726=AXIS2_PLACEMENT_3D('',#1110,#883,#884);
#727=AXIS2_PLACEMENT_3D('',#1111,#885,#886);
#728=AXIS2_PLACEMENT_3D('',#1120,#891,#892);
#729=AXIS2_PLACEMENT_3D('',#1121,#893,#894);
#730=AXIS2_PLACEMENT_3D('',#1123,#895,#896);
#731=AXIS2_PLACEMENT_3D('',#1125,#897,#898);
#732=AXIS2_PLACEMENT_3D('',#1127,#899,#900);
#733=AXIS2_PLACEMENT_3D('',#1128,#901,#902);
#734=AXIS2_PLACEMENT_3D('',#1130,#903,#904);
#735=AXIS2_PLACEMENT_3D('',#1133,#907,#908);
#736=AXIS2_PLACEMENT_3D('',#1134,#909,#910);
#737=AXIS2_PLACEMENT_3D('',#1136,#911,#912);
#738=AXIS2_PLACEMENT_3D('',#1137,#913,#914);
#739=AXIS2_PLACEMENT_3D('',#1138,#915,#916);
#740=AXIS2_PLACEMENT_3D('',#1140,#917,#918);
#741=AXIS2_PLACEMENT_3D('',#1141,#919,#920);
#742=AXIS2_PLACEMENT_3D('',#1142,#921,#922);
#743=AXIS2_PLACEMENT_3D('',#1144,#923,#924);
#744=AXIS2_PLACEMENT_3D('',#1145,#925,#926);
#745=AXIS2_PLACEMENT_3D('',#1146,#927,#928);
#746=AXIS2_PLACEMENT_3D('',#1147,#929,#930);
#747=AXIS2_PLACEMENT_3D('',#1148,#931,#932);
#748=AXIS2_PLACEMENT_3D('',#1149,#933,#934);
#749=AXIS2_PLACEMENT_3D('',#1150,#935,#936);
#750=AXIS2_PLACEMENT_3D('',#1151,#937,#938);
#751=AXIS2_PLACEMENT_3D('',#1152,#939,#940);
#752=AXIS2_PLACEMENT_3D('',#1154,#941,#942);
#753=AXIS2_PLACEMENT_3D('',#1155,#943,#944);
#754=AXIS2_PLACEMENT_3D('',#1156,#945,#946);
#755=AXIS2_PLACEMENT_3D('',#1158,#947,#948);
#756=AXIS2_PLACEMENT_3D('',#1159,#949,#950);
#757=AXIS2_PLACEMENT_3D('',#1160,#951,#952);
#758=AXIS2_PLACEMENT_3D('',#1161,#953,#954);
#759=AXIS2_PLACEMENT_3D('',#1162,#955,#956);
#760=AXIS2_PLACEMENT_3D('',#1163,#957,#958);
#761=AXIS2_PLACEMENT_3D('',#1169,#959,#960);
#762=AXIS2_PLACEMENT_3D('',#1175,#961,#962);
#763=AXIS2_PLACEMENT_3D('',#1176,#963,#964);
#764=AXIS2_PLACEMENT_3D('',#1195,#965,#966);
#765=AXIS2_PLACEMENT_3D('',#1196,#967,#968);
#766=DIRECTION('',(0.,0.,1.));
#767=DIRECTION('',(1.,0.,0.));
#768=DIRECTION('',(0.,0.,1.));
#769=DIRECTION('',(1.,0.,0.));
#770=DIRECTION('',(0.,0.,-1.));
#771=DIRECTION('',(-1.,0.,0.));
#772=DIRECTION('',(0.,0.,-1.));
#773=DIRECTION('',(1.,0.,0.));
#774=DIRECTION('',(0.,0.,1.));
#775=DIRECTION('',(1.,0.,0.));
#776=DIRECTION('',(0.,0.,-1.));
#777=DIRECTION('',(-1.,0.,0.));
#778=DIRECTION('',(0.,0.,1.));
#779=DIRECTION('',(1.,0.,0.));
#780=DIRECTION('',(0.,0.,-1.));
#781=DIRECTION('',(1.,0.,0.));
#782=DIRECTION('',(-1.,0.,0.));
#783=DIRECTION('',(0.,1.,0.));
#784=DIRECTION('',(1.,0.,0.));
#785=DIRECTION('',(0.,0.,-1.));
#786=DIRECTION('',(-1.,0.,0.));
#787=DIRECTION('',(1.,0.,0.));
#788=DIRECTION('',(0.,1.,0.));
#789=DIRECTION('',(-1.,0.,0.));
#790=DIRECTION('',(0.,1.,0.));
#791=DIRECTION('',(0.,0.,1.));
#792=DIRECTION('',(1.,0.,0.));
#793=DIRECTION('',(0.,1.,0.));
#794=DIRECTION('',(-0.968245836551854,0.,0.25));
#795=DIRECTION('',(0.25,0.,0.968245836551854));
#796=DIRECTION('',(0.25,0.,0.968245836551854));
#797=DIRECTION('',(0.,1.,0.));
#798=DIRECTION('',(0.25,0.,0.968245836551854));
#799=DIRECTION('',(0.,1.,0.));
#800=DIRECTION('',(-0.968245836551854,0.,-0.25));
#801=DIRECTION('',(-0.25,0.,0.968245836551854));
#802=DIRECTION('',(-0.25,0.,0.968245836551854));
#803=DIRECTION('',(0.,1.,0.));
#804=DIRECTION('',(-0.25,0.,0.968245836551854));
#805=DIRECTION('',(0.,1.,0.));
#806=DIRECTION('',(0.,0.,-1.));
#807=DIRECTION('',(-1.,0.,0.));
#808=DIRECTION('',(0.,0.,1.));
#809=DIRECTION('',(1.,0.,0.));
#810=DIRECTION('',(0.,0.,1.));
#811=DIRECTION('',(1.,0.,0.));
#812=DIRECTION('',(0.,0.,-1.));
#813=DIRECTION('',(-1.,0.,0.));
#814=DIRECTION('',(0.,0.,1.));
#815=DIRECTION('',(1.,0.,0.));
#816=DIRECTION('',(0.,0.,1.));
#817=DIRECTION('',(1.,0.,0.));
#818=DIRECTION('',(0.,0.,-1.));
#819=DIRECTION('',(-1.,0.,0.));
#820=DIRECTION('',(0.,0.,1.));
#821=DIRECTION('',(1.,0.,0.));
#822=DIRECTION('',(0.,0.,1.));
#823=DIRECTION('',(1.,0.,0.));
#824=DIRECTION('',(0.,0.,-1.));
#825=DIRECTION('',(-1.,0.,0.));
#826=DIRECTION('',(0.,0.,1.));
#827=DIRECTION('',(1.,0.,0.));
#828=DIRECTION('',(0.,0.,1.));
#829=DIRECTION('',(1.,0.,0.));
#830=DIRECTION('',(0.,0.,-1.));
#831=DIRECTION('',(-1.,0.,0.));
#832=DIRECTION('',(0.,0.,-1.));
#833=DIRECTION('',(-1.,0.,0.));
#834=DIRECTION('',(0.,0.,1.));
#835=DIRECTION('',(0.,0.,1.));
#836=DIRECTION('',(0.,0.,-1.));
#837=DIRECTION('',(-1.,0.,0.));
#838=DIRECTION('',(0.,0.,1.));
#839=DIRECTION('',(1.,0.,0.));
#840=DIRECTION('',(0.,1.,0.));
#841=DIRECTION('',(0.,0.,1.));
#842=DIRECTION('',(-1.,0.,0.));
#843=DIRECTION('',(0.,1.,0.));
#844=DIRECTION('',(0.,0.,1.));
#845=DIRECTION('',(0.,0.,1.));
#846=DIRECTION('',(0.,1.,0.));
#847=DIRECTION('',(0.,0.,1.));
#848=DIRECTION('',(0.,1.,0.));
#849=DIRECTION('',(0.,0.,1.));
#850=DIRECTION('',(-1.,0.,0.));
#851=DIRECTION('',(0.,1.,0.));
#852=DIRECTION('',(0.,0.,1.));
#853=DIRECTION('',(0.,1.,0.));
#854=DIRECTION('',(0.,0.,1.));
#855=DIRECTION('',(0.,0.,1.));
#856=DIRECTION('',(0.,1.,0.));
#857=DIRECTION('',(0.,0.,1.));
#858=DIRECTION('',(-1.,0.,0.));
#859=DIRECTION('',(0.,0.,1.));
#860=DIRECTION('',(1.,0.,0.));
#861=DIRECTION('',(0.,0.,1.));
#862=DIRECTION('',(1.,0.,0.));
#863=DIRECTION('',(0.,0.,1.));
#864=DIRECTION('',(1.,0.,0.));
#865=DIRECTION('',(0.,0.,-1.));
#866=DIRECTION('',(1.,0.,0.));
#867=DIRECTION('',(0.,0.,1.));
#868=DIRECTION('',(1.,0.,0.));
#869=DIRECTION('',(0.,0.,-1.));
#870=DIRECTION('',(-1.,0.,0.));
#871=DIRECTION('',(0.,1.,0.));
#872=DIRECTION('',(1.,0.,0.));
#873=DIRECTION('',(0.,0.,-1.));
#874=DIRECTION('',(0.,1.,0.));
#875=DIRECTION('',(1.,0.,0.));
#876=DIRECTION('',(0.,0.,-1.));
#877=DIRECTION('',(0.,1.,0.));
#878=DIRECTION('',(0.,0.,-1.));
#879=DIRECTION('',(1.,0.,0.));
#880=DIRECTION('',(0.,0.,-1.));
#881=DIRECTION('',(1.,0.,0.));
#882=DIRECTION('',(0.,1.,0.));
#883=DIRECTION('',(0.,0.,-1.));
#884=DIRECTION('',(-1.,0.,0.));
#885=DIRECTION('',(0.,0.,-1.));
#886=DIRECTION('',(-1.,0.,0.));
#887=DIRECTION('',(1.,0.,0.));
#888=DIRECTION('',(0.,1.,0.));
#889=DIRECTION('',(0.,1.,0.));
#890=DIRECTION('',(1.,0.,0.));
#891=DIRECTION('',(0.,0.,-1.));
#892=DIRECTION('',(-1.,0.,0.));
#893=DIRECTION('',(0.,0.,-1.));
#894=DIRECTION('',(-1.,0.,0.));
#895=DIRECTION('',(0.,0.,-1.));
#896=DIRECTION('',(-1.,0.,0.));
#897=DIRECTION('',(0.,0.,-1.));
#898=DIRECTION('',(-1.,0.,0.));
#899=DIRECTION('',(0.,0.,1.));
#900=DIRECTION('',(1.,0.,0.));
#901=DIRECTION('',(0.,0.,1.));
#902=DIRECTION('',(1.,0.,0.));
#903=DIRECTION('',(0.,0.,1.));
#904=DIRECTION('',(1.,0.,0.));
#905=DIRECTION('',(0.,0.,1.));
#906=DIRECTION('',(0.,0.,1.));
#907=DIRECTION('',(0.,0.,1.));
#908=DIRECTION('',(1.,0.,0.));
#909=DIRECTION('',(0.,0.,1.));
#910=DIRECTION('',(1.,0.,0.));
#911=DIRECTION('',(0.,0.,1.));
#912=DIRECTION('',(1.,0.,0.));
#913=DIRECTION('',(0.,0.,1.));
#914=DIRECTION('',(1.,0.,0.));
#915=DIRECTION('',(0.,0.,1.));
#916=DIRECTION('',(1.,0.,0.));
#917=DIRECTION('',(0.,0.,1.));
#918=DIRECTION('',(1.,0.,0.));
#919=DIRECTION('',(0.,0.,1.));
#920=DIRECTION('',(1.,0.,0.));
#921=DIRECTION('',(0.,0.,1.));
#922=DIRECTION('',(1.,0.,0.));
#923=DIRECTION('',(0.,0.,1.));
#924=DIRECTION('',(1.,0.,0.));
#925=DIRECTION('',(0.,-1.,0.));
#926=DIRECTION('',(0.,0.,-1.));
#927=DIRECTION('',(0.,-1.,0.));
#928=DIRECTION('',(0.,0.,-1.));
#929=DIRECTION('',(0.,-1.,0.));
#930=DIRECTION('',(0.,0.,-1.));
#931=DIRECTION('',(0.,-1.,0.));
#932=DIRECTION('',(0.,0.,-1.));
#933=DIRECTION('',(0.,-1.,0.));
#934=DIRECTION('',(0.,0.,-1.));
#935=DIRECTION('',(0.,-1.,0.));
#936=DIRECTION('',(0.,0.,-1.));
#937=DIRECTION('',(0.,0.,1.));
#938=DIRECTION('',(1.,0.,0.));
#939=DIRECTION('',(0.,0.,1.));
#940=DIRECTION('',(1.,0.,0.));
#941=DIRECTION('',(0.,0.,1.));
#942=DIRECTION('',(1.,0.,0.));
#943=DIRECTION('',(0.,0.,1.));
#944=DIRECTION('',(1.,0.,0.));
#945=DIRECTION('',(0.,0.,-1.));
#946=DIRECTION('',(1.,0.,0.));
#947=DIRECTION('',(0.,0.,1.));
#948=DIRECTION('',(1.,0.,0.));
#949=DIRECTION('',(0.,-1.,0.));
#950=DIRECTION('',(0.,0.,-1.));
#951=DIRECTION('',(0.,1.,0.));
#952=DIRECTION('',(0.,0.,1.));
#953=DIRECTION('',(0.,-1.,0.));
#954=DIRECTION('',(0.,0.,-1.));
#955=DIRECTION('',(0.,1.,0.));
#956=DIRECTION('',(0.,0.,1.));
#957=DIRECTION('',(0.,0.,-1.));
#958=DIRECTION('',(-1.,0.,0.));
#959=DIRECTION('',(0.,0.,-1.));
#960=DIRECTION('',(-1.,0.,0.));
#961=DIRECTION('',(0.,-1.,0.));
#962=DIRECTION('',(0.,0.,-1.));
#963=DIRECTION('',(0.,-1.,0.));
#964=DIRECTION('',(0.,0.,-1.));
#965=DIRECTION('',(0.,1.,0.));
#966=DIRECTION('',(0.,0.,1.));
#967=DIRECTION('',(1.73472347597681E-15,-1.,0.));
#968=DIRECTION('',(1.,1.73472347597681E-15,0.));
#969=CARTESIAN_POINT('',(0.,0.,0.));
#970=CARTESIAN_POINT('',(-0.031,0.031,-0.031002));
#971=CARTESIAN_POINT('',(-0.031,0.031,0.011));
#972=CARTESIAN_POINT('',(-0.0325,0.031,0.011));
#973=CARTESIAN_POINT('',(-0.031,0.031,0.024));
#974=CARTESIAN_POINT('',(-0.0295,0.031,0.024));
#975=CARTESIAN_POINT('',(0.031,0.031,-0.031002));
#976=CARTESIAN_POINT('',(0.031,0.031,0.011));
#977=CARTESIAN_POINT('',(0.0295,0.031,0.011));
#978=CARTESIAN_POINT('',(0.031,0.031,0.024));
#979=CARTESIAN_POINT('',(0.0325,0.031,0.024));
#980=CARTESIAN_POINT('',(6.93889390390723E-18,6.93889390390723E-18,0.011));
#981=CARTESIAN_POINT('',(0.018,0.036,0.011));
#982=CARTESIAN_POINT('',(-0.0246454972243679,0.036,0.011));
#983=CARTESIAN_POINT('',(-0.036,0.036,0.011));
#984=CARTESIAN_POINT('',(-0.0246454972243679,-0.021,0.011));
#985=CARTESIAN_POINT('',(-0.0246454972243679,-0.021,0.011));
#986=CARTESIAN_POINT('',(0.,-0.021,0.011));
#987=CARTESIAN_POINT('',(-0.00331662479035539,-0.021,0.011));
#988=CARTESIAN_POINT('',(4.70264370872579E-19,-0.016,0.011));
#989=CARTESIAN_POINT('',(0.0033166247903554,-0.021,0.011));
#990=CARTESIAN_POINT('',(0.,-0.021,0.011));
#991=CARTESIAN_POINT('',(0.0246454972243679,-0.021,0.011));
#992=CARTESIAN_POINT('',(0.0246454972243679,6.93889390390723E-18,0.011));
#993=CARTESIAN_POINT('',(0.0246454972243679,0.036,0.011));
#994=CARTESIAN_POINT('',(0.018,0.036,0.011));
#995=CARTESIAN_POINT('',(0.036,0.036,0.011));
#996=CARTESIAN_POINT('',(0.036,0.018,0.011));
#997=CARTESIAN_POINT('',(0.036,5.67381119041885E-18,0.011));
#998=CARTESIAN_POINT('',(6.08561701290277E-18,5.67381119041885E-18,0.011));
#999=CARTESIAN_POINT('',(-0.036,1.26508271348838E-18,0.011));
#1000=CARTESIAN_POINT('',(-0.036,0.018,0.011));
#1001=CARTESIAN_POINT('',(0.025,-0.0382,0.0148729833462074));
#1002=CARTESIAN_POINT('',(0.025,-0.021,0.0148729833462074));
#1003=CARTESIAN_POINT('',(0.024161374306092,-0.021,0.011625));
#1004=CARTESIAN_POINT('',(0.0258386256939081,-0.021,0.0181209666924148));
#1005=CARTESIAN_POINT('',(0.0258386256939081,0.036,0.0181209666924148));
#1006=CARTESIAN_POINT('',(0.0258386256939081,0.036,0.0181209666924148));
#1007=CARTESIAN_POINT('',(0.025,0.036,0.0148729833462074));
#1008=CARTESIAN_POINT('',(0.024161374306092,0.036,0.011625));
#1009=CARTESIAN_POINT('',(0.024161374306092,-0.0382,0.011625));
#1010=CARTESIAN_POINT('',(-0.025,-0.0382,0.0148729833462074));
#1011=CARTESIAN_POINT('',(-0.025,-0.021,0.0148729833462074));
#1012=CARTESIAN_POINT('',(-0.024161374306092,-0.021,0.011625));
#1013=CARTESIAN_POINT('',(-0.0258386256939081,-0.021,0.0181209666924148));
#1014=CARTESIAN_POINT('',(-0.024161374306092,0.036,0.011625));
#1015=CARTESIAN_POINT('',(-0.024161374306092,0.036,0.011625));
#1016=CARTESIAN_POINT('',(-0.025,0.036,0.0148729833462074));
#1017=CARTESIAN_POINT('',(-0.0258386256939081,0.036,0.0181209666924148));
#1018=CARTESIAN_POINT('',(-0.0258386256939081,-0.0382,0.0181209666924148));
#1019=CARTESIAN_POINT('',(-0.016,-1.08258777044626E-18,0.041));
#1020=CARTESIAN_POINT('',(-0.016,-1.08258777044626E-18,0.035));
#1021=CARTESIAN_POINT('',(-0.0132,-1.08258777044626E-18,0.035));
#1022=CARTESIAN_POINT('',(-0.016,-1.08258777044626E-18,0.041));
#1023=CARTESIAN_POINT('',(-0.0132,-1.08258777044626E-18,0.041));
#1024=CARTESIAN_POINT('',(-2.06230520976414E-18,0.016,0.041));
#1025=CARTESIAN_POINT('',(-2.06230520976414E-18,0.016,0.035));
#1026=CARTESIAN_POINT('',(0.0028,0.016,0.035));
#1027=CARTESIAN_POINT('',(-2.06230520976414E-18,0.016,0.041));
#1028=CARTESIAN_POINT('',(0.0028,0.016,0.041));
#1029=CARTESIAN_POINT('',(0.016,3.04202264908202E-18,0.041));
#1030=CARTESIAN_POINT('',(0.016,3.04202264908202E-18,0.035));
#1031=CARTESIAN_POINT('',(0.0188,3.04202264908202E-18,0.035));
#1032=CARTESIAN_POINT('',(0.016,3.04202264908202E-18,0.041));
#1033=CARTESIAN_POINT('',(0.0188,3.04202264908202E-18,0.041));
#1034=CARTESIAN_POINT('',(4.0217400883999E-18,-0.016,0.041));
#1035=CARTESIAN_POINT('',(4.0217400883999E-18,-0.016,0.035));
#1036=CARTESIAN_POINT('',(0.0028,-0.016,0.035));
#1037=CARTESIAN_POINT('',(4.0217400883999E-18,-0.016,0.041));
#1038=CARTESIAN_POINT('',(0.0028,-0.016,0.041));
#1039=CARTESIAN_POINT('',(6.08561701290277E-18,5.67381119041885E-18,0.041));
#1040=CARTESIAN_POINT('',(6.08561701290277E-18,5.67381119041885E-18,0.032));
#1041=CARTESIAN_POINT('',(8.67361737988402E-19,0.036,0.032));
#1042=CARTESIAN_POINT('',(-0.036,1.26508271348838E-18,0.032));
#1043=CARTESIAN_POINT('',(-0.036,1.26508271348838E-18,0.011));
#1044=CARTESIAN_POINT('',(0.036,5.67381119041885E-18,0.011));
#1045=CARTESIAN_POINT('',(0.036,5.67381119041885E-18,0.032));
#1046=CARTESIAN_POINT('',(6.08561701290277E-18,5.67381119041885E-18,0.032));
#1047=CARTESIAN_POINT('',(6.08561701290277E-18,5.67381119041885E-18,0.0405));
#1048=CARTESIAN_POINT('',(0.036,5.67381119041885E-18,0.0405));
#1049=CARTESIAN_POINT('',(0.018,0.036,0.011));
#1050=CARTESIAN_POINT('',(0.018,0.036,0.031));
#1051=CARTESIAN_POINT('',(0.034,0.036,0.031));
#1052=CARTESIAN_POINT('',(0.00854400374531758,0.036,0.031));
#1053=CARTESIAN_POINT('',(0.034,0.036,0.029));
#1054=CARTESIAN_POINT('',(0.036,0.036,0.029));
#1055=CARTESIAN_POINT('',(0.036,0.036,0.011));
#1056=CARTESIAN_POINT('',(0.0246454972243679,0.036,0.0115));
#1057=CARTESIAN_POINT('',(0.0253545027756321,0.036,0.0182459666924149));
#1058=CARTESIAN_POINT('',(0.0253545027756321,0.036,0.0187459666924149));
#1059=CARTESIAN_POINT('',(0.,0.036,0.0187459666924149));
#1060=CARTESIAN_POINT('',(-0.0253545027756321,0.036,0.0187459666924149));
#1061=CARTESIAN_POINT('',(-0.0253545027756321,0.036,0.0182459666924149));
#1062=CARTESIAN_POINT('',(-0.0246454972243679,0.036,0.0115));
#1063=CARTESIAN_POINT('',(-0.036,0.036,0.011));
#1064=CARTESIAN_POINT('',(-0.036,0.036,0.029));
#1065=CARTESIAN_POINT('',(-0.034,0.036,0.029));
#1066=CARTESIAN_POINT('',(-0.034,0.036,0.031));
#1067=CARTESIAN_POINT('',(0.018,0.036,0.031));
#1068=CARTESIAN_POINT('',(-0.00854400374531758,0.036,0.031));
#1069=CARTESIAN_POINT('',(-0.00854400374531758,0.036,0.031));
#1070=CARTESIAN_POINT('',(-0.007106621442374,0.036,0.031));
#1071=CARTESIAN_POINT('',(-0.00424434858606467,0.036,0.0312943792631595));
#1072=CARTESIAN_POINT('',(-0.00141645676728123,0.036,0.031763925041116));
#1073=CARTESIAN_POINT('',(6.08561701290277E-18,0.036,0.032));
#1074=CARTESIAN_POINT('',(0.00854400374531758,0.036,0.031));
#1075=CARTESIAN_POINT('',(0.007106621442374,0.036,0.031));
#1076=CARTESIAN_POINT('',(0.00424434858606467,0.036,0.0312943792631595));
#1077=CARTESIAN_POINT('',(0.00141645676728125,0.036,0.031763925041116));
#1078=CARTESIAN_POINT('',(6.08561701290277E-18,0.036,0.032));
#1079=CARTESIAN_POINT('',(0.,0.,0.041));
#1080=CARTESIAN_POINT('',(6.08561701290277E-18,5.67381119041885E-18,0.041));
#1081=CARTESIAN_POINT('',(0.0355,5.67381119041885E-18,0.041));
#1082=CARTESIAN_POINT('',(6.08561701290277E-18,5.67381119041885E-18,0.0405));
#1083=CARTESIAN_POINT('',(6.93889390390723E-18,6.93889390390723E-18,0.031));
#1084=CARTESIAN_POINT('',(0.031,0.031,0.031));
#1085=CARTESIAN_POINT('',(0.0332,0.031,0.031));
#1086=CARTESIAN_POINT('',(6.08561701290277E-18,5.67381119041885E-18,0.031));
#1087=CARTESIAN_POINT('',(0.034,0.0145945195193265,0.031));
#1088=CARTESIAN_POINT('',(0.034,0.036,0.031));
#1089=CARTESIAN_POINT('',(0.036,0.018,0.011));
#1090=CARTESIAN_POINT('',(0.036,0.0085440037453176,0.029));
#1091=CARTESIAN_POINT('',(0.036,0.0145945195193265,0.029));
#1092=CARTESIAN_POINT('',(0.036,0.0145945195193265,0.029));
#1093=CARTESIAN_POINT('',(0.036,0.0120910088077029,0.029));
#1094=CARTESIAN_POINT('',(0.036,0.00717327811086893,0.0298738763561345));
#1095=CARTESIAN_POINT('',(0.036,0.00238353446527268,0.031291985941832));
#1096=CARTESIAN_POINT('',(0.036,5.67381119041885E-18,0.032));
#1097=CARTESIAN_POINT('',(-0.036,0.018,0.011));
#1098=CARTESIAN_POINT('',(-0.036,0.0145945195193264,0.029));
#1099=CARTESIAN_POINT('',(-0.036,0.0120910088077029,0.029));
#1100=CARTESIAN_POINT('',(-0.036,0.00717327811090659,0.029873876356261));
#1101=CARTESIAN_POINT('',(-0.036,0.00238353446519748,0.0312919859415789));
#1102=CARTESIAN_POINT('',(-0.036,5.67381119041885E-18,0.032));
#1103=CARTESIAN_POINT('',(-0.036,0.0145945195193264,0.029));
#1104=CARTESIAN_POINT('',(-0.036,0.018,0.029));
#1105=CARTESIAN_POINT('',(6.93889390390723E-18,6.93889390390723E-18,0.031));
#1106=CARTESIAN_POINT('',(-0.031,0.031,0.031));
#1107=CARTESIAN_POINT('',(-0.0288,0.031,0.031));
#1108=CARTESIAN_POINT('',(-0.034,6.93889390390723E-18,0.031));
#1109=CARTESIAN_POINT('',(-0.034,0.0145945195193264,0.031));
#1110=CARTESIAN_POINT('',(6.08561701290277E-18,5.67381119041885E-18,0.031));
#1111=CARTESIAN_POINT('',(0.,-0.0382,0.0187459666924149));
#1112=CARTESIAN_POINT('',(0.,-0.021,0.0187459666924149));
#1113=CARTESIAN_POINT('',(-0.0253545027756321,-0.021,0.0187459666924149));
#1114=CARTESIAN_POINT('',(-0.00331662479035539,-0.021,0.0187459666924149));
#1115=CARTESIAN_POINT('',(-0.0253545027756321,-0.0382,0.0187459666924149));
#1116=CARTESIAN_POINT('',(0.0253545027756321,-0.021,0.0187459666924149));
#1117=CARTESIAN_POINT('',(0.0253545027756321,-0.021,0.0187459666924149));
#1118=CARTESIAN_POINT('',(0.,-0.021,0.0187459666924149));
#1119=CARTESIAN_POINT('',(0.0033166247903554,-0.021,0.0187459666924149));
#1120=CARTESIAN_POINT('',(4.70264370872579E-19,-0.016,0.0187459666924149));
#1121=CARTESIAN_POINT('',(0.016,3.40941668882622E-18,0.0187459666924149));
#1122=CARTESIAN_POINT('',(0.01,3.40941668882622E-18,0.0187459666924149));
#1123=CARTESIAN_POINT('',(-2.42969924950834E-18,0.016,0.0187459666924149));
#1124=CARTESIAN_POINT('',(-0.006,0.016,0.0187459666924149));
#1125=CARTESIAN_POINT('',(-0.016,-1.44998181019046E-18,0.0187459666924149));
#1126=CARTESIAN_POINT('',(-0.022,-1.44998181019046E-18,0.0187459666924149));
#1127=CARTESIAN_POINT('',(0.007,0.007,0.035));
#1128=CARTESIAN_POINT('',(4.70264370872579E-19,-0.016,0.035));
#1129=CARTESIAN_POINT('',(0.006,-0.016,0.035));
#1130=CARTESIAN_POINT('',(4.70264370872579E-19,-0.016,-0.035002));
#1131=CARTESIAN_POINT('',(0.0033166247903554,-0.021,0.010998));
#1132=CARTESIAN_POINT('',(-0.00331662479035539,-0.021,0.010998));
#1133=CARTESIAN_POINT('',(0.007,0.007,0.035));
#1134=CARTESIAN_POINT('',(-0.016,-1.44998181019046E-18,0.035));
#1135=CARTESIAN_POINT('',(-0.01,-1.44998181019046E-18,0.035));
#1136=CARTESIAN_POINT('',(-0.016,-1.44998181019046E-18,-0.035002));
#1137=CARTESIAN_POINT('',(0.007,0.007,0.035));
#1138=CARTESIAN_POINT('',(-2.42969924950834E-18,0.016,0.035));
#1139=CARTESIAN_POINT('',(0.006,0.016,0.035));
#1140=CARTESIAN_POINT('',(-2.42969924950834E-18,0.016,-0.035002));
#1141=CARTESIAN_POINT('',(0.007,0.007,0.035));
#1142=CARTESIAN_POINT('',(0.016,3.40941668882622E-18,0.035));
#1143=CARTESIAN_POINT('',(0.022,3.40941668882622E-18,0.035));
#1144=CARTESIAN_POINT('',(0.016,3.40941668882622E-18,-0.035002));
#1145=CARTESIAN_POINT('',(0.,-0.021,0.010998));
#1146=CARTESIAN_POINT('',(-0.0253545027756321,-0.021,0.0182459666924149));
#1147=CARTESIAN_POINT('',(-0.0246454972243679,-0.021,0.0115));
#1148=CARTESIAN_POINT('',(0.,-0.021,0.010998));
#1149=CARTESIAN_POINT('',(0.0253545027756321,-0.021,0.0182459666924149));
#1150=CARTESIAN_POINT('',(0.0246454972243679,-0.021,0.0115));
#1151=CARTESIAN_POINT('',(0.031,0.031,0.024));
#1152=CARTESIAN_POINT('',(0.031,0.031,0.024));
#1153=CARTESIAN_POINT('',(0.0332,0.031,0.024));
#1154=CARTESIAN_POINT('',(0.00140000000000002,0.018,0.024));
#1155=CARTESIAN_POINT('',(-0.031,0.031,0.024));
#1156=CARTESIAN_POINT('',(-0.031,0.031,0.024));
#1157=CARTESIAN_POINT('',(-0.0288,0.031,0.024));
#1158=CARTESIAN_POINT('',(0.00140000000000002,0.018,0.024));
#1159=CARTESIAN_POINT('',(-0.0246454972243679,-0.0382,0.0115));
#1160=CARTESIAN_POINT('',(-0.0253545027756321,-0.0382,0.0182459666924149));
#1161=CARTESIAN_POINT('',(0.0253545027756321,-0.0382,0.0182459666924149));
#1162=CARTESIAN_POINT('',(0.0246454972243679,6.93889390390723E-18,0.0115));
#1163=CARTESIAN_POINT('',(6.08561701290277E-18,5.67381119041885E-18,0.032));
#1164=CARTESIAN_POINT('',(0.034,0.0145945195193265,0.031));
#1165=CARTESIAN_POINT('',(0.0346433807659747,0.0122081638292207,0.031));
#1166=CARTESIAN_POINT('',(0.0356516387099126,0.00737804372238083,0.0313129619511148));
#1167=CARTESIAN_POINT('',(0.036,0.00245608576486006,0.0317703220495751));
#1168=CARTESIAN_POINT('',(0.036,5.67381119041885E-18,0.032));
#1169=CARTESIAN_POINT('',(6.08561701290277E-18,5.67381119041885E-18,0.032));
#1170=CARTESIAN_POINT('',(-0.034,0.0145945195193264,0.031));
#1171=CARTESIAN_POINT('',(-0.0346433807659747,0.0122081638292206,0.031));
#1172=CARTESIAN_POINT('',(-0.0356516387099126,0.00737804372238552,0.0313129619511651));
#1173=CARTESIAN_POINT('',(-0.036,0.00245608576485063,0.0317703220494744));
#1174=CARTESIAN_POINT('',(-0.036,5.67381119041885E-18,0.032));
#1175=CARTESIAN_POINT('',(0.034,6.93889390390723E-18,0.029));
#1176=CARTESIAN_POINT('',(0.034,0.0145945195193265,0.029));
#1177=CARTESIAN_POINT('',(0.034,0.0145945195193265,0.031));
#1178=CARTESIAN_POINT('',(0.036,0.0145945195193265,0.031));
#1179=CARTESIAN_POINT('',(0.036,0.0145945195193265,0.029));
#1180=CARTESIAN_POINT('',(0.0343024777753886,0.0134726029223092,0.031));
#1181=CARTESIAN_POINT('',(0.0360000000000023,0.0135514771911728,0.0307187873671077));
#1182=CARTESIAN_POINT('',(0.036,0.0133427641640053,0.0290000000041496));
#1183=CARTESIAN_POINT('',(0.0348592463554654,0.01116880072917,0.0310775724765322));
#1184=CARTESIAN_POINT('',(0.035999999999997,0.0112356809122087,0.0304719287375467));
#1185=CARTESIAN_POINT('',(0.036,0.0108671030778306,0.0292327174277083));
#1186=CARTESIAN_POINT('',(0.0357198219204275,0.00632195301646817,0.0314066182494039));
#1187=CARTESIAN_POINT('',(0.0360000000000095,0.00637791659390317,0.0307802593835926));
#1188=CARTESIAN_POINT('',(0.036,0.00597252603286955,0.0302198547493531));
#1189=CARTESIAN_POINT('',(0.036,0.0025237423763617,0.0317639953139599));
#1190=CARTESIAN_POINT('',(0.0359999999999618,0.0024536384268278,0.0315279906267596));
#1191=CARTESIAN_POINT('',(0.036,0.00238353446526561,0.0312919859418366));
#1192=CARTESIAN_POINT('',(0.036,5.67381119041885E-18,0.032));
#1193=CARTESIAN_POINT('',(0.036,5.67381119041885E-18,0.032));
#1194=CARTESIAN_POINT('',(0.036,5.67381119041885E-18,0.032));
#1195=CARTESIAN_POINT('',(-0.034,0.018,0.029));
#1196=CARTESIAN_POINT('',(-0.034,0.0145945195193264,0.029));
#1197=CARTESIAN_POINT('',(-0.036,0.0145945195193264,0.029));
#1198=CARTESIAN_POINT('',(-0.036,0.0145945195193264,0.031));
#1199=CARTESIAN_POINT('',(-0.034,0.0145945195193264,0.031));
#1200=CARTESIAN_POINT('',(-0.036,0.0133427641640052,0.0290000000041496));
#1201=CARTESIAN_POINT('',(-0.0360000000000018,0.0135514771911619,0.0307187873671128));
#1202=CARTESIAN_POINT('',(-0.0343024777753843,0.0134726029223049,0.031));
#1203=CARTESIAN_POINT('',(-0.036,0.0108671030778275,0.0292327174276965));
#1204=CARTESIAN_POINT('',(-0.0359999999999945,0.0112356809122105,0.0304719287375355));
#1205=CARTESIAN_POINT('',(-0.0348592463554674,0.0111688007291687,0.0310775724765282));
#1206=CARTESIAN_POINT('',(-0.036,0.00597252603288501,0.030219854749412));
#1207=CARTESIAN_POINT('',(-0.0360000000000215,0.00637791659391562,0.0307802593836343));
#1208=CARTESIAN_POINT('',(-0.0357198219204263,0.00632195301648335,0.0314066182494235));
#1209=CARTESIAN_POINT('',(-0.036,0.00238353446519782,0.0312919859415778));
#1210=CARTESIAN_POINT('',(-0.0359999999999101,0.00245363842675801,0.0315279906265871));
#1211=CARTESIAN_POINT('',(-0.036,0.00252374237628992,0.0317639953138737));
#1212=CARTESIAN_POINT('',(-0.036,5.67381119041885E-18,0.032));
#1213=CARTESIAN_POINT('',(-0.036,5.67381119041885E-18,0.032));
#1214=CARTESIAN_POINT('',(-0.036,5.67381119041885E-18,0.032));
#1215=MECHANICAL_DESIGN_GEOMETRIC_PRESENTATION_REPRESENTATION('',(#670),
#1216);
#1216=(
GEOMETRIC_REPRESENTATION_CONTEXT(3)
GLOBAL_UNCERTAINTY_ASSIGNED_CONTEXT((#1217))
GLOBAL_UNIT_ASSIGNED_CONTEXT((#1220,#1219,#1218))
REPRESENTATION_CONTEXT('Clamp V4 Top','TOP_LEVEL_ASSEMBLY_PART')
);
#1217=UNCERTAINTY_MEASURE_WITH_UNIT(LENGTH_MEASURE(2.E-5),#1220,
'DISTANCE_ACCURACY_VALUE','Maximum Tolerance applied to model');
#1218=(
NAMED_UNIT(*)
SI_UNIT($,.STERADIAN.)
SOLID_ANGLE_UNIT()
);
#1219=(
NAMED_UNIT(*)
PLANE_ANGLE_UNIT()
SI_UNIT($,.RADIAN.)
);
#1220=(
LENGTH_UNIT()
NAMED_UNIT(*)
SI_UNIT($,.METRE.)
);
#1221=PRODUCT_DEFINITION_SHAPE('','',#1222);
#1222=PRODUCT_DEFINITION('','',#1224,#1223);
#1223=PRODUCT_DEFINITION_CONTEXT('',#1230,'design');
#1224=PRODUCT_DEFINITION_FORMATION_WITH_SPECIFIED_SOURCE('','',#1226,
 .NOT_KNOWN.);
#1225=PRODUCT_RELATED_PRODUCT_CATEGORY('','',(#1226));
#1226=PRODUCT('Clamp V4 Top','Clamp V4 Top','Clamp V4 Top',(#1228));
#1227=PRODUCT_CATEGORY('','');
#1228=PRODUCT_CONTEXT('',#1230,'mechanical');
#1229=APPLICATION_PROTOCOL_DEFINITION('international standard',
'ap242_managed_model_based_3d_engineering',2020,#1230);
#1230=APPLICATION_CONTEXT('managed model based 3d engineering');
ENDSEC;
END-ISO-10303-21;
