ISO-10303-21;
HEADER;
/* Generated by software containing ST-Developer
 * from STEP Tools, Inc. (www.steptools.com) 
 */
/* OPTION: using custom renumber hook */

FILE_DESCRIPTION(
/* description */ ('STEP AP242 Edition 2',
'CAx-IF Rec.Pracs.---Representation and Presentation of Product Manufa
cturing Information (PMI)---4.0---2014-10-13',
'CAx-IF Rec.Pracs.---3D Tessellated Geometry---0.4---2014-09-14','2;1',
'CAx-IF Rec.Pracs.---User Defined Attributes---1.5---2016-08-15'),
/* implementation_level */ '2;1');

FILE_NAME(
/* name */ 'Arm Cut Guide - Cut Block',
/* time_stamp */ '2026-08-06T03:03:02Z',
/* author */ (''),
/* organization */ (''),
/* preprocessor_version */ 'ST-DEVELOPER v20',
/* originating_system */ 'ONSHAPE BY PTC INC, 1.218',
/* authorisation */ '  ');

FILE_SCHEMA (('AP242_MANAGED_MODEL_BASED_3D_ENGINEERING_MIM_LF { 1 0 10303 442 3 1 4 }'));
ENDSEC;

DATA;
#10=SHAPE_REPRESENTATION_RELATIONSHIP('','',#409,#11);
#11=ADVANCED_BREP_SHAPE_REPRESENTATION('',(#407),#720);
#12=TOROIDAL_SURFACE('',#462,0.023,0.003);
#13=B_SPLINE_CURVE_WITH_KNOTS('',3,(#701,#702,#703,#704,#705),
 .UNSPECIFIED.,.F.,.F.,(4,1,4),(-2.02838982850197E-5,0.00671087258532703,
0.0134420290689391),.UNSPECIFIED.);
#14=B_SPLINE_CURVE_WITH_KNOTS('',3,(#707,#708,#709,#710,#711),
 .UNSPECIFIED.,.F.,.F.,(4,1,4),(-2.02838982849972E-5,0.00671087258532563,
0.0134420290689363),.UNSPECIFIED.);
#15=B_SPLINE_CURVE_WITH_KNOTS('',3,(#713,#714,#715,#716,#717),
 .UNSPECIFIED.,.F.,.F.,(4,1,4),(-2.02838982850262E-5,0.00671087258532298,
0.013442029068931),.UNSPECIFIED.);
#16=SPHERICAL_SURFACE('',#428,0.003);
#17=SPHERICAL_SURFACE('',#439,0.003);
#18=SPHERICAL_SURFACE('',#443,0.003);
#19=SPHERICAL_SURFACE('',#445,0.003);
#20=SPHERICAL_SURFACE('',#449,0.003);
#21=SPHERICAL_SURFACE('',#456,0.003);
#22=CYLINDRICAL_SURFACE('',#423,0.02);
#23=CYLINDRICAL_SURFACE('',#425,0.003);
#24=CYLINDRICAL_SURFACE('',#431,0.003);
#25=CYLINDRICAL_SURFACE('',#433,0.003);
#26=CYLINDRICAL_SURFACE('',#436,0.003);
#27=CYLINDRICAL_SURFACE('',#441,0.003);
#28=CYLINDRICAL_SURFACE('',#447,0.003);
#29=CYLINDRICAL_SURFACE('',#452,0.003);
#30=CYLINDRICAL_SURFACE('',#454,0.003);
#31=CYLINDRICAL_SURFACE('',#459,0.003);
#32=CYLINDRICAL_SURFACE('',#460,0.003);
#33=CYLINDRICAL_SURFACE('',#461,0.003);
#34=ELLIPSE('',#419,0.0222520388095038,0.02);
#35=ELLIPSE('',#453,0.00424264068711928,0.003);
#36=ELLIPSE('',#455,0.00424264068711928,0.003);
#37=LINE('',#600,#63);
#38=LINE('',#602,#64);
#39=LINE('',#604,#65);
#40=LINE('',#606,#66);
#41=LINE('',#611,#67);
#42=LINE('',#613,#68);
#43=LINE('',#618,#69);
#44=LINE('',#620,#70);
#45=LINE('',#622,#71);
#46=LINE('',#624,#72);
#47=LINE('',#626,#73);
#48=LINE('',#629,#74);
#49=LINE('',#631,#75);
#50=LINE('',#633,#76);
#51=LINE('',#637,#77);
#52=LINE('',#640,#78);
#53=LINE('',#642,#79);
#54=LINE('',#644,#80);
#55=LINE('',#646,#81);
#56=LINE('',#649,#82);
#57=LINE('',#651,#83);
#58=LINE('',#653,#84);
#59=LINE('',#655,#85);
#60=LINE('',#658,#86);
#61=LINE('',#660,#87);
#62=LINE('',#662,#88);
#63=VECTOR('',#469,1.);
#64=VECTOR('',#470,1.);
#65=VECTOR('',#471,1.);
#66=VECTOR('',#474,1.);
#67=VECTOR('',#477,1.);
#68=VECTOR('',#480,1.);
#69=VECTOR('',#483,1.);
#70=VECTOR('',#486,1.);
#71=VECTOR('',#487,1.);
#72=VECTOR('',#488,1.);
#73=VECTOR('',#491,1.);
#74=VECTOR('',#492,1.);
#75=VECTOR('',#493,1.);
#76=VECTOR('',#494,1.);
#77=VECTOR('',#499,1.);
#78=VECTOR('',#500,1.);
#79=VECTOR('',#501,1.);
#80=VECTOR('',#502,1.);
#81=VECTOR('',#505,1.);
#82=VECTOR('',#506,1.);
#83=VECTOR('',#507,1.);
#84=VECTOR('',#508,1.);
#85=VECTOR('',#511,1.);
#86=VECTOR('',#512,1.);
#87=VECTOR('',#513,1.);
#88=VECTOR('',#514,1.);
#89=ORIENTED_EDGE('',*,*,#197,.T.);
#90=ORIENTED_EDGE('',*,*,#198,.T.);
#91=ORIENTED_EDGE('',*,*,#199,.F.);
#92=ORIENTED_EDGE('',*,*,#200,.T.);
#93=ORIENTED_EDGE('',*,*,#201,.T.);
#94=ORIENTED_EDGE('',*,*,#202,.T.);
#95=ORIENTED_EDGE('',*,*,#203,.T.);
#96=ORIENTED_EDGE('',*,*,#204,.T.);
#97=ORIENTED_EDGE('',*,*,#205,.T.);
#98=ORIENTED_EDGE('',*,*,#206,.T.);
#99=ORIENTED_EDGE('',*,*,#199,.T.);
#100=ORIENTED_EDGE('',*,*,#207,.T.);
#101=ORIENTED_EDGE('',*,*,#208,.T.);
#102=ORIENTED_EDGE('',*,*,#209,.T.);
#103=ORIENTED_EDGE('',*,*,#210,.T.);
#104=ORIENTED_EDGE('',*,*,#211,.T.);
#105=ORIENTED_EDGE('',*,*,#212,.T.);
#106=ORIENTED_EDGE('',*,*,#213,.T.);
#107=ORIENTED_EDGE('',*,*,#214,.F.);
#108=ORIENTED_EDGE('',*,*,#215,.T.);
#109=ORIENTED_EDGE('',*,*,#216,.T.);
#110=ORIENTED_EDGE('',*,*,#217,.T.);
#111=ORIENTED_EDGE('',*,*,#218,.T.);
#112=ORIENTED_EDGE('',*,*,#219,.T.);
#113=ORIENTED_EDGE('',*,*,#220,.T.);
#114=ORIENTED_EDGE('',*,*,#221,.T.);
#115=ORIENTED_EDGE('',*,*,#222,.T.);
#116=ORIENTED_EDGE('',*,*,#223,.T.);
#117=ORIENTED_EDGE('',*,*,#224,.T.);
#118=ORIENTED_EDGE('',*,*,#225,.T.);
#119=ORIENTED_EDGE('',*,*,#226,.T.);
#120=ORIENTED_EDGE('',*,*,#227,.T.);
#121=ORIENTED_EDGE('',*,*,#214,.T.);
#122=ORIENTED_EDGE('',*,*,#228,.F.);
#123=ORIENTED_EDGE('',*,*,#211,.F.);
#124=ORIENTED_EDGE('',*,*,#229,.F.);
#125=ORIENTED_EDGE('',*,*,#218,.F.);
#126=ORIENTED_EDGE('',*,*,#230,.F.);
#127=ORIENTED_EDGE('',*,*,#231,.F.);
#128=ORIENTED_EDGE('',*,*,#228,.T.);
#129=ORIENTED_EDGE('',*,*,#231,.T.);
#130=ORIENTED_EDGE('',*,*,#219,.F.);
#131=ORIENTED_EDGE('',*,*,#232,.F.);
#132=ORIENTED_EDGE('',*,*,#212,.F.);
#133=ORIENTED_EDGE('',*,*,#233,.F.);
#134=ORIENTED_EDGE('',*,*,#213,.F.);
#135=ORIENTED_EDGE('',*,*,#234,.F.);
#136=ORIENTED_EDGE('',*,*,#208,.F.);
#137=ORIENTED_EDGE('',*,*,#235,.F.);
#138=ORIENTED_EDGE('',*,*,#210,.F.);
#139=ORIENTED_EDGE('',*,*,#236,.F.);
#140=ORIENTED_EDGE('',*,*,#225,.F.);
#141=ORIENTED_EDGE('',*,*,#229,.T.);
#142=ORIENTED_EDGE('',*,*,#235,.T.);
#143=ORIENTED_EDGE('',*,*,#237,.F.);
#144=ORIENTED_EDGE('',*,*,#230,.T.);
#145=ORIENTED_EDGE('',*,*,#217,.F.);
#146=ORIENTED_EDGE('',*,*,#238,.F.);
#147=ORIENTED_EDGE('',*,*,#220,.F.);
#148=ORIENTED_EDGE('',*,*,#234,.T.);
#149=ORIENTED_EDGE('',*,*,#232,.T.);
#150=ORIENTED_EDGE('',*,*,#239,.F.);
#151=ORIENTED_EDGE('',*,*,#236,.T.);
#152=ORIENTED_EDGE('',*,*,#233,.T.);
#153=ORIENTED_EDGE('',*,*,#240,.F.);
#154=ORIENTED_EDGE('',*,*,#237,.T.);
#155=ORIENTED_EDGE('',*,*,#224,.F.);
#156=ORIENTED_EDGE('',*,*,#241,.F.);
#157=ORIENTED_EDGE('',*,*,#215,.F.);
#158=ORIENTED_EDGE('',*,*,#242,.F.);
#159=ORIENTED_EDGE('',*,*,#238,.T.);
#160=ORIENTED_EDGE('',*,*,#243,.F.);
#161=ORIENTED_EDGE('',*,*,#239,.T.);
#162=ORIENTED_EDGE('',*,*,#222,.F.);
#163=ORIENTED_EDGE('',*,*,#244,.F.);
#164=ORIENTED_EDGE('',*,*,#209,.F.);
#165=ORIENTED_EDGE('',*,*,#240,.T.);
#166=ORIENTED_EDGE('',*,*,#207,.F.);
#167=ORIENTED_EDGE('',*,*,#245,.F.);
#168=ORIENTED_EDGE('',*,*,#226,.F.);
#169=ORIENTED_EDGE('',*,*,#246,.F.);
#170=ORIENTED_EDGE('',*,*,#247,.F.);
#171=ORIENTED_EDGE('',*,*,#241,.T.);
#172=ORIENTED_EDGE('',*,*,#247,.T.);
#173=ORIENTED_EDGE('',*,*,#206,.F.);
#174=ORIENTED_EDGE('',*,*,#248,.F.);
#175=ORIENTED_EDGE('',*,*,#201,.F.);
#176=ORIENTED_EDGE('',*,*,#243,.T.);
#177=ORIENTED_EDGE('',*,*,#216,.F.);
#178=ORIENTED_EDGE('',*,*,#242,.T.);
#179=ORIENTED_EDGE('',*,*,#203,.F.);
#180=ORIENTED_EDGE('',*,*,#249,.F.);
#181=ORIENTED_EDGE('',*,*,#200,.F.);
#182=ORIENTED_EDGE('',*,*,#244,.T.);
#183=ORIENTED_EDGE('',*,*,#221,.F.);
#184=ORIENTED_EDGE('',*,*,#245,.T.);
#185=ORIENTED_EDGE('',*,*,#198,.F.);
#186=ORIENTED_EDGE('',*,*,#250,.F.);
#187=ORIENTED_EDGE('',*,*,#204,.F.);
#188=ORIENTED_EDGE('',*,*,#246,.T.);
#189=ORIENTED_EDGE('',*,*,#223,.F.);
#190=ORIENTED_EDGE('',*,*,#202,.F.);
#191=ORIENTED_EDGE('',*,*,#248,.T.);
#192=ORIENTED_EDGE('',*,*,#205,.F.);
#193=ORIENTED_EDGE('',*,*,#250,.T.);
#194=ORIENTED_EDGE('',*,*,#197,.F.);
#195=ORIENTED_EDGE('',*,*,#249,.T.);
#196=ORIENTED_EDGE('',*,*,#227,.F.);
#197=EDGE_CURVE('',#251,#252,#281,.F.);
#198=EDGE_CURVE('',#252,#253,#37,.F.);
#199=EDGE_CURVE('',#254,#253,#38,.T.);
#200=EDGE_CURVE('',#254,#251,#39,.T.);
#201=EDGE_CURVE('',#255,#256,#40,.T.);
#202=EDGE_CURVE('',#256,#257,#282,.F.);
#203=EDGE_CURVE('',#257,#255,#41,.T.);
#204=EDGE_CURVE('',#258,#259,#42,.F.);
#205=EDGE_CURVE('',#259,#260,#283,.F.);
#206=EDGE_CURVE('',#260,#258,#43,.T.);
#207=EDGE_CURVE('',#253,#261,#44,.F.);
#208=EDGE_CURVE('',#261,#262,#45,.F.);
#209=EDGE_CURVE('',#262,#254,#46,.T.);
#210=EDGE_CURVE('',#263,#264,#47,.F.);
#211=EDGE_CURVE('',#264,#265,#48,.F.);
#212=EDGE_CURVE('',#265,#266,#49,.T.);
#213=EDGE_CURVE('',#266,#263,#50,.T.);
#214=EDGE_CURVE('',#267,#267,#34,.T.);
#215=EDGE_CURVE('',#268,#269,#51,.T.);
#216=EDGE_CURVE('',#269,#270,#52,.F.);
#217=EDGE_CURVE('',#270,#271,#53,.F.);
#218=EDGE_CURVE('',#271,#268,#54,.T.);
#219=EDGE_CURVE('',#272,#273,#55,.F.);
#220=EDGE_CURVE('',#273,#274,#56,.T.);
#221=EDGE_CURVE('',#274,#275,#57,.F.);
#222=EDGE_CURVE('',#275,#272,#58,.F.);
#223=EDGE_CURVE('',#276,#277,#59,.T.);
#224=EDGE_CURVE('',#277,#278,#60,.F.);
#225=EDGE_CURVE('',#278,#279,#61,.T.);
#226=EDGE_CURVE('',#279,#276,#62,.T.);
#227=EDGE_CURVE('',#280,#280,#284,.T.);
#228=EDGE_CURVE('',#265,#271,#285,.T.);
#229=EDGE_CURVE('',#268,#264,#286,.T.);
#230=EDGE_CURVE('',#273,#271,#287,.F.);
#231=EDGE_CURVE('',#265,#273,#288,.F.);
#232=EDGE_CURVE('',#266,#272,#289,.T.);
#233=EDGE_CURVE('',#263,#261,#290,.T.);
#234=EDGE_CURVE('',#262,#266,#291,.T.);
#235=EDGE_CURVE('',#264,#278,#292,.T.);
#236=EDGE_CURVE('',#279,#263,#293,.T.);
#237=EDGE_CURVE('',#268,#278,#294,.F.);
#238=EDGE_CURVE('',#274,#270,#295,.T.);
#239=EDGE_CURVE('',#262,#272,#296,.F.);
#240=EDGE_CURVE('',#279,#261,#297,.F.);
#241=EDGE_CURVE('',#269,#277,#298,.T.);
#242=EDGE_CURVE('',#274,#255,#299,.F.);
#243=EDGE_CURVE('',#255,#270,#300,.F.);
#244=EDGE_CURVE('',#254,#275,#35,.T.);
#245=EDGE_CURVE('',#276,#253,#36,.F.);
#246=EDGE_CURVE('',#258,#277,#301,.F.);
#247=EDGE_CURVE('',#269,#258,#302,.F.);
#248=EDGE_CURVE('',#256,#260,#13,.T.);
#249=EDGE_CURVE('',#251,#257,#14,.T.);
#250=EDGE_CURVE('',#259,#252,#15,.T.);
#251=VERTEX_POINT('',#598);
#252=VERTEX_POINT('',#599);
#253=VERTEX_POINT('',#601);
#254=VERTEX_POINT('',#603);
#255=VERTEX_POINT('',#607);
#256=VERTEX_POINT('',#608);
#257=VERTEX_POINT('',#610);
#258=VERTEX_POINT('',#614);
#259=VERTEX_POINT('',#615);
#260=VERTEX_POINT('',#617);
#261=VERTEX_POINT('',#621);
#262=VERTEX_POINT('',#623);
#263=VERTEX_POINT('',#627);
#264=VERTEX_POINT('',#628);
#265=VERTEX_POINT('',#630);
#266=VERTEX_POINT('',#632);
#267=VERTEX_POINT('',#635);
#268=VERTEX_POINT('',#638);
#269=VERTEX_POINT('',#639);
#270=VERTEX_POINT('',#641);
#271=VERTEX_POINT('',#643);
#272=VERTEX_POINT('',#647);
#273=VERTEX_POINT('',#648);
#274=VERTEX_POINT('',#650);
#275=VERTEX_POINT('',#652);
#276=VERTEX_POINT('',#656);
#277=VERTEX_POINT('',#657);
#278=VERTEX_POINT('',#659);
#279=VERTEX_POINT('',#661);
#280=VERTEX_POINT('',#665);
#281=CIRCLE('',#412,0.023);
#282=CIRCLE('',#414,0.023);
#283=CIRCLE('',#416,0.023);
#284=CIRCLE('',#424,0.02);
#285=CIRCLE('',#426,0.003);
#286=CIRCLE('',#427,0.003);
#287=CIRCLE('',#429,0.003);
#288=CIRCLE('',#430,0.003);
#289=CIRCLE('',#432,0.003);
#290=CIRCLE('',#434,0.003);
#291=CIRCLE('',#435,0.003);
#292=CIRCLE('',#437,0.003);
#293=CIRCLE('',#438,0.003);
#294=CIRCLE('',#440,0.003);
#295=CIRCLE('',#442,0.003);
#296=CIRCLE('',#444,0.003);
#297=CIRCLE('',#446,0.003);
#298=CIRCLE('',#448,0.003);
#299=CIRCLE('',#450,0.003);
#300=CIRCLE('',#451,0.003);
#301=CIRCLE('',#457,0.003);
#302=CIRCLE('',#458,0.003);
#303=EDGE_LOOP('',(#89,#90,#91,#92));
#304=EDGE_LOOP('',(#93,#94,#95));
#305=EDGE_LOOP('',(#96,#97,#98));
#306=EDGE_LOOP('',(#99,#100,#101,#102));
#307=EDGE_LOOP('',(#103,#104,#105,#106));
#308=EDGE_LOOP('',(#107));
#309=EDGE_LOOP('',(#108,#109,#110,#111));
#310=EDGE_LOOP('',(#112,#113,#114,#115));
#311=EDGE_LOOP('',(#116,#117,#118,#119));
#312=EDGE_LOOP('',(#120));
#313=EDGE_LOOP('',(#121));
#314=EDGE_LOOP('',(#122,#123,#124,#125));
#315=EDGE_LOOP('',(#126,#127,#128));
#316=EDGE_LOOP('',(#129,#130,#131,#132));
#317=EDGE_LOOP('',(#133,#134,#135,#136));
#318=EDGE_LOOP('',(#137,#138,#139,#140));
#319=EDGE_LOOP('',(#141,#142,#143));
#320=EDGE_LOOP('',(#144,#145,#146,#147));
#321=EDGE_LOOP('',(#148,#149,#150));
#322=EDGE_LOOP('',(#151,#152,#153));
#323=EDGE_LOOP('',(#154,#155,#156,#157));
#324=EDGE_LOOP('',(#158,#159,#160));
#325=EDGE_LOOP('',(#161,#162,#163,#164));
#326=EDGE_LOOP('',(#165,#166,#167,#168));
#327=EDGE_LOOP('',(#169,#170,#171));
#328=EDGE_LOOP('',(#172,#173,#174,#175,#176,#177));
#329=EDGE_LOOP('',(#178,#179,#180,#181,#182,#183));
#330=EDGE_LOOP('',(#184,#185,#186,#187,#188,#189));
#331=EDGE_LOOP('',(#190,#191,#192,#193,#194,#195));
#332=EDGE_LOOP('',(#196));
#333=FACE_BOUND('',#303,.T.);
#334=FACE_BOUND('',#304,.T.);
#335=FACE_BOUND('',#305,.T.);
#336=FACE_BOUND('',#306,.T.);
#337=FACE_BOUND('',#307,.T.);
#338=FACE_BOUND('',#308,.T.);
#339=FACE_BOUND('',#309,.T.);
#340=FACE_BOUND('',#310,.T.);
#341=FACE_BOUND('',#311,.T.);
#342=FACE_BOUND('',#312,.T.);
#343=FACE_BOUND('',#313,.T.);
#344=FACE_BOUND('',#314,.T.);
#345=FACE_BOUND('',#315,.T.);
#346=FACE_BOUND('',#316,.T.);
#347=FACE_BOUND('',#317,.T.);
#348=FACE_BOUND('',#318,.T.);
#349=FACE_BOUND('',#319,.T.);
#350=FACE_BOUND('',#320,.T.);
#351=FACE_BOUND('',#321,.T.);
#352=FACE_BOUND('',#322,.T.);
#353=FACE_BOUND('',#323,.T.);
#354=FACE_BOUND('',#324,.T.);
#355=FACE_BOUND('',#325,.T.);
#356=FACE_BOUND('',#326,.T.);
#357=FACE_BOUND('',#327,.T.);
#358=FACE_BOUND('',#328,.T.);
#359=FACE_BOUND('',#329,.T.);
#360=FACE_BOUND('',#330,.T.);
#361=FACE_BOUND('',#331,.T.);
#362=FACE_BOUND('',#332,.T.);
#363=PLANE('',#411);
#364=PLANE('',#413);
#365=PLANE('',#415);
#366=PLANE('',#417);
#367=PLANE('',#418);
#368=PLANE('',#420);
#369=PLANE('',#421);
#370=PLANE('',#422);
#371=ADVANCED_FACE('',(#333),#363,.T.);
#372=ADVANCED_FACE('',(#334),#364,.T.);
#373=ADVANCED_FACE('',(#335),#365,.T.);
#374=ADVANCED_FACE('',(#336),#366,.T.);
#375=ADVANCED_FACE('',(#337,#338),#367,.T.);
#376=ADVANCED_FACE('',(#339),#368,.F.);
#377=ADVANCED_FACE('',(#340),#369,.T.);
#378=ADVANCED_FACE('',(#341),#370,.F.);
#379=ADVANCED_FACE('',(#342,#343),#22,.F.);
#380=ADVANCED_FACE('',(#344),#23,.T.);
#381=ADVANCED_FACE('',(#345),#16,.T.);
#382=ADVANCED_FACE('',(#346),#24,.T.);
#383=ADVANCED_FACE('',(#347),#25,.T.);
#384=ADVANCED_FACE('',(#348),#26,.T.);
#385=ADVANCED_FACE('',(#349),#17,.T.);
#386=ADVANCED_FACE('',(#350),#27,.T.);
#387=ADVANCED_FACE('',(#351),#18,.T.);
#388=ADVANCED_FACE('',(#352),#19,.T.);
#389=ADVANCED_FACE('',(#353),#28,.T.);
#390=ADVANCED_FACE('',(#354),#20,.T.);
#391=ADVANCED_FACE('',(#355),#29,.T.);
#392=ADVANCED_FACE('',(#356),#30,.T.);
#393=ADVANCED_FACE('',(#357),#21,.T.);
#394=ADVANCED_FACE('',(#358),#31,.T.);
#395=ADVANCED_FACE('',(#359),#32,.T.);
#396=ADVANCED_FACE('',(#360),#33,.T.);
#397=ADVANCED_FACE('',(#361,#362),#12,.T.);
#398=CLOSED_SHELL('',(#371,#372,#373,#374,#375,#376,#377,#378,#379,#380,
#381,#382,#383,#384,#385,#386,#387,#388,#389,#390,#391,#392,#393,#394,#395,
#396,#397));
#399=STYLED_ITEM('',(#400),#407);
#400=PRESENTATION_STYLE_ASSIGNMENT((#401));
#401=SURFACE_STYLE_USAGE(.BOTH.,#402);
#402=SURFACE_SIDE_STYLE('',(#403));
#403=SURFACE_STYLE_FILL_AREA(#404);
#404=FILL_AREA_STYLE('',(#405));
#405=FILL_AREA_STYLE_COLOUR('',#406);
#406=COLOUR_RGB('',0.501960784313726,0.501960784313726,0.501960784313726);
#407=MANIFOLD_SOLID_BREP('Cut Block',#398);
#408=SHAPE_DEFINITION_REPRESENTATION(#725,#409);
#409=SHAPE_REPRESENTATION('Cut Block',(#410),#720);
#410=AXIS2_PLACEMENT_3D('',#595,#463,#464);
#411=AXIS2_PLACEMENT_3D('',#596,#465,#466);
#412=AXIS2_PLACEMENT_3D('',#597,#467,#468);
#413=AXIS2_PLACEMENT_3D('',#605,#472,#473);
#414=AXIS2_PLACEMENT_3D('',#609,#475,#476);
#415=AXIS2_PLACEMENT_3D('',#612,#478,#479);
#416=AXIS2_PLACEMENT_3D('',#616,#481,#482);
#417=AXIS2_PLACEMENT_3D('',#619,#484,#485);
#418=AXIS2_PLACEMENT_3D('',#625,#489,#490);
#419=AXIS2_PLACEMENT_3D('',#634,#495,#496);
#420=AXIS2_PLACEMENT_3D('',#636,#497,#498);
#421=AXIS2_PLACEMENT_3D('',#645,#503,#504);
#422=AXIS2_PLACEMENT_3D('',#654,#509,#510);
#423=AXIS2_PLACEMENT_3D('',#663,#515,#516);
#424=AXIS2_PLACEMENT_3D('',#664,#517,#518);
#425=AXIS2_PLACEMENT_3D('',#666,#519,#520);
#426=AXIS2_PLACEMENT_3D('',#667,#521,#522);
#427=AXIS2_PLACEMENT_3D('',#668,#523,#524);
#428=AXIS2_PLACEMENT_3D('',#669,#525,#526);
#429=AXIS2_PLACEMENT_3D('',#670,#527,#528);
#430=AXIS2_PLACEMENT_3D('',#671,#529,#530);
#431=AXIS2_PLACEMENT_3D('',#672,#531,#532);
#432=AXIS2_PLACEMENT_3D('',#673,#533,#534);
#433=AXIS2_PLACEMENT_3D('',#674,#535,#536);
#434=AXIS2_PLACEMENT_3D('',#675,#537,#538);
#435=AXIS2_PLACEMENT_3D('',#676,#539,#540);
#436=AXIS2_PLACEMENT_3D('',#677,#541,#542);
#437=AXIS2_PLACEMENT_3D('',#678,#543,#544);
#438=AXIS2_PLACEMENT_3D('',#679,#545,#546);
#439=AXIS2_PLACEMENT_3D('',#680,#547,#548);
#440=AXIS2_PLACEMENT_3D('',#681,#549,#550);
#441=AXIS2_PLACEMENT_3D('',#682,#551,#552);
#442=AXIS2_PLACEMENT_3D('',#683,#553,#554);
#443=AXIS2_PLACEMENT_3D('',#684,#555,#556);
#444=AXIS2_PLACEMENT_3D('',#685,#557,#558);
#445=AXIS2_PLACEMENT_3D('',#686,#559,#560);
#446=AXIS2_PLACEMENT_3D('',#687,#561,#562);
#447=AXIS2_PLACEMENT_3D('',#688,#563,#564);
#448=AXIS2_PLACEMENT_3D('',#689,#565,#566);
#449=AXIS2_PLACEMENT_3D('',#690,#567,#568);
#450=AXIS2_PLACEMENT_3D('',#691,#569,#570);
#451=AXIS2_PLACEMENT_3D('',#692,#571,#572);
#452=AXIS2_PLACEMENT_3D('',#693,#573,#574);
#453=AXIS2_PLACEMENT_3D('',#694,#575,#576);
#454=AXIS2_PLACEMENT_3D('',#695,#577,#578);
#455=AXIS2_PLACEMENT_3D('',#696,#579,#580);
#456=AXIS2_PLACEMENT_3D('',#697,#581,#582);
#457=AXIS2_PLACEMENT_3D('',#698,#583,#584);
#458=AXIS2_PLACEMENT_3D('',#699,#585,#586);
#459=AXIS2_PLACEMENT_3D('',#700,#587,#588);
#460=AXIS2_PLACEMENT_3D('',#706,#589,#590);
#461=AXIS2_PLACEMENT_3D('',#712,#591,#592);
#462=AXIS2_PLACEMENT_3D('',#718,#593,#594);
#463=DIRECTION('',(0.,0.,1.));
#464=DIRECTION('',(1.,0.,0.));
#465=DIRECTION('',(0.,-2.22044604925032E-16,-1.));
#466=DIRECTION('',(0.,1.,-5.55111512312578E-17));
#467=DIRECTION('',(0.,-2.22044604925032E-16,-1.));
#468=DIRECTION('',(0.,1.,-5.55111512312578E-17));
#469=DIRECTION('',(0.,-1.,5.55111512312578E-17));
#470=DIRECTION('',(-1.,0.,0.));
#471=DIRECTION('',(0.,-1.,5.55111512312578E-17));
#472=DIRECTION('',(0.,-2.22044604925032E-16,-1.));
#473=DIRECTION('',(0.,1.,-5.55111512312578E-17));
#474=DIRECTION('',(-1.,0.,0.));
#475=DIRECTION('',(0.,-2.22044604925032E-16,-1.));
#476=DIRECTION('',(0.,1.,-5.55111512312578E-17));
#477=DIRECTION('',(0.,-1.,5.55111512312578E-17));
#478=DIRECTION('',(0.,-2.22044604925032E-16,-1.));
#479=DIRECTION('',(0.,1.,-5.55111512312578E-17));
#480=DIRECTION('',(0.,-1.,5.55111512312578E-17));
#481=DIRECTION('',(0.,-2.22044604925032E-16,-1.));
#482=DIRECTION('',(0.,1.,-5.55111512312578E-17));
#483=DIRECTION('',(-1.,0.,0.));
#484=DIRECTION('',(0.,1.,0.));
#485=DIRECTION('',(0.,1.11022302462516E-16,1.));
#486=DIRECTION('',(0.,-1.11022302462516E-16,-1.));
#487=DIRECTION('',(-1.,0.,0.));
#488=DIRECTION('',(0.,-1.11022302462516E-16,-1.));
#489=DIRECTION('',(0.,-0.438371146789079,0.898794046299166));
#490=DIRECTION('',(0.,-0.898794046299167,-0.438371146789079));
#491=DIRECTION('',(0.,0.898794046299167,0.438371146789079));
#492=DIRECTION('',(-1.,0.,0.));
#493=DIRECTION('',(0.,0.898794046299167,0.438371146789079));
#494=DIRECTION('',(-1.,0.,0.));
#495=DIRECTION('',(0.,-0.438371146789079,0.898794046299166));
#496=DIRECTION('',(0.,-0.898794046299167,-0.438371146789079));
#497=DIRECTION('',(0.,1.,2.22044604925032E-16));
#498=DIRECTION('',(0.,-5.55111512312578E-17,1.));
#499=DIRECTION('',(0.,5.55111512312578E-17,-1.));
#500=DIRECTION('',(-1.,0.,0.));
#501=DIRECTION('',(0.,5.55111512312578E-17,-1.));
#502=DIRECTION('',(-1.,0.,0.));
#503=DIRECTION('',(1.,0.,0.));
#504=DIRECTION('',(0.,0.438371146789078,-0.898794046299167));
#505=DIRECTION('',(0.,0.898794046299167,0.438371146789079));
#506=DIRECTION('',(0.,5.55111512312578E-17,-1.));
#507=DIRECTION('',(0.,-1.,5.55111512312578E-17));
#508=DIRECTION('',(0.,-1.11022302462516E-16,-1.));
#509=DIRECTION('',(1.,0.,0.));
#510=DIRECTION('',(0.,0.438371146789078,-0.898794046299167));
#511=DIRECTION('',(0.,-1.,5.55111512312578E-17));
#512=DIRECTION('',(0.,5.55111512312578E-17,-1.));
#513=DIRECTION('',(0.,0.898794046299167,0.438371146789079));
#514=DIRECTION('',(0.,-1.11022302462516E-16,-1.));
#515=DIRECTION('',(0.,-1.11022302462516E-16,-1.));
#516=DIRECTION('',(0.,1.,0.));
#517=DIRECTION('',(0.,-2.22044604925032E-16,-1.));
#518=DIRECTION('',(0.,1.,-5.55111512312578E-17));
#519=DIRECTION('',(1.,0.,0.));
#520=DIRECTION('',(0.,0.438371146789078,-0.898794046299167));
#521=DIRECTION('',(1.,0.,0.));
#522=DIRECTION('',(0.,0.438371146789078,-0.898794046299167));
#523=DIRECTION('',(-1.,1.4791141972894E-31,-9.65028352779829E-16));
#524=DIRECTION('',(-8.67361737988403E-16,-0.438371146789078,0.898794046299167));
#525=DIRECTION('',(1.,8.31551537164453E-15,4.0557478374714E-15));
#526=DIRECTION('',(9.25185853854296E-15,-0.898794046299167,-0.438371146789078));
#527=DIRECTION('',(-4.70539747588113E-15,-5.55111512312578E-17,1.));
#528=DIRECTION('',(0.,-1.,-2.22044604925032E-16));
#529=DIRECTION('',(0.,-0.898794046299163,-0.438371146789086));
#530=DIRECTION('',(0.,0.438371146789086,-0.898794046299163));
#531=DIRECTION('',(0.,0.898794046299167,0.438371146789079));
#532=DIRECTION('',(0.,-0.438371146789079,0.898794046299166));
#533=DIRECTION('',(0.,0.898794046299167,0.438371146789078));
#534=DIRECTION('',(1.,0.,0.));
#535=DIRECTION('',(-1.,0.,0.));
#536=DIRECTION('',(0.,-0.438371146789078,0.898794046299167));
#537=DIRECTION('',(-1.,0.,0.));
#538=DIRECTION('',(0.,-0.438371146789078,0.898794046299167));
#539=DIRECTION('',(1.,0.,0.));
#540=DIRECTION('',(0.,0.438371146789078,-0.898794046299167));
#541=DIRECTION('',(0.,-0.898794046299167,-0.438371146789079));
#542=DIRECTION('',(0.,0.438371146789079,-0.898794046299166));
#543=DIRECTION('',(0.,-0.898794046299167,-0.438371146789078));
#544=DIRECTION('',(-1.,0.,0.));
#545=DIRECTION('',(0.,0.898794046299171,0.438371146789069));
#546=DIRECTION('',(0.,-0.438371146789069,0.898794046299171));
#547=DIRECTION('',(-1.,0.,0.));
#548=DIRECTION('',(0.,-0.438371146789078,0.898794046299167));
#549=DIRECTION('',(0.,-2.77555756156289E-16,1.));
#550=DIRECTION('',(0.,-1.,-4.44089209850063E-16));
#551=DIRECTION('',(0.,-5.55111512312578E-17,1.));
#552=DIRECTION('',(0.,-1.,-2.22044604925032E-16));
#553=DIRECTION('',(0.,3.38618022510673E-15,-1.));
#554=DIRECTION('',(0.,1.,3.49720252756925E-15));
#555=DIRECTION('',(1.,1.90113179881472E-16,-3.89789783045837E-16));
#556=DIRECTION('',(-4.33680868994202E-16,0.438371146789078,-0.898794046299167));
#557=DIRECTION('',(0.,-3.33066907387547E-16,1.));
#558=DIRECTION('',(0.,-1.,-4.9960036108132E-16));
#559=DIRECTION('',(-1.,-8.12540219176306E-15,-4.44553762051724E-15));
#560=DIRECTION('',(-9.25185853854297E-15,0.898794046299167,0.438371146789078));
#561=DIRECTION('',(-3.92581790978946E-15,-1.11022302462516E-16,1.));
#562=DIRECTION('',(0.,-1.,-2.77555756156289E-16));
#563=DIRECTION('',(0.,5.55111512312578E-17,-1.));
#564=DIRECTION('',(0.,1.,2.22044604925032E-16));
#565=DIRECTION('',(-8.21350552329367E-15,-6.10622663543836E-16,-1.));
#566=DIRECTION('',(0.,1.,-4.9960036108132E-16));
#567=DIRECTION('',(0.,-1.,4.9960036108132E-16));
#568=DIRECTION('',(0.,-6.66133814775094E-16,-1.));
#569=DIRECTION('',(1.03433892903802E-14,-1.,-3.66373598126302E-15));
#570=DIRECTION('',(0.,3.5527136788005E-15,-1.));
#571=DIRECTION('',(1.,0.,0.));
#572=DIRECTION('',(0.,0.438371146789078,-0.898794046299167));
#573=DIRECTION('',(0.,-1.11022302462516E-16,-1.));
#574=DIRECTION('',(0.,1.,0.));
#575=DIRECTION('',(0.,-0.707106781186548,-0.707106781186548));
#576=DIRECTION('',(0.,0.707106781186548,-0.707106781186548));
#577=DIRECTION('',(0.,1.11022302462516E-16,1.));
#578=DIRECTION('',(0.,-1.,0.));
#579=DIRECTION('',(0.,0.707106781186548,0.707106781186548));
#580=DIRECTION('',(0.,-0.707106781186548,0.707106781186548));
#581=DIRECTION('',(8.67361737988403E-16,-1.,4.9960036108132E-16));
#582=DIRECTION('',(0.,-6.66133814775094E-16,-1.));
#583=DIRECTION('',(0.,-1.,4.77395900588817E-15));
#584=DIRECTION('',(0.,-4.88498130835069E-15,-1.));
#585=DIRECTION('',(-1.,-8.67361737988405E-16,-3.10613981430774E-30));
#586=DIRECTION('',(-7.79579566091678E-16,0.898794046299167,0.438371146789078));
#587=DIRECTION('',(1.,0.,0.));
#588=DIRECTION('',(0.,0.438371146789078,-0.898794046299167));
#589=DIRECTION('',(0.,-1.,5.55111512312578E-17));
#590=DIRECTION('',(0.,-1.66533453693773E-16,-1.));
#591=DIRECTION('',(0.,1.,-5.55111512312578E-17));
#592=DIRECTION('',(0.,1.66533453693773E-16,1.));
#593=DIRECTION('',(0.,-2.22044604925032E-16,-1.));
#594=DIRECTION('',(0.,1.,-5.55111512312578E-17));
#595=CARTESIAN_POINT('',(0.,0.,0.));
#596=CARTESIAN_POINT('',(0.025,1.11022302462516E-16,-0.0548636534828133));
#597=CARTESIAN_POINT('',(3.46944695195361E-18,-2.77555756156289E-17,-0.0548636534828133));
#598=CARTESIAN_POINT('',(0.022,0.00670820393249938,-0.0548636534828133));
#599=CARTESIAN_POINT('',(-0.022,0.00670820393249938,-0.0548636534828133));
#600=CARTESIAN_POINT('',(-0.022,0.025,-0.0548636534828133));
#601=CARTESIAN_POINT('',(-0.022,0.025,-0.0548636534828133));
#602=CARTESIAN_POINT('',(0.025,0.025,-0.0548636534828133));
#603=CARTESIAN_POINT('',(0.022,0.025,-0.0548636534828133));
#604=CARTESIAN_POINT('',(0.022,1.11022302462516E-16,-0.0548636534828133));
#605=CARTESIAN_POINT('',(0.025,1.11022302462516E-16,-0.0548636534828133));
#606=CARTESIAN_POINT('',(-0.025,-0.0219999999999998,-0.0548636534828133));
#607=CARTESIAN_POINT('',(0.022,-0.0219999999999998,-0.0548636534828133));
#608=CARTESIAN_POINT('',(0.00670820393250026,-0.0219999999999998,-0.0548636534828133));
#609=CARTESIAN_POINT('',(3.46944695195361E-18,-2.77555756156289E-17,-0.0548636534828133));
#610=CARTESIAN_POINT('',(0.022,-0.00670820393249941,-0.0548636534828133));
#611=CARTESIAN_POINT('',(0.022,1.11022302462516E-16,-0.0548636534828133));
#612=CARTESIAN_POINT('',(0.025,1.11022302462516E-16,-0.0548636534828133));
#613=CARTESIAN_POINT('',(-0.022,0.025,-0.0548636534828133));
#614=CARTESIAN_POINT('',(-0.022,-0.0219999999999998,-0.0548636534828133));
#615=CARTESIAN_POINT('',(-0.022,-0.00670820393249941,-0.0548636534828133));
#616=CARTESIAN_POINT('',(3.46944695195361E-18,-2.77555756156289E-17,-0.0548636534828133));
#617=CARTESIAN_POINT('',(-0.00670820393250026,-0.0219999999999998,-0.0548636534828133));
#618=CARTESIAN_POINT('',(-0.025,-0.0219999999999998,-0.0548636534828133));
#619=CARTESIAN_POINT('',(0.025,0.025,-0.00058999449369164));
#620=CARTESIAN_POINT('',(-0.022,0.025,0.05368366449543));
#621=CARTESIAN_POINT('',(-0.022,0.025,0.0488826609083069));
#622=CARTESIAN_POINT('',(0.025,0.025,0.0488826609083069));
#623=CARTESIAN_POINT('',(0.022,0.025,0.0488826609083069));
#624=CARTESIAN_POINT('',(0.022,0.025,-0.00058999449369164));
#625=CARTESIAN_POINT('',(0.025,1.11022302462516E-16,0.0414903497812835));
#626=CARTESIAN_POINT('',(-0.022,-0.0249999999999998,0.0292970350671371));
#627=CARTESIAN_POINT('',(-0.022,0.0206848865596327,0.0515790430472044));
#628=CARTESIAN_POINT('',(-0.022,-0.023315113440367,0.0301188091503066));
#629=CARTESIAN_POINT('',(0.025,-0.023315113440367,0.0301188091503066));
#630=CARTESIAN_POINT('',(0.022,-0.023315113440367,0.0301188091503066));
#631=CARTESIAN_POINT('',(0.022,1.11022302462516E-16,0.0414903497812835));
#632=CARTESIAN_POINT('',(0.022,0.0206848865596327,0.0515790430472044));
#633=CARTESIAN_POINT('',(0.025,0.0206848865596327,0.0515790430472044));
#634=CARTESIAN_POINT('',(3.46944695195361E-18,0.,0.0414903497812835));
#635=CARTESIAN_POINT('',(3.46944695195361E-18,-0.02,0.0317356980099662));
#636=CARTESIAN_POINT('',(0.025,-0.0249999999999998,-0.0127833092078381));
#637=CARTESIAN_POINT('',(-0.022,-0.0249999999999998,-0.0127833092078381));
#638=CARTESIAN_POINT('',(-0.022,-0.0249999999999998,0.0274224270114091));
#639=CARTESIAN_POINT('',(-0.022,-0.0249999999999998,-0.0518636534828133));
#640=CARTESIAN_POINT('',(0.025,-0.0249999999999998,-0.0518636534828133));
#641=CARTESIAN_POINT('',(0.022,-0.0249999999999998,-0.0518636534828133));
#642=CARTESIAN_POINT('',(0.022,-0.0249999999999998,0.0292970350671371));
#643=CARTESIAN_POINT('',(0.022,-0.0249999999999998,0.0274224270114091));
#644=CARTESIAN_POINT('',(-0.025,-0.0249999999999998,0.0274224270114091));
#645=CARTESIAN_POINT('',(0.025,0.00634338524674336,-0.245415774512052));
#646=CARTESIAN_POINT('',(0.025,-0.106603060585864,-0.0138412427287291));
#647=CARTESIAN_POINT('',(0.025,0.022,0.0488826609083069));
#648=CARTESIAN_POINT('',(0.025,-0.0219999999999998,0.0274224270114091));
#649=CARTESIAN_POINT('',(0.025,-0.0219999999999998,-0.0548636534828133));
#650=CARTESIAN_POINT('',(0.025,-0.0219999999999997,-0.0518636534828133));
#651=CARTESIAN_POINT('',(0.025,0.00634338524674338,-0.0518636534828133));
#652=CARTESIAN_POINT('',(0.025,0.022,-0.0518636534828133));
#653=CARTESIAN_POINT('',(0.025,0.022,-0.245415774512052));
#654=CARTESIAN_POINT('',(-0.025,0.00634338524674336,-0.245415774512052));
#655=CARTESIAN_POINT('',(-0.025,-0.0249999999999997,-0.0518636534828133));
#656=CARTESIAN_POINT('',(-0.025,0.022,-0.0518636534828133));
#657=CARTESIAN_POINT('',(-0.025,-0.0219999999999998,-0.0518636534828133));
#658=CARTESIAN_POINT('',(-0.025,-0.0219999999999997,-0.245415774512052));
#659=CARTESIAN_POINT('',(-0.025,-0.0219999999999998,0.0274224270114091));
#660=CARTESIAN_POINT('',(-0.025,0.0263151134403672,0.0509872823565326));
#661=CARTESIAN_POINT('',(-0.025,0.022,0.0488826609083069));
#662=CARTESIAN_POINT('',(-0.025,0.022,-0.0548636534828134));
#663=CARTESIAN_POINT('',(3.46944695195361E-18,0.,0.0606363465171867));
#664=CARTESIAN_POINT('',(3.46944695195361E-18,-2.77555756156289E-17,-0.0518636534828133));
#665=CARTESIAN_POINT('',(3.46944695195361E-18,0.02,-0.0518636534828133));
#666=CARTESIAN_POINT('',(0.025,-0.0219999999999998,0.0274224270114091));
#667=CARTESIAN_POINT('',(0.022,-0.0219999999999998,0.0274224270114091));
#668=CARTESIAN_POINT('',(-0.022,-0.0219999999999998,0.0274224270114091));
#669=CARTESIAN_POINT('',(0.022,-0.0219999999999998,0.0274224270114091));
#670=CARTESIAN_POINT('',(0.022,-0.0219999999999998,0.0274224270114091));
#671=CARTESIAN_POINT('',(0.022,-0.0219999999999998,0.0274224270114091));
#672=CARTESIAN_POINT('',(0.022,0.00131511344036733,0.0387939676423861));
#673=CARTESIAN_POINT('',(0.022,0.022,0.0488826609083069));
#674=CARTESIAN_POINT('',(0.025,0.022,0.0488826609083069));
#675=CARTESIAN_POINT('',(-0.022,0.022,0.0488826609083069));
#676=CARTESIAN_POINT('',(0.022,0.022,0.0488826609083069));
#677=CARTESIAN_POINT('',(-0.022,-0.106603060585864,-0.0138412427287291));
#678=CARTESIAN_POINT('',(-0.022,-0.0219999999999998,0.0274224270114091));
#679=CARTESIAN_POINT('',(-0.022,0.022,0.0488826609083069));
#680=CARTESIAN_POINT('',(-0.022,-0.0219999999999998,0.0274224270114091));
#681=CARTESIAN_POINT('',(-0.022,-0.0219999999999998,0.0274224270114091));
#682=CARTESIAN_POINT('',(0.022,-0.0219999999999997,-0.245415774512052));
#683=CARTESIAN_POINT('',(0.022,-0.0219999999999997,-0.0518636534828133));
#684=CARTESIAN_POINT('',(0.022,0.022,0.0488826609083069));
#685=CARTESIAN_POINT('',(0.022,0.022,0.0488826609083069));
#686=CARTESIAN_POINT('',(-0.022,0.022,0.0488826609083069));
#687=CARTESIAN_POINT('',(-0.022,0.022,0.0488826609083069));
#688=CARTESIAN_POINT('',(-0.022,-0.0219999999999998,-0.0127833092078381));
#689=CARTESIAN_POINT('',(-0.022,-0.0219999999999998,-0.0518636534828133));
#690=CARTESIAN_POINT('',(0.022,-0.0219999999999998,-0.0518636534828133));
#691=CARTESIAN_POINT('',(0.022,-0.0219999999999998,-0.0518636534828133));
#692=CARTESIAN_POINT('',(0.022,-0.0219999999999998,-0.0518636534828133));
#693=CARTESIAN_POINT('',(0.022,0.022,-0.00058999449369164));
#694=CARTESIAN_POINT('',(0.022,0.022,-0.0518636534828133));
#695=CARTESIAN_POINT('',(-0.022,0.022,-0.245415774512052));
#696=CARTESIAN_POINT('',(-0.022,0.022,-0.0518636534828133));
#697=CARTESIAN_POINT('',(-0.022,-0.0219999999999998,-0.0518636534828133));
#698=CARTESIAN_POINT('',(-0.022,-0.0219999999999998,-0.0518636534828133));
#699=CARTESIAN_POINT('',(-0.022,-0.0219999999999998,-0.0518636534828133));
#700=CARTESIAN_POINT('',(0.025,-0.0219999999999998,-0.0518636534828133));
#701=CARTESIAN_POINT('',(0.00670820393250029,-0.0219999999999998,-0.0548636534828133));
#702=CARTESIAN_POINT('',(0.00448893525949144,-0.0223303343194018,-0.0548636534828133));
#703=CARTESIAN_POINT('',(-7.10685784073269E-6,-0.0226696653997987,-0.0547797333133424));
#704=CARTESIAN_POINT('',(-0.00448893525955166,-0.0223303343198067,-0.0548636534828133));
#705=CARTESIAN_POINT('',(-0.00670820393250027,-0.0219999999999998,-0.0548636534828133));
#706=CARTESIAN_POINT('',(0.022,1.11022302462516E-16,-0.0518636534828133));
#707=CARTESIAN_POINT('',(0.022,0.00670820393249938,-0.0548636534828133));
#708=CARTESIAN_POINT('',(0.0223303343190431,0.00448893525943758,-0.0548636534828133));
#709=CARTESIAN_POINT('',(0.0226696654002113,-7.10685784838109E-6,-0.0547797333133424));
#710=CARTESIAN_POINT('',(0.0223303343193407,-0.00448893525948191,-0.0548636534828133));
#711=CARTESIAN_POINT('',(0.022,-0.00670820393249944,-0.0548636534828133));
#712=CARTESIAN_POINT('',(-0.022,0.00634338524674341,-0.0518636534828133));
#713=CARTESIAN_POINT('',(-0.022,-0.00670820393249944,-0.0548636534828133));
#714=CARTESIAN_POINT('',(-0.0223303343175934,-0.00448893525922273,-0.0548636534828133));
#715=CARTESIAN_POINT('',(-0.0226696654016447,7.10685784351518E-6,-0.0547797333133424));
#716=CARTESIAN_POINT('',(-0.0223303343179234,0.00448893525927177,-0.0548636534828133));
#717=CARTESIAN_POINT('',(-0.022,0.00670820393249938,-0.0548636534828133));
#718=CARTESIAN_POINT('',(3.46944695195361E-18,-2.77555756156289E-17,-0.0518636534828133));
#719=MECHANICAL_DESIGN_GEOMETRIC_PRESENTATION_REPRESENTATION('',(#399),
#720);
#720=(
GEOMETRIC_REPRESENTATION_CONTEXT(3)
GLOBAL_UNCERTAINTY_ASSIGNED_CONTEXT((#721))
GLOBAL_UNIT_ASSIGNED_CONTEXT((#724,#723,#722))
REPRESENTATION_CONTEXT('Cut Block','TOP_LEVEL_ASSEMBLY_PART')
);
#721=UNCERTAINTY_MEASURE_WITH_UNIT(LENGTH_MEASURE(2.E-5),#724,
'DISTANCE_ACCURACY_VALUE','Maximum Tolerance applied to model');
#722=(
NAMED_UNIT(*)
SI_UNIT($,.STERADIAN.)
SOLID_ANGLE_UNIT()
);
#723=(
NAMED_UNIT(*)
PLANE_ANGLE_UNIT()
SI_UNIT($,.RADIAN.)
);
#724=(
LENGTH_UNIT()
NAMED_UNIT(*)
SI_UNIT($,.METRE.)
);
#725=PRODUCT_DEFINITION_SHAPE('','',#726);
#726=PRODUCT_DEFINITION('','',#728,#727);
#727=PRODUCT_DEFINITION_CONTEXT('',#734,'design');
#728=PRODUCT_DEFINITION_FORMATION_WITH_SPECIFIED_SOURCE('','',#730,
 .NOT_KNOWN.);
#729=PRODUCT_RELATED_PRODUCT_CATEGORY('','',(#730));
#730=PRODUCT('Cut Block','Cut Block','Cut Block',(#732));
#731=PRODUCT_CATEGORY('','');
#732=PRODUCT_CONTEXT('',#734,'mechanical');
#733=APPLICATION_PROTOCOL_DEFINITION('international standard',
'ap242_managed_model_based_3d_engineering',2020,#734);
#734=APPLICATION_CONTEXT('managed model based 3d engineering');
ENDSEC;
END-ISO-10303-21;
