ISO-10303-21;
HEADER;
/* Generated by software containing ST-Developer
 * from STEP Tools, Inc. (www.steptools.com) 
 */
/* OPTION: using custom renumber hook */

FILE_DESCRIPTION(
/* description */ ('STEP AP242 Edition 2',
'CAx-IF Rec.Pracs.---Representation and Presentation of Product Manufa
cturing Information (PMI)---4.0---2014-10-13',
'CAx-IF Rec.Pracs.---3D Tessellated Geometry---0.4---2014-09-14','2;1',
'CAx-IF Rec.Pracs.---User Defined Attributes---1.5---2016-08-15'),
/* implementation_level */ '2;1');

FILE_NAME(
/* name */ 'Printed Back 2x - Printed Back',
/* time_stamp */ '2026-08-06T02:48:53Z',
/* author */ (''),
/* organization */ (''),
/* preprocessor_version */ 'ST-DEVELOPER v20',
/* originating_system */ 'ONSHAPE BY PTC INC, 1.218',
/* authorisation */ '  ');

FILE_SCHEMA (('AP242_MANAGED_MODEL_BASED_3D_ENGINEERING_MIM_LF { 1 0 10303 442 3 1 4 }'));
ENDSEC;

DATA;
#10=SHAPE_REPRESENTATION_RELATIONSHIP('','',#273,#11);
#11=ADVANCED_BREP_SHAPE_REPRESENTATION('',(#271),#451);
#12=PLANE('',#278);
#13=PLANE('',#279);
#14=PLANE('',#283);
#15=PLANE('',#287);
#16=PLANE('',#288);
#17=PLANE('',#292);
#18=PLANE('',#299);
#19=PLANE('',#300);
#20=LINE('',#382,#42);
#21=LINE('',#386,#43);
#22=LINE('',#388,#44);
#23=LINE('',#390,#45);
#24=LINE('',#392,#46);
#25=LINE('',#394,#47);
#26=LINE('',#396,#48);
#27=LINE('',#398,#49);
#28=LINE('',#404,#50);
#29=LINE('',#406,#51);
#30=LINE('',#408,#52);
#31=LINE('',#410,#53);
#32=LINE('',#416,#54);
#33=LINE('',#418,#55);
#34=LINE('',#420,#56);
#35=LINE('',#422,#57);
#36=LINE('',#424,#58);
#37=LINE('',#426,#59);
#38=LINE('',#428,#60);
#39=LINE('',#434,#61);
#40=LINE('',#436,#62);
#41=LINE('',#437,#63);
#42=VECTOR('',#307,1.);
#43=VECTOR('',#310,1.);
#44=VECTOR('',#313,1.);
#45=VECTOR('',#314,1.);
#46=VECTOR('',#315,1.);
#47=VECTOR('',#318,1.);
#48=VECTOR('',#319,1.);
#49=VECTOR('',#320,1.);
#50=VECTOR('',#327,1.);
#51=VECTOR('',#330,1.);
#52=VECTOR('',#331,1.);
#53=VECTOR('',#332,1.);
#54=VECTOR('',#339,1.);
#55=VECTOR('',#342,1.);
#56=VECTOR('',#343,1.);
#57=VECTOR('',#344,1.);
#58=VECTOR('',#347,1.);
#59=VECTOR('',#348,1.);
#60=VECTOR('',#349,1.);
#61=VECTOR('',#356,1.);
#62=VECTOR('',#359,1.);
#63=VECTOR('',#360,1.);
#64=ORIENTED_EDGE('',*,*,#132,.F.);
#65=ORIENTED_EDGE('',*,*,#133,.F.);
#66=ORIENTED_EDGE('',*,*,#134,.T.);
#67=ORIENTED_EDGE('',*,*,#135,.T.);
#68=ORIENTED_EDGE('',*,*,#136,.F.);
#69=ORIENTED_EDGE('',*,*,#135,.F.);
#70=ORIENTED_EDGE('',*,*,#137,.T.);
#71=ORIENTED_EDGE('',*,*,#138,.T.);
#72=ORIENTED_EDGE('',*,*,#139,.F.);
#73=ORIENTED_EDGE('',*,*,#138,.F.);
#74=ORIENTED_EDGE('',*,*,#140,.T.);
#75=ORIENTED_EDGE('',*,*,#141,.T.);
#76=ORIENTED_EDGE('',*,*,#142,.F.);
#77=ORIENTED_EDGE('',*,*,#141,.F.);
#78=ORIENTED_EDGE('',*,*,#143,.T.);
#79=ORIENTED_EDGE('',*,*,#144,.T.);
#80=ORIENTED_EDGE('',*,*,#145,.F.);
#81=ORIENTED_EDGE('',*,*,#144,.F.);
#82=ORIENTED_EDGE('',*,*,#146,.T.);
#83=ORIENTED_EDGE('',*,*,#147,.T.);
#84=ORIENTED_EDGE('',*,*,#148,.F.);
#85=ORIENTED_EDGE('',*,*,#147,.F.);
#86=ORIENTED_EDGE('',*,*,#149,.T.);
#87=ORIENTED_EDGE('',*,*,#150,.T.);
#88=ORIENTED_EDGE('',*,*,#151,.F.);
#89=ORIENTED_EDGE('',*,*,#150,.F.);
#90=ORIENTED_EDGE('',*,*,#152,.T.);
#91=ORIENTED_EDGE('',*,*,#153,.T.);
#92=ORIENTED_EDGE('',*,*,#154,.F.);
#93=ORIENTED_EDGE('',*,*,#153,.F.);
#94=ORIENTED_EDGE('',*,*,#155,.T.);
#95=ORIENTED_EDGE('',*,*,#156,.T.);
#96=ORIENTED_EDGE('',*,*,#157,.F.);
#97=ORIENTED_EDGE('',*,*,#156,.F.);
#98=ORIENTED_EDGE('',*,*,#158,.T.);
#99=ORIENTED_EDGE('',*,*,#159,.T.);
#100=ORIENTED_EDGE('',*,*,#160,.F.);
#101=ORIENTED_EDGE('',*,*,#159,.F.);
#102=ORIENTED_EDGE('',*,*,#161,.T.);
#103=ORIENTED_EDGE('',*,*,#133,.T.);
#104=ORIENTED_EDGE('',*,*,#162,.F.);
#105=ORIENTED_EDGE('',*,*,#163,.T.);
#106=ORIENTED_EDGE('',*,*,#164,.F.);
#107=ORIENTED_EDGE('',*,*,#165,.T.);
#108=ORIENTED_EDGE('',*,*,#162,.T.);
#109=ORIENTED_EDGE('',*,*,#134,.F.);
#110=ORIENTED_EDGE('',*,*,#161,.F.);
#111=ORIENTED_EDGE('',*,*,#158,.F.);
#112=ORIENTED_EDGE('',*,*,#155,.F.);
#113=ORIENTED_EDGE('',*,*,#152,.F.);
#114=ORIENTED_EDGE('',*,*,#149,.F.);
#115=ORIENTED_EDGE('',*,*,#146,.F.);
#116=ORIENTED_EDGE('',*,*,#143,.F.);
#117=ORIENTED_EDGE('',*,*,#140,.F.);
#118=ORIENTED_EDGE('',*,*,#137,.F.);
#119=ORIENTED_EDGE('',*,*,#164,.T.);
#120=ORIENTED_EDGE('',*,*,#163,.F.);
#121=ORIENTED_EDGE('',*,*,#132,.T.);
#122=ORIENTED_EDGE('',*,*,#136,.T.);
#123=ORIENTED_EDGE('',*,*,#139,.T.);
#124=ORIENTED_EDGE('',*,*,#142,.T.);
#125=ORIENTED_EDGE('',*,*,#145,.T.);
#126=ORIENTED_EDGE('',*,*,#148,.T.);
#127=ORIENTED_EDGE('',*,*,#151,.T.);
#128=ORIENTED_EDGE('',*,*,#154,.T.);
#129=ORIENTED_EDGE('',*,*,#157,.T.);
#130=ORIENTED_EDGE('',*,*,#160,.T.);
#131=ORIENTED_EDGE('',*,*,#165,.F.);
#132=EDGE_CURVE('',#166,#167,#190,.T.);
#133=EDGE_CURVE('',#168,#166,#20,.T.);
#134=EDGE_CURVE('',#168,#169,#191,.T.);
#135=EDGE_CURVE('',#169,#167,#21,.T.);
#136=EDGE_CURVE('',#167,#170,#22,.T.);
#137=EDGE_CURVE('',#169,#171,#23,.T.);
#138=EDGE_CURVE('',#171,#170,#24,.T.);
#139=EDGE_CURVE('',#170,#172,#25,.T.);
#140=EDGE_CURVE('',#171,#173,#26,.T.);
#141=EDGE_CURVE('',#173,#172,#27,.T.);
#142=EDGE_CURVE('',#172,#174,#192,.T.);
#143=EDGE_CURVE('',#173,#175,#193,.T.);
#144=EDGE_CURVE('',#175,#174,#28,.T.);
#145=EDGE_CURVE('',#174,#176,#29,.T.);
#146=EDGE_CURVE('',#175,#177,#30,.T.);
#147=EDGE_CURVE('',#177,#176,#31,.T.);
#148=EDGE_CURVE('',#176,#178,#194,.T.);
#149=EDGE_CURVE('',#177,#179,#195,.T.);
#150=EDGE_CURVE('',#179,#178,#32,.T.);
#151=EDGE_CURVE('',#178,#180,#33,.T.);
#152=EDGE_CURVE('',#179,#181,#34,.T.);
#153=EDGE_CURVE('',#181,#180,#35,.T.);
#154=EDGE_CURVE('',#180,#182,#36,.T.);
#155=EDGE_CURVE('',#181,#183,#37,.T.);
#156=EDGE_CURVE('',#183,#182,#38,.T.);
#157=EDGE_CURVE('',#182,#184,#196,.T.);
#158=EDGE_CURVE('',#183,#185,#197,.T.);
#159=EDGE_CURVE('',#185,#184,#39,.T.);
#160=EDGE_CURVE('',#184,#166,#40,.T.);
#161=EDGE_CURVE('',#185,#168,#41,.T.);
#162=EDGE_CURVE('',#186,#186,#198,.T.);
#163=EDGE_CURVE('',#187,#187,#199,.T.);
#164=EDGE_CURVE('',#188,#188,#200,.T.);
#165=EDGE_CURVE('',#189,#189,#201,.T.);
#166=VERTEX_POINT('',#380);
#167=VERTEX_POINT('',#381);
#168=VERTEX_POINT('',#383);
#169=VERTEX_POINT('',#385);
#170=VERTEX_POINT('',#389);
#171=VERTEX_POINT('',#391);
#172=VERTEX_POINT('',#395);
#173=VERTEX_POINT('',#397);
#174=VERTEX_POINT('',#401);
#175=VERTEX_POINT('',#403);
#176=VERTEX_POINT('',#407);
#177=VERTEX_POINT('',#409);
#178=VERTEX_POINT('',#413);
#179=VERTEX_POINT('',#415);
#180=VERTEX_POINT('',#419);
#181=VERTEX_POINT('',#421);
#182=VERTEX_POINT('',#425);
#183=VERTEX_POINT('',#427);
#184=VERTEX_POINT('',#431);
#185=VERTEX_POINT('',#433);
#186=VERTEX_POINT('',#440);
#187=VERTEX_POINT('',#442);
#188=VERTEX_POINT('',#445);
#189=VERTEX_POINT('',#447);
#190=CIRCLE('',#276,0.002);
#191=CIRCLE('',#277,0.002);
#192=CIRCLE('',#281,0.002);
#193=CIRCLE('',#282,0.002);
#194=CIRCLE('',#285,0.002);
#195=CIRCLE('',#286,0.002);
#196=CIRCLE('',#290,0.002);
#197=CIRCLE('',#291,0.002);
#198=CIRCLE('',#294,0.0021);
#199=CIRCLE('',#295,0.0021);
#200=CIRCLE('',#297,0.0021);
#201=CIRCLE('',#298,0.0021);
#202=EDGE_LOOP('',(#64,#65,#66,#67));
#203=EDGE_LOOP('',(#68,#69,#70,#71));
#204=EDGE_LOOP('',(#72,#73,#74,#75));
#205=EDGE_LOOP('',(#76,#77,#78,#79));
#206=EDGE_LOOP('',(#80,#81,#82,#83));
#207=EDGE_LOOP('',(#84,#85,#86,#87));
#208=EDGE_LOOP('',(#88,#89,#90,#91));
#209=EDGE_LOOP('',(#92,#93,#94,#95));
#210=EDGE_LOOP('',(#96,#97,#98,#99));
#211=EDGE_LOOP('',(#100,#101,#102,#103));
#212=EDGE_LOOP('',(#104));
#213=EDGE_LOOP('',(#105));
#214=EDGE_LOOP('',(#106));
#215=EDGE_LOOP('',(#107));
#216=EDGE_LOOP('',(#108));
#217=EDGE_LOOP('',(#109,#110,#111,#112,#113,#114,#115,#116,#117,#118));
#218=EDGE_LOOP('',(#119));
#219=EDGE_LOOP('',(#120));
#220=EDGE_LOOP('',(#121,#122,#123,#124,#125,#126,#127,#128,#129,#130));
#221=EDGE_LOOP('',(#131));
#222=FACE_BOUND('',#202,.T.);
#223=FACE_BOUND('',#203,.T.);
#224=FACE_BOUND('',#204,.T.);
#225=FACE_BOUND('',#205,.T.);
#226=FACE_BOUND('',#206,.T.);
#227=FACE_BOUND('',#207,.T.);
#228=FACE_BOUND('',#208,.T.);
#229=FACE_BOUND('',#209,.T.);
#230=FACE_BOUND('',#210,.T.);
#231=FACE_BOUND('',#211,.T.);
#232=FACE_BOUND('',#212,.T.);
#233=FACE_BOUND('',#213,.T.);
#234=FACE_BOUND('',#214,.T.);
#235=FACE_BOUND('',#215,.T.);
#236=FACE_BOUND('',#216,.T.);
#237=FACE_BOUND('',#217,.T.);
#238=FACE_BOUND('',#218,.T.);
#239=FACE_BOUND('',#219,.T.);
#240=FACE_BOUND('',#220,.T.);
#241=FACE_BOUND('',#221,.T.);
#242=CYLINDRICAL_SURFACE('',#275,0.002);
#243=CYLINDRICAL_SURFACE('',#280,0.002);
#244=CYLINDRICAL_SURFACE('',#284,0.002);
#245=CYLINDRICAL_SURFACE('',#289,0.002);
#246=CYLINDRICAL_SURFACE('',#293,0.0021);
#247=CYLINDRICAL_SURFACE('',#296,0.0021);
#248=ADVANCED_FACE('',(#222),#242,.T.);
#249=ADVANCED_FACE('',(#223),#12,.T.);
#250=ADVANCED_FACE('',(#224),#13,.T.);
#251=ADVANCED_FACE('',(#225),#243,.T.);
#252=ADVANCED_FACE('',(#226),#14,.T.);
#253=ADVANCED_FACE('',(#227),#244,.T.);
#254=ADVANCED_FACE('',(#228),#15,.T.);
#255=ADVANCED_FACE('',(#229),#16,.T.);
#256=ADVANCED_FACE('',(#230),#245,.T.);
#257=ADVANCED_FACE('',(#231),#17,.T.);
#258=ADVANCED_FACE('',(#232,#233),#246,.F.);
#259=ADVANCED_FACE('',(#234,#235),#247,.F.);
#260=ADVANCED_FACE('',(#236,#237,#238),#18,.F.);
#261=ADVANCED_FACE('',(#239,#240,#241),#19,.T.);
#262=CLOSED_SHELL('',(#248,#249,#250,#251,#252,#253,#254,#255,#256,#257,
#258,#259,#260,#261));
#263=STYLED_ITEM('',(#264),#271);
#264=PRESENTATION_STYLE_ASSIGNMENT((#265));
#265=SURFACE_STYLE_USAGE(.BOTH.,#266);
#266=SURFACE_SIDE_STYLE('',(#267));
#267=SURFACE_STYLE_FILL_AREA(#268);
#268=FILL_AREA_STYLE('',(#269));
#269=FILL_AREA_STYLE_COLOUR('',#270);
#270=COLOUR_RGB('',0.901960784313726,0.901960784313726,0.901960784313726);
#271=MANIFOLD_SOLID_BREP('Printed Back',#262);
#272=SHAPE_DEFINITION_REPRESENTATION(#456,#273);
#273=SHAPE_REPRESENTATION('Printed Back',(#274),#451);
#274=AXIS2_PLACEMENT_3D('',#377,#301,#302);
#275=AXIS2_PLACEMENT_3D('',#378,#303,#304);
#276=AXIS2_PLACEMENT_3D('',#379,#305,#306);
#277=AXIS2_PLACEMENT_3D('',#384,#308,#309);
#278=AXIS2_PLACEMENT_3D('',#387,#311,#312);
#279=AXIS2_PLACEMENT_3D('',#393,#316,#317);
#280=AXIS2_PLACEMENT_3D('',#399,#321,#322);
#281=AXIS2_PLACEMENT_3D('',#400,#323,#324);
#282=AXIS2_PLACEMENT_3D('',#402,#325,#326);
#283=AXIS2_PLACEMENT_3D('',#405,#328,#329);
#284=AXIS2_PLACEMENT_3D('',#411,#333,#334);
#285=AXIS2_PLACEMENT_3D('',#412,#335,#336);
#286=AXIS2_PLACEMENT_3D('',#414,#337,#338);
#287=AXIS2_PLACEMENT_3D('',#417,#340,#341);
#288=AXIS2_PLACEMENT_3D('',#423,#345,#346);
#289=AXIS2_PLACEMENT_3D('',#429,#350,#351);
#290=AXIS2_PLACEMENT_3D('',#430,#352,#353);
#291=AXIS2_PLACEMENT_3D('',#432,#354,#355);
#292=AXIS2_PLACEMENT_3D('',#435,#357,#358);
#293=AXIS2_PLACEMENT_3D('',#438,#361,#362);
#294=AXIS2_PLACEMENT_3D('',#439,#363,#364);
#295=AXIS2_PLACEMENT_3D('',#441,#365,#366);
#296=AXIS2_PLACEMENT_3D('',#443,#367,#368);
#297=AXIS2_PLACEMENT_3D('',#444,#369,#370);
#298=AXIS2_PLACEMENT_3D('',#446,#371,#372);
#299=AXIS2_PLACEMENT_3D('',#448,#373,#374);
#300=AXIS2_PLACEMENT_3D('',#449,#375,#376);
#301=DIRECTION('',(0.,0.,1.));
#302=DIRECTION('',(1.,0.,0.));
#303=DIRECTION('',(1.,0.,0.));
#304=DIRECTION('',(0.,0.,-1.));
#305=DIRECTION('',(1.,0.,0.));
#306=DIRECTION('',(0.,0.,-1.));
#307=DIRECTION('',(1.,0.,0.));
#308=DIRECTION('',(1.,0.,0.));
#309=DIRECTION('',(0.,0.,-1.));
#310=DIRECTION('',(1.,0.,0.));
#311=DIRECTION('',(0.,0.939692620785908,0.342020143325668));
#312=DIRECTION('',(0.,-0.342020143325668,0.939692620785909));
#313=DIRECTION('',(0.,-0.342020143325668,0.939692620785909));
#314=DIRECTION('',(0.,-0.342020143325668,0.939692620785909));
#315=DIRECTION('',(1.,0.,0.));
#316=DIRECTION('',(0.,0.939692620785909,-0.342020143325667));
#317=DIRECTION('',(0.,0.342020143325667,0.939692620785909));
#318=DIRECTION('',(0.,0.342020143325667,0.939692620785909));
#319=DIRECTION('',(0.,0.342020143325667,0.939692620785909));
#320=DIRECTION('',(1.,0.,0.));
#321=DIRECTION('',(1.,0.,0.));
#322=DIRECTION('',(0.,0.,-1.));
#323=DIRECTION('',(1.,0.,0.));
#324=DIRECTION('',(0.,0.,-1.));
#325=DIRECTION('',(1.,0.,0.));
#326=DIRECTION('',(0.,0.,-1.));
#327=DIRECTION('',(1.,0.,0.));
#328=DIRECTION('',(0.,0.,1.));
#329=DIRECTION('',(1.,0.,0.));
#330=DIRECTION('',(0.,-1.,0.));
#331=DIRECTION('',(0.,-1.,0.));
#332=DIRECTION('',(1.,0.,0.));
#333=DIRECTION('',(1.,0.,0.));
#334=DIRECTION('',(0.,0.,-1.));
#335=DIRECTION('',(1.,0.,0.));
#336=DIRECTION('',(0.,0.,-1.));
#337=DIRECTION('',(1.,0.,0.));
#338=DIRECTION('',(0.,0.,-1.));
#339=DIRECTION('',(1.,0.,0.));
#340=DIRECTION('',(0.,-0.939692620785909,-0.342020143325666));
#341=DIRECTION('',(0.,0.342020143325666,-0.939692620785909));
#342=DIRECTION('',(0.,0.342020143325666,-0.939692620785909));
#343=DIRECTION('',(0.,0.342020143325666,-0.939692620785909));
#344=DIRECTION('',(1.,0.,0.));
#345=DIRECTION('',(0.,-0.939692620785908,0.342020143325669));
#346=DIRECTION('',(0.,-0.342020143325669,-0.939692620785908));
#347=DIRECTION('',(0.,-0.342020143325669,-0.939692620785908));
#348=DIRECTION('',(0.,-0.342020143325669,-0.939692620785908));
#349=DIRECTION('',(1.,0.,0.));
#350=DIRECTION('',(1.,0.,0.));
#351=DIRECTION('',(0.,0.,-1.));
#352=DIRECTION('',(1.,0.,0.));
#353=DIRECTION('',(0.,0.,-1.));
#354=DIRECTION('',(1.,0.,0.));
#355=DIRECTION('',(0.,0.,-1.));
#356=DIRECTION('',(1.,0.,0.));
#357=DIRECTION('',(0.,0.,-1.));
#358=DIRECTION('',(-1.,0.,0.));
#359=DIRECTION('',(0.,1.,0.));
#360=DIRECTION('',(0.,1.,0.));
#361=DIRECTION('',(1.,0.,0.));
#362=DIRECTION('',(0.,0.,-1.));
#363=DIRECTION('',(1.,0.,0.));
#364=DIRECTION('',(0.,0.,-1.));
#365=DIRECTION('',(1.,0.,0.));
#366=DIRECTION('',(0.,0.,-1.));
#367=DIRECTION('',(1.,0.,0.));
#368=DIRECTION('',(0.,0.,-1.));
#369=DIRECTION('',(1.,0.,0.));
#370=DIRECTION('',(0.,0.,-1.));
#371=DIRECTION('',(1.,0.,0.));
#372=DIRECTION('',(0.,0.,-1.));
#373=DIRECTION('',(1.,0.,0.));
#374=DIRECTION('',(0.,1.,0.));
#375=DIRECTION('',(1.,0.,0.));
#376=DIRECTION('',(0.,1.,0.));
#377=CARTESIAN_POINT('',(0.,0.,0.));
#378=CARTESIAN_POINT('',(0.0943,-0.120263033484331,-0.0365981047153474));
#379=CARTESIAN_POINT('',(0.1,-0.120263033484331,-0.0365981047153474));
#380=CARTESIAN_POINT('',(0.1,-0.120263033484331,-0.0385981047153473));
#381=CARTESIAN_POINT('',(0.1,-0.118383648242759,-0.035914064428696));
#382=CARTESIAN_POINT('',(0.0943,-0.120263033484331,-0.0385981047153473));
#383=CARTESIAN_POINT('',(0.0943,-0.120263033484331,-0.0385981047153473));
#384=CARTESIAN_POINT('',(0.0943,-0.120263033484331,-0.0365981047153474));
#385=CARTESIAN_POINT('',(0.0943,-0.118383648242759,-0.035914064428696));
#386=CARTESIAN_POINT('',(0.0943,-0.118383648242759,-0.035914064428696));
#387=CARTESIAN_POINT('',(0.0943,-0.119897029145267,-0.0317560845720217));
#388=CARTESIAN_POINT('',(0.1,-0.119897029145267,-0.0317560845720217));
#389=CARTESIAN_POINT('',(0.1,-0.121410410047775,-0.0275981047153473));
#390=CARTESIAN_POINT('',(0.0943,-0.119897029145267,-0.0317560845720217));
#391=CARTESIAN_POINT('',(0.0943,-0.121410410047775,-0.0275981047153473));
#392=CARTESIAN_POINT('',(0.0943,-0.121410410047775,-0.0275981047153473));
#393=CARTESIAN_POINT('',(0.0943,-0.119897029145267,-0.023440124858673));
#394=CARTESIAN_POINT('',(0.1,-0.119897029145267,-0.023440124858673));
#395=CARTESIAN_POINT('',(0.1,-0.118383648242759,-0.0192821450019987));
#396=CARTESIAN_POINT('',(0.0943,-0.119897029145267,-0.023440124858673));
#397=CARTESIAN_POINT('',(0.0943,-0.118383648242759,-0.0192821450019987));
#398=CARTESIAN_POINT('',(0.0943,-0.118383648242759,-0.0192821450019987));
#399=CARTESIAN_POINT('',(0.0943,-0.120263033484331,-0.0185981047153474));
#400=CARTESIAN_POINT('',(0.1,-0.120263033484331,-0.0185981047153474));
#401=CARTESIAN_POINT('',(0.1,-0.120263033484331,-0.0165981047153473));
#402=CARTESIAN_POINT('',(0.0943,-0.120263033484331,-0.0185981047153474));
#403=CARTESIAN_POINT('',(0.0943,-0.120263033484331,-0.0165981047153473));
#404=CARTESIAN_POINT('',(0.0943,-0.120263033484331,-0.0165981047153473));
#405=CARTESIAN_POINT('',(0.0943,-0.130406737470847,-0.0165981047153473));
#406=CARTESIAN_POINT('',(0.1,-0.130406737470847,-0.0165981047153473));
#407=CARTESIAN_POINT('',(0.1,-0.140550441457362,-0.0165981047153473));
#408=CARTESIAN_POINT('',(0.0943,-0.130406737470847,-0.0165981047153473));
#409=CARTESIAN_POINT('',(0.0943,-0.140550441457362,-0.0165981047153473));
#410=CARTESIAN_POINT('',(0.0943,-0.140550441457362,-0.0165981047153473));
#411=CARTESIAN_POINT('',(0.0943,-0.140550441457362,-0.0185981047153474));
#412=CARTESIAN_POINT('',(0.1,-0.140550441457362,-0.0185981047153474));
#413=CARTESIAN_POINT('',(0.1,-0.142429826698934,-0.0192821450019987));
#414=CARTESIAN_POINT('',(0.0943,-0.140550441457362,-0.0185981047153474));
#415=CARTESIAN_POINT('',(0.0943,-0.142429826698934,-0.0192821450019987));
#416=CARTESIAN_POINT('',(0.0943,-0.142429826698934,-0.0192821450019987));
#417=CARTESIAN_POINT('',(0.0943,-0.140916445796426,-0.023440124858673));
#418=CARTESIAN_POINT('',(0.1,-0.140916445796426,-0.023440124858673));
#419=CARTESIAN_POINT('',(0.1,-0.139403064893918,-0.0275981047153473));
#420=CARTESIAN_POINT('',(0.0943,-0.140916445796426,-0.023440124858673));
#421=CARTESIAN_POINT('',(0.0943,-0.139403064893918,-0.0275981047153473));
#422=CARTESIAN_POINT('',(0.0943,-0.139403064893918,-0.0275981047153473));
#423=CARTESIAN_POINT('',(0.0943,-0.140916445796426,-0.0317560845720216));
#424=CARTESIAN_POINT('',(0.1,-0.140916445796426,-0.0317560845720216));
#425=CARTESIAN_POINT('',(0.1,-0.142429826698934,-0.035914064428696));
#426=CARTESIAN_POINT('',(0.0943,-0.140916445796426,-0.0317560845720216));
#427=CARTESIAN_POINT('',(0.0943,-0.142429826698934,-0.035914064428696));
#428=CARTESIAN_POINT('',(0.0943,-0.142429826698934,-0.035914064428696));
#429=CARTESIAN_POINT('',(0.0943,-0.140550441457362,-0.0365981047153474));
#430=CARTESIAN_POINT('',(0.1,-0.140550441457362,-0.0365981047153474));
#431=CARTESIAN_POINT('',(0.1,-0.140550441457362,-0.0385981047153473));
#432=CARTESIAN_POINT('',(0.0943,-0.140550441457362,-0.0365981047153474));
#433=CARTESIAN_POINT('',(0.0943,-0.140550441457362,-0.0385981047153473));
#434=CARTESIAN_POINT('',(0.0943,-0.140550441457362,-0.0385981047153473));
#435=CARTESIAN_POINT('',(0.0943,-0.130406737470847,-0.0385981047153473));
#436=CARTESIAN_POINT('',(0.1,-0.130406737470847,-0.0385981047153473));
#437=CARTESIAN_POINT('',(0.0943,-0.130406737470847,-0.0385981047153473));
#438=CARTESIAN_POINT('',(0.0943,-0.130406737470847,-0.0327118901260579));
#439=CARTESIAN_POINT('',(0.0943,-0.130406737470847,-0.0327118901260579));
#440=CARTESIAN_POINT('',(0.0943,-0.130406737470847,-0.0348118901260579));
#441=CARTESIAN_POINT('',(0.1,-0.130406737470847,-0.0327118901260579));
#442=CARTESIAN_POINT('',(0.1,-0.130406737470847,-0.0348118901260579));
#443=CARTESIAN_POINT('',(0.0943,-0.130406737470847,-0.0220447326596775));
#444=CARTESIAN_POINT('',(0.0943,-0.130406737470847,-0.0220447326596775));
#445=CARTESIAN_POINT('',(0.0943,-0.130406737470847,-0.0241447326596776));
#446=CARTESIAN_POINT('',(0.1,-0.130406737470847,-0.0220447326596775));
#447=CARTESIAN_POINT('',(0.1,-0.130406737470847,-0.0241447326596776));
#448=CARTESIAN_POINT('',(0.0943,-0.130406737470847,-0.0275981047153473));
#449=CARTESIAN_POINT('',(0.1,-0.130406737470847,-0.0275981047153473));
#450=MECHANICAL_DESIGN_GEOMETRIC_PRESENTATION_REPRESENTATION('',(#263),
#451);
#451=(
GEOMETRIC_REPRESENTATION_CONTEXT(3)
GLOBAL_UNCERTAINTY_ASSIGNED_CONTEXT((#452))
GLOBAL_UNIT_ASSIGNED_CONTEXT((#455,#454,#453))
REPRESENTATION_CONTEXT('Printed Back','TOP_LEVEL_ASSEMBLY_PART')
);
#452=UNCERTAINTY_MEASURE_WITH_UNIT(LENGTH_MEASURE(1.E-8),#455,
'DISTANCE_ACCURACY_VALUE','Maximum Tolerance applied to model');
#453=(
NAMED_UNIT(*)
SI_UNIT($,.STERADIAN.)
SOLID_ANGLE_UNIT()
);
#454=(
NAMED_UNIT(*)
PLANE_ANGLE_UNIT()
SI_UNIT($,.RADIAN.)
);
#455=(
LENGTH_UNIT()
NAMED_UNIT(*)
SI_UNIT($,.METRE.)
);
#456=PRODUCT_DEFINITION_SHAPE('','',#457);
#457=PRODUCT_DEFINITION('','',#459,#458);
#458=PRODUCT_DEFINITION_CONTEXT('',#465,'design');
#459=PRODUCT_DEFINITION_FORMATION_WITH_SPECIFIED_SOURCE('','',#461,
 .NOT_KNOWN.);
#460=PRODUCT_RELATED_PRODUCT_CATEGORY('','',(#461));
#461=PRODUCT('Printed Back','Printed Back','Printed Back',(#463));
#462=PRODUCT_CATEGORY('','');
#463=PRODUCT_CONTEXT('',#465,'mechanical');
#464=APPLICATION_PROTOCOL_DEFINITION('international standard',
'ap242_managed_model_based_3d_engineering',2020,#465);
#465=APPLICATION_CONTEXT('managed model based 3d engineering');
ENDSEC;
END-ISO-10303-21;
