ISO-10303-21;
HEADER;
/* Generated by software containing ST-Developer
 * from STEP Tools, Inc. (www.steptools.com) 
 */
/* OPTION: using custom renumber hook */

FILE_DESCRIPTION(
/* description */ ('STEP AP242 Edition 2',
'CAx-IF Rec.Pracs.---Representation and Presentation of Product Manufa
cturing Information (PMI)---4.0---2014-10-13',
'CAx-IF Rec.Pracs.---3D Tessellated Geometry---0.4---2014-09-14','2;1',
'CAx-IF Rec.Pracs.---User Defined Attributes---1.5---2016-08-15'),
/* implementation_level */ '2;1');

FILE_NAME(
/* name */ 'Printed Middle 2x - Printed Middle',
/* time_stamp */ '2026-08-06T02:48:33Z',
/* author */ (''),
/* organization */ (''),
/* preprocessor_version */ 'ST-DEVELOPER v20',
/* originating_system */ 'ONSHAPE BY PTC INC, 1.218',
/* authorisation */ '  ');

FILE_SCHEMA (('AP242_MANAGED_MODEL_BASED_3D_ENGINEERING_MIM_LF { 1 0 10303 442 3 1 4 }'));
ENDSEC;

DATA;
#10=SHAPE_REPRESENTATION_RELATIONSHIP('','',#273,#11);
#11=ADVANCED_BREP_SHAPE_REPRESENTATION('',(#271),#451);
#12=CIRCLE('',#278,0.002);
#13=CIRCLE('',#279,0.002);
#14=CIRCLE('',#282,0.002);
#15=CIRCLE('',#283,0.002);
#16=CIRCLE('',#287,0.002);
#17=CIRCLE('',#288,0.002);
#18=CIRCLE('',#291,0.0021);
#19=CIRCLE('',#292,0.0021);
#20=CIRCLE('',#294,0.0021);
#21=CIRCLE('',#295,0.0021);
#22=CIRCLE('',#297,0.002);
#23=CIRCLE('',#298,0.002);
#24=CYLINDRICAL_SURFACE('',#277,0.002);
#25=CYLINDRICAL_SURFACE('',#281,0.002);
#26=CYLINDRICAL_SURFACE('',#286,0.002);
#27=CYLINDRICAL_SURFACE('',#290,0.0021);
#28=CYLINDRICAL_SURFACE('',#293,0.0021);
#29=CYLINDRICAL_SURFACE('',#296,0.002);
#30=ORIENTED_EDGE('',*,*,#98,.F.);
#31=ORIENTED_EDGE('',*,*,#99,.F.);
#32=ORIENTED_EDGE('',*,*,#100,.T.);
#33=ORIENTED_EDGE('',*,*,#101,.T.);
#34=ORIENTED_EDGE('',*,*,#102,.F.);
#35=ORIENTED_EDGE('',*,*,#101,.F.);
#36=ORIENTED_EDGE('',*,*,#103,.T.);
#37=ORIENTED_EDGE('',*,*,#104,.T.);
#38=ORIENTED_EDGE('',*,*,#105,.F.);
#39=ORIENTED_EDGE('',*,*,#104,.F.);
#40=ORIENTED_EDGE('',*,*,#106,.T.);
#41=ORIENTED_EDGE('',*,*,#107,.T.);
#42=ORIENTED_EDGE('',*,*,#108,.F.);
#43=ORIENTED_EDGE('',*,*,#107,.F.);
#44=ORIENTED_EDGE('',*,*,#109,.T.);
#45=ORIENTED_EDGE('',*,*,#110,.T.);
#46=ORIENTED_EDGE('',*,*,#111,.F.);
#47=ORIENTED_EDGE('',*,*,#110,.F.);
#48=ORIENTED_EDGE('',*,*,#112,.T.);
#49=ORIENTED_EDGE('',*,*,#113,.T.);
#50=ORIENTED_EDGE('',*,*,#114,.F.);
#51=ORIENTED_EDGE('',*,*,#113,.F.);
#52=ORIENTED_EDGE('',*,*,#115,.T.);
#53=ORIENTED_EDGE('',*,*,#116,.T.);
#54=ORIENTED_EDGE('',*,*,#117,.F.);
#55=ORIENTED_EDGE('',*,*,#116,.F.);
#56=ORIENTED_EDGE('',*,*,#118,.T.);
#57=ORIENTED_EDGE('',*,*,#119,.T.);
#58=ORIENTED_EDGE('',*,*,#120,.F.);
#59=ORIENTED_EDGE('',*,*,#119,.F.);
#60=ORIENTED_EDGE('',*,*,#121,.T.);
#61=ORIENTED_EDGE('',*,*,#122,.T.);
#62=ORIENTED_EDGE('',*,*,#123,.F.);
#63=ORIENTED_EDGE('',*,*,#122,.F.);
#64=ORIENTED_EDGE('',*,*,#124,.T.);
#65=ORIENTED_EDGE('',*,*,#125,.T.);
#66=ORIENTED_EDGE('',*,*,#126,.F.);
#67=ORIENTED_EDGE('',*,*,#127,.T.);
#68=ORIENTED_EDGE('',*,*,#128,.F.);
#69=ORIENTED_EDGE('',*,*,#129,.T.);
#70=ORIENTED_EDGE('',*,*,#130,.F.);
#71=ORIENTED_EDGE('',*,*,#125,.F.);
#72=ORIENTED_EDGE('',*,*,#131,.T.);
#73=ORIENTED_EDGE('',*,*,#99,.T.);
#74=ORIENTED_EDGE('',*,*,#128,.T.);
#75=ORIENTED_EDGE('',*,*,#126,.T.);
#76=ORIENTED_EDGE('',*,*,#100,.F.);
#77=ORIENTED_EDGE('',*,*,#131,.F.);
#78=ORIENTED_EDGE('',*,*,#124,.F.);
#79=ORIENTED_EDGE('',*,*,#121,.F.);
#80=ORIENTED_EDGE('',*,*,#118,.F.);
#81=ORIENTED_EDGE('',*,*,#115,.F.);
#82=ORIENTED_EDGE('',*,*,#112,.F.);
#83=ORIENTED_EDGE('',*,*,#109,.F.);
#84=ORIENTED_EDGE('',*,*,#106,.F.);
#85=ORIENTED_EDGE('',*,*,#103,.F.);
#86=ORIENTED_EDGE('',*,*,#129,.F.);
#87=ORIENTED_EDGE('',*,*,#127,.F.);
#88=ORIENTED_EDGE('',*,*,#98,.T.);
#89=ORIENTED_EDGE('',*,*,#102,.T.);
#90=ORIENTED_EDGE('',*,*,#105,.T.);
#91=ORIENTED_EDGE('',*,*,#108,.T.);
#92=ORIENTED_EDGE('',*,*,#111,.T.);
#93=ORIENTED_EDGE('',*,*,#114,.T.);
#94=ORIENTED_EDGE('',*,*,#117,.T.);
#95=ORIENTED_EDGE('',*,*,#120,.T.);
#96=ORIENTED_EDGE('',*,*,#123,.T.);
#97=ORIENTED_EDGE('',*,*,#130,.T.);
#98=EDGE_CURVE('',#132,#133,#156,.T.);
#99=EDGE_CURVE('',#134,#132,#157,.T.);
#100=EDGE_CURVE('',#134,#135,#158,.T.);
#101=EDGE_CURVE('',#135,#133,#159,.T.);
#102=EDGE_CURVE('',#133,#136,#160,.T.);
#103=EDGE_CURVE('',#135,#137,#161,.T.);
#104=EDGE_CURVE('',#137,#136,#162,.T.);
#105=EDGE_CURVE('',#136,#138,#12,.T.);
#106=EDGE_CURVE('',#137,#139,#13,.T.);
#107=EDGE_CURVE('',#139,#138,#163,.T.);
#108=EDGE_CURVE('',#138,#140,#164,.T.);
#109=EDGE_CURVE('',#139,#141,#165,.T.);
#110=EDGE_CURVE('',#141,#140,#166,.T.);
#111=EDGE_CURVE('',#140,#142,#14,.T.);
#112=EDGE_CURVE('',#141,#143,#15,.T.);
#113=EDGE_CURVE('',#143,#142,#167,.T.);
#114=EDGE_CURVE('',#142,#144,#168,.T.);
#115=EDGE_CURVE('',#143,#145,#169,.T.);
#116=EDGE_CURVE('',#145,#144,#170,.T.);
#117=EDGE_CURVE('',#144,#146,#171,.T.);
#118=EDGE_CURVE('',#145,#147,#172,.T.);
#119=EDGE_CURVE('',#147,#146,#173,.T.);
#120=EDGE_CURVE('',#146,#148,#16,.T.);
#121=EDGE_CURVE('',#147,#149,#17,.T.);
#122=EDGE_CURVE('',#149,#148,#174,.T.);
#123=EDGE_CURVE('',#148,#150,#175,.T.);
#124=EDGE_CURVE('',#149,#151,#176,.T.);
#125=EDGE_CURVE('',#151,#150,#177,.T.);
#126=EDGE_CURVE('',#152,#152,#18,.T.);
#127=EDGE_CURVE('',#153,#153,#19,.T.);
#128=EDGE_CURVE('',#154,#154,#20,.T.);
#129=EDGE_CURVE('',#155,#155,#21,.T.);
#130=EDGE_CURVE('',#150,#132,#22,.T.);
#131=EDGE_CURVE('',#151,#134,#23,.T.);
#132=VERTEX_POINT('',#380);
#133=VERTEX_POINT('',#381);
#134=VERTEX_POINT('',#383);
#135=VERTEX_POINT('',#385);
#136=VERTEX_POINT('',#389);
#137=VERTEX_POINT('',#391);
#138=VERTEX_POINT('',#395);
#139=VERTEX_POINT('',#397);
#140=VERTEX_POINT('',#401);
#141=VERTEX_POINT('',#403);
#142=VERTEX_POINT('',#407);
#143=VERTEX_POINT('',#409);
#144=VERTEX_POINT('',#413);
#145=VERTEX_POINT('',#415);
#146=VERTEX_POINT('',#419);
#147=VERTEX_POINT('',#421);
#148=VERTEX_POINT('',#425);
#149=VERTEX_POINT('',#427);
#150=VERTEX_POINT('',#431);
#151=VERTEX_POINT('',#433);
#152=VERTEX_POINT('',#437);
#153=VERTEX_POINT('',#439);
#154=VERTEX_POINT('',#442);
#155=VERTEX_POINT('',#444);
#156=LINE('',#379,#178);
#157=LINE('',#382,#179);
#158=LINE('',#384,#180);
#159=LINE('',#386,#181);
#160=LINE('',#388,#182);
#161=LINE('',#390,#183);
#162=LINE('',#392,#184);
#163=LINE('',#398,#185);
#164=LINE('',#400,#186);
#165=LINE('',#402,#187);
#166=LINE('',#404,#188);
#167=LINE('',#410,#189);
#168=LINE('',#412,#190);
#169=LINE('',#414,#191);
#170=LINE('',#416,#192);
#171=LINE('',#418,#193);
#172=LINE('',#420,#194);
#173=LINE('',#422,#195);
#174=LINE('',#428,#196);
#175=LINE('',#430,#197);
#176=LINE('',#432,#198);
#177=LINE('',#434,#199);
#178=VECTOR('',#305,1.);
#179=VECTOR('',#306,1.);
#180=VECTOR('',#307,1.);
#181=VECTOR('',#308,1.);
#182=VECTOR('',#311,1.);
#183=VECTOR('',#312,1.);
#184=VECTOR('',#313,1.);
#185=VECTOR('',#320,1.);
#186=VECTOR('',#323,1.);
#187=VECTOR('',#324,1.);
#188=VECTOR('',#325,1.);
#189=VECTOR('',#332,1.);
#190=VECTOR('',#335,1.);
#191=VECTOR('',#336,1.);
#192=VECTOR('',#337,1.);
#193=VECTOR('',#340,1.);
#194=VECTOR('',#341,1.);
#195=VECTOR('',#342,1.);
#196=VECTOR('',#349,1.);
#197=VECTOR('',#352,1.);
#198=VECTOR('',#353,1.);
#199=VECTOR('',#354,1.);
#200=EDGE_LOOP('',(#30,#31,#32,#33));
#201=EDGE_LOOP('',(#34,#35,#36,#37));
#202=EDGE_LOOP('',(#38,#39,#40,#41));
#203=EDGE_LOOP('',(#42,#43,#44,#45));
#204=EDGE_LOOP('',(#46,#47,#48,#49));
#205=EDGE_LOOP('',(#50,#51,#52,#53));
#206=EDGE_LOOP('',(#54,#55,#56,#57));
#207=EDGE_LOOP('',(#58,#59,#60,#61));
#208=EDGE_LOOP('',(#62,#63,#64,#65));
#209=EDGE_LOOP('',(#66));
#210=EDGE_LOOP('',(#67));
#211=EDGE_LOOP('',(#68));
#212=EDGE_LOOP('',(#69));
#213=EDGE_LOOP('',(#70,#71,#72,#73));
#214=EDGE_LOOP('',(#74));
#215=EDGE_LOOP('',(#75));
#216=EDGE_LOOP('',(#76,#77,#78,#79,#80,#81,#82,#83,#84,#85));
#217=EDGE_LOOP('',(#86));
#218=EDGE_LOOP('',(#87));
#219=EDGE_LOOP('',(#88,#89,#90,#91,#92,#93,#94,#95,#96,#97));
#220=FACE_BOUND('',#200,.T.);
#221=FACE_BOUND('',#201,.T.);
#222=FACE_BOUND('',#202,.T.);
#223=FACE_BOUND('',#203,.T.);
#224=FACE_BOUND('',#204,.T.);
#225=FACE_BOUND('',#205,.T.);
#226=FACE_BOUND('',#206,.T.);
#227=FACE_BOUND('',#207,.T.);
#228=FACE_BOUND('',#208,.T.);
#229=FACE_BOUND('',#209,.T.);
#230=FACE_BOUND('',#210,.T.);
#231=FACE_BOUND('',#211,.T.);
#232=FACE_BOUND('',#212,.T.);
#233=FACE_BOUND('',#213,.T.);
#234=FACE_BOUND('',#214,.T.);
#235=FACE_BOUND('',#215,.T.);
#236=FACE_BOUND('',#216,.T.);
#237=FACE_BOUND('',#217,.T.);
#238=FACE_BOUND('',#218,.T.);
#239=FACE_BOUND('',#219,.T.);
#240=PLANE('',#275);
#241=PLANE('',#276);
#242=PLANE('',#280);
#243=PLANE('',#284);
#244=PLANE('',#285);
#245=PLANE('',#289);
#246=PLANE('',#299);
#247=PLANE('',#300);
#248=ADVANCED_FACE('',(#220),#240,.T.);
#249=ADVANCED_FACE('',(#221),#241,.T.);
#250=ADVANCED_FACE('',(#222),#24,.T.);
#251=ADVANCED_FACE('',(#223),#242,.T.);
#252=ADVANCED_FACE('',(#224),#25,.T.);
#253=ADVANCED_FACE('',(#225),#243,.T.);
#254=ADVANCED_FACE('',(#226),#244,.T.);
#255=ADVANCED_FACE('',(#227),#26,.T.);
#256=ADVANCED_FACE('',(#228),#245,.T.);
#257=ADVANCED_FACE('',(#229,#230),#27,.F.);
#258=ADVANCED_FACE('',(#231,#232),#28,.F.);
#259=ADVANCED_FACE('',(#233),#29,.T.);
#260=ADVANCED_FACE('',(#234,#235,#236),#246,.F.);
#261=ADVANCED_FACE('',(#237,#238,#239),#247,.T.);
#262=CLOSED_SHELL('',(#248,#249,#250,#251,#252,#253,#254,#255,#256,#257,
#258,#259,#260,#261));
#263=STYLED_ITEM('',(#264),#271);
#264=PRESENTATION_STYLE_ASSIGNMENT((#265));
#265=SURFACE_STYLE_USAGE(.BOTH.,#266);
#266=SURFACE_SIDE_STYLE('',(#267));
#267=SURFACE_STYLE_FILL_AREA(#268);
#268=FILL_AREA_STYLE('',(#269));
#269=FILL_AREA_STYLE_COLOUR('',#270);
#270=COLOUR_RGB('',0.901960784313726,0.901960784313726,0.901960784313726);
#271=MANIFOLD_SOLID_BREP('Printed Middle',#262);
#272=SHAPE_DEFINITION_REPRESENTATION(#456,#273);
#273=SHAPE_REPRESENTATION('Printed Middle',(#274),#451);
#274=AXIS2_PLACEMENT_3D('',#377,#301,#302);
#275=AXIS2_PLACEMENT_3D('',#378,#303,#304);
#276=AXIS2_PLACEMENT_3D('',#387,#309,#310);
#277=AXIS2_PLACEMENT_3D('',#393,#314,#315);
#278=AXIS2_PLACEMENT_3D('',#394,#316,#317);
#279=AXIS2_PLACEMENT_3D('',#396,#318,#319);
#280=AXIS2_PLACEMENT_3D('',#399,#321,#322);
#281=AXIS2_PLACEMENT_3D('',#405,#326,#327);
#282=AXIS2_PLACEMENT_3D('',#406,#328,#329);
#283=AXIS2_PLACEMENT_3D('',#408,#330,#331);
#284=AXIS2_PLACEMENT_3D('',#411,#333,#334);
#285=AXIS2_PLACEMENT_3D('',#417,#338,#339);
#286=AXIS2_PLACEMENT_3D('',#423,#343,#344);
#287=AXIS2_PLACEMENT_3D('',#424,#345,#346);
#288=AXIS2_PLACEMENT_3D('',#426,#347,#348);
#289=AXIS2_PLACEMENT_3D('',#429,#350,#351);
#290=AXIS2_PLACEMENT_3D('',#435,#355,#356);
#291=AXIS2_PLACEMENT_3D('',#436,#357,#358);
#292=AXIS2_PLACEMENT_3D('',#438,#359,#360);
#293=AXIS2_PLACEMENT_3D('',#440,#361,#362);
#294=AXIS2_PLACEMENT_3D('',#441,#363,#364);
#295=AXIS2_PLACEMENT_3D('',#443,#365,#366);
#296=AXIS2_PLACEMENT_3D('',#445,#367,#368);
#297=AXIS2_PLACEMENT_3D('',#446,#369,#370);
#298=AXIS2_PLACEMENT_3D('',#447,#371,#372);
#299=AXIS2_PLACEMENT_3D('',#448,#373,#374);
#300=AXIS2_PLACEMENT_3D('',#449,#375,#376);
#301=DIRECTION('',(0.,0.,1.));
#302=DIRECTION('',(1.,0.,0.));
#303=DIRECTION('',(0.,0.939692620785907,0.342020143325673));
#304=DIRECTION('',(0.,-0.342020143325673,0.939692620785907));
#305=DIRECTION('',(0.,-0.342020143325673,0.939692620785907));
#306=DIRECTION('',(1.,0.,0.));
#307=DIRECTION('',(0.,-0.342020143325673,0.939692620785907));
#308=DIRECTION('',(1.,0.,0.));
#309=DIRECTION('',(0.,0.939692620785907,-0.342020143325672));
#310=DIRECTION('',(0.,0.342020143325672,0.939692620785907));
#311=DIRECTION('',(0.,0.342020143325672,0.939692620785907));
#312=DIRECTION('',(0.,0.342020143325672,0.939692620785907));
#313=DIRECTION('',(1.,0.,0.));
#314=DIRECTION('',(1.,0.,0.));
#315=DIRECTION('',(0.,0.,-1.));
#316=DIRECTION('',(1.,0.,0.));
#317=DIRECTION('',(0.,0.,-1.));
#318=DIRECTION('',(1.,0.,0.));
#319=DIRECTION('',(0.,0.,-1.));
#320=DIRECTION('',(1.,0.,0.));
#321=DIRECTION('',(0.,0.,1.));
#322=DIRECTION('',(1.,0.,0.));
#323=DIRECTION('',(0.,-1.,0.));
#324=DIRECTION('',(0.,-1.,0.));
#325=DIRECTION('',(1.,0.,0.));
#326=DIRECTION('',(1.,0.,0.));
#327=DIRECTION('',(0.,0.,-1.));
#328=DIRECTION('',(1.,0.,0.));
#329=DIRECTION('',(0.,0.,-1.));
#330=DIRECTION('',(1.,0.,0.));
#331=DIRECTION('',(0.,0.,-1.));
#332=DIRECTION('',(1.,0.,0.));
#333=DIRECTION('',(0.,-0.939692620785908,-0.34202014332567));
#334=DIRECTION('',(0.,0.34202014332567,-0.939692620785908));
#335=DIRECTION('',(0.,0.34202014332567,-0.939692620785908));
#336=DIRECTION('',(0.,0.34202014332567,-0.939692620785908));
#337=DIRECTION('',(1.,0.,0.));
#338=DIRECTION('',(0.,-0.939692620785907,0.342020143325673));
#339=DIRECTION('',(0.,-0.342020143325673,-0.939692620785907));
#340=DIRECTION('',(0.,-0.342020143325673,-0.939692620785907));
#341=DIRECTION('',(0.,-0.342020143325673,-0.939692620785907));
#342=DIRECTION('',(1.,0.,0.));
#343=DIRECTION('',(1.,0.,0.));
#344=DIRECTION('',(0.,0.,-1.));
#345=DIRECTION('',(1.,0.,0.));
#346=DIRECTION('',(0.,0.,-1.));
#347=DIRECTION('',(1.,0.,0.));
#348=DIRECTION('',(0.,0.,-1.));
#349=DIRECTION('',(1.,0.,0.));
#350=DIRECTION('',(0.,0.,-1.));
#351=DIRECTION('',(-1.,0.,0.));
#352=DIRECTION('',(0.,1.,0.));
#353=DIRECTION('',(0.,1.,0.));
#354=DIRECTION('',(1.,0.,0.));
#355=DIRECTION('',(1.,0.,0.));
#356=DIRECTION('',(0.,0.,-1.));
#357=DIRECTION('',(1.,0.,0.));
#358=DIRECTION('',(0.,0.,-1.));
#359=DIRECTION('',(1.,0.,0.));
#360=DIRECTION('',(0.,0.,-1.));
#361=DIRECTION('',(1.,0.,0.));
#362=DIRECTION('',(0.,0.,-1.));
#363=DIRECTION('',(1.,0.,0.));
#364=DIRECTION('',(0.,0.,-1.));
#365=DIRECTION('',(1.,0.,0.));
#366=DIRECTION('',(0.,0.,-1.));
#367=DIRECTION('',(1.,0.,0.));
#368=DIRECTION('',(0.,0.,-1.));
#369=DIRECTION('',(1.,0.,0.));
#370=DIRECTION('',(0.,0.,-1.));
#371=DIRECTION('',(1.,0.,0.));
#372=DIRECTION('',(0.,0.,-1.));
#373=DIRECTION('',(1.,0.,0.));
#374=DIRECTION('',(0.,1.,0.));
#375=DIRECTION('',(1.,0.,0.));
#376=DIRECTION('',(0.,1.,0.));
#377=CARTESIAN_POINT('',(0.,0.,0.));
#378=CARTESIAN_POINT('',(0.0943,-0.180567431407467,-0.0317560845720217));
#379=CARTESIAN_POINT('',(0.1,-0.180567431407467,-0.0317560845720217));
#380=CARTESIAN_POINT('',(0.1,-0.179054050504959,-0.035914064428696));
#381=CARTESIAN_POINT('',(0.1,-0.182080812309974,-0.0275981047153473));
#382=CARTESIAN_POINT('',(0.0943,-0.179054050504959,-0.035914064428696));
#383=CARTESIAN_POINT('',(0.0943,-0.179054050504959,-0.035914064428696));
#384=CARTESIAN_POINT('',(0.0943,-0.180567431407467,-0.0317560845720217));
#385=CARTESIAN_POINT('',(0.0943,-0.182080812309974,-0.0275981047153473));
#386=CARTESIAN_POINT('',(0.0943,-0.182080812309974,-0.0275981047153473));
#387=CARTESIAN_POINT('',(0.0943,-0.180567431407467,-0.023440124858673));
#388=CARTESIAN_POINT('',(0.1,-0.180567431407467,-0.023440124858673));
#389=CARTESIAN_POINT('',(0.1,-0.179054050504959,-0.0192821450019987));
#390=CARTESIAN_POINT('',(0.0943,-0.180567431407467,-0.023440124858673));
#391=CARTESIAN_POINT('',(0.0943,-0.179054050504959,-0.0192821450019987));
#392=CARTESIAN_POINT('',(0.0943,-0.179054050504959,-0.0192821450019987));
#393=CARTESIAN_POINT('',(0.0943,-0.180933435746531,-0.0185981047153474));
#394=CARTESIAN_POINT('',(0.1,-0.180933435746531,-0.0185981047153474));
#395=CARTESIAN_POINT('',(0.1,-0.180933435746531,-0.0165981047153473));
#396=CARTESIAN_POINT('',(0.0943,-0.180933435746531,-0.0185981047153474));
#397=CARTESIAN_POINT('',(0.0943,-0.180933435746531,-0.0165981047153473));
#398=CARTESIAN_POINT('',(0.0943,-0.180933435746531,-0.0165981047153473));
#399=CARTESIAN_POINT('',(0.0943,-0.191077139733046,-0.0165981047153473));
#400=CARTESIAN_POINT('',(0.1,-0.191077139733046,-0.0165981047153473));
#401=CARTESIAN_POINT('',(0.1,-0.201220843719562,-0.0165981047153473));
#402=CARTESIAN_POINT('',(0.0943,-0.191077139733046,-0.0165981047153473));
#403=CARTESIAN_POINT('',(0.0943,-0.201220843719562,-0.0165981047153473));
#404=CARTESIAN_POINT('',(0.0943,-0.201220843719562,-0.0165981047153473));
#405=CARTESIAN_POINT('',(0.0943,-0.201220843719562,-0.0185981047153474));
#406=CARTESIAN_POINT('',(0.1,-0.201220843719562,-0.0185981047153474));
#407=CARTESIAN_POINT('',(0.1,-0.203100228961133,-0.0192821450019987));
#408=CARTESIAN_POINT('',(0.0943,-0.201220843719562,-0.0185981047153474));
#409=CARTESIAN_POINT('',(0.0943,-0.203100228961133,-0.0192821450019987));
#410=CARTESIAN_POINT('',(0.0943,-0.203100228961133,-0.0192821450019987));
#411=CARTESIAN_POINT('',(0.0943,-0.201586848058626,-0.023440124858673));
#412=CARTESIAN_POINT('',(0.1,-0.201586848058626,-0.023440124858673));
#413=CARTESIAN_POINT('',(0.1,-0.200073467156118,-0.0275981047153473));
#414=CARTESIAN_POINT('',(0.0943,-0.201586848058626,-0.023440124858673));
#415=CARTESIAN_POINT('',(0.0943,-0.200073467156118,-0.0275981047153473));
#416=CARTESIAN_POINT('',(0.0943,-0.200073467156118,-0.0275981047153473));
#417=CARTESIAN_POINT('',(0.0943,-0.201586848058626,-0.0317560845720216));
#418=CARTESIAN_POINT('',(0.1,-0.201586848058626,-0.0317560845720216));
#419=CARTESIAN_POINT('',(0.1,-0.203100228961133,-0.035914064428696));
#420=CARTESIAN_POINT('',(0.0943,-0.201586848058626,-0.0317560845720216));
#421=CARTESIAN_POINT('',(0.0943,-0.203100228961133,-0.035914064428696));
#422=CARTESIAN_POINT('',(0.0943,-0.203100228961133,-0.035914064428696));
#423=CARTESIAN_POINT('',(0.0943,-0.201220843719562,-0.0365981047153474));
#424=CARTESIAN_POINT('',(0.1,-0.201220843719562,-0.0365981047153474));
#425=CARTESIAN_POINT('',(0.1,-0.201220843719562,-0.0385981047153473));
#426=CARTESIAN_POINT('',(0.0943,-0.201220843719562,-0.0365981047153474));
#427=CARTESIAN_POINT('',(0.0943,-0.201220843719562,-0.0385981047153473));
#428=CARTESIAN_POINT('',(0.0943,-0.201220843719562,-0.0385981047153473));
#429=CARTESIAN_POINT('',(0.0943,-0.191077139733046,-0.0385981047153473));
#430=CARTESIAN_POINT('',(0.1,-0.191077139733046,-0.0385981047153473));
#431=CARTESIAN_POINT('',(0.1,-0.180933435746531,-0.0385981047153473));
#432=CARTESIAN_POINT('',(0.0943,-0.191077139733046,-0.0385981047153473));
#433=CARTESIAN_POINT('',(0.0943,-0.180933435746531,-0.0385981047153473));
#434=CARTESIAN_POINT('',(0.0943,-0.180933435746531,-0.0385981047153473));
#435=CARTESIAN_POINT('',(0.0943,-0.191077139733046,-0.0331221861931073));
#436=CARTESIAN_POINT('',(0.0943,-0.191077139733046,-0.0331221861931073));
#437=CARTESIAN_POINT('',(0.0943,-0.191077139733046,-0.0352221861931073));
#438=CARTESIAN_POINT('',(0.1,-0.191077139733046,-0.0331221861931073));
#439=CARTESIAN_POINT('',(0.1,-0.191077139733046,-0.0352221861931073));
#440=CARTESIAN_POINT('',(0.0943,-0.191077139733046,-0.0221689673426308));
#441=CARTESIAN_POINT('',(0.0943,-0.191077139733046,-0.0221689673426308));
#442=CARTESIAN_POINT('',(0.0943,-0.191077139733046,-0.0242689673426308));
#443=CARTESIAN_POINT('',(0.1,-0.191077139733046,-0.0221689673426308));
#444=CARTESIAN_POINT('',(0.1,-0.191077139733046,-0.0242689673426308));
#445=CARTESIAN_POINT('',(0.0943,-0.180933435746531,-0.0365981047153473));
#446=CARTESIAN_POINT('',(0.1,-0.180933435746531,-0.0365981047153473));
#447=CARTESIAN_POINT('',(0.0943,-0.180933435746531,-0.0365981047153473));
#448=CARTESIAN_POINT('',(0.0943,-0.191077139733046,-0.0275981047153473));
#449=CARTESIAN_POINT('',(0.1,-0.191077139733046,-0.0275981047153473));
#450=MECHANICAL_DESIGN_GEOMETRIC_PRESENTATION_REPRESENTATION('',(#263),
#451);
#451=(
GEOMETRIC_REPRESENTATION_CONTEXT(3)
GLOBAL_UNCERTAINTY_ASSIGNED_CONTEXT((#452))
GLOBAL_UNIT_ASSIGNED_CONTEXT((#455,#454,#453))
REPRESENTATION_CONTEXT('Printed Middle','TOP_LEVEL_ASSEMBLY_PART')
);
#452=UNCERTAINTY_MEASURE_WITH_UNIT(LENGTH_MEASURE(1.E-8),#455,
'DISTANCE_ACCURACY_VALUE','Maximum Tolerance applied to model');
#453=(
NAMED_UNIT(*)
SI_UNIT($,.STERADIAN.)
SOLID_ANGLE_UNIT()
);
#454=(
NAMED_UNIT(*)
PLANE_ANGLE_UNIT()
SI_UNIT($,.RADIAN.)
);
#455=(
LENGTH_UNIT()
NAMED_UNIT(*)
SI_UNIT($,.METRE.)
);
#456=PRODUCT_DEFINITION_SHAPE('','',#457);
#457=PRODUCT_DEFINITION('','',#459,#458);
#458=PRODUCT_DEFINITION_CONTEXT('',#465,'design');
#459=PRODUCT_DEFINITION_FORMATION_WITH_SPECIFIED_SOURCE('','',#461,
 .NOT_KNOWN.);
#460=PRODUCT_RELATED_PRODUCT_CATEGORY('','',(#461));
#461=PRODUCT('Printed Middle','Printed Middle','Printed Middle',(#463));
#462=PRODUCT_CATEGORY('','');
#463=PRODUCT_CONTEXT('',#465,'mechanical');
#464=APPLICATION_PROTOCOL_DEFINITION('international standard',
'ap242_managed_model_based_3d_engineering',2020,#465);
#465=APPLICATION_CONTEXT('managed model based 3d engineering');
ENDSEC;
END-ISO-10303-21;
