ISO-10303-21;
HEADER;
/* Generated by software containing ST-Developer
 * from STEP Tools, Inc. (www.steptools.com) 
 */
/* OPTION: using custom renumber hook */

FILE_DESCRIPTION(
/* description */ ('STEP AP242 Edition 2',
'CAx-IF Rec.Pracs.---Representation and Presentation of Product Manufa
cturing Information (PMI)---4.0---2014-10-13',
'CAx-IF Rec.Pracs.---3D Tessellated Geometry---0.4---2014-09-14','2;1',
'CAx-IF Rec.Pracs.---User Defined Attributes---1.5---2016-08-15'),
/* implementation_level */ '2;1');

FILE_NAME(
/* name */ 'Printed Front 2x - Printed Front',
/* time_stamp */ '2026-08-06T02:48:14Z',
/* author */ (''),
/* organization */ (''),
/* preprocessor_version */ 'ST-DEVELOPER v20',
/* originating_system */ 'ONSHAPE BY PTC INC, 1.218',
/* authorisation */ '  ');

FILE_SCHEMA (('AP242_MANAGED_MODEL_BASED_3D_ENGINEERING_MIM_LF { 1 0 10303 442 3 1 4 }'));
ENDSEC;

DATA;
#10=SHAPE_REPRESENTATION_RELATIONSHIP('','',#471,#11);
#11=ADVANCED_BREP_SHAPE_REPRESENTATION('',(#469),#793);
#12=PLANE('',#476);
#13=PLANE('',#480);
#14=PLANE('',#484);
#15=PLANE('',#488);
#16=PLANE('',#492);
#17=PLANE('',#496);
#18=PLANE('',#500);
#19=PLANE('',#504);
#20=PLANE('',#508);
#21=PLANE('',#515);
#22=PLANE('',#519);
#23=PLANE('',#520);
#24=LINE('',#664,#64);
#25=LINE('',#668,#65);
#26=LINE('',#670,#66);
#27=LINE('',#672,#67);
#28=LINE('',#674,#68);
#29=LINE('',#680,#69);
#30=LINE('',#682,#70);
#31=LINE('',#684,#71);
#32=LINE('',#686,#72);
#33=LINE('',#692,#73);
#34=LINE('',#694,#74);
#35=LINE('',#696,#75);
#36=LINE('',#698,#76);
#37=LINE('',#704,#77);
#38=LINE('',#706,#78);
#39=LINE('',#708,#79);
#40=LINE('',#710,#80);
#41=LINE('',#716,#81);
#42=LINE('',#718,#82);
#43=LINE('',#720,#83);
#44=LINE('',#722,#84);
#45=LINE('',#728,#85);
#46=LINE('',#730,#86);
#47=LINE('',#732,#87);
#48=LINE('',#734,#88);
#49=LINE('',#740,#89);
#50=LINE('',#742,#90);
#51=LINE('',#744,#91);
#52=LINE('',#746,#92);
#53=LINE('',#752,#93);
#54=LINE('',#754,#94);
#55=LINE('',#756,#95);
#56=LINE('',#758,#96);
#57=LINE('',#764,#97);
#58=LINE('',#766,#98);
#59=LINE('',#768,#99);
#60=LINE('',#770,#100);
#61=LINE('',#776,#101);
#62=LINE('',#783,#102);
#63=LINE('',#784,#103);
#64=VECTOR('',#527,1.);
#65=VECTOR('',#530,1.);
#66=VECTOR('',#533,1.);
#67=VECTOR('',#534,1.);
#68=VECTOR('',#535,1.);
#69=VECTOR('',#542,1.);
#70=VECTOR('',#545,1.);
#71=VECTOR('',#546,1.);
#72=VECTOR('',#547,1.);
#73=VECTOR('',#554,1.);
#74=VECTOR('',#557,1.);
#75=VECTOR('',#558,1.);
#76=VECTOR('',#559,1.);
#77=VECTOR('',#566,1.);
#78=VECTOR('',#569,1.);
#79=VECTOR('',#570,1.);
#80=VECTOR('',#571,1.);
#81=VECTOR('',#578,1.);
#82=VECTOR('',#581,1.);
#83=VECTOR('',#582,1.);
#84=VECTOR('',#583,1.);
#85=VECTOR('',#590,1.);
#86=VECTOR('',#593,1.);
#87=VECTOR('',#594,1.);
#88=VECTOR('',#595,1.);
#89=VECTOR('',#602,1.);
#90=VECTOR('',#605,1.);
#91=VECTOR('',#606,1.);
#92=VECTOR('',#607,1.);
#93=VECTOR('',#614,1.);
#94=VECTOR('',#617,1.);
#95=VECTOR('',#618,1.);
#96=VECTOR('',#619,1.);
#97=VECTOR('',#626,1.);
#98=VECTOR('',#629,1.);
#99=VECTOR('',#630,1.);
#100=VECTOR('',#631,1.);
#101=VECTOR('',#638,1.);
#102=VECTOR('',#647,1.);
#103=VECTOR('',#648,1.);
#104=ORIENTED_EDGE('',*,*,#232,.T.);
#105=ORIENTED_EDGE('',*,*,#233,.F.);
#106=ORIENTED_EDGE('',*,*,#234,.F.);
#107=ORIENTED_EDGE('',*,*,#235,.T.);
#108=ORIENTED_EDGE('',*,*,#236,.F.);
#109=ORIENTED_EDGE('',*,*,#235,.F.);
#110=ORIENTED_EDGE('',*,*,#237,.T.);
#111=ORIENTED_EDGE('',*,*,#238,.T.);
#112=ORIENTED_EDGE('',*,*,#239,.F.);
#113=ORIENTED_EDGE('',*,*,#238,.F.);
#114=ORIENTED_EDGE('',*,*,#240,.T.);
#115=ORIENTED_EDGE('',*,*,#241,.T.);
#116=ORIENTED_EDGE('',*,*,#242,.F.);
#117=ORIENTED_EDGE('',*,*,#241,.F.);
#118=ORIENTED_EDGE('',*,*,#243,.T.);
#119=ORIENTED_EDGE('',*,*,#244,.T.);
#120=ORIENTED_EDGE('',*,*,#245,.F.);
#121=ORIENTED_EDGE('',*,*,#244,.F.);
#122=ORIENTED_EDGE('',*,*,#246,.T.);
#123=ORIENTED_EDGE('',*,*,#247,.T.);
#124=ORIENTED_EDGE('',*,*,#248,.F.);
#125=ORIENTED_EDGE('',*,*,#247,.F.);
#126=ORIENTED_EDGE('',*,*,#249,.T.);
#127=ORIENTED_EDGE('',*,*,#250,.T.);
#128=ORIENTED_EDGE('',*,*,#251,.F.);
#129=ORIENTED_EDGE('',*,*,#250,.F.);
#130=ORIENTED_EDGE('',*,*,#252,.T.);
#131=ORIENTED_EDGE('',*,*,#253,.T.);
#132=ORIENTED_EDGE('',*,*,#254,.F.);
#133=ORIENTED_EDGE('',*,*,#253,.F.);
#134=ORIENTED_EDGE('',*,*,#255,.T.);
#135=ORIENTED_EDGE('',*,*,#256,.T.);
#136=ORIENTED_EDGE('',*,*,#257,.F.);
#137=ORIENTED_EDGE('',*,*,#256,.F.);
#138=ORIENTED_EDGE('',*,*,#258,.T.);
#139=ORIENTED_EDGE('',*,*,#259,.T.);
#140=ORIENTED_EDGE('',*,*,#260,.F.);
#141=ORIENTED_EDGE('',*,*,#259,.F.);
#142=ORIENTED_EDGE('',*,*,#261,.T.);
#143=ORIENTED_EDGE('',*,*,#262,.T.);
#144=ORIENTED_EDGE('',*,*,#263,.T.);
#145=ORIENTED_EDGE('',*,*,#262,.F.);
#146=ORIENTED_EDGE('',*,*,#264,.F.);
#147=ORIENTED_EDGE('',*,*,#265,.T.);
#148=ORIENTED_EDGE('',*,*,#266,.F.);
#149=ORIENTED_EDGE('',*,*,#265,.F.);
#150=ORIENTED_EDGE('',*,*,#267,.T.);
#151=ORIENTED_EDGE('',*,*,#268,.T.);
#152=ORIENTED_EDGE('',*,*,#269,.F.);
#153=ORIENTED_EDGE('',*,*,#268,.F.);
#154=ORIENTED_EDGE('',*,*,#270,.T.);
#155=ORIENTED_EDGE('',*,*,#271,.T.);
#156=ORIENTED_EDGE('',*,*,#272,.F.);
#157=ORIENTED_EDGE('',*,*,#271,.F.);
#158=ORIENTED_EDGE('',*,*,#273,.T.);
#159=ORIENTED_EDGE('',*,*,#274,.T.);
#160=ORIENTED_EDGE('',*,*,#275,.F.);
#161=ORIENTED_EDGE('',*,*,#274,.F.);
#162=ORIENTED_EDGE('',*,*,#276,.T.);
#163=ORIENTED_EDGE('',*,*,#277,.T.);
#164=ORIENTED_EDGE('',*,*,#278,.F.);
#165=ORIENTED_EDGE('',*,*,#277,.F.);
#166=ORIENTED_EDGE('',*,*,#279,.T.);
#167=ORIENTED_EDGE('',*,*,#280,.T.);
#168=ORIENTED_EDGE('',*,*,#281,.F.);
#169=ORIENTED_EDGE('',*,*,#280,.F.);
#170=ORIENTED_EDGE('',*,*,#282,.T.);
#171=ORIENTED_EDGE('',*,*,#283,.T.);
#172=ORIENTED_EDGE('',*,*,#284,.F.);
#173=ORIENTED_EDGE('',*,*,#283,.F.);
#174=ORIENTED_EDGE('',*,*,#285,.T.);
#175=ORIENTED_EDGE('',*,*,#286,.T.);
#176=ORIENTED_EDGE('',*,*,#287,.T.);
#177=ORIENTED_EDGE('',*,*,#286,.F.);
#178=ORIENTED_EDGE('',*,*,#288,.F.);
#179=ORIENTED_EDGE('',*,*,#289,.T.);
#180=ORIENTED_EDGE('',*,*,#290,.F.);
#181=ORIENTED_EDGE('',*,*,#291,.T.);
#182=ORIENTED_EDGE('',*,*,#292,.F.);
#183=ORIENTED_EDGE('',*,*,#289,.F.);
#184=ORIENTED_EDGE('',*,*,#293,.T.);
#185=ORIENTED_EDGE('',*,*,#233,.T.);
#186=ORIENTED_EDGE('',*,*,#294,.F.);
#187=ORIENTED_EDGE('',*,*,#295,.T.);
#188=ORIENTED_EDGE('',*,*,#234,.T.);
#189=ORIENTED_EDGE('',*,*,#293,.F.);
#190=ORIENTED_EDGE('',*,*,#288,.T.);
#191=ORIENTED_EDGE('',*,*,#285,.F.);
#192=ORIENTED_EDGE('',*,*,#282,.F.);
#193=ORIENTED_EDGE('',*,*,#279,.F.);
#194=ORIENTED_EDGE('',*,*,#276,.F.);
#195=ORIENTED_EDGE('',*,*,#273,.F.);
#196=ORIENTED_EDGE('',*,*,#270,.F.);
#197=ORIENTED_EDGE('',*,*,#267,.F.);
#198=ORIENTED_EDGE('',*,*,#264,.T.);
#199=ORIENTED_EDGE('',*,*,#261,.F.);
#200=ORIENTED_EDGE('',*,*,#258,.F.);
#201=ORIENTED_EDGE('',*,*,#255,.F.);
#202=ORIENTED_EDGE('',*,*,#252,.F.);
#203=ORIENTED_EDGE('',*,*,#249,.F.);
#204=ORIENTED_EDGE('',*,*,#246,.F.);
#205=ORIENTED_EDGE('',*,*,#243,.F.);
#206=ORIENTED_EDGE('',*,*,#240,.F.);
#207=ORIENTED_EDGE('',*,*,#237,.F.);
#208=ORIENTED_EDGE('',*,*,#290,.T.);
#209=ORIENTED_EDGE('',*,*,#294,.T.);
#210=ORIENTED_EDGE('',*,*,#232,.F.);
#211=ORIENTED_EDGE('',*,*,#236,.T.);
#212=ORIENTED_EDGE('',*,*,#239,.T.);
#213=ORIENTED_EDGE('',*,*,#242,.T.);
#214=ORIENTED_EDGE('',*,*,#245,.T.);
#215=ORIENTED_EDGE('',*,*,#248,.T.);
#216=ORIENTED_EDGE('',*,*,#251,.T.);
#217=ORIENTED_EDGE('',*,*,#254,.T.);
#218=ORIENTED_EDGE('',*,*,#257,.T.);
#219=ORIENTED_EDGE('',*,*,#260,.T.);
#220=ORIENTED_EDGE('',*,*,#263,.F.);
#221=ORIENTED_EDGE('',*,*,#266,.T.);
#222=ORIENTED_EDGE('',*,*,#269,.T.);
#223=ORIENTED_EDGE('',*,*,#272,.T.);
#224=ORIENTED_EDGE('',*,*,#275,.T.);
#225=ORIENTED_EDGE('',*,*,#278,.T.);
#226=ORIENTED_EDGE('',*,*,#281,.T.);
#227=ORIENTED_EDGE('',*,*,#284,.T.);
#228=ORIENTED_EDGE('',*,*,#287,.F.);
#229=ORIENTED_EDGE('',*,*,#292,.T.);
#230=ORIENTED_EDGE('',*,*,#291,.F.);
#231=ORIENTED_EDGE('',*,*,#295,.F.);
#232=EDGE_CURVE('',#296,#297,#340,.T.);
#233=EDGE_CURVE('',#298,#297,#24,.T.);
#234=EDGE_CURVE('',#299,#298,#341,.T.);
#235=EDGE_CURVE('',#299,#296,#25,.T.);
#236=EDGE_CURVE('',#296,#300,#26,.T.);
#237=EDGE_CURVE('',#299,#301,#27,.T.);
#238=EDGE_CURVE('',#301,#300,#28,.T.);
#239=EDGE_CURVE('',#300,#302,#342,.T.);
#240=EDGE_CURVE('',#301,#303,#343,.T.);
#241=EDGE_CURVE('',#303,#302,#29,.T.);
#242=EDGE_CURVE('',#302,#304,#30,.T.);
#243=EDGE_CURVE('',#303,#305,#31,.T.);
#244=EDGE_CURVE('',#305,#304,#32,.T.);
#245=EDGE_CURVE('',#304,#306,#344,.T.);
#246=EDGE_CURVE('',#305,#307,#345,.T.);
#247=EDGE_CURVE('',#307,#306,#33,.T.);
#248=EDGE_CURVE('',#306,#308,#34,.T.);
#249=EDGE_CURVE('',#307,#309,#35,.T.);
#250=EDGE_CURVE('',#309,#308,#36,.T.);
#251=EDGE_CURVE('',#308,#310,#346,.T.);
#252=EDGE_CURVE('',#309,#311,#347,.T.);
#253=EDGE_CURVE('',#311,#310,#37,.T.);
#254=EDGE_CURVE('',#310,#312,#38,.T.);
#255=EDGE_CURVE('',#311,#313,#39,.T.);
#256=EDGE_CURVE('',#313,#312,#40,.T.);
#257=EDGE_CURVE('',#312,#314,#348,.T.);
#258=EDGE_CURVE('',#313,#315,#349,.T.);
#259=EDGE_CURVE('',#315,#314,#41,.T.);
#260=EDGE_CURVE('',#314,#316,#42,.T.);
#261=EDGE_CURVE('',#315,#317,#43,.T.);
#262=EDGE_CURVE('',#317,#316,#44,.T.);
#263=EDGE_CURVE('',#318,#316,#350,.T.);
#264=EDGE_CURVE('',#319,#317,#351,.T.);
#265=EDGE_CURVE('',#319,#318,#45,.T.);
#266=EDGE_CURVE('',#318,#320,#46,.T.);
#267=EDGE_CURVE('',#319,#321,#47,.T.);
#268=EDGE_CURVE('',#321,#320,#48,.T.);
#269=EDGE_CURVE('',#320,#322,#352,.T.);
#270=EDGE_CURVE('',#321,#323,#353,.T.);
#271=EDGE_CURVE('',#323,#322,#49,.T.);
#272=EDGE_CURVE('',#322,#324,#50,.T.);
#273=EDGE_CURVE('',#323,#325,#51,.T.);
#274=EDGE_CURVE('',#325,#324,#52,.T.);
#275=EDGE_CURVE('',#324,#326,#354,.T.);
#276=EDGE_CURVE('',#325,#327,#355,.T.);
#277=EDGE_CURVE('',#327,#326,#53,.T.);
#278=EDGE_CURVE('',#326,#328,#54,.T.);
#279=EDGE_CURVE('',#327,#329,#55,.T.);
#280=EDGE_CURVE('',#329,#328,#56,.T.);
#281=EDGE_CURVE('',#328,#330,#356,.T.);
#282=EDGE_CURVE('',#329,#331,#357,.T.);
#283=EDGE_CURVE('',#331,#330,#57,.T.);
#284=EDGE_CURVE('',#330,#332,#58,.T.);
#285=EDGE_CURVE('',#331,#333,#59,.T.);
#286=EDGE_CURVE('',#333,#332,#60,.T.);
#287=EDGE_CURVE('',#334,#332,#358,.T.);
#288=EDGE_CURVE('',#335,#333,#359,.T.);
#289=EDGE_CURVE('',#335,#334,#61,.T.);
#290=EDGE_CURVE('',#336,#336,#360,.T.);
#291=EDGE_CURVE('',#337,#337,#361,.T.);
#292=EDGE_CURVE('',#334,#297,#62,.T.);
#293=EDGE_CURVE('',#335,#298,#63,.T.);
#294=EDGE_CURVE('',#338,#338,#362,.T.);
#295=EDGE_CURVE('',#339,#339,#363,.T.);
#296=VERTEX_POINT('',#662);
#297=VERTEX_POINT('',#663);
#298=VERTEX_POINT('',#665);
#299=VERTEX_POINT('',#667);
#300=VERTEX_POINT('',#671);
#301=VERTEX_POINT('',#673);
#302=VERTEX_POINT('',#677);
#303=VERTEX_POINT('',#679);
#304=VERTEX_POINT('',#683);
#305=VERTEX_POINT('',#685);
#306=VERTEX_POINT('',#689);
#307=VERTEX_POINT('',#691);
#308=VERTEX_POINT('',#695);
#309=VERTEX_POINT('',#697);
#310=VERTEX_POINT('',#701);
#311=VERTEX_POINT('',#703);
#312=VERTEX_POINT('',#707);
#313=VERTEX_POINT('',#709);
#314=VERTEX_POINT('',#713);
#315=VERTEX_POINT('',#715);
#316=VERTEX_POINT('',#719);
#317=VERTEX_POINT('',#721);
#318=VERTEX_POINT('',#725);
#319=VERTEX_POINT('',#727);
#320=VERTEX_POINT('',#731);
#321=VERTEX_POINT('',#733);
#322=VERTEX_POINT('',#737);
#323=VERTEX_POINT('',#739);
#324=VERTEX_POINT('',#743);
#325=VERTEX_POINT('',#745);
#326=VERTEX_POINT('',#749);
#327=VERTEX_POINT('',#751);
#328=VERTEX_POINT('',#755);
#329=VERTEX_POINT('',#757);
#330=VERTEX_POINT('',#761);
#331=VERTEX_POINT('',#763);
#332=VERTEX_POINT('',#767);
#333=VERTEX_POINT('',#769);
#334=VERTEX_POINT('',#773);
#335=VERTEX_POINT('',#775);
#336=VERTEX_POINT('',#779);
#337=VERTEX_POINT('',#781);
#338=VERTEX_POINT('',#787);
#339=VERTEX_POINT('',#789);
#340=CIRCLE('',#474,0.002);
#341=CIRCLE('',#475,0.002);
#342=CIRCLE('',#478,0.002);
#343=CIRCLE('',#479,0.002);
#344=CIRCLE('',#482,0.002);
#345=CIRCLE('',#483,0.002);
#346=CIRCLE('',#486,0.002);
#347=CIRCLE('',#487,0.002);
#348=CIRCLE('',#490,0.00200000000000004);
#349=CIRCLE('',#491,0.00200000000000004);
#350=CIRCLE('',#494,0.002);
#351=CIRCLE('',#495,0.002);
#352=CIRCLE('',#498,0.002);
#353=CIRCLE('',#499,0.002);
#354=CIRCLE('',#502,0.002);
#355=CIRCLE('',#503,0.002);
#356=CIRCLE('',#506,0.00199999999999995);
#357=CIRCLE('',#507,0.00199999999999995);
#358=CIRCLE('',#510,0.002);
#359=CIRCLE('',#511,0.002);
#360=CIRCLE('',#513,0.0021);
#361=CIRCLE('',#514,0.0021);
#362=CIRCLE('',#517,0.0021);
#363=CIRCLE('',#518,0.0021);
#364=EDGE_LOOP('',(#104,#105,#106,#107));
#365=EDGE_LOOP('',(#108,#109,#110,#111));
#366=EDGE_LOOP('',(#112,#113,#114,#115));
#367=EDGE_LOOP('',(#116,#117,#118,#119));
#368=EDGE_LOOP('',(#120,#121,#122,#123));
#369=EDGE_LOOP('',(#124,#125,#126,#127));
#370=EDGE_LOOP('',(#128,#129,#130,#131));
#371=EDGE_LOOP('',(#132,#133,#134,#135));
#372=EDGE_LOOP('',(#136,#137,#138,#139));
#373=EDGE_LOOP('',(#140,#141,#142,#143));
#374=EDGE_LOOP('',(#144,#145,#146,#147));
#375=EDGE_LOOP('',(#148,#149,#150,#151));
#376=EDGE_LOOP('',(#152,#153,#154,#155));
#377=EDGE_LOOP('',(#156,#157,#158,#159));
#378=EDGE_LOOP('',(#160,#161,#162,#163));
#379=EDGE_LOOP('',(#164,#165,#166,#167));
#380=EDGE_LOOP('',(#168,#169,#170,#171));
#381=EDGE_LOOP('',(#172,#173,#174,#175));
#382=EDGE_LOOP('',(#176,#177,#178,#179));
#383=EDGE_LOOP('',(#180));
#384=EDGE_LOOP('',(#181));
#385=EDGE_LOOP('',(#182,#183,#184,#185));
#386=EDGE_LOOP('',(#186));
#387=EDGE_LOOP('',(#187));
#388=EDGE_LOOP('',(#188,#189,#190,#191,#192,#193,#194,#195,#196,#197,#198,
#199,#200,#201,#202,#203,#204,#205,#206,#207));
#389=EDGE_LOOP('',(#208));
#390=EDGE_LOOP('',(#209));
#391=EDGE_LOOP('',(#210,#211,#212,#213,#214,#215,#216,#217,#218,#219,#220,
#221,#222,#223,#224,#225,#226,#227,#228,#229));
#392=EDGE_LOOP('',(#230));
#393=EDGE_LOOP('',(#231));
#394=FACE_BOUND('',#364,.T.);
#395=FACE_BOUND('',#365,.T.);
#396=FACE_BOUND('',#366,.T.);
#397=FACE_BOUND('',#367,.T.);
#398=FACE_BOUND('',#368,.T.);
#399=FACE_BOUND('',#369,.T.);
#400=FACE_BOUND('',#370,.T.);
#401=FACE_BOUND('',#371,.T.);
#402=FACE_BOUND('',#372,.T.);
#403=FACE_BOUND('',#373,.T.);
#404=FACE_BOUND('',#374,.T.);
#405=FACE_BOUND('',#375,.T.);
#406=FACE_BOUND('',#376,.T.);
#407=FACE_BOUND('',#377,.T.);
#408=FACE_BOUND('',#378,.T.);
#409=FACE_BOUND('',#379,.T.);
#410=FACE_BOUND('',#380,.T.);
#411=FACE_BOUND('',#381,.T.);
#412=FACE_BOUND('',#382,.T.);
#413=FACE_BOUND('',#383,.T.);
#414=FACE_BOUND('',#384,.T.);
#415=FACE_BOUND('',#385,.T.);
#416=FACE_BOUND('',#386,.T.);
#417=FACE_BOUND('',#387,.T.);
#418=FACE_BOUND('',#388,.T.);
#419=FACE_BOUND('',#389,.T.);
#420=FACE_BOUND('',#390,.T.);
#421=FACE_BOUND('',#391,.T.);
#422=FACE_BOUND('',#392,.T.);
#423=FACE_BOUND('',#393,.T.);
#424=CYLINDRICAL_SURFACE('',#473,0.002);
#425=CYLINDRICAL_SURFACE('',#477,0.002);
#426=CYLINDRICAL_SURFACE('',#481,0.002);
#427=CYLINDRICAL_SURFACE('',#485,0.002);
#428=CYLINDRICAL_SURFACE('',#489,0.00200000000000004);
#429=CYLINDRICAL_SURFACE('',#493,0.002);
#430=CYLINDRICAL_SURFACE('',#497,0.002);
#431=CYLINDRICAL_SURFACE('',#501,0.002);
#432=CYLINDRICAL_SURFACE('',#505,0.00199999999999995);
#433=CYLINDRICAL_SURFACE('',#509,0.002);
#434=CYLINDRICAL_SURFACE('',#512,0.0021);
#435=CYLINDRICAL_SURFACE('',#516,0.0021);
#436=ADVANCED_FACE('',(#394),#424,.F.);
#437=ADVANCED_FACE('',(#395),#12,.T.);
#438=ADVANCED_FACE('',(#396),#425,.T.);
#439=ADVANCED_FACE('',(#397),#13,.T.);
#440=ADVANCED_FACE('',(#398),#426,.T.);
#441=ADVANCED_FACE('',(#399),#14,.T.);
#442=ADVANCED_FACE('',(#400),#427,.T.);
#443=ADVANCED_FACE('',(#401),#15,.T.);
#444=ADVANCED_FACE('',(#402),#428,.T.);
#445=ADVANCED_FACE('',(#403),#16,.T.);
#446=ADVANCED_FACE('',(#404),#429,.F.);
#447=ADVANCED_FACE('',(#405),#17,.T.);
#448=ADVANCED_FACE('',(#406),#430,.T.);
#449=ADVANCED_FACE('',(#407),#18,.T.);
#450=ADVANCED_FACE('',(#408),#431,.T.);
#451=ADVANCED_FACE('',(#409),#19,.T.);
#452=ADVANCED_FACE('',(#410),#432,.T.);
#453=ADVANCED_FACE('',(#411),#20,.T.);
#454=ADVANCED_FACE('',(#412),#433,.F.);
#455=ADVANCED_FACE('',(#413,#414),#434,.F.);
#456=ADVANCED_FACE('',(#415),#21,.T.);
#457=ADVANCED_FACE('',(#416,#417),#435,.F.);
#458=ADVANCED_FACE('',(#418,#419,#420),#22,.F.);
#459=ADVANCED_FACE('',(#421,#422,#423),#23,.T.);
#460=CLOSED_SHELL('',(#436,#437,#438,#439,#440,#441,#442,#443,#444,#445,
#446,#447,#448,#449,#450,#451,#452,#453,#454,#455,#456,#457,#458,#459));
#461=STYLED_ITEM('',(#462),#469);
#462=PRESENTATION_STYLE_ASSIGNMENT((#463));
#463=SURFACE_STYLE_USAGE(.BOTH.,#464);
#464=SURFACE_SIDE_STYLE('',(#465));
#465=SURFACE_STYLE_FILL_AREA(#466);
#466=FILL_AREA_STYLE('',(#467));
#467=FILL_AREA_STYLE_COLOUR('',#468);
#468=COLOUR_RGB('',0.901960784313726,0.901960784313726,0.901960784313726);
#469=MANIFOLD_SOLID_BREP('Printed Front',#460);
#470=SHAPE_DEFINITION_REPRESENTATION(#798,#471);
#471=SHAPE_REPRESENTATION('Printed Front',(#472),#793);
#472=AXIS2_PLACEMENT_3D('',#659,#521,#522);
#473=AXIS2_PLACEMENT_3D('',#660,#523,#524);
#474=AXIS2_PLACEMENT_3D('',#661,#525,#526);
#475=AXIS2_PLACEMENT_3D('',#666,#528,#529);
#476=AXIS2_PLACEMENT_3D('',#669,#531,#532);
#477=AXIS2_PLACEMENT_3D('',#675,#536,#537);
#478=AXIS2_PLACEMENT_3D('',#676,#538,#539);
#479=AXIS2_PLACEMENT_3D('',#678,#540,#541);
#480=AXIS2_PLACEMENT_3D('',#681,#543,#544);
#481=AXIS2_PLACEMENT_3D('',#687,#548,#549);
#482=AXIS2_PLACEMENT_3D('',#688,#550,#551);
#483=AXIS2_PLACEMENT_3D('',#690,#552,#553);
#484=AXIS2_PLACEMENT_3D('',#693,#555,#556);
#485=AXIS2_PLACEMENT_3D('',#699,#560,#561);
#486=AXIS2_PLACEMENT_3D('',#700,#562,#563);
#487=AXIS2_PLACEMENT_3D('',#702,#564,#565);
#488=AXIS2_PLACEMENT_3D('',#705,#567,#568);
#489=AXIS2_PLACEMENT_3D('',#711,#572,#573);
#490=AXIS2_PLACEMENT_3D('',#712,#574,#575);
#491=AXIS2_PLACEMENT_3D('',#714,#576,#577);
#492=AXIS2_PLACEMENT_3D('',#717,#579,#580);
#493=AXIS2_PLACEMENT_3D('',#723,#584,#585);
#494=AXIS2_PLACEMENT_3D('',#724,#586,#587);
#495=AXIS2_PLACEMENT_3D('',#726,#588,#589);
#496=AXIS2_PLACEMENT_3D('',#729,#591,#592);
#497=AXIS2_PLACEMENT_3D('',#735,#596,#597);
#498=AXIS2_PLACEMENT_3D('',#736,#598,#599);
#499=AXIS2_PLACEMENT_3D('',#738,#600,#601);
#500=AXIS2_PLACEMENT_3D('',#741,#603,#604);
#501=AXIS2_PLACEMENT_3D('',#747,#608,#609);
#502=AXIS2_PLACEMENT_3D('',#748,#610,#611);
#503=AXIS2_PLACEMENT_3D('',#750,#612,#613);
#504=AXIS2_PLACEMENT_3D('',#753,#615,#616);
#505=AXIS2_PLACEMENT_3D('',#759,#620,#621);
#506=AXIS2_PLACEMENT_3D('',#760,#622,#623);
#507=AXIS2_PLACEMENT_3D('',#762,#624,#625);
#508=AXIS2_PLACEMENT_3D('',#765,#627,#628);
#509=AXIS2_PLACEMENT_3D('',#771,#632,#633);
#510=AXIS2_PLACEMENT_3D('',#772,#634,#635);
#511=AXIS2_PLACEMENT_3D('',#774,#636,#637);
#512=AXIS2_PLACEMENT_3D('',#777,#639,#640);
#513=AXIS2_PLACEMENT_3D('',#778,#641,#642);
#514=AXIS2_PLACEMENT_3D('',#780,#643,#644);
#515=AXIS2_PLACEMENT_3D('',#782,#645,#646);
#516=AXIS2_PLACEMENT_3D('',#785,#649,#650);
#517=AXIS2_PLACEMENT_3D('',#786,#651,#652);
#518=AXIS2_PLACEMENT_3D('',#788,#653,#654);
#519=AXIS2_PLACEMENT_3D('',#790,#655,#656);
#520=AXIS2_PLACEMENT_3D('',#791,#657,#658);
#521=DIRECTION('',(0.,0.,1.));
#522=DIRECTION('',(1.,0.,0.));
#523=DIRECTION('',(1.,0.,0.));
#524=DIRECTION('',(0.,0.,-1.));
#525=DIRECTION('',(1.,0.,0.));
#526=DIRECTION('',(0.,0.,-1.));
#527=DIRECTION('',(1.,0.,0.));
#528=DIRECTION('',(1.,0.,0.));
#529=DIRECTION('',(0.,0.,-1.));
#530=DIRECTION('',(1.,0.,0.));
#531=DIRECTION('',(0.,-0.760021647440944,-0.64989775766743));
#532=DIRECTION('',(0.,0.64989775766743,-0.760021647440944));
#533=DIRECTION('',(0.,0.64989775766743,-0.760021647440944));
#534=DIRECTION('',(0.,0.64989775766743,-0.760021647440944));
#535=DIRECTION('',(1.,0.,0.));
#536=DIRECTION('',(1.,0.,0.));
#537=DIRECTION('',(0.,0.,-1.));
#538=DIRECTION('',(1.,0.,0.));
#539=DIRECTION('',(0.,0.,-1.));
#540=DIRECTION('',(1.,0.,0.));
#541=DIRECTION('',(0.,0.,-1.));
#542=DIRECTION('',(1.,0.,0.));
#543=DIRECTION('',(0.,0.649897757667428,-0.760021647440945));
#544=DIRECTION('',(0.,0.760021647440945,0.649897757667429));
#545=DIRECTION('',(0.,0.760021647440945,0.649897757667429));
#546=DIRECTION('',(0.,0.760021647440945,0.649897757667429));
#547=DIRECTION('',(1.,0.,0.));
#548=DIRECTION('',(1.,0.,0.));
#549=DIRECTION('',(0.,0.,-1.));
#550=DIRECTION('',(1.,0.,0.));
#551=DIRECTION('',(0.,0.,-1.));
#552=DIRECTION('',(1.,0.,0.));
#553=DIRECTION('',(0.,0.,-1.));
#554=DIRECTION('',(1.,0.,0.));
#555=DIRECTION('',(0.,0.760021647440945,0.649897757667428));
#556=DIRECTION('',(0.,-0.649897757667429,0.760021647440945));
#557=DIRECTION('',(0.,-0.649897757667429,0.760021647440945));
#558=DIRECTION('',(0.,-0.649897757667429,0.760021647440945));
#559=DIRECTION('',(1.,0.,0.));
#560=DIRECTION('',(1.,0.,0.));
#561=DIRECTION('',(0.,0.,-1.));
#562=DIRECTION('',(1.,0.,0.));
#563=DIRECTION('',(0.,0.,-1.));
#564=DIRECTION('',(1.,0.,0.));
#565=DIRECTION('',(0.,0.,-1.));
#566=DIRECTION('',(1.,0.,0.));
#567=DIRECTION('',(0.,-0.649897757667429,0.760021647440945));
#568=DIRECTION('',(0.,-0.760021647440945,-0.649897757667429));
#569=DIRECTION('',(0.,-0.760021647440945,-0.649897757667429));
#570=DIRECTION('',(0.,-0.760021647440945,-0.649897757667429));
#571=DIRECTION('',(1.,0.,0.));
#572=DIRECTION('',(1.,0.,0.));
#573=DIRECTION('',(0.,0.,-1.));
#574=DIRECTION('',(1.,0.,0.));
#575=DIRECTION('',(0.,0.,-1.));
#576=DIRECTION('',(1.,0.,0.));
#577=DIRECTION('',(0.,0.,-1.));
#578=DIRECTION('',(1.,0.,0.));
#579=DIRECTION('',(0.,-0.760021647440946,-0.649897757667428));
#580=DIRECTION('',(0.,0.649897757667428,-0.760021647440946));
#581=DIRECTION('',(0.,0.649897757667428,-0.760021647440946));
#582=DIRECTION('',(0.,0.649897757667428,-0.760021647440946));
#583=DIRECTION('',(1.,0.,0.));
#584=DIRECTION('',(1.,0.,0.));
#585=DIRECTION('',(0.,0.,-1.));
#586=DIRECTION('',(1.,0.,0.));
#587=DIRECTION('',(0.,0.,-1.));
#588=DIRECTION('',(1.,0.,0.));
#589=DIRECTION('',(0.,0.,-1.));
#590=DIRECTION('',(1.,0.,0.));
#591=DIRECTION('',(0.,-0.822655786461208,0.568539758505852));
#592=DIRECTION('',(0.,-0.568539758505852,-0.822655786461208));
#593=DIRECTION('',(0.,-0.568539758505852,-0.822655786461208));
#594=DIRECTION('',(0.,-0.568539758505852,-0.822655786461208));
#595=DIRECTION('',(1.,0.,0.));
#596=DIRECTION('',(1.,0.,0.));
#597=DIRECTION('',(0.,0.,-1.));
#598=DIRECTION('',(1.,0.,0.));
#599=DIRECTION('',(0.,0.,-1.));
#600=DIRECTION('',(1.,0.,0.));
#601=DIRECTION('',(0.,0.,-1.));
#602=DIRECTION('',(1.,0.,0.));
#603=DIRECTION('',(0.,-0.56853975855014,-0.8226557864306));
#604=DIRECTION('',(0.,0.8226557864306,-0.56853975855014));
#605=DIRECTION('',(0.,0.8226557864306,-0.56853975855014));
#606=DIRECTION('',(0.,0.8226557864306,-0.56853975855014));
#607=DIRECTION('',(1.,0.,0.));
#608=DIRECTION('',(1.,0.,0.));
#609=DIRECTION('',(0.,0.,-1.));
#610=DIRECTION('',(1.,0.,0.));
#611=DIRECTION('',(0.,0.,-1.));
#612=DIRECTION('',(1.,0.,0.));
#613=DIRECTION('',(0.,0.,-1.));
#614=DIRECTION('',(1.,0.,0.));
#615=DIRECTION('',(0.,0.822655786461208,-0.568539758505851));
#616=DIRECTION('',(0.,0.568539758505852,0.822655786461208));
#617=DIRECTION('',(0.,0.568539758505852,0.822655786461208));
#618=DIRECTION('',(0.,0.568539758505852,0.822655786461208));
#619=DIRECTION('',(1.,0.,0.));
#620=DIRECTION('',(1.,0.,0.));
#621=DIRECTION('',(0.,0.,-1.));
#622=DIRECTION('',(1.,0.,0.));
#623=DIRECTION('',(0.,0.,-1.));
#624=DIRECTION('',(1.,0.,0.));
#625=DIRECTION('',(0.,0.,-1.));
#626=DIRECTION('',(1.,0.,0.));
#627=DIRECTION('',(0.,0.568539758505852,0.822655786461208));
#628=DIRECTION('',(0.,-0.822655786461208,0.568539758505852));
#629=DIRECTION('',(0.,-0.822655786461208,0.568539758505852));
#630=DIRECTION('',(0.,-0.822655786461208,0.568539758505852));
#631=DIRECTION('',(1.,0.,0.));
#632=DIRECTION('',(1.,0.,0.));
#633=DIRECTION('',(0.,0.,-1.));
#634=DIRECTION('',(1.,0.,0.));
#635=DIRECTION('',(0.,0.,-1.));
#636=DIRECTION('',(1.,0.,0.));
#637=DIRECTION('',(0.,0.,-1.));
#638=DIRECTION('',(1.,0.,0.));
#639=DIRECTION('',(1.,0.,0.));
#640=DIRECTION('',(0.,0.,-1.));
#641=DIRECTION('',(1.,0.,0.));
#642=DIRECTION('',(0.,0.,-1.));
#643=DIRECTION('',(1.,0.,0.));
#644=DIRECTION('',(0.,0.,-1.));
#645=DIRECTION('',(0.,0.822655786461208,-0.568539758505851));
#646=DIRECTION('',(0.,0.568539758505851,0.822655786461208));
#647=DIRECTION('',(0.,0.568539758505851,0.822655786461208));
#648=DIRECTION('',(0.,0.568539758505851,0.822655786461208));
#649=DIRECTION('',(1.,0.,0.));
#650=DIRECTION('',(0.,0.,-1.));
#651=DIRECTION('',(1.,0.,0.));
#652=DIRECTION('',(0.,0.,-1.));
#653=DIRECTION('',(1.,0.,0.));
#654=DIRECTION('',(0.,0.,-1.));
#655=DIRECTION('',(1.,0.,0.));
#656=DIRECTION('',(0.,1.,0.));
#657=DIRECTION('',(1.,0.,0.));
#658=DIRECTION('',(0.,1.,0.));
#659=CARTESIAN_POINT('',(0.,0.,0.));
#660=CARTESIAN_POINT('',(0.0943,-0.300190062263582,0.0179847874413686));
#661=CARTESIAN_POINT('',(0.1,-0.300190062263582,0.0179847874413686));
#662=CARTESIAN_POINT('',(0.1,-0.2986700189687,0.0192845829567034));
#663=CARTESIAN_POINT('',(0.1,-0.301835373836504,0.0191218669583802));
#664=CARTESIAN_POINT('',(0.0943,-0.301835373836504,0.0191218669583802));
#665=CARTESIAN_POINT('',(0.0943,-0.301835373836504,0.0191218669583802));
#666=CARTESIAN_POINT('',(0.0943,-0.300190062263582,0.0179847874413686));
#667=CARTESIAN_POINT('',(0.0943,-0.2986700189687,0.0192845829567034));
#668=CARTESIAN_POINT('',(0.0943,-0.2986700189687,0.0192845829567034));
#669=CARTESIAN_POINT('',(0.0943,-0.297855226474011,0.0183317254851553));
#670=CARTESIAN_POINT('',(0.1,-0.297855226474011,0.0183317254851553));
#671=CARTESIAN_POINT('',(0.1,-0.297040433979323,0.017378868013607));
#672=CARTESIAN_POINT('',(0.0943,-0.297855226474011,0.0183317254851553));
#673=CARTESIAN_POINT('',(0.0943,-0.297040433979323,0.017378868013607));
#674=CARTESIAN_POINT('',(0.0943,-0.297040433979323,0.017378868013607));
#675=CARTESIAN_POINT('',(0.0943,-0.295520390684441,0.018678663528942));
#676=CARTESIAN_POINT('',(0.1,-0.295520390684441,0.018678663528942));
#677=CARTESIAN_POINT('',(0.1,-0.294220595169106,0.0171586202340601));
#678=CARTESIAN_POINT('',(0.0943,-0.295520390684441,0.018678663528942));
#679=CARTESIAN_POINT('',(0.0943,-0.294220595169106,0.0171586202340601));
#680=CARTESIAN_POINT('',(0.0943,-0.294220595169106,0.0171586202340601));
#681=CARTESIAN_POINT('',(0.0943,-0.290700237136593,0.0201688934272251));
#682=CARTESIAN_POINT('',(0.1,-0.290700237136593,0.0201688934272251));
#683=CARTESIAN_POINT('',(0.1,-0.287179879104081,0.02317916662039));
#684=CARTESIAN_POINT('',(0.0943,-0.290700237136593,0.0201688934272251));
#685=CARTESIAN_POINT('',(0.0943,-0.287179879104081,0.02317916662039));
#686=CARTESIAN_POINT('',(0.0943,-0.287179879104081,0.02317916662039));
#687=CARTESIAN_POINT('',(0.0943,-0.288479674619416,0.0246992099152719));
#688=CARTESIAN_POINT('',(0.1,-0.288479674619416,0.0246992099152719));
#689=CARTESIAN_POINT('',(0.1,-0.286959631324534,0.0259990054306068));
#690=CARTESIAN_POINT('',(0.0943,-0.288479674619416,0.0246992099152719));
#691=CARTESIAN_POINT('',(0.0943,-0.286959631324534,0.0259990054306068));
#692=CARTESIAN_POINT('',(0.0943,-0.286959631324534,0.0259990054306068));
#693=CARTESIAN_POINT('',(0.0943,-0.29540830217421,0.035879286847339));
#694=CARTESIAN_POINT('',(0.1,-0.29540830217421,0.035879286847339));
#695=CARTESIAN_POINT('',(0.1,-0.303856973023886,0.0457595682640713));
#696=CARTESIAN_POINT('',(0.0943,-0.29540830217421,0.035879286847339));
#697=CARTESIAN_POINT('',(0.0943,-0.303856973023886,0.0457595682640713));
#698=CARTESIAN_POINT('',(0.0943,-0.303856973023886,0.0457595682640713));
#699=CARTESIAN_POINT('',(0.0943,-0.305377016318769,0.0444597727487364));
#700=CARTESIAN_POINT('',(0.1,-0.305377016318769,0.0444597727487364));
#701=CARTESIAN_POINT('',(0.1,-0.306676811834104,0.0459798160436183));
#702=CARTESIAN_POINT('',(0.0943,-0.305377016318769,0.0444597727487364));
#703=CARTESIAN_POINT('',(0.0943,-0.306676811834104,0.0459798160436183));
#704=CARTESIAN_POINT('',(0.0943,-0.306676811834104,0.0459798160436183));
#705=CARTESIAN_POINT('',(0.0943,-0.310844589308134,0.0424159317201265));
#706=CARTESIAN_POINT('',(0.1,-0.310844589308134,0.0424159317201265));
#707=CARTESIAN_POINT('',(0.1,-0.315012366782164,0.0388520473966346));
#708=CARTESIAN_POINT('',(0.0943,-0.310844589308134,0.0424159317201265));
#709=CARTESIAN_POINT('',(0.0943,-0.315012366782164,0.0388520473966346));
#710=CARTESIAN_POINT('',(0.0943,-0.315012366782164,0.0388520473966346));
#711=CARTESIAN_POINT('',(0.0943,-0.313712571266829,0.0373320041017529));
#712=CARTESIAN_POINT('',(0.1,-0.313712571266829,0.0373320041017529));
#713=CARTESIAN_POINT('',(0.1,-0.315232614561712,0.036032208586418));
#714=CARTESIAN_POINT('',(0.0943,-0.313712571266829,0.0373320041017529));
#715=CARTESIAN_POINT('',(0.0943,-0.315232614561712,0.036032208586418));
#716=CARTESIAN_POINT('',(0.0943,-0.315232614561712,0.036032208586418));
#717=CARTESIAN_POINT('',(0.0943,-0.314073973011007,0.0346772375163224));
#718=CARTESIAN_POINT('',(0.1,-0.314073973011007,0.0346772375163224));
#719=CARTESIAN_POINT('',(0.1,-0.312915331460304,0.0333222664462269));
#720=CARTESIAN_POINT('',(0.0943,-0.314073973011007,0.0346772375163224));
#721=CARTESIAN_POINT('',(0.0943,-0.312915331460304,0.0333222664462269));
#722=CARTESIAN_POINT('',(0.0943,-0.312915331460304,0.0333222664462269));
#723=CARTESIAN_POINT('',(0.0943,-0.314435374755186,0.0320224709308921));
#724=CARTESIAN_POINT('',(0.1,-0.314435374755186,0.0320224709308921));
#725=CARTESIAN_POINT('',(0.1,-0.312790063182263,0.0308853914138804));
#726=CARTESIAN_POINT('',(0.0943,-0.314435374755186,0.0320224709308921));
#727=CARTESIAN_POINT('',(0.0943,-0.312790063182263,0.0308853914138804));
#728=CARTESIAN_POINT('',(0.0943,-0.312790063182263,0.0308853914138804));
#729=CARTESIAN_POINT('',(0.0943,-0.31477311951225,0.0280159830034137));
#730=CARTESIAN_POINT('',(0.1,-0.31477311951225,0.0280159830034137));
#731=CARTESIAN_POINT('',(0.1,-0.323341330340706,0.015618102095008));
#732=CARTESIAN_POINT('',(0.0943,-0.31477311951225,0.0280159830034137));
#733=CARTESIAN_POINT('',(0.0943,-0.323341330340706,0.015618102095008));
#734=CARTESIAN_POINT('',(0.0943,-0.323341330340706,0.015618102095008));
#735=CARTESIAN_POINT('',(0.0943,-0.321696018767783,0.0144810225779963));
#736=CARTESIAN_POINT('',(0.1,-0.321696018767783,0.0144810225779963));
#737=CARTESIAN_POINT('',(0.1,-0.322833098284883,0.0128357110051351));
#738=CARTESIAN_POINT('',(0.0943,-0.321696018767783,0.0144810225779963));
#739=CARTESIAN_POINT('',(0.0943,-0.322833098284883,0.0128357110051351));
#740=CARTESIAN_POINT('',(0.0943,-0.322833098284883,0.0128357110051351));
#741=CARTESIAN_POINT('',(0.0943,-0.312139449720754,0.00544530000583986));
#742=CARTESIAN_POINT('',(0.1,-0.312139449720754,0.00544530000583986));
#743=CARTESIAN_POINT('',(0.1,-0.301445801156624,-0.00194511099345536));
#744=CARTESIAN_POINT('',(0.0943,-0.312139449720754,0.00544530000583986));
#745=CARTESIAN_POINT('',(0.0943,-0.301445801156624,-0.00194511099345536));
#746=CARTESIAN_POINT('',(0.0943,-0.301445801156624,-0.00194511099345536));
#747=CARTESIAN_POINT('',(0.0943,-0.300308721639523,-0.000299799420594159));
#748=CARTESIAN_POINT('',(0.1,-0.300308721639523,-0.000299799420594159));
#749=CARTESIAN_POINT('',(0.1,-0.298663410066601,-0.00143687893760589));
#750=CARTESIAN_POINT('',(0.0943,-0.300308721639523,-0.000299799420594159));
#751=CARTESIAN_POINT('',(0.0943,-0.298663410066601,-0.00143687893760589));
#752=CARTESIAN_POINT('',(0.0943,-0.298663410066601,-0.00143687893760589));
#753=CARTESIAN_POINT('',(0.0943,-0.29829462178917,-0.000903256080333248));
#754=CARTESIAN_POINT('',(0.1,-0.29829462178917,-0.000903256080333248));
#755=CARTESIAN_POINT('',(0.1,-0.29792583351174,-0.000369633223060609));
#756=CARTESIAN_POINT('',(0.0943,-0.29829462178917,-0.000903256080333248));
#757=CARTESIAN_POINT('',(0.0943,-0.29792583351174,-0.000369633223060609));
#758=CARTESIAN_POINT('',(0.0943,-0.29792583351174,-0.000369633223060609));
#759=CARTESIAN_POINT('',(0.0943,-0.299571145084662,0.000767446293951188));
#760=CARTESIAN_POINT('',(0.1,-0.299571145084662,0.000767446293951188));
#761=CARTESIAN_POINT('',(0.1,-0.298434065567651,0.00241275786687351));
#762=CARTESIAN_POINT('',(0.0943,-0.299571145084662,0.000767446293951188));
#763=CARTESIAN_POINT('',(0.0943,-0.298434065567651,0.00241275786687351));
#764=CARTESIAN_POINT('',(0.0943,-0.298434065567651,0.00241275786687351));
#765=CARTESIAN_POINT('',(0.0943,-0.30266987857615,0.00534014030866885));
#766=CARTESIAN_POINT('',(0.1,-0.30266987857615,0.00534014030866885));
#767=CARTESIAN_POINT('',(0.1,-0.306905691584648,0.00826752275046419));
#768=CARTESIAN_POINT('',(0.0943,-0.30266987857615,0.00534014030866885));
#769=CARTESIAN_POINT('',(0.0943,-0.306905691584648,0.00826752275046419));
#770=CARTESIAN_POINT('',(0.0943,-0.306905691584648,0.00826752275046419));
#771=CARTESIAN_POINT('',(0.0943,-0.305768612067637,0.00991283432338659));
#772=CARTESIAN_POINT('',(0.1,-0.305768612067637,0.00991283432338659));
#773=CARTESIAN_POINT('',(0.1,-0.307413923640559,0.0110499138403983));
#774=CARTESIAN_POINT('',(0.0943,-0.305768612067637,0.00991283432338659));
#775=CARTESIAN_POINT('',(0.0943,-0.307413923640559,0.0110499138403983));
#776=CARTESIAN_POINT('',(0.0943,-0.307413923640559,0.0110499138403983));
#777=CARTESIAN_POINT('',(0.0943,-0.304612942701147,0.0289101039006345));
#778=CARTESIAN_POINT('',(0.0943,-0.304612942701147,0.0289101039006345));
#779=CARTESIAN_POINT('',(0.0943,-0.304612942701147,0.0268101039006345));
#780=CARTESIAN_POINT('',(0.1,-0.304612942701147,0.0289101039006345));
#781=CARTESIAN_POINT('',(0.1,-0.304612942701147,0.0268101039006345));
#782=CARTESIAN_POINT('',(0.0943,-0.305627214185368,0.0136352156597484));
#783=CARTESIAN_POINT('',(0.1,-0.305627214185368,0.0136352156597484));
#784=CARTESIAN_POINT('',(0.0943,-0.305627214185368,0.0136352156597484));
#785=CARTESIAN_POINT('',(0.0943,-0.315983737871264,0.0124569881714103));
#786=CARTESIAN_POINT('',(0.0943,-0.315983737871264,0.0124569881714103));
#787=CARTESIAN_POINT('',(0.0943,-0.315983737871264,0.0103569881714103));
#788=CARTESIAN_POINT('',(0.1,-0.315983737871264,0.0124569881714103));
#789=CARTESIAN_POINT('',(0.1,-0.315983737871264,0.0103569881714103));
#790=CARTESIAN_POINT('',(0.0943,-0.3050878466936,0.0220799866640712));
#791=CARTESIAN_POINT('',(0.1,-0.3050878466936,0.0220799866640712));
#792=MECHANICAL_DESIGN_GEOMETRIC_PRESENTATION_REPRESENTATION('',(#461),
#793);
#793=(
GEOMETRIC_REPRESENTATION_CONTEXT(3)
GLOBAL_UNCERTAINTY_ASSIGNED_CONTEXT((#794))
GLOBAL_UNIT_ASSIGNED_CONTEXT((#797,#796,#795))
REPRESENTATION_CONTEXT('Printed Front','TOP_LEVEL_ASSEMBLY_PART')
);
#794=UNCERTAINTY_MEASURE_WITH_UNIT(LENGTH_MEASURE(1.E-8),#797,
'DISTANCE_ACCURACY_VALUE','Maximum Tolerance applied to model');
#795=(
NAMED_UNIT(*)
SI_UNIT($,.STERADIAN.)
SOLID_ANGLE_UNIT()
);
#796=(
NAMED_UNIT(*)
PLANE_ANGLE_UNIT()
SI_UNIT($,.RADIAN.)
);
#797=(
LENGTH_UNIT()
NAMED_UNIT(*)
SI_UNIT($,.METRE.)
);
#798=PRODUCT_DEFINITION_SHAPE('','',#799);
#799=PRODUCT_DEFINITION('','',#801,#800);
#800=PRODUCT_DEFINITION_CONTEXT('',#807,'design');
#801=PRODUCT_DEFINITION_FORMATION_WITH_SPECIFIED_SOURCE('','',#803,
 .NOT_KNOWN.);
#802=PRODUCT_RELATED_PRODUCT_CATEGORY('','',(#803));
#803=PRODUCT('Printed Front','Printed Front','Printed Front',(#805));
#804=PRODUCT_CATEGORY('','');
#805=PRODUCT_CONTEXT('',#807,'mechanical');
#806=APPLICATION_PROTOCOL_DEFINITION('international standard',
'ap242_managed_model_based_3d_engineering',2020,#807);
#807=APPLICATION_CONTEXT('managed model based 3d engineering');
ENDSEC;
END-ISO-10303-21;
