ISO-10303-21;
HEADER;
/* Generated by software containing ST-Developer
 * from STEP Tools, Inc. (www.steptools.com) 
 */
/* OPTION: using custom renumber hook */

FILE_DESCRIPTION(
/* description */ ('STEP AP214',
'CAx-IF Rec.Pracs.---User Defined Attributes---1.5---2016-08-15'),
/* implementation_level */ '2;1');

FILE_NAME(
/* name */ '6a7fbeec24fbe7dc02d484fe',
/* time_stamp */ '2026-08-15T01:20:47Z',
/* author */ (''),
/* organization */ (''),
/* preprocessor_version */ 'ST-DEVELOPER v20',
/* originating_system */ 'ONSHAPE BY PTC INC, 1.219',
/* authorisation */ '  ');

FILE_SCHEMA (('AUTOMOTIVE_DESIGN {1 0 10303 214 3 1 1}'));
ENDSEC;

DATA;
#10=PROPERTY_DEFINITION_REPRESENTATION(#14,#12);
#11=PROPERTY_DEFINITION_REPRESENTATION(#15,#13);
#12=REPRESENTATION('',(#16),#386);
#13=REPRESENTATION('',(#17),#386);
#14=PROPERTY_DEFINITION('pmi validation property','',#401);
#15=PROPERTY_DEFINITION('pmi validation property','',#401);
#16=VALUE_REPRESENTATION_ITEM('number of annotations',COUNT_MEASURE(0.));
#17=VALUE_REPRESENTATION_ITEM('number of views',COUNT_MEASURE(0.));
#18=CYLINDRICAL_SURFACE('',#255,0.02);
#19=CYLINDRICAL_SURFACE('',#256,0.018);
#20=CYLINDRICAL_SURFACE('',#264,0.02);
#21=CYLINDRICAL_SURFACE('',#265,0.018);
#22=CIRCLE('',#253,0.018);
#23=CIRCLE('',#254,0.02);
#24=CIRCLE('',#259,0.018);
#25=CIRCLE('',#260,0.02);
#26=ELLIPSE('',#250,0.0222520388095039,0.02);
#27=ELLIPSE('',#251,0.0200268349285535,0.018);
#28=ELLIPSE('',#262,0.0222520388095038,0.02);
#29=ELLIPSE('',#263,0.0200268349285534,0.018);
#30=SHAPE_REPRESENTATION_RELATIONSHIP('','',#238,#33);
#31=SHAPE_REPRESENTATION_RELATIONSHIP('','',#239,#34);
#32=SHAPE_REPRESENTATION_RELATIONSHIP('','',#240,#35);
#33=ADVANCED_BREP_SHAPE_REPRESENTATION('',(#232),#384);
#34=ADVANCED_BREP_SHAPE_REPRESENTATION('',(#233),#385);
#35=ADVANCED_BREP_SHAPE_REPRESENTATION('',(#234),#386);
#36=ORIENTED_EDGE('',*,*,#76,.F.);
#37=ORIENTED_EDGE('',*,*,#77,.F.);
#38=ORIENTED_EDGE('',*,*,#78,.T.);
#39=ORIENTED_EDGE('',*,*,#79,.T.);
#40=ORIENTED_EDGE('',*,*,#80,.T.);
#41=ORIENTED_EDGE('',*,*,#81,.F.);
#42=ORIENTED_EDGE('',*,*,#82,.F.);
#43=ORIENTED_EDGE('',*,*,#77,.T.);
#44=ORIENTED_EDGE('',*,*,#83,.T.);
#45=ORIENTED_EDGE('',*,*,#84,.F.);
#46=ORIENTED_EDGE('',*,*,#85,.F.);
#47=ORIENTED_EDGE('',*,*,#81,.T.);
#48=ORIENTED_EDGE('',*,*,#86,.F.);
#49=ORIENTED_EDGE('',*,*,#79,.F.);
#50=ORIENTED_EDGE('',*,*,#87,.T.);
#51=ORIENTED_EDGE('',*,*,#84,.T.);
#52=ORIENTED_EDGE('',*,*,#78,.F.);
#53=ORIENTED_EDGE('',*,*,#82,.T.);
#54=ORIENTED_EDGE('',*,*,#85,.T.);
#55=ORIENTED_EDGE('',*,*,#87,.F.);
#56=ORIENTED_EDGE('',*,*,#76,.T.);
#57=ORIENTED_EDGE('',*,*,#86,.T.);
#58=ORIENTED_EDGE('',*,*,#83,.F.);
#59=ORIENTED_EDGE('',*,*,#80,.F.);
#60=ORIENTED_EDGE('',*,*,#88,.T.);
#61=ORIENTED_EDGE('',*,*,#89,.F.);
#62=ORIENTED_EDGE('',*,*,#90,.F.);
#63=ORIENTED_EDGE('',*,*,#91,.T.);
#64=ORIENTED_EDGE('',*,*,#91,.F.);
#65=ORIENTED_EDGE('',*,*,#88,.F.);
#66=ORIENTED_EDGE('',*,*,#89,.T.);
#67=ORIENTED_EDGE('',*,*,#90,.T.);
#68=ORIENTED_EDGE('',*,*,#92,.F.);
#69=ORIENTED_EDGE('',*,*,#93,.T.);
#70=ORIENTED_EDGE('',*,*,#94,.T.);
#71=ORIENTED_EDGE('',*,*,#95,.F.);
#72=ORIENTED_EDGE('',*,*,#93,.F.);
#73=ORIENTED_EDGE('',*,*,#94,.F.);
#74=ORIENTED_EDGE('',*,*,#95,.T.);
#75=ORIENTED_EDGE('',*,*,#92,.T.);
#76=EDGE_CURVE('',#96,#97,#112,.T.);
#77=EDGE_CURVE('',#98,#96,#113,.T.);
#78=EDGE_CURVE('',#98,#99,#114,.T.);
#79=EDGE_CURVE('',#99,#97,#115,.T.);
#80=EDGE_CURVE('',#96,#100,#116,.T.);
#81=EDGE_CURVE('',#101,#100,#117,.T.);
#82=EDGE_CURVE('',#98,#101,#118,.T.);
#83=EDGE_CURVE('',#100,#102,#119,.T.);
#84=EDGE_CURVE('',#103,#102,#120,.T.);
#85=EDGE_CURVE('',#101,#103,#121,.T.);
#86=EDGE_CURVE('',#97,#102,#122,.T.);
#87=EDGE_CURVE('',#99,#103,#123,.T.);
#88=EDGE_CURVE('',#104,#104,#26,.F.);
#89=EDGE_CURVE('',#105,#105,#27,.F.);
#90=EDGE_CURVE('',#106,#106,#22,.T.);
#91=EDGE_CURVE('',#107,#107,#23,.T.);
#92=EDGE_CURVE('',#108,#108,#24,.T.);
#93=EDGE_CURVE('',#109,#109,#25,.T.);
#94=EDGE_CURVE('',#110,#110,#28,.F.);
#95=EDGE_CURVE('',#111,#111,#29,.F.);
#96=VERTEX_POINT('',#331);
#97=VERTEX_POINT('',#332);
#98=VERTEX_POINT('',#334);
#99=VERTEX_POINT('',#336);
#100=VERTEX_POINT('',#340);
#101=VERTEX_POINT('',#342);
#102=VERTEX_POINT('',#346);
#103=VERTEX_POINT('',#348);
#104=VERTEX_POINT('',#358);
#105=VERTEX_POINT('',#360);
#106=VERTEX_POINT('',#363);
#107=VERTEX_POINT('',#365);
#108=VERTEX_POINT('',#371);
#109=VERTEX_POINT('',#373);
#110=VERTEX_POINT('',#376);
#111=VERTEX_POINT('',#378);
#112=LINE('',#330,#124);
#113=LINE('',#333,#125);
#114=LINE('',#335,#126);
#115=LINE('',#337,#127);
#116=LINE('',#339,#128);
#117=LINE('',#341,#129);
#118=LINE('',#343,#130);
#119=LINE('',#345,#131);
#120=LINE('',#347,#132);
#121=LINE('',#349,#133);
#122=LINE('',#351,#134);
#123=LINE('',#352,#135);
#124=VECTOR('',#270,1.);
#125=VECTOR('',#271,1.);
#126=VECTOR('',#272,1.);
#127=VECTOR('',#273,1.);
#128=VECTOR('',#276,1.);
#129=VECTOR('',#277,1.);
#130=VECTOR('',#278,1.);
#131=VECTOR('',#281,1.);
#132=VECTOR('',#282,1.);
#133=VECTOR('',#283,1.);
#134=VECTOR('',#286,1.);
#135=VECTOR('',#287,1.);
#136=EDGE_LOOP('',(#36,#37,#38,#39));
#137=EDGE_LOOP('',(#40,#41,#42,#43));
#138=EDGE_LOOP('',(#44,#45,#46,#47));
#139=EDGE_LOOP('',(#48,#49,#50,#51));
#140=EDGE_LOOP('',(#52,#53,#54,#55));
#141=EDGE_LOOP('',(#56,#57,#58,#59));
#142=EDGE_LOOP('',(#60));
#143=EDGE_LOOP('',(#61));
#144=EDGE_LOOP('',(#62));
#145=EDGE_LOOP('',(#63));
#146=EDGE_LOOP('',(#64));
#147=EDGE_LOOP('',(#65));
#148=EDGE_LOOP('',(#66));
#149=EDGE_LOOP('',(#67));
#150=EDGE_LOOP('',(#68));
#151=EDGE_LOOP('',(#69));
#152=EDGE_LOOP('',(#70));
#153=EDGE_LOOP('',(#71));
#154=EDGE_LOOP('',(#72));
#155=EDGE_LOOP('',(#73));
#156=EDGE_LOOP('',(#74));
#157=EDGE_LOOP('',(#75));
#158=FACE_BOUND('',#136,.T.);
#159=FACE_BOUND('',#137,.T.);
#160=FACE_BOUND('',#138,.T.);
#161=FACE_BOUND('',#139,.T.);
#162=FACE_BOUND('',#140,.T.);
#163=FACE_BOUND('',#141,.T.);
#164=FACE_BOUND('',#142,.T.);
#165=FACE_BOUND('',#143,.T.);
#166=FACE_BOUND('',#144,.T.);
#167=FACE_BOUND('',#145,.T.);
#168=FACE_BOUND('',#146,.T.);
#169=FACE_BOUND('',#147,.T.);
#170=FACE_BOUND('',#148,.T.);
#171=FACE_BOUND('',#149,.T.);
#172=FACE_BOUND('',#150,.T.);
#173=FACE_BOUND('',#151,.T.);
#174=FACE_BOUND('',#152,.T.);
#175=FACE_BOUND('',#153,.T.);
#176=FACE_BOUND('',#154,.T.);
#177=FACE_BOUND('',#155,.T.);
#178=FACE_BOUND('',#156,.T.);
#179=FACE_BOUND('',#157,.T.);
#180=PLANE('',#242);
#181=PLANE('',#243);
#182=PLANE('',#244);
#183=PLANE('',#245);
#184=PLANE('',#246);
#185=PLANE('',#247);
#186=PLANE('',#249);
#187=PLANE('',#252);
#188=PLANE('',#258);
#189=PLANE('',#261);
#190=ADVANCED_FACE('',(#158),#180,.T.);
#191=ADVANCED_FACE('',(#159),#181,.F.);
#192=ADVANCED_FACE('',(#160),#182,.F.);
#193=ADVANCED_FACE('',(#161),#183,.T.);
#194=ADVANCED_FACE('',(#162),#184,.T.);
#195=ADVANCED_FACE('',(#163),#185,.F.);
#196=ADVANCED_FACE('',(#164,#165),#186,.F.);
#197=ADVANCED_FACE('',(#166,#167),#187,.F.);
#198=ADVANCED_FACE('',(#168,#169),#18,.T.);
#199=ADVANCED_FACE('',(#170,#171),#19,.F.);
#200=ADVANCED_FACE('',(#172,#173),#188,.T.);
#201=ADVANCED_FACE('',(#174,#175),#189,.F.);
#202=ADVANCED_FACE('',(#176,#177),#20,.T.);
#203=ADVANCED_FACE('',(#178,#179),#21,.F.);
#204=CLOSED_SHELL('',(#190,#191,#192,#193,#194,#195));
#205=CLOSED_SHELL('',(#196,#197,#198,#199));
#206=CLOSED_SHELL('',(#200,#201,#202,#203));
#207=STYLED_ITEM('',(#210),#232);
#208=STYLED_ITEM('',(#211),#233);
#209=STYLED_ITEM('',(#212),#234);
#210=PRESENTATION_STYLE_ASSIGNMENT((#213));
#211=PRESENTATION_STYLE_ASSIGNMENT((#214));
#212=PRESENTATION_STYLE_ASSIGNMENT((#215));
#213=SURFACE_STYLE_USAGE(.BOTH.,#216);
#214=SURFACE_STYLE_USAGE(.BOTH.,#217);
#215=SURFACE_STYLE_USAGE(.BOTH.,#218);
#216=SURFACE_SIDE_STYLE('',(#221,#219));
#217=SURFACE_SIDE_STYLE('',(#222));
#218=SURFACE_SIDE_STYLE('',(#223));
#219=SURFACE_STYLE_RENDERING_WITH_PROPERTIES(.CONSTANT_SHADING.,#230,(#220));
#220=SURFACE_STYLE_TRANSPARENT(0.749019607843137);
#221=SURFACE_STYLE_FILL_AREA(#224);
#222=SURFACE_STYLE_FILL_AREA(#225);
#223=SURFACE_STYLE_FILL_AREA(#226);
#224=FILL_AREA_STYLE('',(#227));
#225=FILL_AREA_STYLE('',(#228));
#226=FILL_AREA_STYLE('',(#229));
#227=FILL_AREA_STYLE_COLOUR('',#230);
#228=FILL_AREA_STYLE_COLOUR('',#231);
#229=FILL_AREA_STYLE_COLOUR('',#231);
#230=COLOUR_RGB('',0.498039215686275,0.498039215686275,0.498039215686275);
#231=COLOUR_RGB('',0.501960784313726,0.501960784313726,0.501960784313726);
#232=MANIFOLD_SOLID_BREP('Origin Cube',#204);
#233=MANIFOLD_SOLID_BREP('Arm Front Right',#205);
#234=MANIFOLD_SOLID_BREP('Arm Back Right',#206);
#235=SHAPE_DEFINITION_REPRESENTATION(#399,#238);
#236=SHAPE_DEFINITION_REPRESENTATION(#400,#239);
#237=SHAPE_DEFINITION_REPRESENTATION(#401,#240);
#238=SHAPE_REPRESENTATION('Origin Cube',(#241),#384);
#239=SHAPE_REPRESENTATION('Arm Front Right',(#248),#385);
#240=SHAPE_REPRESENTATION('Arm Back Right',(#257),#386);
#241=AXIS2_PLACEMENT_3D('',#328,#266,#267);
#242=AXIS2_PLACEMENT_3D('',#329,#268,#269);
#243=AXIS2_PLACEMENT_3D('',#338,#274,#275);
#244=AXIS2_PLACEMENT_3D('',#344,#279,#280);
#245=AXIS2_PLACEMENT_3D('',#350,#284,#285);
#246=AXIS2_PLACEMENT_3D('',#353,#288,#289);
#247=AXIS2_PLACEMENT_3D('',#354,#290,#291);
#248=AXIS2_PLACEMENT_3D('',#355,#292,#293);
#249=AXIS2_PLACEMENT_3D('',#356,#294,#295);
#250=AXIS2_PLACEMENT_3D('',#357,#296,#297);
#251=AXIS2_PLACEMENT_3D('',#359,#298,#299);
#252=AXIS2_PLACEMENT_3D('',#361,#300,#301);
#253=AXIS2_PLACEMENT_3D('',#362,#302,#303);
#254=AXIS2_PLACEMENT_3D('',#364,#304,#305);
#255=AXIS2_PLACEMENT_3D('',#366,#306,#307);
#256=AXIS2_PLACEMENT_3D('',#367,#308,#309);
#257=AXIS2_PLACEMENT_3D('',#368,#310,#311);
#258=AXIS2_PLACEMENT_3D('',#369,#312,#313);
#259=AXIS2_PLACEMENT_3D('',#370,#314,#315);
#260=AXIS2_PLACEMENT_3D('',#372,#316,#317);
#261=AXIS2_PLACEMENT_3D('',#374,#318,#319);
#262=AXIS2_PLACEMENT_3D('',#375,#320,#321);
#263=AXIS2_PLACEMENT_3D('',#377,#322,#323);
#264=AXIS2_PLACEMENT_3D('',#379,#324,#325);
#265=AXIS2_PLACEMENT_3D('',#380,#326,#327);
#266=DIRECTION('',(0.,0.,1.));
#267=DIRECTION('',(1.,0.,0.));
#268=DIRECTION('',(1.,-6.82961998416066E-17,0.));
#269=DIRECTION('',(6.82961998416066E-17,1.,0.));
#270=DIRECTION('',(-6.82961998416066E-17,-1.,0.));
#271=DIRECTION('',(0.,0.,-1.));
#272=DIRECTION('',(-6.82961998416066E-17,-1.,0.));
#273=DIRECTION('',(0.,0.,-1.));
#274=DIRECTION('',(0.,-1.,0.));
#275=DIRECTION('',(0.,0.,-1.));
#276=DIRECTION('',(-1.,0.,0.));
#277=DIRECTION('',(0.,0.,-1.));
#278=DIRECTION('',(-1.,0.,0.));
#279=DIRECTION('',(1.,-6.82961998416066E-17,0.));
#280=DIRECTION('',(6.82961998416066E-17,1.,0.));
#281=DIRECTION('',(-6.82961998416066E-17,-1.,0.));
#282=DIRECTION('',(0.,0.,-1.));
#283=DIRECTION('',(-6.82961998416066E-17,-1.,0.));
#284=DIRECTION('',(0.,-1.,0.));
#285=DIRECTION('',(0.,0.,-1.));
#286=DIRECTION('',(-1.,0.,0.));
#287=DIRECTION('',(-1.,0.,0.));
#288=DIRECTION('',(0.,0.,1.));
#289=DIRECTION('',(1.,0.,0.));
#290=DIRECTION('',(0.,0.,1.));
#291=DIRECTION('',(1.,0.,0.));
#292=DIRECTION('',(0.,0.,1.));
#293=DIRECTION('',(1.,0.,0.));
#294=DIRECTION('',(1.,6.12323399573674E-17,0.));
#295=DIRECTION('',(-6.12323399573674E-17,1.,0.));
#296=DIRECTION('',(1.,6.12323399573674E-17,0.));
#297=DIRECTION('',(6.12323399573674E-17,-1.,0.));
#298=DIRECTION('',(1.,6.12323399573674E-17,0.));
#299=DIRECTION('',(6.12323399573674E-17,-1.,0.));
#300=DIRECTION('',(-0.898794046299163,0.438371146789086,0.));
#301=DIRECTION('',(-0.438371146789086,-0.898794046299163,0.));
#302=DIRECTION('',(0.898794046299163,-0.438371146789086,0.));
#303=DIRECTION('',(0.438371146789086,0.898794046299163,0.));
#304=DIRECTION('',(0.898794046299163,-0.438371146789086,0.));
#305=DIRECTION('',(0.438371146789086,0.898794046299163,0.));
#306=DIRECTION('',(0.898794046299163,-0.438371146789086,0.));
#307=DIRECTION('',(0.438371146789086,0.898794046299163,0.));
#308=DIRECTION('',(0.898794046299163,-0.438371146789086,0.));
#309=DIRECTION('',(0.438371146789086,0.898794046299163,0.));
#310=DIRECTION('',(0.,0.,1.));
#311=DIRECTION('',(1.,0.,0.));
#312=DIRECTION('',(0.898794046299166,0.438371146789079,0.));
#313=DIRECTION('',(-0.438371146789079,0.898794046299166,0.));
#314=DIRECTION('',(0.898794046299166,0.438371146789079,0.));
#315=DIRECTION('',(-0.438371146789079,0.898794046299166,0.));
#316=DIRECTION('',(0.898794046299166,0.438371146789079,0.));
#317=DIRECTION('',(-0.438371146789079,0.898794046299166,0.));
#318=DIRECTION('',(1.,6.12323399573677E-17,0.));
#319=DIRECTION('',(-6.12323399573677E-17,1.,0.));
#320=DIRECTION('',(1.,6.12323399573677E-17,0.));
#321=DIRECTION('',(-6.12323399573677E-17,1.,0.));
#322=DIRECTION('',(1.,6.12323399573677E-17,0.));
#323=DIRECTION('',(-6.12323399573677E-17,1.,0.));
#324=DIRECTION('',(0.898794046299166,0.438371146789079,0.));
#325=DIRECTION('',(-0.438371146789079,0.898794046299166,0.));
#326=DIRECTION('',(0.898794046299166,0.438371146789079,0.));
#327=DIRECTION('',(-0.438371146789079,0.898794046299166,0.));
#328=CARTESIAN_POINT('',(0.,0.,0.));
#329=CARTESIAN_POINT('',(0.0254,-3.46944695195361E-18,3.46944695195361E-18));
#330=CARTESIAN_POINT('',(0.0254,-3.46944695195361E-18,-0.0508));
#331=CARTESIAN_POINT('',(0.0254,0.0254,-0.0508));
#332=CARTESIAN_POINT('',(0.0254,-0.0254,-0.0508));
#333=CARTESIAN_POINT('',(0.0254,0.0254,3.46944695195361E-18));
#334=CARTESIAN_POINT('',(0.0254,0.0254,3.46944695195361E-18));
#335=CARTESIAN_POINT('',(0.0254,-3.46944695195361E-18,3.46944695195361E-18));
#336=CARTESIAN_POINT('',(0.0254,-0.0254,3.46944695195361E-18));
#337=CARTESIAN_POINT('',(0.0254,-0.0254,3.46944695195361E-18));
#338=CARTESIAN_POINT('',(3.46944695195361E-18,0.0254,3.46944695195361E-18));
#339=CARTESIAN_POINT('',(3.46944695195361E-18,0.0254,-0.0508));
#340=CARTESIAN_POINT('',(-0.0254,0.0254,-0.0508));
#341=CARTESIAN_POINT('',(-0.0254,0.0254,3.46944695195361E-18));
#342=CARTESIAN_POINT('',(-0.0254,0.0254,3.46944695195361E-18));
#343=CARTESIAN_POINT('',(3.46944695195361E-18,0.0254,3.46944695195361E-18));
#344=CARTESIAN_POINT('',(-0.0254,3.46944695195361E-18,3.46944695195361E-18));
#345=CARTESIAN_POINT('',(-0.0254,3.46944695195361E-18,-0.0508));
#346=CARTESIAN_POINT('',(-0.0254,-0.0254,-0.0508));
#347=CARTESIAN_POINT('',(-0.0254,-0.0254,3.46944695195361E-18));
#348=CARTESIAN_POINT('',(-0.0254,-0.0254,3.46944695195361E-18));
#349=CARTESIAN_POINT('',(-0.0254,3.46944695195361E-18,3.46944695195361E-18));
#350=CARTESIAN_POINT('',(-3.46944695195361E-18,-0.0254,3.46944695195361E-18));
#351=CARTESIAN_POINT('',(-3.46944695195361E-18,-0.0254,-0.0508));
#352=CARTESIAN_POINT('',(-3.46944695195361E-18,-0.0254,3.46944695195361E-18));
#353=CARTESIAN_POINT('',(0.,0.,3.46944695195361E-18));
#354=CARTESIAN_POINT('',(0.,0.,-0.0508));
#355=CARTESIAN_POINT('',(0.,0.,0.));
#356=CARTESIAN_POINT('',(-9.92628427123933E-18,-0.174891475678532,0.0463));
#357=CARTESIAN_POINT('',(-1.12208572105145E-17,-0.153752038809498,0.0263));
#358=CARTESIAN_POINT('',(-9.85831280538644E-18,-0.176004077619002,0.0263));
#359=CARTESIAN_POINT('',(-1.21430643318376E-17,-0.153752038809498,0.0263));
#360=CARTESIAN_POINT('',(-1.09167743672224E-17,-0.173778873738052,0.0263));
#361=CARTESIAN_POINT('',(0.549143774443701,-0.442726790282786,0.0463));
#362=CARTESIAN_POINT('',(0.557472826232694,-0.425649703403102,0.0263));
#363=CARTESIAN_POINT('',(0.565363506874898,-0.409471410569718,0.0263));
#364=CARTESIAN_POINT('',(0.557472826232694,-0.425649703403102,0.0263));
#365=CARTESIAN_POINT('',(0.566240249168476,-0.407673822477119,0.0263));
#366=CARTESIAN_POINT('',(-1.7975880924892E-6,-0.153751162067204,0.0263));
#367=CARTESIAN_POINT('',(-0.00789247823029615,-0.149902619972036,0.0263));
#368=CARTESIAN_POINT('',(0.,0.,0.));
#369=CARTESIAN_POINT('',(0.557472826232694,0.412649703403102,0.0463));
#370=CARTESIAN_POINT('',(0.557472826232694,0.412649703403102,0.0263));
#371=CARTESIAN_POINT('',(0.549582145590491,0.428827996236487,0.0263));
#372=CARTESIAN_POINT('',(0.557472826232694,0.412649703403102,0.0263));
#373=CARTESIAN_POINT('',(0.548705403296912,0.430625584329086,0.0263));
#374=CARTESIAN_POINT('',(-2.9253875255709E-17,0.140752038809504,0.0463));
#375=CARTESIAN_POINT('',(-2.94902990916057E-17,0.140752038809503,0.0263));
#376=CARTESIAN_POINT('',(-3.08528434967338E-17,0.163004077619007,0.0263));
#377=CARTESIAN_POINT('',(-2.94902990916057E-17,0.140752038809503,0.0263));
#378=CARTESIAN_POINT('',(-3.0716589056221E-17,0.160778873738056,0.0263));
#379=CARTESIAN_POINT('',(-0.00876922052387408,0.136475004183689,0.0263));
#380=CARTESIAN_POINT('',(-0.00789247823029593,0.136902619972041,0.0263));
#381=MECHANICAL_DESIGN_GEOMETRIC_PRESENTATION_REPRESENTATION('',(#207),
#384);
#382=MECHANICAL_DESIGN_GEOMETRIC_PRESENTATION_REPRESENTATION('',(#208),
#385);
#383=MECHANICAL_DESIGN_GEOMETRIC_PRESENTATION_REPRESENTATION('',(#209),
#386);
#384=(
GEOMETRIC_REPRESENTATION_CONTEXT(3)
GLOBAL_UNCERTAINTY_ASSIGNED_CONTEXT((#387))
GLOBAL_UNIT_ASSIGNED_CONTEXT((#396,#393,#390))
REPRESENTATION_CONTEXT('Origin Cube','TOP_LEVEL_ASSEMBLY_PART')
);
#385=(
GEOMETRIC_REPRESENTATION_CONTEXT(3)
GLOBAL_UNCERTAINTY_ASSIGNED_CONTEXT((#388))
GLOBAL_UNIT_ASSIGNED_CONTEXT((#397,#394,#391))
REPRESENTATION_CONTEXT('Arm Front Right','TOP_LEVEL_ASSEMBLY_PART')
);
#386=(
GEOMETRIC_REPRESENTATION_CONTEXT(3)
GLOBAL_UNCERTAINTY_ASSIGNED_CONTEXT((#389))
GLOBAL_UNIT_ASSIGNED_CONTEXT((#398,#395,#392))
REPRESENTATION_CONTEXT('Arm Back Right','TOP_LEVEL_ASSEMBLY_PART')
);
#387=UNCERTAINTY_MEASURE_WITH_UNIT(LENGTH_MEASURE(1.E-8),#396,
'DISTANCE_ACCURACY_VALUE','Maximum Tolerance applied to model');
#388=UNCERTAINTY_MEASURE_WITH_UNIT(LENGTH_MEASURE(1.E-8),#397,
'DISTANCE_ACCURACY_VALUE','Maximum Tolerance applied to model');
#389=UNCERTAINTY_MEASURE_WITH_UNIT(LENGTH_MEASURE(1.E-8),#398,
'DISTANCE_ACCURACY_VALUE','Maximum Tolerance applied to model');
#390=(
NAMED_UNIT(*)
SI_UNIT($,.STERADIAN.)
SOLID_ANGLE_UNIT()
);
#391=(
NAMED_UNIT(*)
SI_UNIT($,.STERADIAN.)
SOLID_ANGLE_UNIT()
);
#392=(
NAMED_UNIT(*)
SI_UNIT($,.STERADIAN.)
SOLID_ANGLE_UNIT()
);
#393=(
NAMED_UNIT(*)
PLANE_ANGLE_UNIT()
SI_UNIT($,.RADIAN.)
);
#394=(
NAMED_UNIT(*)
PLANE_ANGLE_UNIT()
SI_UNIT($,.RADIAN.)
);
#395=(
NAMED_UNIT(*)
PLANE_ANGLE_UNIT()
SI_UNIT($,.RADIAN.)
);
#396=(
LENGTH_UNIT()
NAMED_UNIT(*)
SI_UNIT($,.METRE.)
);
#397=(
LENGTH_UNIT()
NAMED_UNIT(*)
SI_UNIT($,.METRE.)
);
#398=(
LENGTH_UNIT()
NAMED_UNIT(*)
SI_UNIT($,.METRE.)
);
#399=PRODUCT_DEFINITION_SHAPE('','',#402);
#400=PRODUCT_DEFINITION_SHAPE('','',#403);
#401=PRODUCT_DEFINITION_SHAPE('','',#404);
#402=PRODUCT_DEFINITION('','',#408,#405);
#403=PRODUCT_DEFINITION('','',#409,#406);
#404=PRODUCT_DEFINITION('','',#410,#407);
#405=PRODUCT_DEFINITION_CONTEXT('',#426,'design');
#406=PRODUCT_DEFINITION_CONTEXT('',#427,'design');
#407=PRODUCT_DEFINITION_CONTEXT('',#428,'design');
#408=PRODUCT_DEFINITION_FORMATION_WITH_SPECIFIED_SOURCE('','',#414,
 .NOT_KNOWN.);
#409=PRODUCT_DEFINITION_FORMATION_WITH_SPECIFIED_SOURCE('','',#415,
 .NOT_KNOWN.);
#410=PRODUCT_DEFINITION_FORMATION_WITH_SPECIFIED_SOURCE('','',#416,
 .NOT_KNOWN.);
#411=PRODUCT_RELATED_PRODUCT_CATEGORY('','',(#414));
#412=PRODUCT_RELATED_PRODUCT_CATEGORY('','',(#415));
#413=PRODUCT_RELATED_PRODUCT_CATEGORY('','',(#416));
#414=PRODUCT('Origin Cube','Origin Cube','Origin Cube',(#420));
#415=PRODUCT('Arm Front Right','Arm Front Right','Arm Front Right',(#421));
#416=PRODUCT('Arm Back Right','Arm Back Right','Arm Back Right',(#422));
#417=PRODUCT_CATEGORY('','');
#418=PRODUCT_CATEGORY('','');
#419=PRODUCT_CATEGORY('','');
#420=PRODUCT_CONTEXT('',#426,'mechanical');
#421=PRODUCT_CONTEXT('',#427,'mechanical');
#422=PRODUCT_CONTEXT('',#428,'mechanical');
#423=APPLICATION_PROTOCOL_DEFINITION('international standard',
'automotive_design',2010,#426);
#424=APPLICATION_PROTOCOL_DEFINITION('international standard',
'automotive_design',2010,#427);
#425=APPLICATION_PROTOCOL_DEFINITION('international standard',
'automotive_design',2010,#428);
#426=APPLICATION_CONTEXT(
'core data for automotive mechanical design processes');
#427=APPLICATION_CONTEXT(
'core data for automotive mechanical design processes');
#428=APPLICATION_CONTEXT(
'core data for automotive mechanical design processes');
ENDSEC;
END-ISO-10303-21;
