ISO-10303-21;
HEADER;
/* Generated by software containing ST-Developer
 * from STEP Tools, Inc. (www.steptools.com) 
 */
/* OPTION: using custom renumber hook */

FILE_DESCRIPTION(
/* description */ ('STEP AP214',
'CAx-IF Rec.Pracs.---User Defined Attributes---1.5---2016-08-15'),
/* implementation_level */ '2;1');

FILE_NAME(
/* name */ '6a80a7ea7004a8c19ba221f6',
/* time_stamp */ '2026-08-15T17:54:50Z',
/* author */ (''),
/* organization */ (''),
/* preprocessor_version */ 'ST-DEVELOPER v20',
/* originating_system */ 'ONSHAPE BY PTC INC, 1.219',
/* authorisation */ '  ');

FILE_SCHEMA (('AUTOMOTIVE_DESIGN {1 0 10303 214 3 1 1}'));
ENDSEC;

DATA;
#10=PROPERTY_DEFINITION_REPRESENTATION(#14,#12);
#11=PROPERTY_DEFINITION_REPRESENTATION(#15,#13);
#12=REPRESENTATION('',(#16),#1806);
#13=REPRESENTATION('',(#17),#1806);
#14=PROPERTY_DEFINITION('pmi validation property','',#1811);
#15=PROPERTY_DEFINITION('pmi validation property','',#1811);
#16=VALUE_REPRESENTATION_ITEM('number of annotations',COUNT_MEASURE(0.));
#17=VALUE_REPRESENTATION_ITEM('number of views',COUNT_MEASURE(0.));
#18=SHAPE_REPRESENTATION_RELATIONSHIP('','',#1092,#19);
#19=ADVANCED_BREP_SHAPE_REPRESENTATION('',(#1090),#1806);
#20=ORIENTED_CLOSED_SHELL('',*,#1081,.F.);
#21=TOROIDAL_SURFACE('',#1175,0.001,0.001);
#22=TOROIDAL_SURFACE('',#1182,0.001,0.001);
#23=ELLIPSE('',#1163,0.00282842712474619,0.002);
#24=ELLIPSE('',#1165,0.00282842712474619,0.002);
#25=ELLIPSE('',#1178,0.00141421356237309,0.001);
#26=ELLIPSE('',#1185,0.00141421356237309,0.001);
#27=CYLINDRICAL_SURFACE('',#1156,0.0015);
#28=CYLINDRICAL_SURFACE('',#1157,0.0015);
#29=CYLINDRICAL_SURFACE('',#1158,0.0015);
#30=CYLINDRICAL_SURFACE('',#1159,0.0015);
#31=CYLINDRICAL_SURFACE('',#1160,0.0015);
#32=CYLINDRICAL_SURFACE('',#1161,0.0015);
#33=CYLINDRICAL_SURFACE('',#1162,0.002);
#34=CYLINDRICAL_SURFACE('',#1164,0.002);
#35=CYLINDRICAL_SURFACE('',#1166,0.002);
#36=CYLINDRICAL_SURFACE('',#1167,0.002);
#37=CYLINDRICAL_SURFACE('',#1169,0.002);
#38=CYLINDRICAL_SURFACE('',#1171,0.002);
#39=CYLINDRICAL_SURFACE('',#1172,0.002);
#40=CYLINDRICAL_SURFACE('',#1173,0.001);
#41=CYLINDRICAL_SURFACE('',#1177,0.001);
#42=CYLINDRICAL_SURFACE('',#1179,0.001);
#43=CYLINDRICAL_SURFACE('',#1180,0.001);
#44=CYLINDRICAL_SURFACE('',#1184,0.001);
#45=CYLINDRICAL_SURFACE('',#1186,0.001);
#46=CYLINDRICAL_SURFACE('',#1194,0.002);
#47=LINE('',#1509,#152);
#48=LINE('',#1511,#153);
#49=LINE('',#1513,#154);
#50=LINE('',#1515,#155);
#51=LINE('',#1517,#156);
#52=LINE('',#1519,#157);
#53=LINE('',#1522,#158);
#54=LINE('',#1524,#159);
#55=LINE('',#1526,#160);
#56=LINE('',#1528,#161);
#57=LINE('',#1530,#162);
#58=LINE('',#1532,#163);
#59=LINE('',#1534,#164);
#60=LINE('',#1536,#165);
#61=LINE('',#1540,#166);
#62=LINE('',#1542,#167);
#63=LINE('',#1544,#168);
#64=LINE('',#1546,#169);
#65=LINE('',#1548,#170);
#66=LINE('',#1550,#171);
#67=LINE('',#1552,#172);
#68=LINE('',#1555,#173);
#69=LINE('',#1561,#174);
#70=LINE('',#1565,#175);
#71=LINE('',#1567,#176);
#72=LINE('',#1569,#177);
#73=LINE('',#1571,#178);
#74=LINE('',#1573,#179);
#75=LINE('',#1577,#180);
#76=LINE('',#1583,#181);
#77=LINE('',#1586,#182);
#78=LINE('',#1587,#183);
#79=LINE('',#1589,#184);
#80=LINE('',#1592,#185);
#81=LINE('',#1594,#186);
#82=LINE('',#1595,#187);
#83=LINE('',#1597,#188);
#84=LINE('',#1605,#189);
#85=LINE('',#1607,#190);
#86=LINE('',#1609,#191);
#87=LINE('',#1611,#192);
#88=LINE('',#1613,#193);
#89=LINE('',#1615,#194);
#90=LINE('',#1623,#195);
#91=LINE('',#1625,#196);
#92=LINE('',#1627,#197);
#93=LINE('',#1630,#198);
#94=LINE('',#1632,#199);
#95=LINE('',#1634,#200);
#96=LINE('',#1636,#201);
#97=LINE('',#1639,#202);
#98=LINE('',#1640,#203);
#99=LINE('',#1642,#204);
#100=LINE('',#1644,#205);
#101=LINE('',#1646,#206);
#102=LINE('',#1647,#207);
#103=LINE('',#1649,#208);
#104=LINE('',#1651,#209);
#105=LINE('',#1653,#210);
#106=LINE('',#1655,#211);
#107=LINE('',#1656,#212);
#108=LINE('',#1658,#213);
#109=LINE('',#1661,#214);
#110=LINE('',#1663,#215);
#111=LINE('',#1665,#216);
#112=LINE('',#1667,#217);
#113=LINE('',#1670,#218);
#114=LINE('',#1673,#219);
#115=LINE('',#1675,#220);
#116=LINE('',#1677,#221);
#117=LINE('',#1679,#222);
#118=LINE('',#1680,#223);
#119=LINE('',#1682,#224);
#120=LINE('',#1684,#225);
#121=LINE('',#1688,#226);
#122=LINE('',#1692,#227);
#123=LINE('',#1697,#228);
#124=LINE('',#1699,#229);
#125=LINE('',#1701,#230);
#126=LINE('',#1709,#231);
#127=LINE('',#1710,#232);
#128=LINE('',#1712,#233);
#129=LINE('',#1716,#234);
#130=LINE('',#1718,#235);
#131=LINE('',#1720,#236);
#132=LINE('',#1722,#237);
#133=LINE('',#1727,#238);
#134=LINE('',#1728,#239);
#135=LINE('',#1730,#240);
#136=LINE('',#1738,#241);
#137=LINE('',#1740,#242);
#138=LINE('',#1742,#243);
#139=LINE('',#1744,#244);
#140=LINE('',#1746,#245);
#141=LINE('',#1749,#246);
#142=LINE('',#1759,#247);
#143=LINE('',#1767,#248);
#144=LINE('',#1769,#249);
#145=LINE('',#1786,#250);
#146=LINE('',#1789,#251);
#147=LINE('',#1791,#252);
#148=LINE('',#1793,#253);
#149=LINE('',#1795,#254);
#150=LINE('',#1799,#255);
#151=LINE('',#1803,#256);
#152=VECTOR('',#1201,1.);
#153=VECTOR('',#1202,1.);
#154=VECTOR('',#1203,1.);
#155=VECTOR('',#1204,1.);
#156=VECTOR('',#1205,1.);
#157=VECTOR('',#1208,1.);
#158=VECTOR('',#1209,1.);
#159=VECTOR('',#1210,1.);
#160=VECTOR('',#1211,1.);
#161=VECTOR('',#1212,1.);
#162=VECTOR('',#1213,1.);
#163=VECTOR('',#1214,1.);
#164=VECTOR('',#1215,1.);
#165=VECTOR('',#1218,1.);
#166=VECTOR('',#1221,1.);
#167=VECTOR('',#1222,1.);
#168=VECTOR('',#1223,1.);
#169=VECTOR('',#1224,1.);
#170=VECTOR('',#1225,1.);
#171=VECTOR('',#1226,1.);
#172=VECTOR('',#1227,1.);
#173=VECTOR('',#1230,1.);
#174=VECTOR('',#1235,1.);
#175=VECTOR('',#1238,1.);
#176=VECTOR('',#1239,1.);
#177=VECTOR('',#1240,1.);
#178=VECTOR('',#1241,1.);
#179=VECTOR('',#1242,1.);
#180=VECTOR('',#1245,1.);
#181=VECTOR('',#1252,1.);
#182=VECTOR('',#1253,1.);
#183=VECTOR('',#1254,1.);
#184=VECTOR('',#1257,1.);
#185=VECTOR('',#1258,1.);
#186=VECTOR('',#1259,1.);
#187=VECTOR('',#1260,1.);
#188=VECTOR('',#1261,1.);
#189=VECTOR('',#1270,1.);
#190=VECTOR('',#1271,1.);
#191=VECTOR('',#1272,1.);
#192=VECTOR('',#1275,1.);
#193=VECTOR('',#1276,1.);
#194=VECTOR('',#1279,1.);
#195=VECTOR('',#1288,1.);
#196=VECTOR('',#1289,1.);
#197=VECTOR('',#1292,1.);
#198=VECTOR('',#1293,1.);
#199=VECTOR('',#1294,1.);
#200=VECTOR('',#1295,1.);
#201=VECTOR('',#1298,1.);
#202=VECTOR('',#1299,1.);
#203=VECTOR('',#1300,1.);
#204=VECTOR('',#1303,1.);
#205=VECTOR('',#1304,1.);
#206=VECTOR('',#1307,1.);
#207=VECTOR('',#1308,1.);
#208=VECTOR('',#1311,1.);
#209=VECTOR('',#1312,1.);
#210=VECTOR('',#1315,1.);
#211=VECTOR('',#1318,1.);
#212=VECTOR('',#1319,1.);
#213=VECTOR('',#1322,1.);
#214=VECTOR('',#1327,1.);
#215=VECTOR('',#1330,1.);
#216=VECTOR('',#1333,1.);
#217=VECTOR('',#1336,1.);
#218=VECTOR('',#1341,1.);
#219=VECTOR('',#1342,1.);
#220=VECTOR('',#1343,1.);
#221=VECTOR('',#1344,1.);
#222=VECTOR('',#1347,1.);
#223=VECTOR('',#1348,1.);
#224=VECTOR('',#1351,1.);
#225=VECTOR('',#1352,1.);
#226=VECTOR('',#1355,1.);
#227=VECTOR('',#1360,1.);
#228=VECTOR('',#1365,1.);
#229=VECTOR('',#1368,1.);
#230=VECTOR('',#1369,1.);
#231=VECTOR('',#1378,1.);
#232=VECTOR('',#1379,1.);
#233=VECTOR('',#1382,1.);
#234=VECTOR('',#1385,1.);
#235=VECTOR('',#1386,1.);
#236=VECTOR('',#1389,1.);
#237=VECTOR('',#1390,1.);
#238=VECTOR('',#1395,1.);
#239=VECTOR('',#1396,1.);
#240=VECTOR('',#1397,1.);
#241=VECTOR('',#1406,1.);
#242=VECTOR('',#1407,1.);
#243=VECTOR('',#1408,1.);
#244=VECTOR('',#1411,1.);
#245=VECTOR('',#1412,1.);
#246=VECTOR('',#1415,1.);
#247=VECTOR('',#1434,1.);
#248=VECTOR('',#1449,1.);
#249=VECTOR('',#1452,1.);
#250=VECTOR('',#1485,1.);
#251=VECTOR('',#1486,1.);
#252=VECTOR('',#1487,1.);
#253=VECTOR('',#1488,1.);
#254=VECTOR('',#1491,1.);
#255=VECTOR('',#1496,1.);
#256=VECTOR('',#1501,1.);
#257=ORIENTED_EDGE('',*,*,#547,.T.);
#258=ORIENTED_EDGE('',*,*,#548,.T.);
#259=ORIENTED_EDGE('',*,*,#549,.T.);
#260=ORIENTED_EDGE('',*,*,#550,.F.);
#261=ORIENTED_EDGE('',*,*,#551,.T.);
#262=ORIENTED_EDGE('',*,*,#552,.F.);
#263=ORIENTED_EDGE('',*,*,#553,.F.);
#264=ORIENTED_EDGE('',*,*,#554,.T.);
#265=ORIENTED_EDGE('',*,*,#555,.T.);
#266=ORIENTED_EDGE('',*,*,#556,.T.);
#267=ORIENTED_EDGE('',*,*,#557,.F.);
#268=ORIENTED_EDGE('',*,*,#558,.T.);
#269=ORIENTED_EDGE('',*,*,#559,.T.);
#270=ORIENTED_EDGE('',*,*,#560,.F.);
#271=ORIENTED_EDGE('',*,*,#561,.T.);
#272=ORIENTED_EDGE('',*,*,#562,.T.);
#273=ORIENTED_EDGE('',*,*,#553,.T.);
#274=ORIENTED_EDGE('',*,*,#563,.T.);
#275=ORIENTED_EDGE('',*,*,#564,.T.);
#276=ORIENTED_EDGE('',*,*,#565,.T.);
#277=ORIENTED_EDGE('',*,*,#566,.T.);
#278=ORIENTED_EDGE('',*,*,#567,.T.);
#279=ORIENTED_EDGE('',*,*,#568,.T.);
#280=ORIENTED_EDGE('',*,*,#569,.F.);
#281=ORIENTED_EDGE('',*,*,#557,.T.);
#282=ORIENTED_EDGE('',*,*,#570,.T.);
#283=ORIENTED_EDGE('',*,*,#571,.F.);
#284=ORIENTED_EDGE('',*,*,#572,.T.);
#285=ORIENTED_EDGE('',*,*,#573,.T.);
#286=ORIENTED_EDGE('',*,*,#574,.F.);
#287=ORIENTED_EDGE('',*,*,#575,.T.);
#288=ORIENTED_EDGE('',*,*,#576,.F.);
#289=ORIENTED_EDGE('',*,*,#577,.T.);
#290=ORIENTED_EDGE('',*,*,#578,.T.);
#291=ORIENTED_EDGE('',*,*,#579,.F.);
#292=ORIENTED_EDGE('',*,*,#580,.T.);
#293=ORIENTED_EDGE('',*,*,#581,.T.);
#294=ORIENTED_EDGE('',*,*,#582,.T.);
#295=ORIENTED_EDGE('',*,*,#583,.T.);
#296=ORIENTED_EDGE('',*,*,#584,.T.);
#297=ORIENTED_EDGE('',*,*,#585,.T.);
#298=ORIENTED_EDGE('',*,*,#586,.F.);
#299=ORIENTED_EDGE('',*,*,#559,.F.);
#300=ORIENTED_EDGE('',*,*,#587,.T.);
#301=ORIENTED_EDGE('',*,*,#588,.T.);
#302=ORIENTED_EDGE('',*,*,#589,.F.);
#303=ORIENTED_EDGE('',*,*,#590,.F.);
#304=ORIENTED_EDGE('',*,*,#585,.F.);
#305=ORIENTED_EDGE('',*,*,#591,.T.);
#306=ORIENTED_EDGE('',*,*,#592,.F.);
#307=ORIENTED_EDGE('',*,*,#593,.F.);
#308=ORIENTED_EDGE('',*,*,#594,.F.);
#309=ORIENTED_EDGE('',*,*,#595,.F.);
#310=ORIENTED_EDGE('',*,*,#563,.F.);
#311=ORIENTED_EDGE('',*,*,#560,.T.);
#312=ORIENTED_EDGE('',*,*,#586,.T.);
#313=ORIENTED_EDGE('',*,*,#590,.T.);
#314=ORIENTED_EDGE('',*,*,#596,.T.);
#315=ORIENTED_EDGE('',*,*,#597,.T.);
#316=ORIENTED_EDGE('',*,*,#598,.F.);
#317=ORIENTED_EDGE('',*,*,#599,.T.);
#318=ORIENTED_EDGE('',*,*,#592,.T.);
#319=ORIENTED_EDGE('',*,*,#600,.F.);
#320=ORIENTED_EDGE('',*,*,#596,.F.);
#321=ORIENTED_EDGE('',*,*,#589,.T.);
#322=ORIENTED_EDGE('',*,*,#601,.T.);
#323=ORIENTED_EDGE('',*,*,#602,.T.);
#324=ORIENTED_EDGE('',*,*,#603,.T.);
#325=ORIENTED_EDGE('',*,*,#604,.T.);
#326=ORIENTED_EDGE('',*,*,#558,.F.);
#327=ORIENTED_EDGE('',*,*,#569,.T.);
#328=ORIENTED_EDGE('',*,*,#605,.T.);
#329=ORIENTED_EDGE('',*,*,#606,.T.);
#330=ORIENTED_EDGE('',*,*,#600,.T.);
#331=ORIENTED_EDGE('',*,*,#591,.F.);
#332=ORIENTED_EDGE('',*,*,#587,.F.);
#333=ORIENTED_EDGE('',*,*,#607,.T.);
#334=ORIENTED_EDGE('',*,*,#608,.T.);
#335=ORIENTED_EDGE('',*,*,#609,.T.);
#336=ORIENTED_EDGE('',*,*,#610,.T.);
#337=ORIENTED_EDGE('',*,*,#611,.F.);
#338=ORIENTED_EDGE('',*,*,#612,.F.);
#339=ORIENTED_EDGE('',*,*,#613,.F.);
#340=ORIENTED_EDGE('',*,*,#614,.F.);
#341=ORIENTED_EDGE('',*,*,#615,.F.);
#342=ORIENTED_EDGE('',*,*,#610,.F.);
#343=ORIENTED_EDGE('',*,*,#612,.T.);
#344=ORIENTED_EDGE('',*,*,#616,.F.);
#345=ORIENTED_EDGE('',*,*,#613,.T.);
#346=ORIENTED_EDGE('',*,*,#609,.F.);
#347=ORIENTED_EDGE('',*,*,#617,.F.);
#348=ORIENTED_EDGE('',*,*,#606,.F.);
#349=ORIENTED_EDGE('',*,*,#618,.F.);
#350=ORIENTED_EDGE('',*,*,#619,.F.);
#351=ORIENTED_EDGE('',*,*,#615,.T.);
#352=ORIENTED_EDGE('',*,*,#599,.F.);
#353=ORIENTED_EDGE('',*,*,#617,.T.);
#354=ORIENTED_EDGE('',*,*,#620,.F.);
#355=ORIENTED_EDGE('',*,*,#621,.F.);
#356=ORIENTED_EDGE('',*,*,#597,.F.);
#357=ORIENTED_EDGE('',*,*,#622,.F.);
#358=ORIENTED_EDGE('',*,*,#607,.F.);
#359=ORIENTED_EDGE('',*,*,#619,.T.);
#360=ORIENTED_EDGE('',*,*,#620,.T.);
#361=ORIENTED_EDGE('',*,*,#608,.F.);
#362=ORIENTED_EDGE('',*,*,#623,.F.);
#363=ORIENTED_EDGE('',*,*,#588,.F.);
#364=ORIENTED_EDGE('',*,*,#623,.T.);
#365=ORIENTED_EDGE('',*,*,#622,.T.);
#366=ORIENTED_EDGE('',*,*,#601,.F.);
#367=ORIENTED_EDGE('',*,*,#621,.T.);
#368=ORIENTED_EDGE('',*,*,#624,.F.);
#369=ORIENTED_EDGE('',*,*,#564,.F.);
#370=ORIENTED_EDGE('',*,*,#598,.T.);
#371=ORIENTED_EDGE('',*,*,#618,.T.);
#372=ORIENTED_EDGE('',*,*,#625,.F.);
#373=ORIENTED_EDGE('',*,*,#565,.F.);
#374=ORIENTED_EDGE('',*,*,#624,.T.);
#375=ORIENTED_EDGE('',*,*,#614,.T.);
#376=ORIENTED_EDGE('',*,*,#626,.F.);
#377=ORIENTED_EDGE('',*,*,#566,.F.);
#378=ORIENTED_EDGE('',*,*,#625,.T.);
#379=ORIENTED_EDGE('',*,*,#611,.T.);
#380=ORIENTED_EDGE('',*,*,#627,.F.);
#381=ORIENTED_EDGE('',*,*,#567,.F.);
#382=ORIENTED_EDGE('',*,*,#626,.T.);
#383=ORIENTED_EDGE('',*,*,#616,.T.);
#384=ORIENTED_EDGE('',*,*,#605,.F.);
#385=ORIENTED_EDGE('',*,*,#568,.F.);
#386=ORIENTED_EDGE('',*,*,#627,.T.);
#387=ORIENTED_EDGE('',*,*,#628,.F.);
#388=ORIENTED_EDGE('',*,*,#629,.F.);
#389=ORIENTED_EDGE('',*,*,#630,.F.);
#390=ORIENTED_EDGE('',*,*,#631,.T.);
#391=ORIENTED_EDGE('',*,*,#632,.F.);
#392=ORIENTED_EDGE('',*,*,#578,.F.);
#393=ORIENTED_EDGE('',*,*,#633,.T.);
#394=ORIENTED_EDGE('',*,*,#630,.T.);
#395=ORIENTED_EDGE('',*,*,#634,.F.);
#396=ORIENTED_EDGE('',*,*,#631,.F.);
#397=ORIENTED_EDGE('',*,*,#633,.F.);
#398=ORIENTED_EDGE('',*,*,#577,.F.);
#399=ORIENTED_EDGE('',*,*,#635,.F.);
#400=ORIENTED_EDGE('',*,*,#636,.T.);
#401=ORIENTED_EDGE('',*,*,#637,.F.);
#402=ORIENTED_EDGE('',*,*,#638,.T.);
#403=ORIENTED_EDGE('',*,*,#629,.T.);
#404=ORIENTED_EDGE('',*,*,#639,.T.);
#405=ORIENTED_EDGE('',*,*,#640,.T.);
#406=ORIENTED_EDGE('',*,*,#550,.T.);
#407=ORIENTED_EDGE('',*,*,#641,.T.);
#408=ORIENTED_EDGE('',*,*,#642,.T.);
#409=ORIENTED_EDGE('',*,*,#579,.T.);
#410=ORIENTED_EDGE('',*,*,#632,.T.);
#411=ORIENTED_EDGE('',*,*,#643,.T.);
#412=ORIENTED_EDGE('',*,*,#644,.T.);
#413=ORIENTED_EDGE('',*,*,#580,.F.);
#414=ORIENTED_EDGE('',*,*,#642,.F.);
#415=ORIENTED_EDGE('',*,*,#645,.F.);
#416=ORIENTED_EDGE('',*,*,#646,.F.);
#417=ORIENTED_EDGE('',*,*,#647,.F.);
#418=ORIENTED_EDGE('',*,*,#552,.T.);
#419=ORIENTED_EDGE('',*,*,#648,.T.);
#420=ORIENTED_EDGE('',*,*,#561,.F.);
#421=ORIENTED_EDGE('',*,*,#649,.T.);
#422=ORIENTED_EDGE('',*,*,#582,.F.);
#423=ORIENTED_EDGE('',*,*,#650,.T.);
#424=ORIENTED_EDGE('',*,*,#651,.T.);
#425=ORIENTED_EDGE('',*,*,#652,.T.);
#426=ORIENTED_EDGE('',*,*,#653,.T.);
#427=ORIENTED_EDGE('',*,*,#576,.T.);
#428=ORIENTED_EDGE('',*,*,#654,.T.);
#429=ORIENTED_EDGE('',*,*,#655,.T.);
#430=ORIENTED_EDGE('',*,*,#635,.T.);
#431=ORIENTED_EDGE('',*,*,#656,.T.);
#432=ORIENTED_EDGE('',*,*,#657,.T.);
#433=ORIENTED_EDGE('',*,*,#574,.T.);
#434=ORIENTED_EDGE('',*,*,#658,.T.);
#435=ORIENTED_EDGE('',*,*,#659,.T.);
#436=ORIENTED_EDGE('',*,*,#660,.T.);
#437=ORIENTED_EDGE('',*,*,#661,.T.);
#438=ORIENTED_EDGE('',*,*,#662,.T.);
#439=ORIENTED_EDGE('',*,*,#571,.T.);
#440=ORIENTED_EDGE('',*,*,#663,.T.);
#441=ORIENTED_EDGE('',*,*,#664,.F.);
#442=ORIENTED_EDGE('',*,*,#665,.T.);
#443=ORIENTED_EDGE('',*,*,#666,.T.);
#444=ORIENTED_EDGE('',*,*,#667,.T.);
#445=ORIENTED_EDGE('',*,*,#668,.T.);
#446=ORIENTED_EDGE('',*,*,#664,.T.);
#447=ORIENTED_EDGE('',*,*,#669,.T.);
#448=ORIENTED_EDGE('',*,*,#637,.T.);
#449=ORIENTED_EDGE('',*,*,#662,.F.);
#450=ORIENTED_EDGE('',*,*,#604,.F.);
#451=ORIENTED_EDGE('',*,*,#661,.F.);
#452=ORIENTED_EDGE('',*,*,#603,.F.);
#453=ORIENTED_EDGE('',*,*,#660,.F.);
#454=ORIENTED_EDGE('',*,*,#602,.F.);
#455=ORIENTED_EDGE('',*,*,#647,.T.);
#456=ORIENTED_EDGE('',*,*,#595,.T.);
#457=ORIENTED_EDGE('',*,*,#646,.T.);
#458=ORIENTED_EDGE('',*,*,#594,.T.);
#459=ORIENTED_EDGE('',*,*,#645,.T.);
#460=ORIENTED_EDGE('',*,*,#593,.T.);
#461=ORIENTED_EDGE('',*,*,#570,.F.);
#462=ORIENTED_EDGE('',*,*,#556,.F.);
#463=ORIENTED_EDGE('',*,*,#670,.F.);
#464=ORIENTED_EDGE('',*,*,#663,.F.);
#465=ORIENTED_EDGE('',*,*,#671,.F.);
#466=ORIENTED_EDGE('',*,*,#638,.F.);
#467=ORIENTED_EDGE('',*,*,#669,.F.);
#468=ORIENTED_EDGE('',*,*,#670,.T.);
#469=ORIENTED_EDGE('',*,*,#555,.F.);
#470=ORIENTED_EDGE('',*,*,#672,.T.);
#471=ORIENTED_EDGE('',*,*,#551,.F.);
#472=ORIENTED_EDGE('',*,*,#640,.F.);
#473=ORIENTED_EDGE('',*,*,#562,.F.);
#474=ORIENTED_EDGE('',*,*,#648,.F.);
#475=ORIENTED_EDGE('',*,*,#672,.F.);
#476=ORIENTED_EDGE('',*,*,#554,.F.);
#477=ORIENTED_EDGE('',*,*,#549,.F.);
#478=ORIENTED_EDGE('',*,*,#673,.T.);
#479=ORIENTED_EDGE('',*,*,#643,.F.);
#480=ORIENTED_EDGE('',*,*,#641,.F.);
#481=ORIENTED_EDGE('',*,*,#655,.F.);
#482=ORIENTED_EDGE('',*,*,#674,.T.);
#483=ORIENTED_EDGE('',*,*,#666,.F.);
#484=ORIENTED_EDGE('',*,*,#636,.F.);
#485=ORIENTED_EDGE('',*,*,#547,.F.);
#486=ORIENTED_EDGE('',*,*,#649,.F.);
#487=ORIENTED_EDGE('',*,*,#584,.F.);
#488=ORIENTED_EDGE('',*,*,#675,.F.);
#489=ORIENTED_EDGE('',*,*,#668,.F.);
#490=ORIENTED_EDGE('',*,*,#676,.F.);
#491=ORIENTED_EDGE('',*,*,#572,.F.);
#492=ORIENTED_EDGE('',*,*,#665,.F.);
#493=ORIENTED_EDGE('',*,*,#581,.F.);
#494=ORIENTED_EDGE('',*,*,#644,.F.);
#495=ORIENTED_EDGE('',*,*,#677,.F.);
#496=ORIENTED_EDGE('',*,*,#650,.F.);
#497=ORIENTED_EDGE('',*,*,#677,.T.);
#498=ORIENTED_EDGE('',*,*,#673,.F.);
#499=ORIENTED_EDGE('',*,*,#678,.F.);
#500=ORIENTED_EDGE('',*,*,#651,.F.);
#501=ORIENTED_EDGE('',*,*,#583,.F.);
#502=ORIENTED_EDGE('',*,*,#653,.F.);
#503=ORIENTED_EDGE('',*,*,#679,.F.);
#504=ORIENTED_EDGE('',*,*,#675,.T.);
#505=ORIENTED_EDGE('',*,*,#678,.T.);
#506=ORIENTED_EDGE('',*,*,#548,.F.);
#507=ORIENTED_EDGE('',*,*,#679,.T.);
#508=ORIENTED_EDGE('',*,*,#652,.F.);
#509=ORIENTED_EDGE('',*,*,#575,.F.);
#510=ORIENTED_EDGE('',*,*,#657,.F.);
#511=ORIENTED_EDGE('',*,*,#680,.F.);
#512=ORIENTED_EDGE('',*,*,#654,.F.);
#513=ORIENTED_EDGE('',*,*,#680,.T.);
#514=ORIENTED_EDGE('',*,*,#656,.F.);
#515=ORIENTED_EDGE('',*,*,#681,.F.);
#516=ORIENTED_EDGE('',*,*,#674,.F.);
#517=ORIENTED_EDGE('',*,*,#573,.F.);
#518=ORIENTED_EDGE('',*,*,#676,.T.);
#519=ORIENTED_EDGE('',*,*,#682,.F.);
#520=ORIENTED_EDGE('',*,*,#658,.F.);
#521=ORIENTED_EDGE('',*,*,#681,.T.);
#522=ORIENTED_EDGE('',*,*,#659,.F.);
#523=ORIENTED_EDGE('',*,*,#682,.T.);
#524=ORIENTED_EDGE('',*,*,#667,.F.);
#525=ORIENTED_EDGE('',*,*,#639,.F.);
#526=ORIENTED_EDGE('',*,*,#628,.T.);
#527=ORIENTED_EDGE('',*,*,#634,.T.);
#528=ORIENTED_EDGE('',*,*,#671,.T.);
#529=ORIENTED_EDGE('',*,*,#683,.F.);
#530=ORIENTED_EDGE('',*,*,#684,.T.);
#531=ORIENTED_EDGE('',*,*,#685,.T.);
#532=ORIENTED_EDGE('',*,*,#686,.T.);
#533=ORIENTED_EDGE('',*,*,#685,.F.);
#534=ORIENTED_EDGE('',*,*,#687,.T.);
#535=ORIENTED_EDGE('',*,*,#688,.T.);
#536=ORIENTED_EDGE('',*,*,#689,.F.);
#537=ORIENTED_EDGE('',*,*,#683,.T.);
#538=ORIENTED_EDGE('',*,*,#690,.T.);
#539=ORIENTED_EDGE('',*,*,#684,.F.);
#540=ORIENTED_EDGE('',*,*,#689,.T.);
#541=ORIENTED_EDGE('',*,*,#691,.T.);
#542=ORIENTED_EDGE('',*,*,#687,.F.);
#543=ORIENTED_EDGE('',*,*,#690,.F.);
#544=ORIENTED_EDGE('',*,*,#686,.F.);
#545=ORIENTED_EDGE('',*,*,#688,.F.);
#546=ORIENTED_EDGE('',*,*,#691,.F.);
#547=EDGE_CURVE('',#692,#693,#786,.F.);
#548=EDGE_CURVE('',#693,#694,#47,.F.);
#549=EDGE_CURVE('',#694,#695,#48,.F.);
#550=EDGE_CURVE('',#696,#695,#49,.T.);
#551=EDGE_CURVE('',#696,#697,#50,.T.);
#552=EDGE_CURVE('',#692,#697,#51,.T.);
#553=EDGE_CURVE('',#698,#699,#52,.T.);
#554=EDGE_CURVE('',#698,#700,#53,.F.);
#555=EDGE_CURVE('',#700,#701,#54,.F.);
#556=EDGE_CURVE('',#701,#702,#55,.T.);
#557=EDGE_CURVE('',#703,#702,#56,.T.);
#558=EDGE_CURVE('',#703,#704,#57,.T.);
#559=EDGE_CURVE('',#704,#705,#58,.T.);
#560=EDGE_CURVE('',#699,#705,#59,.T.);
#561=EDGE_CURVE('',#706,#707,#60,.T.);
#562=EDGE_CURVE('',#707,#698,#787,.F.);
#563=EDGE_CURVE('',#699,#708,#61,.T.);
#564=EDGE_CURVE('',#708,#709,#62,.T.);
#565=EDGE_CURVE('',#709,#710,#63,.T.);
#566=EDGE_CURVE('',#710,#711,#64,.T.);
#567=EDGE_CURVE('',#711,#712,#65,.T.);
#568=EDGE_CURVE('',#712,#713,#66,.F.);
#569=EDGE_CURVE('',#703,#713,#67,.T.);
#570=EDGE_CURVE('',#702,#714,#788,.F.);
#571=EDGE_CURVE('',#715,#714,#68,.T.);
#572=EDGE_CURVE('',#715,#716,#789,.F.);
#573=EDGE_CURVE('',#716,#717,#790,.T.);
#574=EDGE_CURVE('',#718,#717,#69,.T.);
#575=EDGE_CURVE('',#718,#719,#791,.T.);
#576=EDGE_CURVE('',#720,#719,#70,.T.);
#577=EDGE_CURVE('',#720,#721,#71,.T.);
#578=EDGE_CURVE('',#721,#722,#72,.T.);
#579=EDGE_CURVE('',#723,#722,#73,.T.);
#580=EDGE_CURVE('',#723,#724,#74,.T.);
#581=EDGE_CURVE('',#724,#725,#792,.T.);
#582=EDGE_CURVE('',#725,#726,#75,.T.);
#583=EDGE_CURVE('',#726,#727,#793,.T.);
#584=EDGE_CURVE('',#727,#706,#794,.F.);
#585=EDGE_CURVE('',#728,#729,#76,.T.);
#586=EDGE_CURVE('',#705,#729,#77,.T.);
#587=EDGE_CURVE('',#704,#728,#78,.T.);
#588=EDGE_CURVE('',#730,#731,#79,.T.);
#589=EDGE_CURVE('',#732,#731,#80,.T.);
#590=EDGE_CURVE('',#729,#732,#81,.T.);
#591=EDGE_CURVE('',#728,#733,#82,.T.);
#592=EDGE_CURVE('',#730,#733,#83,.F.);
#593=EDGE_CURVE('',#734,#734,#795,.T.);
#594=EDGE_CURVE('',#735,#735,#796,.T.);
#595=EDGE_CURVE('',#736,#736,#797,.T.);
#596=EDGE_CURVE('',#732,#737,#84,.T.);
#597=EDGE_CURVE('',#737,#738,#85,.T.);
#598=EDGE_CURVE('',#708,#738,#86,.T.);
#599=EDGE_CURVE('',#739,#730,#87,.T.);
#600=EDGE_CURVE('',#739,#733,#88,.T.);
#601=EDGE_CURVE('',#731,#737,#89,.F.);
#602=EDGE_CURVE('',#740,#740,#798,.T.);
#603=EDGE_CURVE('',#741,#741,#799,.T.);
#604=EDGE_CURVE('',#742,#742,#800,.T.);
#605=EDGE_CURVE('',#713,#743,#90,.T.);
#606=EDGE_CURVE('',#743,#739,#91,.T.);
#607=EDGE_CURVE('',#744,#745,#92,.T.);
#608=EDGE_CURVE('',#745,#746,#93,.T.);
#609=EDGE_CURVE('',#746,#747,#94,.T.);
#610=EDGE_CURVE('',#747,#744,#95,.T.);
#611=EDGE_CURVE('',#748,#749,#96,.T.);
#612=EDGE_CURVE('',#747,#748,#97,.F.);
#613=EDGE_CURVE('',#749,#747,#98,.T.);
#614=EDGE_CURVE('',#750,#748,#99,.T.);
#615=EDGE_CURVE('',#744,#750,#100,.T.);
#616=EDGE_CURVE('',#749,#743,#101,.F.);
#617=EDGE_CURVE('',#739,#746,#102,.F.);
#618=EDGE_CURVE('',#751,#750,#103,.T.);
#619=EDGE_CURVE('',#744,#751,#104,.F.);
#620=EDGE_CURVE('',#730,#746,#105,.T.);
#621=EDGE_CURVE('',#738,#751,#106,.T.);
#622=EDGE_CURVE('',#745,#737,#107,.T.);
#623=EDGE_CURVE('',#731,#745,#108,.F.);
#624=EDGE_CURVE('',#709,#751,#109,.T.);
#625=EDGE_CURVE('',#710,#750,#110,.T.);
#626=EDGE_CURVE('',#711,#748,#111,.T.);
#627=EDGE_CURVE('',#712,#749,#112,.T.);
#628=EDGE_CURVE('',#752,#753,#113,.T.);
#629=EDGE_CURVE('',#754,#752,#114,.T.);
#630=EDGE_CURVE('',#755,#754,#115,.T.);
#631=EDGE_CURVE('',#755,#753,#116,.T.);
#632=EDGE_CURVE('',#722,#754,#117,.T.);
#633=EDGE_CURVE('',#721,#755,#118,.T.);
#634=EDGE_CURVE('',#753,#756,#119,.T.);
#635=EDGE_CURVE('',#757,#720,#120,.T.);
#636=EDGE_CURVE('',#757,#758,#801,.F.);
#637=EDGE_CURVE('',#759,#758,#121,.T.);
#638=EDGE_CURVE('',#759,#756,#802,.F.);
#639=EDGE_CURVE('',#752,#760,#122,.T.);
#640=EDGE_CURVE('',#760,#696,#803,.T.);
#641=EDGE_CURVE('',#695,#761,#804,.T.);
#642=EDGE_CURVE('',#761,#723,#123,.T.);
#643=EDGE_CURVE('',#761,#762,#124,.T.);
#644=EDGE_CURVE('',#762,#724,#125,.T.);
#645=EDGE_CURVE('',#763,#763,#805,.T.);
#646=EDGE_CURVE('',#764,#764,#806,.T.);
#647=EDGE_CURVE('',#765,#765,#807,.T.);
#648=EDGE_CURVE('',#697,#707,#126,.T.);
#649=EDGE_CURVE('',#706,#692,#127,.F.);
#650=EDGE_CURVE('',#725,#766,#128,.F.);
#651=EDGE_CURVE('',#766,#767,#808,.T.);
#652=EDGE_CURVE('',#767,#768,#129,.T.);
#653=EDGE_CURVE('',#768,#726,#130,.T.);
#654=EDGE_CURVE('',#719,#769,#131,.F.);
#655=EDGE_CURVE('',#769,#757,#132,.F.);
#656=EDGE_CURVE('',#770,#771,#809,.F.);
#657=EDGE_CURVE('',#771,#718,#133,.T.);
#658=EDGE_CURVE('',#717,#772,#134,.F.);
#659=EDGE_CURVE('',#772,#770,#135,.F.);
#660=EDGE_CURVE('',#773,#773,#810,.T.);
#661=EDGE_CURVE('',#774,#774,#811,.T.);
#662=EDGE_CURVE('',#775,#775,#812,.T.);
#663=EDGE_CURVE('',#714,#776,#136,.F.);
#664=EDGE_CURVE('',#777,#776,#137,.T.);
#665=EDGE_CURVE('',#777,#715,#138,.T.);
#666=EDGE_CURVE('',#758,#778,#139,.T.);
#667=EDGE_CURVE('',#778,#779,#140,.T.);
#668=EDGE_CURVE('',#779,#777,#813,.F.);
#669=EDGE_CURVE('',#776,#759,#141,.T.);
#670=EDGE_CURVE('',#776,#701,#23,.T.);
#671=EDGE_CURVE('',#756,#760,#142,.T.);
#672=EDGE_CURVE('',#700,#697,#24,.F.);
#673=EDGE_CURVE('',#694,#762,#814,.F.);
#674=EDGE_CURVE('',#769,#778,#815,.T.);
#675=EDGE_CURVE('',#693,#727,#143,.T.);
#676=EDGE_CURVE('',#716,#779,#144,.F.);
#677=EDGE_CURVE('',#766,#762,#816,.T.);
#678=EDGE_CURVE('',#767,#694,#817,.T.);
#679=EDGE_CURVE('',#693,#768,#25,.F.);
#680=EDGE_CURVE('',#769,#771,#818,.T.);
#681=EDGE_CURVE('',#778,#770,#819,.T.);
#682=EDGE_CURVE('',#772,#779,#26,.T.);
#683=EDGE_CURVE('',#780,#781,#145,.T.);
#684=EDGE_CURVE('',#780,#782,#146,.T.);
#685=EDGE_CURVE('',#782,#783,#147,.T.);
#686=EDGE_CURVE('',#783,#781,#148,.F.);
#687=EDGE_CURVE('',#782,#784,#149,.T.);
#688=EDGE_CURVE('',#784,#783,#820,.F.);
#689=EDGE_CURVE('',#780,#785,#150,.T.);
#690=EDGE_CURVE('',#781,#785,#821,.T.);
#691=EDGE_CURVE('',#785,#784,#151,.T.);
#692=VERTEX_POINT('',#1507);
#693=VERTEX_POINT('',#1508);
#694=VERTEX_POINT('',#1510);
#695=VERTEX_POINT('',#1512);
#696=VERTEX_POINT('',#1514);
#697=VERTEX_POINT('',#1516);
#698=VERTEX_POINT('',#1520);
#699=VERTEX_POINT('',#1521);
#700=VERTEX_POINT('',#1523);
#701=VERTEX_POINT('',#1525);
#702=VERTEX_POINT('',#1527);
#703=VERTEX_POINT('',#1529);
#704=VERTEX_POINT('',#1531);
#705=VERTEX_POINT('',#1533);
#706=VERTEX_POINT('',#1537);
#707=VERTEX_POINT('',#1538);
#708=VERTEX_POINT('',#1541);
#709=VERTEX_POINT('',#1543);
#710=VERTEX_POINT('',#1545);
#711=VERTEX_POINT('',#1547);
#712=VERTEX_POINT('',#1549);
#713=VERTEX_POINT('',#1551);
#714=VERTEX_POINT('',#1554);
#715=VERTEX_POINT('',#1556);
#716=VERTEX_POINT('',#1558);
#717=VERTEX_POINT('',#1560);
#718=VERTEX_POINT('',#1562);
#719=VERTEX_POINT('',#1564);
#720=VERTEX_POINT('',#1566);
#721=VERTEX_POINT('',#1568);
#722=VERTEX_POINT('',#1570);
#723=VERTEX_POINT('',#1572);
#724=VERTEX_POINT('',#1574);
#725=VERTEX_POINT('',#1576);
#726=VERTEX_POINT('',#1578);
#727=VERTEX_POINT('',#1580);
#728=VERTEX_POINT('',#1584);
#729=VERTEX_POINT('',#1585);
#730=VERTEX_POINT('',#1590);
#731=VERTEX_POINT('',#1591);
#732=VERTEX_POINT('',#1593);
#733=VERTEX_POINT('',#1596);
#734=VERTEX_POINT('',#1600);
#735=VERTEX_POINT('',#1602);
#736=VERTEX_POINT('',#1604);
#737=VERTEX_POINT('',#1606);
#738=VERTEX_POINT('',#1608);
#739=VERTEX_POINT('',#1612);
#740=VERTEX_POINT('',#1618);
#741=VERTEX_POINT('',#1620);
#742=VERTEX_POINT('',#1622);
#743=VERTEX_POINT('',#1624);
#744=VERTEX_POINT('',#1628);
#745=VERTEX_POINT('',#1629);
#746=VERTEX_POINT('',#1631);
#747=VERTEX_POINT('',#1633);
#748=VERTEX_POINT('',#1637);
#749=VERTEX_POINT('',#1638);
#750=VERTEX_POINT('',#1643);
#751=VERTEX_POINT('',#1650);
#752=VERTEX_POINT('',#1671);
#753=VERTEX_POINT('',#1672);
#754=VERTEX_POINT('',#1674);
#755=VERTEX_POINT('',#1676);
#756=VERTEX_POINT('',#1683);
#757=VERTEX_POINT('',#1685);
#758=VERTEX_POINT('',#1687);
#759=VERTEX_POINT('',#1689);
#760=VERTEX_POINT('',#1693);
#761=VERTEX_POINT('',#1696);
#762=VERTEX_POINT('',#1700);
#763=VERTEX_POINT('',#1704);
#764=VERTEX_POINT('',#1706);
#765=VERTEX_POINT('',#1708);
#766=VERTEX_POINT('',#1713);
#767=VERTEX_POINT('',#1715);
#768=VERTEX_POINT('',#1717);
#769=VERTEX_POINT('',#1721);
#770=VERTEX_POINT('',#1725);
#771=VERTEX_POINT('',#1726);
#772=VERTEX_POINT('',#1729);
#773=VERTEX_POINT('',#1733);
#774=VERTEX_POINT('',#1735);
#775=VERTEX_POINT('',#1737);
#776=VERTEX_POINT('',#1739);
#777=VERTEX_POINT('',#1741);
#778=VERTEX_POINT('',#1745);
#779=VERTEX_POINT('',#1747);
#780=VERTEX_POINT('',#1787);
#781=VERTEX_POINT('',#1788);
#782=VERTEX_POINT('',#1790);
#783=VERTEX_POINT('',#1792);
#784=VERTEX_POINT('',#1796);
#785=VERTEX_POINT('',#1800);
#786=CIRCLE('',#1095,0.002);
#787=CIRCLE('',#1098,0.002);
#788=CIRCLE('',#1099,0.002);
#789=CIRCLE('',#1100,0.002);
#790=CIRCLE('',#1101,0.001);
#791=CIRCLE('',#1102,0.001);
#792=CIRCLE('',#1103,0.001);
#793=CIRCLE('',#1104,0.001);
#794=CIRCLE('',#1105,0.002);
#795=CIRCLE('',#1109,0.0015);
#796=CIRCLE('',#1110,0.0015);
#797=CIRCLE('',#1111,0.0015);
#798=CIRCLE('',#1115,0.0015);
#799=CIRCLE('',#1116,0.0015);
#800=CIRCLE('',#1117,0.0015);
#801=CIRCLE('',#1135,0.002);
#802=CIRCLE('',#1136,0.002);
#803=CIRCLE('',#1138,0.002);
#804=CIRCLE('',#1139,0.002);
#805=CIRCLE('',#1142,0.0015);
#806=CIRCLE('',#1143,0.0015);
#807=CIRCLE('',#1144,0.0015);
#808=CIRCLE('',#1146,0.001);
#809=CIRCLE('',#1149,0.001);
#810=CIRCLE('',#1151,0.0015);
#811=CIRCLE('',#1152,0.0015);
#812=CIRCLE('',#1153,0.0015);
#813=CIRCLE('',#1155,0.002);
#814=CIRCLE('',#1168,0.002);
#815=CIRCLE('',#1170,0.002);
#816=CIRCLE('',#1174,0.001);
#817=CIRCLE('',#1176,0.001);
#818=CIRCLE('',#1181,0.001);
#819=CIRCLE('',#1183,0.001);
#820=CIRCLE('',#1190,0.002);
#821=CIRCLE('',#1192,0.002);
#822=EDGE_LOOP('',(#257,#258,#259,#260,#261,#262));
#823=EDGE_LOOP('',(#263,#264,#265,#266,#267,#268,#269,#270));
#824=EDGE_LOOP('',(#271,#272,#273,#274,#275,#276,#277,#278,#279,#280,#281,
#282,#283,#284,#285,#286,#287,#288,#289,#290,#291,#292,#293,#294,#295,#296));
#825=EDGE_LOOP('',(#297,#298,#299,#300));
#826=EDGE_LOOP('',(#301,#302,#303,#304,#305,#306));
#827=EDGE_LOOP('',(#307));
#828=EDGE_LOOP('',(#308));
#829=EDGE_LOOP('',(#309));
#830=EDGE_LOOP('',(#310,#311,#312,#313,#314,#315,#316));
#831=EDGE_LOOP('',(#317,#318,#319));
#832=EDGE_LOOP('',(#320,#321,#322));
#833=EDGE_LOOP('',(#323));
#834=EDGE_LOOP('',(#324));
#835=EDGE_LOOP('',(#325));
#836=EDGE_LOOP('',(#326,#327,#328,#329,#330,#331,#332));
#837=EDGE_LOOP('',(#333,#334,#335,#336));
#838=EDGE_LOOP('',(#337,#338,#339));
#839=EDGE_LOOP('',(#340,#341,#342,#343));
#840=EDGE_LOOP('',(#344,#345,#346,#347,#348));
#841=EDGE_LOOP('',(#349,#350,#351));
#842=EDGE_LOOP('',(#352,#353,#354));
#843=EDGE_LOOP('',(#355,#356,#357,#358,#359));
#844=EDGE_LOOP('',(#360,#361,#362,#363));
#845=EDGE_LOOP('',(#364,#365,#366));
#846=EDGE_LOOP('',(#367,#368,#369,#370));
#847=EDGE_LOOP('',(#371,#372,#373,#374));
#848=EDGE_LOOP('',(#375,#376,#377,#378));
#849=EDGE_LOOP('',(#379,#380,#381,#382));
#850=EDGE_LOOP('',(#383,#384,#385,#386));
#851=EDGE_LOOP('',(#387,#388,#389,#390));
#852=EDGE_LOOP('',(#391,#392,#393,#394));
#853=EDGE_LOOP('',(#395,#396,#397,#398,#399,#400,#401,#402));
#854=EDGE_LOOP('',(#403,#404,#405,#406,#407,#408,#409,#410));
#855=EDGE_LOOP('',(#411,#412,#413,#414));
#856=EDGE_LOOP('',(#415));
#857=EDGE_LOOP('',(#416));
#858=EDGE_LOOP('',(#417));
#859=EDGE_LOOP('',(#418,#419,#420,#421));
#860=EDGE_LOOP('',(#422,#423,#424,#425,#426));
#861=EDGE_LOOP('',(#427,#428,#429,#430));
#862=EDGE_LOOP('',(#431,#432,#433,#434,#435));
#863=EDGE_LOOP('',(#436));
#864=EDGE_LOOP('',(#437));
#865=EDGE_LOOP('',(#438));
#866=EDGE_LOOP('',(#439,#440,#441,#442));
#867=EDGE_LOOP('',(#443,#444,#445,#446,#447,#448));
#868=EDGE_LOOP('',(#449));
#869=EDGE_LOOP('',(#450));
#870=EDGE_LOOP('',(#451));
#871=EDGE_LOOP('',(#452));
#872=EDGE_LOOP('',(#453));
#873=EDGE_LOOP('',(#454));
#874=EDGE_LOOP('',(#455));
#875=EDGE_LOOP('',(#456));
#876=EDGE_LOOP('',(#457));
#877=EDGE_LOOP('',(#458));
#878=EDGE_LOOP('',(#459));
#879=EDGE_LOOP('',(#460));
#880=EDGE_LOOP('',(#461,#462,#463,#464));
#881=EDGE_LOOP('',(#465,#466,#467,#468,#469,#470,#471,#472));
#882=EDGE_LOOP('',(#473,#474,#475,#476));
#883=EDGE_LOOP('',(#477,#478,#479,#480));
#884=EDGE_LOOP('',(#481,#482,#483,#484));
#885=EDGE_LOOP('',(#485,#486,#487,#488));
#886=EDGE_LOOP('',(#489,#490,#491,#492));
#887=EDGE_LOOP('',(#493,#494,#495,#496));
#888=EDGE_LOOP('',(#497,#498,#499,#500));
#889=EDGE_LOOP('',(#501,#502,#503,#504));
#890=EDGE_LOOP('',(#505,#506,#507,#508));
#891=EDGE_LOOP('',(#509,#510,#511,#512));
#892=EDGE_LOOP('',(#513,#514,#515,#516));
#893=EDGE_LOOP('',(#517,#518,#519,#520));
#894=EDGE_LOOP('',(#521,#522,#523,#524));
#895=EDGE_LOOP('',(#525,#526,#527,#528));
#896=EDGE_LOOP('',(#529,#530,#531,#532));
#897=EDGE_LOOP('',(#533,#534,#535));
#898=EDGE_LOOP('',(#536,#537,#538));
#899=EDGE_LOOP('',(#539,#540,#541,#542));
#900=EDGE_LOOP('',(#543,#544,#545,#546));
#901=FACE_BOUND('',#822,.T.);
#902=FACE_BOUND('',#823,.T.);
#903=FACE_BOUND('',#824,.T.);
#904=FACE_BOUND('',#825,.T.);
#905=FACE_BOUND('',#826,.T.);
#906=FACE_BOUND('',#827,.T.);
#907=FACE_BOUND('',#828,.T.);
#908=FACE_BOUND('',#829,.T.);
#909=FACE_BOUND('',#830,.T.);
#910=FACE_BOUND('',#831,.T.);
#911=FACE_BOUND('',#832,.T.);
#912=FACE_BOUND('',#833,.T.);
#913=FACE_BOUND('',#834,.T.);
#914=FACE_BOUND('',#835,.T.);
#915=FACE_BOUND('',#836,.T.);
#916=FACE_BOUND('',#837,.T.);
#917=FACE_BOUND('',#838,.T.);
#918=FACE_BOUND('',#839,.T.);
#919=FACE_BOUND('',#840,.T.);
#920=FACE_BOUND('',#841,.T.);
#921=FACE_BOUND('',#842,.T.);
#922=FACE_BOUND('',#843,.T.);
#923=FACE_BOUND('',#844,.T.);
#924=FACE_BOUND('',#845,.T.);
#925=FACE_BOUND('',#846,.T.);
#926=FACE_BOUND('',#847,.T.);
#927=FACE_BOUND('',#848,.T.);
#928=FACE_BOUND('',#849,.T.);
#929=FACE_BOUND('',#850,.T.);
#930=FACE_BOUND('',#851,.T.);
#931=FACE_BOUND('',#852,.T.);
#932=FACE_BOUND('',#853,.T.);
#933=FACE_BOUND('',#854,.T.);
#934=FACE_BOUND('',#855,.T.);
#935=FACE_BOUND('',#856,.T.);
#936=FACE_BOUND('',#857,.T.);
#937=FACE_BOUND('',#858,.T.);
#938=FACE_BOUND('',#859,.T.);
#939=FACE_BOUND('',#860,.T.);
#940=FACE_BOUND('',#861,.T.);
#941=FACE_BOUND('',#862,.T.);
#942=FACE_BOUND('',#863,.T.);
#943=FACE_BOUND('',#864,.T.);
#944=FACE_BOUND('',#865,.T.);
#945=FACE_BOUND('',#866,.T.);
#946=FACE_BOUND('',#867,.T.);
#947=FACE_BOUND('',#868,.T.);
#948=FACE_BOUND('',#869,.T.);
#949=FACE_BOUND('',#870,.T.);
#950=FACE_BOUND('',#871,.T.);
#951=FACE_BOUND('',#872,.T.);
#952=FACE_BOUND('',#873,.T.);
#953=FACE_BOUND('',#874,.T.);
#954=FACE_BOUND('',#875,.T.);
#955=FACE_BOUND('',#876,.T.);
#956=FACE_BOUND('',#877,.T.);
#957=FACE_BOUND('',#878,.T.);
#958=FACE_BOUND('',#879,.T.);
#959=FACE_BOUND('',#880,.T.);
#960=FACE_BOUND('',#881,.T.);
#961=FACE_BOUND('',#882,.T.);
#962=FACE_BOUND('',#883,.T.);
#963=FACE_BOUND('',#884,.T.);
#964=FACE_BOUND('',#885,.T.);
#965=FACE_BOUND('',#886,.T.);
#966=FACE_BOUND('',#887,.T.);
#967=FACE_BOUND('',#888,.T.);
#968=FACE_BOUND('',#889,.T.);
#969=FACE_BOUND('',#890,.T.);
#970=FACE_BOUND('',#891,.T.);
#971=FACE_BOUND('',#892,.T.);
#972=FACE_BOUND('',#893,.T.);
#973=FACE_BOUND('',#894,.T.);
#974=FACE_BOUND('',#895,.T.);
#975=FACE_BOUND('',#896,.T.);
#976=FACE_BOUND('',#897,.T.);
#977=FACE_BOUND('',#898,.T.);
#978=FACE_BOUND('',#899,.T.);
#979=FACE_BOUND('',#900,.T.);
#980=PLANE('',#1094);
#981=PLANE('',#1096);
#982=PLANE('',#1097);
#983=PLANE('',#1106);
#984=PLANE('',#1107);
#985=PLANE('',#1108);
#986=PLANE('',#1112);
#987=PLANE('',#1113);
#988=PLANE('',#1114);
#989=PLANE('',#1118);
#990=PLANE('',#1119);
#991=PLANE('',#1120);
#992=PLANE('',#1121);
#993=PLANE('',#1122);
#994=PLANE('',#1123);
#995=PLANE('',#1124);
#996=PLANE('',#1125);
#997=PLANE('',#1126);
#998=PLANE('',#1127);
#999=PLANE('',#1128);
#1000=PLANE('',#1129);
#1001=PLANE('',#1130);
#1002=PLANE('',#1131);
#1003=PLANE('',#1132);
#1004=PLANE('',#1133);
#1005=PLANE('',#1134);
#1006=PLANE('',#1137);
#1007=PLANE('',#1140);
#1008=PLANE('',#1141);
#1009=PLANE('',#1145);
#1010=PLANE('',#1147);
#1011=PLANE('',#1148);
#1012=PLANE('',#1150);
#1013=PLANE('',#1154);
#1014=PLANE('',#1187);
#1015=PLANE('',#1188);
#1016=PLANE('',#1189);
#1017=PLANE('',#1191);
#1018=PLANE('',#1193);
#1019=ADVANCED_FACE('',(#901),#980,.T.);
#1020=ADVANCED_FACE('',(#902),#981,.T.);
#1021=ADVANCED_FACE('',(#903),#982,.F.);
#1022=ADVANCED_FACE('',(#904),#983,.T.);
#1023=ADVANCED_FACE('',(#905),#984,.T.);
#1024=ADVANCED_FACE('',(#906,#907,#908,#909),#985,.T.);
#1025=ADVANCED_FACE('',(#910),#986,.F.);
#1026=ADVANCED_FACE('',(#911),#987,.T.);
#1027=ADVANCED_FACE('',(#912,#913,#914,#915),#988,.F.);
#1028=ADVANCED_FACE('',(#916),#989,.F.);
#1029=ADVANCED_FACE('',(#917),#990,.T.);
#1030=ADVANCED_FACE('',(#918),#991,.T.);
#1031=ADVANCED_FACE('',(#919),#992,.F.);
#1032=ADVANCED_FACE('',(#920),#993,.T.);
#1033=ADVANCED_FACE('',(#921),#994,.T.);
#1034=ADVANCED_FACE('',(#922),#995,.T.);
#1035=ADVANCED_FACE('',(#923),#996,.F.);
#1036=ADVANCED_FACE('',(#924),#997,.T.);
#1037=ADVANCED_FACE('',(#925),#998,.F.);
#1038=ADVANCED_FACE('',(#926),#999,.F.);
#1039=ADVANCED_FACE('',(#927),#1000,.F.);
#1040=ADVANCED_FACE('',(#928),#1001,.F.);
#1041=ADVANCED_FACE('',(#929),#1002,.F.);
#1042=ADVANCED_FACE('',(#930),#1003,.T.);
#1043=ADVANCED_FACE('',(#931),#1004,.T.);
#1044=ADVANCED_FACE('',(#932),#1005,.T.);
#1045=ADVANCED_FACE('',(#933),#1006,.F.);
#1046=ADVANCED_FACE('',(#934),#1007,.T.);
#1047=ADVANCED_FACE('',(#935,#936,#937,#938),#1008,.T.);
#1048=ADVANCED_FACE('',(#939),#1009,.T.);
#1049=ADVANCED_FACE('',(#940),#1010,.F.);
#1050=ADVANCED_FACE('',(#941),#1011,.F.);
#1051=ADVANCED_FACE('',(#942,#943,#944,#945),#1012,.F.);
#1052=ADVANCED_FACE('',(#946),#1013,.T.);
#1053=ADVANCED_FACE('',(#947,#948),#27,.F.);
#1054=ADVANCED_FACE('',(#949,#950),#28,.F.);
#1055=ADVANCED_FACE('',(#951,#952),#29,.F.);
#1056=ADVANCED_FACE('',(#953,#954),#30,.F.);
#1057=ADVANCED_FACE('',(#955,#956),#31,.F.);
#1058=ADVANCED_FACE('',(#957,#958),#32,.F.);
#1059=ADVANCED_FACE('',(#959),#33,.T.);
#1060=ADVANCED_FACE('',(#960),#34,.T.);
#1061=ADVANCED_FACE('',(#961),#35,.T.);
#1062=ADVANCED_FACE('',(#962),#36,.F.);
#1063=ADVANCED_FACE('',(#963),#37,.F.);
#1064=ADVANCED_FACE('',(#964),#38,.T.);
#1065=ADVANCED_FACE('',(#965),#39,.T.);
#1066=ADVANCED_FACE('',(#966),#40,.F.);
#1067=ADVANCED_FACE('',(#967),#21,.F.);
#1068=ADVANCED_FACE('',(#968),#41,.F.);
#1069=ADVANCED_FACE('',(#969),#42,.F.);
#1070=ADVANCED_FACE('',(#970),#43,.F.);
#1071=ADVANCED_FACE('',(#971),#22,.F.);
#1072=ADVANCED_FACE('',(#972),#44,.F.);
#1073=ADVANCED_FACE('',(#973),#45,.F.);
#1074=ADVANCED_FACE('',(#974),#1014,.F.);
#1075=ADVANCED_FACE('',(#975),#1015,.F.);
#1076=ADVANCED_FACE('',(#976),#1016,.F.);
#1077=ADVANCED_FACE('',(#977),#1017,.T.);
#1078=ADVANCED_FACE('',(#978),#1018,.T.);
#1079=ADVANCED_FACE('',(#979),#46,.F.);
#1080=CLOSED_SHELL('',(#1019,#1020,#1021,#1022,#1023,#1024,#1025,#1026,
#1027,#1028,#1029,#1030,#1031,#1032,#1033,#1034,#1035,#1036,#1037,#1038,
#1039,#1040,#1041,#1042,#1043,#1044,#1045,#1046,#1047,#1048,#1049,#1050,
#1051,#1052,#1053,#1054,#1055,#1056,#1057,#1058,#1059,#1060,#1061,#1062,
#1063,#1064,#1065,#1066,#1067,#1068,#1069,#1070,#1071,#1072,#1073,#1074));
#1081=CLOSED_SHELL('',(#1075,#1076,#1077,#1078,#1079));
#1082=STYLED_ITEM('',(#1083),#1090);
#1083=PRESENTATION_STYLE_ASSIGNMENT((#1084));
#1084=SURFACE_STYLE_USAGE(.BOTH.,#1085);
#1085=SURFACE_SIDE_STYLE('',(#1086));
#1086=SURFACE_STYLE_FILL_AREA(#1087);
#1087=FILL_AREA_STYLE('',(#1088));
#1088=FILL_AREA_STYLE_COLOUR('',#1089);
#1089=COLOUR_RGB('',0.4,0.4,0.4);
#1090=BREP_WITH_VOIDS('Back Top',#1080,(#20));
#1091=SHAPE_DEFINITION_REPRESENTATION(#1811,#1092);
#1092=SHAPE_REPRESENTATION('Back Top',(#1093),#1806);
#1093=AXIS2_PLACEMENT_3D('',#1504,#1195,#1196);
#1094=AXIS2_PLACEMENT_3D('',#1505,#1197,#1198);
#1095=AXIS2_PLACEMENT_3D('',#1506,#1199,#1200);
#1096=AXIS2_PLACEMENT_3D('',#1518,#1206,#1207);
#1097=AXIS2_PLACEMENT_3D('',#1535,#1216,#1217);
#1098=AXIS2_PLACEMENT_3D('',#1539,#1219,#1220);
#1099=AXIS2_PLACEMENT_3D('',#1553,#1228,#1229);
#1100=AXIS2_PLACEMENT_3D('',#1557,#1231,#1232);
#1101=AXIS2_PLACEMENT_3D('',#1559,#1233,#1234);
#1102=AXIS2_PLACEMENT_3D('',#1563,#1236,#1237);
#1103=AXIS2_PLACEMENT_3D('',#1575,#1243,#1244);
#1104=AXIS2_PLACEMENT_3D('',#1579,#1246,#1247);
#1105=AXIS2_PLACEMENT_3D('',#1581,#1248,#1249);
#1106=AXIS2_PLACEMENT_3D('',#1582,#1250,#1251);
#1107=AXIS2_PLACEMENT_3D('',#1588,#1255,#1256);
#1108=AXIS2_PLACEMENT_3D('',#1598,#1262,#1263);
#1109=AXIS2_PLACEMENT_3D('',#1599,#1264,#1265);
#1110=AXIS2_PLACEMENT_3D('',#1601,#1266,#1267);
#1111=AXIS2_PLACEMENT_3D('',#1603,#1268,#1269);
#1112=AXIS2_PLACEMENT_3D('',#1610,#1273,#1274);
#1113=AXIS2_PLACEMENT_3D('',#1614,#1277,#1278);
#1114=AXIS2_PLACEMENT_3D('',#1616,#1280,#1281);
#1115=AXIS2_PLACEMENT_3D('',#1617,#1282,#1283);
#1116=AXIS2_PLACEMENT_3D('',#1619,#1284,#1285);
#1117=AXIS2_PLACEMENT_3D('',#1621,#1286,#1287);
#1118=AXIS2_PLACEMENT_3D('',#1626,#1290,#1291);
#1119=AXIS2_PLACEMENT_3D('',#1635,#1296,#1297);
#1120=AXIS2_PLACEMENT_3D('',#1641,#1301,#1302);
#1121=AXIS2_PLACEMENT_3D('',#1645,#1305,#1306);
#1122=AXIS2_PLACEMENT_3D('',#1648,#1309,#1310);
#1123=AXIS2_PLACEMENT_3D('',#1652,#1313,#1314);
#1124=AXIS2_PLACEMENT_3D('',#1654,#1316,#1317);
#1125=AXIS2_PLACEMENT_3D('',#1657,#1320,#1321);
#1126=AXIS2_PLACEMENT_3D('',#1659,#1323,#1324);
#1127=AXIS2_PLACEMENT_3D('',#1660,#1325,#1326);
#1128=AXIS2_PLACEMENT_3D('',#1662,#1328,#1329);
#1129=AXIS2_PLACEMENT_3D('',#1664,#1331,#1332);
#1130=AXIS2_PLACEMENT_3D('',#1666,#1334,#1335);
#1131=AXIS2_PLACEMENT_3D('',#1668,#1337,#1338);
#1132=AXIS2_PLACEMENT_3D('',#1669,#1339,#1340);
#1133=AXIS2_PLACEMENT_3D('',#1678,#1345,#1346);
#1134=AXIS2_PLACEMENT_3D('',#1681,#1349,#1350);
#1135=AXIS2_PLACEMENT_3D('',#1686,#1353,#1354);
#1136=AXIS2_PLACEMENT_3D('',#1690,#1356,#1357);
#1137=AXIS2_PLACEMENT_3D('',#1691,#1358,#1359);
#1138=AXIS2_PLACEMENT_3D('',#1694,#1361,#1362);
#1139=AXIS2_PLACEMENT_3D('',#1695,#1363,#1364);
#1140=AXIS2_PLACEMENT_3D('',#1698,#1366,#1367);
#1141=AXIS2_PLACEMENT_3D('',#1702,#1370,#1371);
#1142=AXIS2_PLACEMENT_3D('',#1703,#1372,#1373);
#1143=AXIS2_PLACEMENT_3D('',#1705,#1374,#1375);
#1144=AXIS2_PLACEMENT_3D('',#1707,#1376,#1377);
#1145=AXIS2_PLACEMENT_3D('',#1711,#1380,#1381);
#1146=AXIS2_PLACEMENT_3D('',#1714,#1383,#1384);
#1147=AXIS2_PLACEMENT_3D('',#1719,#1387,#1388);
#1148=AXIS2_PLACEMENT_3D('',#1723,#1391,#1392);
#1149=AXIS2_PLACEMENT_3D('',#1724,#1393,#1394);
#1150=AXIS2_PLACEMENT_3D('',#1731,#1398,#1399);
#1151=AXIS2_PLACEMENT_3D('',#1732,#1400,#1401);
#1152=AXIS2_PLACEMENT_3D('',#1734,#1402,#1403);
#1153=AXIS2_PLACEMENT_3D('',#1736,#1404,#1405);
#1154=AXIS2_PLACEMENT_3D('',#1743,#1409,#1410);
#1155=AXIS2_PLACEMENT_3D('',#1748,#1413,#1414);
#1156=AXIS2_PLACEMENT_3D('',#1750,#1416,#1417);
#1157=AXIS2_PLACEMENT_3D('',#1751,#1418,#1419);
#1158=AXIS2_PLACEMENT_3D('',#1752,#1420,#1421);
#1159=AXIS2_PLACEMENT_3D('',#1753,#1422,#1423);
#1160=AXIS2_PLACEMENT_3D('',#1754,#1424,#1425);
#1161=AXIS2_PLACEMENT_3D('',#1755,#1426,#1427);
#1162=AXIS2_PLACEMENT_3D('',#1756,#1428,#1429);
#1163=AXIS2_PLACEMENT_3D('',#1757,#1430,#1431);
#1164=AXIS2_PLACEMENT_3D('',#1758,#1432,#1433);
#1165=AXIS2_PLACEMENT_3D('',#1760,#1435,#1436);
#1166=AXIS2_PLACEMENT_3D('',#1761,#1437,#1438);
#1167=AXIS2_PLACEMENT_3D('',#1762,#1439,#1440);
#1168=AXIS2_PLACEMENT_3D('',#1763,#1441,#1442);
#1169=AXIS2_PLACEMENT_3D('',#1764,#1443,#1444);
#1170=AXIS2_PLACEMENT_3D('',#1765,#1445,#1446);
#1171=AXIS2_PLACEMENT_3D('',#1766,#1447,#1448);
#1172=AXIS2_PLACEMENT_3D('',#1768,#1450,#1451);
#1173=AXIS2_PLACEMENT_3D('',#1770,#1453,#1454);
#1174=AXIS2_PLACEMENT_3D('',#1771,#1455,#1456);
#1175=AXIS2_PLACEMENT_3D('',#1772,#1457,#1458);
#1176=AXIS2_PLACEMENT_3D('',#1773,#1459,#1460);
#1177=AXIS2_PLACEMENT_3D('',#1774,#1461,#1462);
#1178=AXIS2_PLACEMENT_3D('',#1775,#1463,#1464);
#1179=AXIS2_PLACEMENT_3D('',#1776,#1465,#1466);
#1180=AXIS2_PLACEMENT_3D('',#1777,#1467,#1468);
#1181=AXIS2_PLACEMENT_3D('',#1778,#1469,#1470);
#1182=AXIS2_PLACEMENT_3D('',#1779,#1471,#1472);
#1183=AXIS2_PLACEMENT_3D('',#1780,#1473,#1474);
#1184=AXIS2_PLACEMENT_3D('',#1781,#1475,#1476);
#1185=AXIS2_PLACEMENT_3D('',#1782,#1477,#1478);
#1186=AXIS2_PLACEMENT_3D('',#1783,#1479,#1480);
#1187=AXIS2_PLACEMENT_3D('',#1784,#1481,#1482);
#1188=AXIS2_PLACEMENT_3D('',#1785,#1483,#1484);
#1189=AXIS2_PLACEMENT_3D('',#1794,#1489,#1490);
#1190=AXIS2_PLACEMENT_3D('',#1797,#1492,#1493);
#1191=AXIS2_PLACEMENT_3D('',#1798,#1494,#1495);
#1192=AXIS2_PLACEMENT_3D('',#1801,#1497,#1498);
#1193=AXIS2_PLACEMENT_3D('',#1802,#1499,#1500);
#1194=AXIS2_PLACEMENT_3D('',#1804,#1502,#1503);
#1195=DIRECTION('',(0.,0.,1.));
#1196=DIRECTION('',(1.,0.,0.));
#1197=DIRECTION('',(0.,-1.,0.));
#1198=DIRECTION('',(1.,0.,0.));
#1199=DIRECTION('',(0.,-1.,0.));
#1200=DIRECTION('',(0.,0.,-1.));
#1201=DIRECTION('',(0.,0.,-1.));
#1202=DIRECTION('',(1.,0.,0.));
#1203=DIRECTION('',(0.,0.,1.));
#1204=DIRECTION('',(1.,0.,0.));
#1205=DIRECTION('',(0.,0.,-1.));
#1206=DIRECTION('',(0.,0.,-1.));
#1207=DIRECTION('',(-1.,0.,0.));
#1208=DIRECTION('',(1.,0.,0.));
#1209=DIRECTION('',(0.,-1.,0.));
#1210=DIRECTION('',(1.,0.,0.));
#1211=DIRECTION('',(0.,-1.,0.));
#1212=DIRECTION('',(1.,0.,0.));
#1213=DIRECTION('',(0.,1.,0.));
#1214=DIRECTION('',(1.,0.,0.));
#1215=DIRECTION('',(0.,1.,0.));
#1216=DIRECTION('',(0.,1.,0.));
#1217=DIRECTION('',(0.,0.,1.));
#1218=DIRECTION('',(0.,0.,-1.));
#1219=DIRECTION('',(0.,1.,0.));
#1220=DIRECTION('',(0.,0.,1.));
#1221=DIRECTION('',(0.,0.,1.));
#1222=DIRECTION('',(-0.685639228017019,0.,0.727941514823977));
#1223=DIRECTION('',(-0.759334442411476,0.,0.650700549075881));
#1224=DIRECTION('',(-1.,0.,0.));
#1225=DIRECTION('',(-0.759334442411477,0.,-0.65070054907588));
#1226=DIRECTION('',(0.685639228017019,0.,0.727941514823977));
#1227=DIRECTION('',(0.,0.,1.));
#1228=DIRECTION('',(0.,1.,0.));
#1229=DIRECTION('',(0.,0.,1.));
#1230=DIRECTION('',(0.,0.,-1.));
#1231=DIRECTION('',(0.,1.,0.));
#1232=DIRECTION('',(0.,0.,1.));
#1233=DIRECTION('',(0.,1.,0.));
#1234=DIRECTION('',(0.,0.,1.));
#1235=DIRECTION('',(0.,0.,-1.));
#1236=DIRECTION('',(0.,1.,0.));
#1237=DIRECTION('',(0.,0.,1.));
#1238=DIRECTION('',(-1.,0.,0.));
#1239=DIRECTION('',(0.,0.,1.));
#1240=DIRECTION('',(1.,0.,0.));
#1241=DIRECTION('',(0.,0.,1.));
#1242=DIRECTION('',(1.,0.,0.));
#1243=DIRECTION('',(0.,1.,0.));
#1244=DIRECTION('',(0.,0.,1.));
#1245=DIRECTION('',(0.,0.,-1.));
#1246=DIRECTION('',(0.,1.,0.));
#1247=DIRECTION('',(0.,0.,1.));
#1248=DIRECTION('',(0.,1.,0.));
#1249=DIRECTION('',(0.,0.,1.));
#1250=DIRECTION('',(0.,-0.335927644482347,-0.941887794629775));
#1251=DIRECTION('',(0.,0.941887794629776,-0.335927644482347));
#1252=DIRECTION('',(1.,0.,0.));
#1253=DIRECTION('',(0.,0.941887794629775,-0.335927644482347));
#1254=DIRECTION('',(0.,0.941887794629775,-0.335927644482347));
#1255=DIRECTION('',(0.,0.200865002118757,-0.97961893148501));
#1256=DIRECTION('',(0.,0.97961893148501,0.200865002118757));
#1257=DIRECTION('',(1.,0.,0.));
#1258=DIRECTION('',(-0.699789711818137,0.699789711818137,0.143487694479274));
#1259=DIRECTION('',(0.,0.97961893148501,0.200865002118757));
#1260=DIRECTION('',(0.,0.97961893148501,0.200865002118757));
#1261=DIRECTION('',(0.699789711818137,0.699789711818137,0.143487694479274));
#1262=DIRECTION('',(1.,0.,0.));
#1263=DIRECTION('',(0.,1.,0.));
#1264=DIRECTION('',(1.,0.,0.));
#1265=DIRECTION('',(0.,0.,-1.));
#1266=DIRECTION('',(1.,0.,0.));
#1267=DIRECTION('',(0.,0.,-1.));
#1268=DIRECTION('',(1.,0.,0.));
#1269=DIRECTION('',(0.,0.,-1.));
#1270=DIRECTION('',(0.,0.,1.));
#1271=DIRECTION('',(0.,-0.941887794629776,0.335927644482345));
#1272=DIRECTION('',(0.,1.,0.));
#1273=DIRECTION('',(0.707106781186548,-0.707106781186548,0.));
#1274=DIRECTION('',(0.,0.,1.));
#1275=DIRECTION('',(0.692211605419878,0.692211605419878,-0.204171953617705));
#1276=DIRECTION('',(0.,0.,-1.));
#1277=DIRECTION('',(0.707106781186548,0.707106781186548,0.));
#1278=DIRECTION('',(0.,0.,-1.));
#1279=DIRECTION('',(-0.692211605419878,0.692211605419878,-0.204171953617705));
#1280=DIRECTION('',(1.,0.,0.));
#1281=DIRECTION('',(0.,1.,0.));
#1282=DIRECTION('',(1.,0.,0.));
#1283=DIRECTION('',(0.,0.,-1.));
#1284=DIRECTION('',(1.,0.,0.));
#1285=DIRECTION('',(0.,0.,-1.));
#1286=DIRECTION('',(1.,0.,0.));
#1287=DIRECTION('',(0.,0.,-1.));
#1288=DIRECTION('',(0.,1.,0.));
#1289=DIRECTION('',(0.,0.941887794629776,-0.335927644482345));
#1290=DIRECTION('',(0.,-0.335927644482345,-0.941887794629776));
#1291=DIRECTION('',(0.,0.941887794629776,-0.335927644482345));
#1292=DIRECTION('',(0.,0.941887794629776,-0.335927644482345));
#1293=DIRECTION('',(-1.,0.,0.));
#1294=DIRECTION('',(0.,-0.941887794629776,0.335927644482345));
#1295=DIRECTION('',(1.,0.,0.));
#1296=DIRECTION('',(-0.645158321880583,0.130238636961256,0.752866945184011));
#1297=DIRECTION('',(0.759334442411477,0.,0.65070054907588));
#1298=DIRECTION('',(-0.759334442411477,0.,-0.65070054907588));
#1299=DIRECTION('',(-5.68991279568863E-17,0.985364854921713,-0.170458507224226));
#1300=DIRECTION('',(0.610398113989497,0.680519452443841,0.405348513360541));
#1301=DIRECTION('',(0.,0.170458507224226,0.985364854921713));
#1302=DIRECTION('',(1.,0.,0.));
#1303=DIRECTION('',(-1.,0.,0.));
#1304=DIRECTION('',(-1.7930184984532E-15,-0.985364854921713,0.170458507224226));
#1305=DIRECTION('',(0.707106781186545,-0.237536715401491,-0.666015246699559));
#1306=DIRECTION('',(0.,-0.941887794629776,0.335927644482345));
#1307=DIRECTION('',(0.685639228017019,0.,0.727941514823977));
#1308=DIRECTION('',(-0.692211605419881,-0.0402259429738112,-0.720572665894217));
#1309=DIRECTION('',(0.645158321880584,0.130238636961254,0.75286694518401));
#1310=DIRECTION('',(0.759334442411476,0.,-0.650700549075881));
#1311=DIRECTION('',(-0.759334442411476,0.,0.650700549075881));
#1312=DIRECTION('',(-0.610398113989501,0.680519452443832,0.405348513360549));
#1313=DIRECTION('',(-0.54341130876834,0.686088097295838,0.483722309028286));
#1314=DIRECTION('',(-0.783902215900266,-0.620884301546313,0.));
#1315=DIRECTION('',(-2.14521515663447E-15,-0.576225804488857,0.817290537227227));
#1316=DIRECTION('',(0.707106781186545,0.237536715401491,0.666015246699559));
#1317=DIRECTION('',(0.,0.941887794629776,-0.335927644482345));
#1318=DIRECTION('',(-0.685639228017019,0.,0.727941514823977));
#1319=DIRECTION('',(0.692211605419882,-0.0402259429738138,-0.720572665894216));
#1320=DIRECTION('',(0.,-0.817290537227227,-0.576225804488857));
#1321=DIRECTION('',(-1.,0.,0.));
#1322=DIRECTION('',(-4.18827721057205E-15,0.576225804488857,-0.817290537227227));
#1323=DIRECTION('',(0.543411308768341,0.686088097295839,0.483722309028285));
#1324=DIRECTION('',(-0.783902215900266,0.620884301546313,0.));
#1325=DIRECTION('',(-0.727941514823977,0.,-0.685639228017019));
#1326=DIRECTION('',(-0.685639228017019,0.,0.727941514823977));
#1327=DIRECTION('',(0.,1.,0.));
#1328=DIRECTION('',(-0.650700549075881,0.,-0.759334442411476));
#1329=DIRECTION('',(-0.759334442411476,0.,0.650700549075881));
#1330=DIRECTION('',(0.,1.,0.));
#1331=DIRECTION('',(0.,0.,-1.));
#1332=DIRECTION('',(-1.,0.,0.));
#1333=DIRECTION('',(0.,1.,0.));
#1334=DIRECTION('',(0.65070054907588,0.,-0.759334442411477));
#1335=DIRECTION('',(-0.759334442411477,0.,-0.65070054907588));
#1336=DIRECTION('',(0.,1.,0.));
#1337=DIRECTION('',(0.727941514823977,0.,-0.685639228017019));
#1338=DIRECTION('',(-0.685639228017019,0.,-0.727941514823977));
#1339=DIRECTION('',(0.,-0.335927644482345,-0.941887794629776));
#1340=DIRECTION('',(0.,0.941887794629776,-0.335927644482345));
#1341=DIRECTION('',(-1.,0.,0.));
#1342=DIRECTION('',(0.,0.941887794629776,-0.335927644482345));
#1343=DIRECTION('',(1.,0.,0.));
#1344=DIRECTION('',(0.,0.941887794629776,-0.335927644482345));
#1345=DIRECTION('',(0.,0.,-1.));
#1346=DIRECTION('',(-1.,0.,0.));
#1347=DIRECTION('',(0.,1.,0.));
#1348=DIRECTION('',(0.,1.,0.));
#1349=DIRECTION('',(1.,0.,0.));
#1350=DIRECTION('',(0.,1.,0.));
#1351=DIRECTION('',(0.,0.,-1.));
#1352=DIRECTION('',(0.,-1.,0.));
#1353=DIRECTION('',(1.,0.,0.));
#1354=DIRECTION('',(0.,0.,-1.));
#1355=DIRECTION('',(0.,0.,1.));
#1356=DIRECTION('',(1.,0.,0.));
#1357=DIRECTION('',(0.,0.,-1.));
#1358=DIRECTION('',(1.,0.,0.));
#1359=DIRECTION('',(0.,1.,0.));
#1360=DIRECTION('',(0.,0.,-1.));
#1361=DIRECTION('',(1.,0.,0.));
#1362=DIRECTION('',(0.,0.,-1.));
#1363=DIRECTION('',(1.,0.,0.));
#1364=DIRECTION('',(0.,0.,-1.));
#1365=DIRECTION('',(0.,-1.,0.));
#1366=DIRECTION('',(0.,0.,-1.));
#1367=DIRECTION('',(-1.,0.,0.));
#1368=DIRECTION('',(1.,0.,0.));
#1369=DIRECTION('',(0.,-1.,0.));
#1370=DIRECTION('',(-1.,0.,0.));
#1371=DIRECTION('',(0.,0.,1.));
#1372=DIRECTION('',(-1.,0.,0.));
#1373=DIRECTION('',(0.,0.,1.));
#1374=DIRECTION('',(-1.,0.,0.));
#1375=DIRECTION('',(0.,0.,1.));
#1376=DIRECTION('',(-1.,0.,0.));
#1377=DIRECTION('',(0.,0.,1.));
#1378=DIRECTION('',(0.,-1.,0.));
#1379=DIRECTION('',(0.,-1.,0.));
#1380=DIRECTION('',(-1.,0.,0.));
#1381=DIRECTION('',(0.,0.,1.));
#1382=DIRECTION('',(0.,-1.,0.));
#1383=DIRECTION('',(-1.,0.,0.));
#1384=DIRECTION('',(0.,0.,1.));
#1385=DIRECTION('',(0.,0.,-1.));
#1386=DIRECTION('',(0.,-1.,0.));
#1387=DIRECTION('',(0.,0.,1.));
#1388=DIRECTION('',(1.,0.,0.));
#1389=DIRECTION('',(0.,-1.,0.));
#1390=DIRECTION('',(-1.,0.,0.));
#1391=DIRECTION('',(-1.,0.,0.));
#1392=DIRECTION('',(0.,0.,1.));
#1393=DIRECTION('',(-1.,0.,0.));
#1394=DIRECTION('',(0.,0.,1.));
#1395=DIRECTION('',(0.,-1.,0.));
#1396=DIRECTION('',(0.,-1.,0.));
#1397=DIRECTION('',(0.,0.,-1.));
#1398=DIRECTION('',(-1.,0.,0.));
#1399=DIRECTION('',(0.,0.,1.));
#1400=DIRECTION('',(-1.,0.,0.));
#1401=DIRECTION('',(0.,0.,1.));
#1402=DIRECTION('',(-1.,0.,0.));
#1403=DIRECTION('',(0.,0.,1.));
#1404=DIRECTION('',(-1.,0.,0.));
#1405=DIRECTION('',(0.,0.,1.));
#1406=DIRECTION('',(0.,-1.,0.));
#1407=DIRECTION('',(0.,0.,-1.));
#1408=DIRECTION('',(0.,-1.,0.));
#1409=DIRECTION('',(0.,-1.,0.));
#1410=DIRECTION('',(1.,0.,0.));
#1411=DIRECTION('',(-1.,0.,0.));
#1412=DIRECTION('',(0.,0.,-1.));
#1413=DIRECTION('',(0.,-1.,0.));
#1414=DIRECTION('',(0.,0.,-1.));
#1415=DIRECTION('',(1.,0.,0.));
#1416=DIRECTION('',(1.,0.,0.));
#1417=DIRECTION('',(0.,0.,-1.));
#1418=DIRECTION('',(1.,0.,0.));
#1419=DIRECTION('',(0.,0.,-1.));
#1420=DIRECTION('',(1.,0.,0.));
#1421=DIRECTION('',(0.,0.,-1.));
#1422=DIRECTION('',(1.,0.,0.));
#1423=DIRECTION('',(0.,0.,-1.));
#1424=DIRECTION('',(1.,0.,0.));
#1425=DIRECTION('',(0.,0.,-1.));
#1426=DIRECTION('',(1.,0.,0.));
#1427=DIRECTION('',(0.,0.,-1.));
#1428=DIRECTION('',(0.,1.,0.));
#1429=DIRECTION('',(0.,0.,1.));
#1430=DIRECTION('',(0.707106781186548,0.707106781186548,0.));
#1431=DIRECTION('',(0.707106781186548,-0.707106781186548,0.));
#1432=DIRECTION('',(1.,0.,0.));
#1433=DIRECTION('',(0.,0.,-1.));
#1434=DIRECTION('',(1.,0.,0.));
#1435=DIRECTION('',(0.707106781186548,-0.707106781186548,0.));
#1436=DIRECTION('',(0.707106781186548,0.707106781186548,0.));
#1437=DIRECTION('',(0.,-1.,0.));
#1438=DIRECTION('',(0.,0.,-1.));
#1439=DIRECTION('',(-1.,0.,0.));
#1440=DIRECTION('',(0.,0.,1.));
#1441=DIRECTION('',(-1.,0.,0.));
#1442=DIRECTION('',(0.,0.,1.));
#1443=DIRECTION('',(-1.,0.,0.));
#1444=DIRECTION('',(0.,0.,1.));
#1445=DIRECTION('',(-1.,0.,0.));
#1446=DIRECTION('',(0.,0.,1.));
#1447=DIRECTION('',(0.,-1.,0.));
#1448=DIRECTION('',(0.,0.,-1.));
#1449=DIRECTION('',(0.,-1.,0.));
#1450=DIRECTION('',(0.,-1.,0.));
#1451=DIRECTION('',(0.,0.,-1.));
#1452=DIRECTION('',(0.,-1.,0.));
#1453=DIRECTION('',(0.,1.,0.));
#1454=DIRECTION('',(0.,0.,1.));
#1455=DIRECTION('',(0.,-1.,0.));
#1456=DIRECTION('',(0.,0.,-1.));
#1457=DIRECTION('',(-1.,0.,0.));
#1458=DIRECTION('',(0.,0.,1.));
#1459=DIRECTION('',(0.,0.,1.));
#1460=DIRECTION('',(1.,0.,0.));
#1461=DIRECTION('',(0.,1.,0.));
#1462=DIRECTION('',(0.,0.,1.));
#1463=DIRECTION('',(0.,0.707106781186548,0.707106781186548));
#1464=DIRECTION('',(0.,-0.707106781186548,0.707106781186548));
#1465=DIRECTION('',(0.,0.,1.));
#1466=DIRECTION('',(1.,0.,0.));
#1467=DIRECTION('',(0.,1.,0.));
#1468=DIRECTION('',(0.,0.,1.));
#1469=DIRECTION('',(0.,-1.,0.));
#1470=DIRECTION('',(0.,0.,-1.));
#1471=DIRECTION('',(-1.,0.,0.));
#1472=DIRECTION('',(0.,0.,1.));
#1473=DIRECTION('',(0.,0.,1.));
#1474=DIRECTION('',(1.,0.,0.));
#1475=DIRECTION('',(0.,1.,0.));
#1476=DIRECTION('',(0.,0.,1.));
#1477=DIRECTION('',(0.,-0.707106781186548,-0.707106781186548));
#1478=DIRECTION('',(0.,0.707106781186548,-0.707106781186548));
#1479=DIRECTION('',(0.,0.,-1.));
#1480=DIRECTION('',(-1.,0.,0.));
#1481=DIRECTION('',(0.,1.,0.));
#1482=DIRECTION('',(0.,0.,1.));
#1483=DIRECTION('',(0.,-1.,0.));
#1484=DIRECTION('',(0.,0.,-1.));
#1485=DIRECTION('',(0.,0.,-1.));
#1486=DIRECTION('',(1.,0.,0.));
#1487=DIRECTION('',(0.,0.,-1.));
#1488=DIRECTION('',(1.,0.,0.));
#1489=DIRECTION('',(1.,0.,0.));
#1490=DIRECTION('',(0.,1.,0.));
#1491=DIRECTION('',(0.,0.941887794629776,-0.335927644482345));
#1492=DIRECTION('',(1.,0.,0.));
#1493=DIRECTION('',(0.,0.,-1.));
#1494=DIRECTION('',(1.,0.,0.));
#1495=DIRECTION('',(0.,1.,0.));
#1496=DIRECTION('',(0.,0.941887794629776,-0.335927644482345));
#1497=DIRECTION('',(1.,0.,0.));
#1498=DIRECTION('',(0.,0.,-1.));
#1499=DIRECTION('',(0.,-0.335927644482345,-0.941887794629776));
#1500=DIRECTION('',(0.,0.941887794629776,-0.335927644482345));
#1501=DIRECTION('',(1.,0.,0.));
#1502=DIRECTION('',(-1.,0.,0.));
#1503=DIRECTION('',(0.,0.,1.));
#1504=CARTESIAN_POINT('',(0.,0.,0.));
#1505=CARTESIAN_POINT('',(0.,0.282,0.135308223440329));
#1506=CARTESIAN_POINT('',(0.097,0.282,0.125654388347959));
#1507=CARTESIAN_POINT('',(0.095,0.282,0.125654388347959));
#1508=CARTESIAN_POINT('',(0.097,0.282,0.127654388347959));
#1509=CARTESIAN_POINT('',(0.097,0.282,0.129654388347959));
#1510=CARTESIAN_POINT('',(0.097,0.282,0.129654388347959));
#1511=CARTESIAN_POINT('',(0.092,0.282,0.129654388347959));
#1512=CARTESIAN_POINT('',(0.092,0.282,0.129654388347959));
#1513=CARTESIAN_POINT('',(0.092,0.282,-0.0100000000000003));
#1514=CARTESIAN_POINT('',(0.092,0.282,0.118654388347959));
#1515=CARTESIAN_POINT('',(0.,0.282,0.118654388347959));
#1516=CARTESIAN_POINT('',(0.095,0.282,0.118654388347959));
#1517=CARTESIAN_POINT('',(0.095,0.282,0.122154388347959));
#1518=CARTESIAN_POINT('',(-0.092,0.28485017823704,0.116654388347959));
#1519=CARTESIAN_POINT('',(-0.1,0.232,0.116654388347959));
#1520=CARTESIAN_POINT('',(0.097,0.232,0.116654388347959));
#1521=CARTESIAN_POINT('',(0.1,0.232,0.116654388347959));
#1522=CARTESIAN_POINT('',(0.097,0.28485017823704,0.116654388347959));
#1523=CARTESIAN_POINT('',(0.097,0.284,0.116654388347959));
#1524=CARTESIAN_POINT('',(-0.092,0.284,0.116654388347959));
#1525=CARTESIAN_POINT('',(-0.097,0.284,0.116654388347959));
#1526=CARTESIAN_POINT('',(-0.097,0.232,0.116654388347959));
#1527=CARTESIAN_POINT('',(-0.097,0.232,0.116654388347959));
#1528=CARTESIAN_POINT('',(-0.1,0.232,0.116654388347959));
#1529=CARTESIAN_POINT('',(-0.1,0.232,0.116654388347959));
#1530=CARTESIAN_POINT('',(-0.1,0.28485017823704,0.116654388347959));
#1531=CARTESIAN_POINT('',(-0.1,0.325700356474081,0.116654388347959));
#1532=CARTESIAN_POINT('',(-0.092,0.325700356474081,0.116654388347959));
#1533=CARTESIAN_POINT('',(0.1,0.325700356474081,0.116654388347959));
#1534=CARTESIAN_POINT('',(0.1,0.28485017823704,0.116654388347959));
#1535=CARTESIAN_POINT('',(-0.32,0.232,0.163734569007389));
#1536=CARTESIAN_POINT('',(0.095,0.232,0.122154388347959));
#1537=CARTESIAN_POINT('',(0.095,0.232,0.125654388347959));
#1538=CARTESIAN_POINT('',(0.095,0.232,0.118654388347959));
#1539=CARTESIAN_POINT('',(0.097,0.232,0.118654388347959));
#1540=CARTESIAN_POINT('',(0.1,0.232,-0.0100000000000003));
#1541=CARTESIAN_POINT('',(0.1,0.232,0.150039902506857));
#1542=CARTESIAN_POINT('',(0.0713499695230731,0.232,0.1804575707687));
#1543=CARTESIAN_POINT('',(0.0975854211101143,0.232,0.152603455090989));
#1544=CARTESIAN_POINT('',(0.0997699063436577,0.232,0.150731492406931));
#1545=CARTESIAN_POINT('',(0.096,0.232,0.153962058532698));
#1546=CARTESIAN_POINT('',(0.1,0.232,0.153962058532698));
#1547=CARTESIAN_POINT('',(-0.096,0.232,0.153962058532698));
#1548=CARTESIAN_POINT('',(-0.0961510803153281,0.232,0.153832592465247));
#1549=CARTESIAN_POINT('',(-0.0975854211101143,0.232,0.152603455090989));
#1550=CARTESIAN_POINT('',(-0.104010345247195,0.232,0.145782128629692));
#1551=CARTESIAN_POINT('',(-0.1,0.232,0.150039902506857));
#1552=CARTESIAN_POINT('',(-0.1,0.232,-0.0100000000000003));
#1553=CARTESIAN_POINT('',(-0.097,0.232,0.118654388347959));
#1554=CARTESIAN_POINT('',(-0.095,0.232,0.118654388347959));
#1555=CARTESIAN_POINT('',(-0.095,0.232,0.122154388347959));
#1556=CARTESIAN_POINT('',(-0.095,0.232,0.125654388347959));
#1557=CARTESIAN_POINT('',(-0.097,0.232,0.125654388347959));
#1558=CARTESIAN_POINT('',(-0.097,0.232,0.127654388347959));
#1559=CARTESIAN_POINT('',(-0.097,0.232,0.128654388347959));
#1560=CARTESIAN_POINT('',(-0.098,0.232,0.128654388347959));
#1561=CARTESIAN_POINT('',(-0.098,0.232,0.129654388347959));
#1562=CARTESIAN_POINT('',(-0.098,0.232,0.130654388347959));
#1563=CARTESIAN_POINT('',(-0.097,0.232,0.130654388347959));
#1564=CARTESIAN_POINT('',(-0.097,0.232,0.131654388347959));
#1565=CARTESIAN_POINT('',(-0.095,0.232,0.131654388347959));
#1566=CARTESIAN_POINT('',(-0.092,0.232,0.131654388347959));
#1567=CARTESIAN_POINT('',(-0.092,0.232,-0.0100000000000003));
#1568=CARTESIAN_POINT('',(-0.092,0.232,0.145962058532698));
#1569=CARTESIAN_POINT('',(-0.092,0.232,0.145962058532698));
#1570=CARTESIAN_POINT('',(0.092,0.232,0.145962058532698));
#1571=CARTESIAN_POINT('',(0.092,0.232,-0.0100000000000003));
#1572=CARTESIAN_POINT('',(0.092,0.232,0.131654388347959));
#1573=CARTESIAN_POINT('',(0.095,0.232,0.131654388347959));
#1574=CARTESIAN_POINT('',(0.097,0.232,0.131654388347959));
#1575=CARTESIAN_POINT('',(0.097,0.232,0.130654388347959));
#1576=CARTESIAN_POINT('',(0.098,0.232,0.130654388347959));
#1577=CARTESIAN_POINT('',(0.098,0.232,0.129654388347959));
#1578=CARTESIAN_POINT('',(0.098,0.232,0.128654388347959));
#1579=CARTESIAN_POINT('',(0.097,0.232,0.128654388347959));
#1580=CARTESIAN_POINT('',(0.097,0.232,0.127654388347959));
#1581=CARTESIAN_POINT('',(0.097,0.232,0.125654388347959));
#1582=CARTESIAN_POINT('',(-0.092,0.32685017823704,0.11624430031135));
#1583=CARTESIAN_POINT('',(-0.092,0.328,0.115834212274742));
#1584=CARTESIAN_POINT('',(-0.1,0.328,0.115834212274742));
#1585=CARTESIAN_POINT('',(0.1,0.328,0.115834212274742));
#1586=CARTESIAN_POINT('',(0.1,0.32685017823704,0.11624430031135));
#1587=CARTESIAN_POINT('',(-0.1,0.32685017823704,0.11624430031135));
#1588=CARTESIAN_POINT('',(-0.1,0.33,0.11624430031135));
#1589=CARTESIAN_POINT('',(0.1,0.336,0.117474564421177));
#1590=CARTESIAN_POINT('',(-0.096,0.336,0.117474564421177));
#1591=CARTESIAN_POINT('',(0.096,0.336,0.117474564421177));
#1592=CARTESIAN_POINT('',(0.112717520685885,0.319282479314115,0.114046736803656));
#1593=CARTESIAN_POINT('',(0.1,0.332,0.116654388347959));
#1594=CARTESIAN_POINT('',(0.1,0.33,0.11624430031135));
#1595=CARTESIAN_POINT('',(-0.1,0.33,0.11624430031135));
#1596=CARTESIAN_POINT('',(-0.1,0.332,0.116654388347959));
#1597=CARTESIAN_POINT('',(-0.113718215833689,0.318281784166312,0.113841550249453));
#1598=CARTESIAN_POINT('',(0.1,0.00550000000000022,-0.0100000000000003));
#1599=CARTESIAN_POINT('',(0.1,0.242,0.122539902506858));
#1600=CARTESIAN_POINT('',(0.1,0.242,0.121039902506858));
#1601=CARTESIAN_POINT('',(0.1,0.252,0.122539902506858));
#1602=CARTESIAN_POINT('',(0.1,0.252,0.121039902506858));
#1603=CARTESIAN_POINT('',(0.1,0.262,0.122539902506858));
#1604=CARTESIAN_POINT('',(0.1,0.262,0.121039902506858));
#1605=CARTESIAN_POINT('',(0.1,0.332,0.121474564421177));
#1606=CARTESIAN_POINT('',(0.1,0.332,0.118654388347959));
#1607=CARTESIAN_POINT('',(0.1,0.24065628942207,0.151232448821481));
#1608=CARTESIAN_POINT('',(0.1,0.244,0.150039902506857));
#1609=CARTESIAN_POINT('',(0.1,0.232,0.150039902506857));
#1610=CARTESIAN_POINT('',(-0.096,0.336,-0.0589819827675819));
#1611=CARTESIAN_POINT('',(-0.096,0.336,0.117474564421177));
#1612=CARTESIAN_POINT('',(-0.1,0.332,0.118654388347959));
#1613=CARTESIAN_POINT('',(-0.1,0.332,-0.0100000000000003));
#1614=CARTESIAN_POINT('',(0.1,0.332,-0.0100000000000003));
#1615=CARTESIAN_POINT('',(0.1,0.332,0.118654388347959));
#1616=CARTESIAN_POINT('',(-0.1,0.00550000000000022,-0.0100000000000003));
#1617=CARTESIAN_POINT('',(-0.1,0.242,0.122539902506858));
#1618=CARTESIAN_POINT('',(-0.1,0.242,0.121039902506858));
#1619=CARTESIAN_POINT('',(-0.1,0.252,0.122539902506858));
#1620=CARTESIAN_POINT('',(-0.1,0.252,0.121039902506858));
#1621=CARTESIAN_POINT('',(-0.1,0.262,0.122539902506858));
#1622=CARTESIAN_POINT('',(-0.1,0.262,0.121039902506858));
#1623=CARTESIAN_POINT('',(-0.1,0.232,0.150039902506857));
#1624=CARTESIAN_POINT('',(-0.1,0.244,0.150039902506857));
#1625=CARTESIAN_POINT('',(-0.1,0.0830517097982618,0.207442684790689));
#1626=CARTESIAN_POINT('',(0.1,0.289,0.138237282210588));
#1627=CARTESIAN_POINT('',(0.096,0.336,0.121474564421177));
#1628=CARTESIAN_POINT('',(0.096,0.245767551178519,0.153656289422071));
#1629=CARTESIAN_POINT('',(0.096,0.332232448821481,0.122818274999106));
#1630=CARTESIAN_POINT('',(0.1,0.332232448821481,0.122818274999106));
#1631=CARTESIAN_POINT('',(-0.096,0.332232448821481,0.122818274999106));
#1632=CARTESIAN_POINT('',(-0.096,0.289,0.138237282210588));
#1633=CARTESIAN_POINT('',(-0.096,0.245767551178519,0.153656289422071));
#1634=CARTESIAN_POINT('',(0.1,0.245767551178519,0.153656289422071));
#1635=CARTESIAN_POINT('',(-0.096,0.245767551178519,0.153656289422071));
#1636=CARTESIAN_POINT('',(-0.0961510803153281,0.244,0.153832592465247));
#1637=CARTESIAN_POINT('',(-0.096,0.244,0.153962058532698));
#1638=CARTESIAN_POINT('',(-0.0975854211101143,0.244,0.152603455090989));
#1639=CARTESIAN_POINT('',(-0.096,0.245767551178519,0.153656289422071));
#1640=CARTESIAN_POINT('',(-0.096,0.245767551178519,0.153656289422071));
#1641=CARTESIAN_POINT('',(0.1,0.238,0.155));
#1642=CARTESIAN_POINT('',(0.1,0.244,0.153962058532698));
#1643=CARTESIAN_POINT('',(0.096,0.244,0.153962058532698));
#1644=CARTESIAN_POINT('',(0.096,0.241883775589259,0.154328144711036));
#1645=CARTESIAN_POINT('',(-0.096,0.289,0.138237282210588));
#1646=CARTESIAN_POINT('',(-0.104010345247195,0.244,0.145782128629692));
#1647=CARTESIAN_POINT('',(-0.098560475830703,0.332083653924162,0.120152892216094));
#1648=CARTESIAN_POINT('',(0.1,0.241308039021799,0.151));
#1649=CARTESIAN_POINT('',(0.0997699063436577,0.244,0.150731492406931));
#1650=CARTESIAN_POINT('',(0.0975854211101143,0.244,0.152603455090989));
#1651=CARTESIAN_POINT('',(0.1,0.241308039021799,0.151));
#1652=CARTESIAN_POINT('',(-0.096,0.336,0.117474564421177));
#1653=CARTESIAN_POINT('',(-0.096,0.336,0.117474564421177));
#1654=CARTESIAN_POINT('',(0.1,0.0830517097982618,0.207442684790689));
#1655=CARTESIAN_POINT('',(0.0713499695230731,0.244,0.1804575707687));
#1656=CARTESIAN_POINT('',(0.1,0.332,0.118654388347959));
#1657=CARTESIAN_POINT('',(0.1,0.332232448821481,0.122818274999106));
#1658=CARTESIAN_POINT('',(0.096,0.334116224410741,0.120146419710142));
#1659=CARTESIAN_POINT('',(0.1,0.332,0.118654388347959));
#1660=CARTESIAN_POINT('',(0.0713499695230731,0.232,0.1804575707687));
#1661=CARTESIAN_POINT('',(0.0975854211101143,0.232,0.152603455090989));
#1662=CARTESIAN_POINT('',(0.0997699063436577,0.232,0.150731492406931));
#1663=CARTESIAN_POINT('',(0.096,0.232,0.153962058532698));
#1664=CARTESIAN_POINT('',(0.1,0.232,0.153962058532698));
#1665=CARTESIAN_POINT('',(-0.096,0.232,0.153962058532698));
#1666=CARTESIAN_POINT('',(-0.0961510803153281,0.232,0.153832592465247));
#1667=CARTESIAN_POINT('',(-0.0975854211101143,0.232,0.152603455090989));
#1668=CARTESIAN_POINT('',(-0.104010345247195,0.232,0.145782128629692));
#1669=CARTESIAN_POINT('',(-0.092,0.279005646274057,0.133308223440329));
#1670=CARTESIAN_POINT('',(-0.092,0.284,0.131526969354191));
#1671=CARTESIAN_POINT('',(0.092,0.284,0.131526969354191));
#1672=CARTESIAN_POINT('',(-0.092,0.284,0.131526969354191));
#1673=CARTESIAN_POINT('',(0.092,0.279005646274057,0.133308223440329));
#1674=CARTESIAN_POINT('',(0.092,0.243526301169468,0.145962058532698));
#1675=CARTESIAN_POINT('',(-0.092,0.243526301169468,0.145962058532698));
#1676=CARTESIAN_POINT('',(-0.092,0.243526301169468,0.145962058532698));
#1677=CARTESIAN_POINT('',(-0.092,0.279005646274057,0.133308223440329));
#1678=CARTESIAN_POINT('',(-0.092,0.237763150584734,0.145962058532698));
#1679=CARTESIAN_POINT('',(0.092,0.237763150584734,0.145962058532698));
#1680=CARTESIAN_POINT('',(-0.092,0.237763150584734,0.145962058532698));
#1681=CARTESIAN_POINT('',(-0.092,0.327,0.1329370573908));
#1682=CARTESIAN_POINT('',(-0.092,0.284,0.131528969354191));
#1683=CARTESIAN_POINT('',(-0.092,0.284,0.120654388347959));
#1684=CARTESIAN_POINT('',(-0.092,0.282,0.131654388347959));
#1685=CARTESIAN_POINT('',(-0.092,0.28,0.131654388347959));
#1686=CARTESIAN_POINT('',(-0.092,0.28,0.129654388347959));
#1687=CARTESIAN_POINT('',(-0.092,0.282,0.129654388347959));
#1688=CARTESIAN_POINT('',(-0.092,0.282,0.118654388347959));
#1689=CARTESIAN_POINT('',(-0.092,0.282,0.118654388347959));
#1690=CARTESIAN_POINT('',(-0.092,0.284,0.118654388347959));
#1691=CARTESIAN_POINT('',(0.092,0.327,0.1329370573908));
#1692=CARTESIAN_POINT('',(0.092,0.284,0.131528969354191));
#1693=CARTESIAN_POINT('',(0.092,0.284,0.120654388347959));
#1694=CARTESIAN_POINT('',(0.092,0.284,0.118654388347959));
#1695=CARTESIAN_POINT('',(0.092,0.28,0.129654388347959));
#1696=CARTESIAN_POINT('',(0.092,0.28,0.131654388347959));
#1697=CARTESIAN_POINT('',(0.092,0.282,0.131654388347959));
#1698=CARTESIAN_POINT('',(0.095,0.282,0.131654388347959));
#1699=CARTESIAN_POINT('',(0.098,0.28,0.131654388347959));
#1700=CARTESIAN_POINT('',(0.097,0.28,0.131654388347959));
#1701=CARTESIAN_POINT('',(0.097,0.232,0.131654388347959));
#1702=CARTESIAN_POINT('',(0.095,0.282,0.122154388347959));
#1703=CARTESIAN_POINT('',(0.095,0.242,0.122539902506858));
#1704=CARTESIAN_POINT('',(0.095,0.242,0.124039902506858));
#1705=CARTESIAN_POINT('',(0.095,0.252,0.122539902506858));
#1706=CARTESIAN_POINT('',(0.095,0.252,0.124039902506858));
#1707=CARTESIAN_POINT('',(0.095,0.262,0.122539902506858));
#1708=CARTESIAN_POINT('',(0.095,0.262,0.124039902506858));
#1709=CARTESIAN_POINT('',(0.095,0.282,0.118654388347959));
#1710=CARTESIAN_POINT('',(0.095,0.282,0.125654388347959));
#1711=CARTESIAN_POINT('',(0.098,0.282,0.129654388347959));
#1712=CARTESIAN_POINT('',(0.098,0.28,0.130654388347959));
#1713=CARTESIAN_POINT('',(0.098,0.28,0.130654388347959));
#1714=CARTESIAN_POINT('',(0.098,0.28,0.129654388347959));
#1715=CARTESIAN_POINT('',(0.098,0.281,0.129654388347959));
#1716=CARTESIAN_POINT('',(0.098,0.281,0.127654388347959));
#1717=CARTESIAN_POINT('',(0.098,0.281,0.128654388347959));
#1718=CARTESIAN_POINT('',(0.098,0.232,0.128654388347959));
#1719=CARTESIAN_POINT('',(-0.095,0.282,0.131654388347959));
#1720=CARTESIAN_POINT('',(-0.097,0.28,0.131654388347959));
#1721=CARTESIAN_POINT('',(-0.097,0.28,0.131654388347959));
#1722=CARTESIAN_POINT('',(-0.095,0.28,0.131654388347959));
#1723=CARTESIAN_POINT('',(-0.098,0.282,0.129654388347959));
#1724=CARTESIAN_POINT('',(-0.098,0.28,0.129654388347959));
#1725=CARTESIAN_POINT('',(-0.098,0.281,0.129654388347959));
#1726=CARTESIAN_POINT('',(-0.098,0.28,0.130654388347959));
#1727=CARTESIAN_POINT('',(-0.098,0.232,0.130654388347959));
#1728=CARTESIAN_POINT('',(-0.098,0.282,0.128654388347959));
#1729=CARTESIAN_POINT('',(-0.098,0.281,0.128654388347959));
#1730=CARTESIAN_POINT('',(-0.098,0.281,0.129654388347959));
#1731=CARTESIAN_POINT('',(-0.095,0.282,0.122154388347959));
#1732=CARTESIAN_POINT('',(-0.095,0.242,0.122539902506858));
#1733=CARTESIAN_POINT('',(-0.095,0.242,0.124039902506858));
#1734=CARTESIAN_POINT('',(-0.095,0.252,0.122539902506858));
#1735=CARTESIAN_POINT('',(-0.095,0.252,0.124039902506858));
#1736=CARTESIAN_POINT('',(-0.095,0.262,0.122539902506858));
#1737=CARTESIAN_POINT('',(-0.095,0.262,0.124039902506858));
#1738=CARTESIAN_POINT('',(-0.095,0.282,0.118654388347959));
#1739=CARTESIAN_POINT('',(-0.095,0.282,0.118654388347959));
#1740=CARTESIAN_POINT('',(-0.095,0.282,0.122154388347959));
#1741=CARTESIAN_POINT('',(-0.095,0.282,0.125654388347959));
#1742=CARTESIAN_POINT('',(-0.095,0.282,0.125654388347959));
#1743=CARTESIAN_POINT('',(0.,0.282,0.135308223440329));
#1744=CARTESIAN_POINT('',(0.,0.282,0.129654388347959));
#1745=CARTESIAN_POINT('',(-0.097,0.282,0.129654388347959));
#1746=CARTESIAN_POINT('',(-0.097,0.282,0.135308223440329));
#1747=CARTESIAN_POINT('',(-0.097,0.282,0.127654388347959));
#1748=CARTESIAN_POINT('',(-0.097,0.282,0.125654388347959));
#1749=CARTESIAN_POINT('',(0.,0.282,0.118654388347959));
#1750=CARTESIAN_POINT('',(-0.1144,0.262,0.122539902506858));
#1751=CARTESIAN_POINT('',(-0.1144,0.252,0.122539902506858));
#1752=CARTESIAN_POINT('',(-0.1144,0.242,0.122539902506858));
#1753=CARTESIAN_POINT('',(-0.1144,0.262,0.122539902506858));
#1754=CARTESIAN_POINT('',(-0.1144,0.252,0.122539902506858));
#1755=CARTESIAN_POINT('',(-0.1144,0.242,0.122539902506858));
#1756=CARTESIAN_POINT('',(-0.097,0.28485017823704,0.118654388347959));
#1757=CARTESIAN_POINT('',(-0.097,0.284,0.118654388347959));
#1758=CARTESIAN_POINT('',(-0.092,0.284,0.118654388347959));
#1759=CARTESIAN_POINT('',(-0.092,0.284,0.120654388347959));
#1760=CARTESIAN_POINT('',(0.097,0.284,0.118654388347959));
#1761=CARTESIAN_POINT('',(0.097,0.282,0.118654388347959));
#1762=CARTESIAN_POINT('',(0.095,0.28,0.129654388347959));
#1763=CARTESIAN_POINT('',(0.097,0.28,0.129654388347959));
#1764=CARTESIAN_POINT('',(0.,0.28,0.129654388347959));
#1765=CARTESIAN_POINT('',(-0.097,0.28,0.129654388347959));
#1766=CARTESIAN_POINT('',(0.097,0.282,0.125654388347959));
#1767=CARTESIAN_POINT('',(0.097,0.282,0.127654388347959));
#1768=CARTESIAN_POINT('',(-0.097,0.282,0.125654388347959));
#1769=CARTESIAN_POINT('',(-0.097,0.282,0.127654388347959));
#1770=CARTESIAN_POINT('',(0.097,0.282,0.130654388347959));
#1771=CARTESIAN_POINT('',(0.097,0.28,0.130654388347959));
#1772=CARTESIAN_POINT('',(0.097,0.28,0.129654388347959));
#1773=CARTESIAN_POINT('',(0.097,0.281,0.129654388347959));
#1774=CARTESIAN_POINT('',(0.097,0.282,0.128654388347959));
#1775=CARTESIAN_POINT('',(0.097,0.281,0.128654388347959));
#1776=CARTESIAN_POINT('',(0.097,0.281,0.129654388347959));
#1777=CARTESIAN_POINT('',(-0.097,0.282,0.130654388347959));
#1778=CARTESIAN_POINT('',(-0.097,0.28,0.130654388347959));
#1779=CARTESIAN_POINT('',(-0.097,0.28,0.129654388347959));
#1780=CARTESIAN_POINT('',(-0.097,0.281,0.129654388347959));
#1781=CARTESIAN_POINT('',(-0.097,0.282,0.128654388347959));
#1782=CARTESIAN_POINT('',(-0.097,0.281,0.128654388347959));
#1783=CARTESIAN_POINT('',(-0.097,0.281,0.135308223440329));
#1784=CARTESIAN_POINT('',(-0.092,0.284,0.131528969354191));
#1785=CARTESIAN_POINT('',(-0.092,0.30292364579411,0.131528969354191));
#1786=CARTESIAN_POINT('',(-0.092,0.30292364579411,0.131528969354191));
#1787=CARTESIAN_POINT('',(-0.092,0.30292364579411,0.124777783524543));
#1788=CARTESIAN_POINT('',(-0.092,0.30292364579411,0.120654388347959));
#1789=CARTESIAN_POINT('',(-0.092,0.30292364579411,0.124777783524543));
#1790=CARTESIAN_POINT('',(0.092,0.30292364579411,0.124777783524543));
#1791=CARTESIAN_POINT('',(0.092,0.30292364579411,0.131528969354191));
#1792=CARTESIAN_POINT('',(0.092,0.30292364579411,0.120654388347959));
#1793=CARTESIAN_POINT('',(-0.092,0.30292364579411,0.120654388347959));
#1794=CARTESIAN_POINT('',(0.092,0.327,0.1329370573908));
#1795=CARTESIAN_POINT('',(0.092,0.279005646274057,0.133308223440329));
#1796=CARTESIAN_POINT('',(0.092,0.303595501083074,0.124538163937219));
#1797=CARTESIAN_POINT('',(0.092,0.30292364579411,0.122654388347959));
#1798=CARTESIAN_POINT('',(-0.092,0.327,0.1329370573908));
#1799=CARTESIAN_POINT('',(-0.092,0.279005646274057,0.133308223440329));
#1800=CARTESIAN_POINT('',(-0.092,0.303595501083074,0.124538163937219));
#1801=CARTESIAN_POINT('',(-0.092,0.30292364579411,0.122654388347959));
#1802=CARTESIAN_POINT('',(-0.092,0.279005646274057,0.133308223440329));
#1803=CARTESIAN_POINT('',(0.092,0.303595501083074,0.124538163937219));
#1804=CARTESIAN_POINT('',(-0.092,0.30292364579411,0.122654388347959));
#1805=MECHANICAL_DESIGN_GEOMETRIC_PRESENTATION_REPRESENTATION('',(#1082),
#1806);
#1806=(
GEOMETRIC_REPRESENTATION_CONTEXT(3)
GLOBAL_UNCERTAINTY_ASSIGNED_CONTEXT((#1807))
GLOBAL_UNIT_ASSIGNED_CONTEXT((#1810,#1809,#1808))
REPRESENTATION_CONTEXT('Back Top','TOP_LEVEL_ASSEMBLY_PART')
);
#1807=UNCERTAINTY_MEASURE_WITH_UNIT(LENGTH_MEASURE(1.E-8),#1810,
'DISTANCE_ACCURACY_VALUE','Maximum Tolerance applied to model');
#1808=(
NAMED_UNIT(*)
SI_UNIT($,.STERADIAN.)
SOLID_ANGLE_UNIT()
);
#1809=(
NAMED_UNIT(*)
PLANE_ANGLE_UNIT()
SI_UNIT($,.RADIAN.)
);
#1810=(
LENGTH_UNIT()
NAMED_UNIT(*)
SI_UNIT($,.METRE.)
);
#1811=PRODUCT_DEFINITION_SHAPE('','',#1812);
#1812=PRODUCT_DEFINITION('','',#1814,#1813);
#1813=PRODUCT_DEFINITION_CONTEXT('',#1820,'design');
#1814=PRODUCT_DEFINITION_FORMATION_WITH_SPECIFIED_SOURCE('','',#1816,
 .NOT_KNOWN.);
#1815=PRODUCT_RELATED_PRODUCT_CATEGORY('','',(#1816));
#1816=PRODUCT('Back Top','Back Top','Back Top',(#1818));
#1817=PRODUCT_CATEGORY('','');
#1818=PRODUCT_CONTEXT('',#1820,'mechanical');
#1819=APPLICATION_PROTOCOL_DEFINITION('international standard',
'automotive_design',2010,#1820);
#1820=APPLICATION_CONTEXT(
'core data for automotive mechanical design processes');
ENDSEC;
END-ISO-10303-21;
